<?xml version="1.0" encoding="UTF-8" standalone="no"?>
<!-- Created with Inkscape (http://www.inkscape.org/) -->

<svg
   version="1.1"
   id="svg1"
   width="389.64706"
   height="152.4706"
   viewBox="0 0 389.64706 152.4706"
   sodipodi:docname="logo_basic.svg"
   inkscape:version="1.4.2 (ebf0e94, 2025-05-08)"
   xmlns:inkscape="http://www.inkscape.org/namespaces/inkscape"
   xmlns:sodipodi="http://sodipodi.sourceforge.net/DTD/sodipodi-0.dtd"
   xmlns="http://www.w3.org/2000/svg"
   xmlns:svg="http://www.w3.org/2000/svg">
  <defs
     id="defs1" />
  <sodipodi:namedview
     id="namedview1"
     pagecolor="#ffffff"
     bordercolor="#666666"
     borderopacity="1.0"
     inkscape:showpageshadow="2"
     inkscape:pageopacity="0.0"
     inkscape:pagecheckerboard="0"
     inkscape:deskcolor="#d1d1d1"
     inkscape:zoom="1.554612"
     inkscape:cx="184.61198"
     inkscape:cy="72.365323"
     inkscape:window-width="2560"
     inkscape:window-height="1411"
     inkscape:window-x="0"
     inkscape:window-y="0"
     inkscape:window-maximized="1"
     inkscape:current-layer="g1" />
  <g
     inkscape:groupmode="layer"
     inkscape:label="Image"
     id="g1">
    <path
       style="fill:#000000"
       d="m 61.321579,141.06231 c -8.919839,-1.24585 -19.285904,-7.01169 -28.617291,-15.91758 -4.917499,-4.69327 -5.47114,-6.65175 -2.441533,-8.63683 1.109244,-0.7268 2.016807,-2.07231 2.016807,-2.99001 0,-0.91771 -1.989782,-4.95999 -4.421736,-8.98285 -5.016959,-8.298899 -11.822408,-24.223869 -16.114798,-37.709149 -1.599152,-5.02401 -3.3181166,-9.94623 -3.8199226,-10.93828 -1.150226,-2.27394 -1.086234,-10.35664 0.106396,-13.43846 3.7319396,-9.64353 19.6735316,-19.06355 39.1744306,-23.14851 10.667919,-2.23466 15.786067,-2.07048 18.969883,0.60853 2.856613,2.40368 5.766697,8.06155 8.828153,17.16395 l 2.050704,6.0972 3.010525,-0.0907 c 1.655789,-0.0499 3.551495,-0.53968 4.212685,-1.08842 1.06456,-0.88351 1.06204,-1.33482 -0.022,-3.9429 -1.55907,-3.75083 -7.593995,-13.80843 -9.337524,-15.56159 -0.731294,-0.73534 -1.561853,-2.3943 -1.845688,-3.68659 -1.221703,-5.56238 6.129329,-7.49922 30.60389,-8.06349 21.18276,-0.48838 30.58453,0.65245 34.24018,4.15479 5.16336,4.94681 14.90529,23.92033 31.41418,61.18273 6.83498,15.42732 12.50113,25.996589 15.60745,29.113149 2.00658,2.01319 2.74575,2.26129 5.5975,1.87879 1.8071,-0.24238 3.65722,-0.81228 4.11139,-1.26645 0.5632,-0.5632 -0.97293,-3.59743 -4.83112,-9.542659 -6.10664,-9.40995 -8.25196,-13.28008 -19.43041,-35.0522 -4.97525,-9.69023 -7.16617,-14.7783 -6.86291,-15.93799 0.79799,-3.05151 7.73368,-4.46414 22.03609,-4.48822 16.19744,-0.0273 20.67772,1.15363 23.61365,6.224 1.0918,1.88555 5.85292,12.5039 10.58027,23.59634 4.72736,11.09244 9.97349,22.70924 11.65808,25.81512 2.63056,4.849969 3.40328,5.681099 5.47437,5.888199 2.65407,0.2654 6.75767,-1.01273 6.75767,-2.10478 0,-0.381429 -1.86597,-3.748399 -4.14659,-7.482159 -5.66528,-9.27502 -9.48773,-17.44231 -15.12165,-32.30988 -5.87814,-15.51204 -9.61471,-23.09482 -12.4082,-25.18046 -3.20452,-2.39252 -15.93338,-2.71386 -34.77781,-0.87797 l -15.27392,1.48804 -2.77704,-3.18948 c -6.58045,-7.55779 -11.02435,-20.33179 -7.95836,-22.8763397 1.73999,-1.44406 11.79146,-3.08258 25.90894,-4.22349 17.09044,-1.38116 112.66329,-1.45874 124.17241,-0.10078 12.58316,1.48467 18.21415,5.5022197 18.21415,12.9952397 v 2.72358 l -9.47899,-0.56052 c -10.00388,-0.59155 -27.46594,0.44799 -40.53782,2.41328 -8.93562,1.34342 -12.78568,2.35577 -14.93426,3.92684 -1.44194,1.05438 -1.47425,1.43063 -0.46832,5.45286 3.82807,15.30661 11.55419,33.39847 22.84381,53.49223 6.17818,10.99619 7.02252,12.12729 9.55042,12.79395 3.13516,0.82681 13.54094,0.19402 14.62428,-0.88932 0.4098,-0.4098 -1.29398,-1.94808 -4.02408,-3.63319 -9.79842,-6.04793 -19.90037,-18.9547 -24.77567,-31.65467 -1.18671,-3.09132 -2.57808,-6.49442 -3.09195,-7.56244 -0.51387,-1.06802 -0.93431,-4.69828 -0.93431,-8.06723 0,-7.39864 1.72153,-10.75946 7.45754,-14.55884 7.64593,-5.06446 18.11815,-6.87207 36.10548,-6.23219 19.24954,0.68478 29.36893,3.40058 41.02599,11.01039 14.76751,9.64033 23.10847,25.9759 23.10847,45.25737 v 7.86501 l -3.42857,5.10322 c -4.28666,6.380439 -10.10107,10.519359 -18.71443,13.321659 -6.15067,2.00108 -7.75961,2.14829 -30.29398,2.77162 -13.08907,0.36206 -27.61008,1.02553 -32.2689,1.47438 -12.29011,1.18407 -30.52772,1.03606 -40.7395,-0.33062 -16.27214,-2.17776 -24.84556,-1.55467 -50.42017,3.66438 -16.34072,3.33468 -33.88091,5.93269 -46.41422,6.87474 l -7.28817,0.54781 -2.05458,-2.72446 c -3.75011,-4.97281 -13.26905,-21.130589 -18.84366,-31.985889 -3.0241,-5.88875 -5.6847,-10.52047 -5.91245,-10.29272 -0.22776,0.22776 -0.9195,-0.005 -1.53722,-0.51801 -0.86301,-0.71624 -1.40166,-0.65356 -2.32586,0.27065 -0.96189,0.96188 -1.02445,1.67172 -0.31241,3.54453 0.48969,1.28798 1.13991,2.53069 1.44492,2.76157 0.30502,0.23088 1.5895,2.59793 2.85441,5.26011 1.26491,2.66219 5.12404,9.55967 8.57586,15.327739 7.15692,11.95939 9.69573,16.7844 9.69573,18.42672 0,1.88314 -19.95065,8.44221 -31.92773,10.49671 -2.31862,0.39773 -2.70907,0.081 -5.9197,-4.80239 -4.230468,-6.43455 -12.157318,-22.87965 -16.226328,-33.663279 -3.059946,-8.10943 -4.382698,-9.84134 -6.806106,-8.91139 -1.00854,0.38702 -1.194771,1.10297 -0.787246,3.0265 0.630342,2.97523 7.228322,17.270409 15.444412,33.461839 3.2321,6.36951 5.67428,11.90823 5.42705,12.30826 -0.84248,1.36315 -4.88849,3.02531 -11.42932,4.69534 -6.977544,1.78152 -15.161765,2.02826 -24.413688,0.73603 z M 331.06728,75.325901 c 5.48633,-2.61625 5.78158,-6.89212 0.85265,-12.34786 -3.28183,-3.6326 -8.43121,-5.69007 -14.24091,-5.69007 -9.37907,0 -10.54493,8.93865 -2.15454,16.51886 2.85867,2.58264 3.58605,2.84248 7.95693,2.84248 2.7936,0 5.97426,-0.55489 7.58587,-1.32341 z"
       id="path1" />
  </g>
</svg>
