<?xml version="1.0" encoding="UTF-8" standalone="no"?>
<!-- Created with Inkscape (http://www.inkscape.org/) -->

<svg
   version="1.1"
   id="svg1"
   width="403.36133"
   height="201.68066"
   viewBox="0 0 403.36133 201.68066"
   sodipodi:docname="logo.svg"
   inkscape:version="1.4.2 (ebf0e94, 2025-05-08)"
   xmlns:inkscape="http://www.inkscape.org/namespaces/inkscape"
   xmlns:sodipodi="http://sodipodi.sourceforge.net/DTD/sodipodi-0.dtd"
   xmlns="http://www.w3.org/2000/svg"
   xmlns:svg="http://www.w3.org/2000/svg">
  <defs
     id="defs1" />
  <sodipodi:namedview
     id="namedview1"
     pagecolor="#ffffff"
     bordercolor="#666666"
     borderopacity="1.0"
     inkscape:showpageshadow="2"
     inkscape:pageopacity="0.0"
     inkscape:pagecheckerboard="0"
     inkscape:deskcolor="#d1d1d1"
     inkscape:zoom="4.0955835"
     inkscape:cx="81.673344"
     inkscape:cy="128.91936"
     inkscape:window-width="1920"
     inkscape:window-height="1024"
     inkscape:window-x="0"
     inkscape:window-y="0"
     inkscape:window-maximized="1"
     inkscape:current-layer="g1" />
  <g
     inkscape:groupmode="layer"
     inkscape:label="Image"
     id="g1">
    <path
       style="fill:#000000"
       d="m 98.707404,201.88833 c -21.37921,-2.1682 -42.2646,-10.03177 -57.98323,-21.8313 -9.54223,-7.16307 -16.04559,-15.45135 -22.68618,-28.91265 C 6.8676042,128.50058 2.1581542,109.02027 0.99153422,80.632912 0.60526422,71.233792 0.77486422,67.730042 1.8322842,63.263732 7.2863142,40.227252 24.818584,27.969962 68.051944,16.967772 96.293124,9.7808524 127.3991,5.7488624 168.48891,3.9490324 c 104.07319,-4.55863998 135.27642,-4.10350998 164.57142,2.40046 28.37383,6.2994496 48.78983,19.2202796 58.83613,37.2360596 5.92211,10.61997 12.16471,33.08981 12.14961,43.73173 -0.007,4.81245 -4.66105,28.466568 -7.55866,38.415328 -7.74773,26.6014 -22.26573,40.42494 -49.14212,46.79147 -13.91054,3.29515 -17.46474,3.49551 -63.49504,3.57945 -51.84629,0.0945 -47.36509,-0.39966 -80.67226,8.89688 -33.48256,9.34548 -47.29884,12.58841 -65.34454,15.33754 -8.20685,1.25025 -32.56733,2.21554 -39.126046,1.55038 z m 37.384416,-3.19628 c 14.43449,-1.88606 32.9122,-6.11611 61.54617,-14.0896 14.36128,-3.99908 29.05571,-7.79138 32.65429,-8.42734 13.52948,-2.391 29.64999,-2.99138 55.71731,-2.0751 35.64488,1.25295 53.11583,-0.23002 69.8042,-5.9251 17.3723,-5.92848 28.48931,-16.25808 35.40698,-32.89914 2.1308,-5.12581 7.99082,-25.80973 7.99082,-28.20493 0,-0.46445 -1.45681,0.99855 -3.23737,3.25112 -4.32413,5.47045 -10.39245,10.15579 -15.09905,11.65796 -12.50087,3.98981 -24.95339,4.73376 -83.83446,5.00853 -56.34677,0.26295 -58.75694,0.40543 -82.56861,4.88143 -16.85348,3.16804 -36.25324,8.39318 -60.5042,16.29624 -29.19104,9.51297 -39.99029,12.11027 -56.094726,13.4912 -12.92849,1.1086 -34.63704,-3.7883 -47.16577,-10.63941 -20.05116,-10.96461 -37.66325,-30.52156 -44.4794698,-49.39122 -2.53905,-7.028978 -2.80727,-5.979938 -1.10997,4.34122 4.0102,24.38578 14.8645298,49.95178 27.2289698,64.13445 7.5779,8.69224 25.65312,19.72919 40.14199,24.51118 17.97606,5.93291 39.062256,7.28506 63.602896,4.07851 z m 28.6179,-19.72299 c -2.61949,-1.05302 -3.71197,-3.76221 -3.28961,-8.15778 0.50221,-5.2266 3.58366,-9.73012 8.18015,-11.95524 5.8272,-2.8209 12.60294,-2.15405 12.60294,1.24035 0,1.6224 -4.80257,3.91265 -5.9011,2.81411 -2.60218,-2.60217 -7.23037,0.59855 -8.12295,5.6176 -1.04975,5.90283 4.41751,7.63898 7.42273,2.35712 1.0658,-1.87322 1.92118,-2.3872 3.97947,-2.39121 3.11438,-0.006 3.20937,0.49749 0.7755,4.1109 -3.13152,4.64915 -11.47331,8.04201 -15.64713,6.36415 z m 20.28386,-11.76493 c 0.32021,-3.95219 0.87946,-7.49769 1.24276,-7.87888 0.36331,-0.38118 1.77041,-0.78037 3.12689,-0.88708 1.35648,-0.10671 2.93233,-0.55528 3.50189,-0.99683 1.95829,-1.51815 3.85909,-1.85829 3.85909,-0.69057 0,1.97742 -0.94913,3.67092 -2.05738,3.67092 -1.98712,0 -3.58968,3.46251 -3.58968,7.75591 0,3.7323 -0.20383,4.22117 -1.94186,4.65739 -1.06803,0.26806 -2.56783,0.72758 -3.33289,1.02116 -1.27838,0.49056 -1.34388,-0.0481 -0.80882,-6.65202 z m 15.96312,0.35425 c -1.09348,-1.09348 -1.44245,-12.44346 -0.40056,-13.02797 0.33277,-0.18669 1.60336,-0.57805 2.82353,-0.8697 l 2.21848,-0.53027 v 4.91486 c 0,4.21931 0.19693,4.87693 1.39151,4.64688 1.9393,-0.37348 3.42285,-3.66997 3.43694,-7.63695 0.0108,-3.02752 0.25622,-3.43483 2.55244,-4.2353 1.3973,-0.4871 2.66789,-0.88564 2.82353,-0.88564 0.15564,0 0.28298,3.10324 0.28298,6.89609 v 6.89608 l -2.62185,1.10682 c -2.334,0.98531 -2.68205,0.95889 -3.17019,-0.24062 -0.30159,-0.7411 -0.57386,-0.93541 -0.60504,-0.43182 -0.14413,2.32739 -7.09667,5.03264 -8.73177,3.39754 z m 17.54902,-4.4013 c 0,-0.20838 1.24852,-2.23283 2.7745,-4.49877 l 2.7745,-4.1199 -2.08028,-2.72738 c -1.14415,-1.50006 -1.93889,-2.85085 -1.76609,-3.00176 0.17279,-0.15091 1.65591,-0.51683 3.29581,-0.81315 2.53415,-0.4579 3.12139,-0.27763 3.91281,1.20115 0.92576,1.7298 0.94,1.72645 2.44935,-0.57666 1.29098,-1.96988 6.0716,-4.11126 7.03271,-3.15015 0.13914,0.13914 -0.90191,1.89145 -2.31345,3.89401 l -2.56643,3.64103 2.22973,2.92333 c 1.22635,1.60783 2.04257,3.11048 1.81383,3.33923 -0.22875,0.22874 -1.69633,0.62369 -3.2613,0.87764 -2.39659,0.38892 -3.00155,0.16996 -3.83545,-1.3882 l -0.99006,-1.84994 -2.11324,2.57041 c -1.76092,2.14186 -7.35694,4.94036 -7.35694,3.67911 z m 76.43697,-3.3763 c -1.22017,-0.15014 -2.21849,-0.49799 -2.21849,-0.77299 0,-0.275 0.70354,-3.06433 1.56342,-6.19851 0.85989,-3.13419 1.96295,-7.24137 2.45127,-9.12709 0.79289,-3.06193 1.14332,-3.42857 3.27691,-3.42857 1.31399,0 2.38113,0.27227 2.37141,0.60504 -0.0307,1.05323 -4.66694,18.87486 -4.95278,19.03859 -0.15029,0.0861 -1.27157,0.0337 -2.49174,-0.11647 z m 7.4606,-0.97412 c -1.44839,-1.44839 -1.58559,-1.9396 -0.69868,-2.50145 1.50413,-0.95287 4.52726,-0.90411 5.13724,0.0829 0.75996,1.22964 3.63025,0.9614 3.63025,-0.33926 0,-0.64009 -1.15741,-1.39347 -2.62185,-1.7066 -1.44202,-0.30834 -3.07563,-0.92617 -3.63025,-1.37296 -1.50043,-1.20871 -1.22014,-4.20672 0.54243,-5.80182 3.25211,-2.94313 11.35673,-2.31343 11.35673,0.88237 0,1.07962 -0.65917,1.19819 -4.11364,0.73994 -3.15306,-0.41827 -4.03378,-0.3061 -3.77162,0.48037 0.18811,0.56434 1.43565,1.24974 2.7723,1.52311 3.56162,0.72843 4.30624,1.40349 4.30624,3.90399 0,3.14261 -2.5149,5.08618 -7.15869,5.53239 -3.31128,0.31817 -4.23888,0.0886 -5.75046,-1.42294 z m -25.01132,-1.39745 c -4.21315,-5.35616 2.6459,-14.2647 9.77704,-12.69844 4.67043,1.0258 6.09833,5.11347 3.52473,10.09026 -2.58784,5.00433 -10.23716,6.50419 -13.30177,2.60818 z m 8.42934,-3.62081 c 1.63347,-2.33209 1.59908,-4.57975 -0.0799,-5.22404 -1.69455,-0.65026 -4.31133,2.43887 -4.31133,5.08956 0,2.52016 2.66311,2.60172 4.39123,0.13448 z m -24.54589,3.9824 c -6.7394,-3.4099 -1.07282,-14.27878 7.44878,-14.28727 3.48778,-0.003 6.2521,2.23004 6.2521,5.05158 0,2.97362 -2.74751,7.21731 -5.6968,8.79903 -3.21588,1.7247 -5.24012,1.83513 -8.00408,0.43666 z m 6.798,-4.78912 c 0.6907,-0.98612 1.25582,-2.64498 1.25582,-3.68636 0,-2.60047 -3.15821,-2.1253 -4.74655,0.71414 -2.21408,3.95806 0.92695,6.63252 3.49073,2.97222 z m -23.75258,4.71523 c 0,-0.54322 2.38884,-11.03475 2.91551,-12.80464 0.35003,-1.17626 -0.10859,-1.41176 -2.74927,-1.41176 -2.95064,0 -3.14262,-0.14002 -2.78157,-2.02873 0.2133,-1.1158 0.70248,-2.2232 1.08708,-2.46089 0.38459,-0.2377 4.51603,-0.69355 9.18098,-1.01301 7.67105,-0.52533 8.48173,-0.44984 8.48173,0.78982 0,2.05935 -2.25482,3.90609 -4.76922,3.90609 -2.16649,0 -2.28108,0.22485 -3.80304,7.46218 l -1.56925,7.46219 -2.99647,0.25038 c -1.64806,0.1377 -2.99648,0.0695 -2.99648,-0.15163 z m -140.19812,1.45753 c 2.97842,-0.29025 5.93146,-0.94066 6.56231,-1.44536 0.76159,-0.6093 1.32357,-3.42507 1.67249,-8.37983 0.28903,-4.1042 0.35714,-7.46219 0.15137,-7.46219 -0.20577,0 -3.75831,0.90665 -7.89453,2.01478 -19.637946,5.26115 -37.846816,0.58131 -52.907506,-13.59771 -2.33434,-2.19768 -4.38681,-3.84856 -4.56105,-3.66861 -0.17424,0.17995 -0.57176,4.68348 -0.88337,10.00785 l -0.56658,9.68067 5.53099,2.94206 c 12.87187,6.84686 32.98865,11.72092 44.25367,10.72215 1.77479,-0.15735 5.663776,-0.52357 8.642206,-0.81381 z m 14.72664,-2.72412 c 0.19662,-0.31814 0.75625,-4.56708 1.24361,-9.44209 l 0.88612,-8.86364 -2.98812,-4.38086 c -3.47044,-5.08799 -12.59198,-23.82723 -16.53592,-33.971298 -2.972356,-7.6451 -3.925716,-7.78059 -3.945376,-0.5607 -0.0144,5.294548 2.43668,11.193608 11.467226,27.598308 3.13508,5.69511 5.72064,11.322 5.74569,12.50421 0.0251,1.1822 -0.24516,5.81273 -0.60047,10.29007 l -0.64602,8.14061 2.50788,-0.36808 c 1.37933,-0.20244 2.66875,-0.62838 2.86538,-0.94653 z m 22.80222,-6.08982 c 6.45951,-2.01729 9.99272,-3.52547 10.22802,-4.36592 0.19772,-0.70619 0.60987,-4.69728 0.9159,-8.86908 0.52795,-7.19697 0.47931,-7.55426 -0.95071,-6.98252 -5.67811,2.27017 -19.17532,6.296 -23.72261,7.07577 l -5.45061,0.93468 -0.52209,6.90883 c -0.28715,3.79986 -0.70963,7.87665 -0.93886,9.05954 l -0.41677,2.1507 5.49459,-1.41503 c 3.02203,-0.77827 9.93544,-2.80191 15.36314,-4.49697 z m 16.44273,-5.36966 c 3.62483,-1.08602 3.65454,-1.16256 4.34283,-11.18597 0.46811,-6.81701 0.35399,-7.90351 -1.01677,-9.68067 -3.15411,-4.08922 -12.99978,-20.89943 -18.40348,-31.421568 -5.13177,-9.99262 -5.62104,-10.67283 -6.09291,-8.47059 -1.48738,6.9416 -0.85339,8.70605 8.9767,24.982758 10.07112,16.67581 9.86867,16.09529 8.9011,25.52401 -0.97019,9.45433 -1.02001,11.18187 -0.32243,11.18187 0.2813,0 1.90803,-0.41843 3.61496,-0.92984 z M 44.709934,132.65699 c 0.55578,-9.3119 0.67648,-9.80853 2.8854,-11.87197 1.26794,-1.18443 2.30535,-2.80047 2.30535,-3.59119 0,-0.79071 -1.98585,-4.7291 -4.413,-8.75196 -5.26884,-8.732808 -10.47713,-20.842278 -15.81036,-36.759668 -2.15562,-6.43362 -3.95045,-11.15295 -3.98852,-10.4874 -0.0381,0.66555 -1.24606,14.8051 -2.68443,31.42122 l -2.61521,30.211138 3.73545,4.47794 c 3.4345,4.11716 10.65494,10.80643 16.43634,15.2272 1.73241,1.3247 2.51837,1.54298 2.96334,0.82299 0.33307,-0.53892 0.86661,-5.35316 1.18564,-10.6983 z m 132.458126,6.33656 c 24.09847,-6.98386 50.14434,-11.99959 69.02522,-13.29239 6.13237,-0.41989 30.99959,-0.73523 55.2605,-0.70074 43.91174,0.0624 59.29138,-0.56393 71.73655,-2.92155 10.22612,-1.93725 17.14138,-6.25024 17.15305,-10.69823 0.003,-1.20221 0.23183,-4.72702 0.50816,-7.8329 l 0.50243,-5.647058 -2.50454,3.393378 c -3.43611,4.65556 -9.78505,8.74734 -17.46977,11.25894 -6.11078,1.99719 -7.71861,2.14428 -30.2521,2.76759 -13.08907,0.36206 -27.61008,1.02553 -32.26891,1.47438 -12.2901,1.18407 -30.52771,1.03606 -40.73949,-0.33062 -16.27214,-2.17776 -24.84556,-1.55467 -50.42017,3.66438 -15.98147,3.26137 -33.41552,5.85692 -46.18487,6.87591 -6.92689,0.55277 -7.05893,0.60269 -7.06456,2.67084 -0.003,1.15916 -0.23716,4.55797 -0.52001,7.55293 -0.28286,2.99496 -0.27718,5.44538 0.0126,5.44538 0.28979,0 6.24144,-1.65611 13.2259,-3.68024 z M 21.939164,83.671772 c 1.60837,-19.36204 3.3047,-36.20421 3.76962,-37.42705 3.60753,-9.48852 19.71041,-18.9722 39.11627,-23.03724 10.61561,-2.2237 15.78993,-2.06723 18.92691,0.57237 1.38209,1.16295 3.1679,3.39119 3.96846,4.95165 l 1.45557,2.8372 0.51095,-5.47167 c 0.30829,-3.30135 1.03187,-6.04728 1.82425,-6.92285 2.54662,-2.81398 11.671756,-4.19753 30.187806,-4.57706 13.31245,-0.27287 19.01823,-0.0658 24.54414,0.89082 8.53232,1.47705 9.68882,2.39788 15.66026,12.46899 l 3.96958,6.6949 0.48316,-4.27473 c 0.26574,-2.35111 0.71912,-6.90065 1.00753,-10.11011 0.2884,-3.20946 0.98037,-6.21383 1.53771,-6.67638 1.62947,-1.35234 11.92478,-3.01419 25.80602,-4.1655396 16.71314,-1.38625 112.36129,-1.44141 124.08656,-0.0716 8.84371,1.0331896 14.15801,3.1427996 16.38105,6.5027596 0.9095,1.37464 1.60413,4.4005 1.88195,8.1979 l 0.44035,6.01903 6.05042,0.94324 c 8.02028,1.25033 12.29783,2.45958 18.26194,5.16257 16.08443,7.28962 25.93815,19.11375 30.25909,36.30991 1.56111,6.21279 1.67172,8.14585 1.1771,20.57143 -0.30026,7.542848 -0.74615,14.984868 -0.99087,16.537808 l -0.44495,2.82353 2.08202,-2.42017 c 3.44954,-4.00978 6.84265,-11.753908 7.8262,-17.861768 1.12379,-6.97885 -0.36643,-17.45853 -4.25387,-29.91448 -4.66898,-14.9601 -9.69159,-23.75372 -18.12222,-31.72846 C 356.0518,8.4658024 316.31808,0.53303242 241.90067,3.0568024 c -14.42016,0.48904 -36.74621,1.24878 -49.61344,1.6883 -68.33514,2.33419 -107.042116,7.6054296 -142.789906,19.4455596 -19.71497,6.52985 -32.0978,14.15942 -39.02851,24.04704 -5.6191498,8.01649 -7.3218298,13.92656 -7.3353698,25.4613 -0.0121,10.33582 1.3293,17.75488 5.07668,28.077468 2.2497198,6.19712 9.4639298,18.6289 10.2740198,17.70456 0.2919,-0.33306 1.84666,-16.44723 3.45502,-35.809258 z M 280.82504,115.48261 c -0.99832,-0.19229 -2.63193,-0.19229 -3.63025,0 -0.99832,0.19228 -0.18151,0.34961 1.81513,0.34961 1.99663,0 2.81344,-0.15733 1.81512,-0.34961 z m -8.06722,-0.77167 c -0.55463,-0.22379 -1.46219,-0.22379 -2.01681,0 -0.55462,0.2238 -0.10084,0.4069 1.0084,0.4069 1.10925,0 1.56303,-0.1831 1.00841,-0.4069 z m -60.4976,-4.99837 c 0.55504,-0.55504 -1.12135,-3.81175 -5.19283,-10.088098 -3.30686,-5.09766 -10.16335,-17.33028 -15.23665,-27.18361 l -9.22418,-17.91515 -0.68291,6.53242 -0.68291,6.53243 5.67588,12.56308 c 7.04418,15.59172 12.62112,25.910808 15.64083,28.940468 2.00657,2.01319 2.74575,2.26129 5.5975,1.87879 1.80709,-0.24238 3.65446,-0.80953 4.10527,-1.26033 z m 46.93247,-4.12806 c 1.13813,-0.43271 2.06933,-1.09883 2.06933,-1.48025 0,-0.38143 -1.86596,-3.7484 -4.14658,-7.482148 -5.66529,-9.27502 -9.48774,-17.44231 -15.12166,-32.30988 -5.89245,-15.54983 -9.61535,-23.09529 -12.43305,-25.19902 -3.15438,-2.35508 -16.77576,-2.70784 -34.58679,-0.89572 -7.68945,0.78233 -14.15069,1.57156 -14.35831,1.75382 -0.66182,0.58102 -2.23803,20.63835 -1.7585,22.37694 0.39913,1.44713 0.53279,1.34699 1.00118,-0.75009 0.2973,-1.33109 0.58846,-4.23529 0.64701,-6.45378 0.18141,-6.87302 0.58526,-7.52319 5.62526,-9.05611 6.52999,-1.98611 27.69933,-1.99575 34.11378,-0.0155 5.70864,1.76231 5.93068,2.12519 16.41086,26.81955 7.59915,17.90581 12.20951,27.818488 14.72113,31.651708 1.30365,1.98961 4.27846,2.38562 7.81634,1.04052 z m 126.40752,-3.04517 c 1.00346,-1.27951 0.97492,-1.30805 -0.30458,-0.30459 -1.3438,1.05388 -1.77115,1.71635 -1.10719,1.71635 0.16752,0 0.80282,-0.63529 1.41177,-1.41176 z m -66.9407,-0.8059 c 0.45454,-0.45454 -1.09888,-1.881918 -3.99052,-3.666748 -6.13047,-3.78394 -15.25386,-13.42334 -19.35037,-20.44481 -3.4546,-5.92123 -7.42681,-15.08018 -7.44711,-17.17121 -0.0108,-1.11626 -0.10846,-1.12396 -0.79437,-0.0626 -0.43011,0.66555 -0.77628,4.2958 -0.76928,8.06723 l 0.0127,6.85714 7.4953,13.2883 c 5.62483,9.97216 7.98408,13.437788 9.4539,13.887338 2.56622,0.78489 14.43203,0.20304 15.38971,-0.75464 z M 96.080804,94.068752 c 0.42058,-3.91546 0.20553,-4.3181 -1.67092,-3.12847 -0.8571,0.54338 -0.88675,1.36164 -0.14866,4.10269 0.50709,1.88317 1.03132,3.29654 1.16498,3.14082 0.13365,-0.15571 0.42822,-2.00748 0.6546,-4.11504 z m 38.922606,-12.57794 c -0.2394,-0.2394 -0.99016,0.11963 -1.66837,0.79784 -1.04072,1.04071 -1.07209,1.58649 -0.2011,3.4981 l 1.032,2.265 0.63636,-3.06284 c 0.35,-1.68457 0.4405,-3.25871 0.20111,-3.4981 z m 213.68498,-2.25808 c 5.48632,-2.61625 5.78158,-6.89212 0.85264,-12.34786 -3.28183,-3.6326 -8.4312,-5.69007 -14.24091,-5.69007 -9.37907,0 -10.54493,8.93865 -2.15454,16.51886 2.85867,2.58264 3.58606,2.84248 7.95694,2.84248 2.79359,0 5.97426,-0.55489 7.58587,-1.32341 z M 286.3515,44.852912 c 0.91045,-3.489 5.05227,-7.96009 9.45417,-10.20577 6.05113,-3.08705 12.31242,-4.22753 25.69169,-4.67965 12.27243,-0.41472 13.06755,-0.53813 13.47369,-2.09125 0.2374,-0.90778 0.26711,-1.9167 0.066,-2.24203 -0.7748,-1.25366 -16.06021,-1.69264 -27.92634,-0.80202 -19.48591,1.46252 -31.58573,3.54491 -34.96787,6.01799 -1.44365,1.05562 -1.47485,1.42583 -0.45947,5.45285 1.98131,7.85793 5.74939,18.73302 9.18373,26.50522 l 3.38647,7.66386 0.65349,-11.29412 c 0.35941,-6.21176 1.0094,-12.65805 1.4444,-14.32508 z m -108.58683,2.65138 0.57815,-8.85018 -2.40188,-3.04898 c -1.32103,-1.67694 -3.48176,-5.19349 -4.80162,-7.81456 l -2.39975,-4.76558 -0.5692,7.54004 -0.56919,7.54003 4.2758,9.11973 c 2.35169,5.01585 4.50839,9.12197 4.79267,9.1247 0.28428,0.003 0.77704,-3.9776 1.09502,-8.8452 z m 202.08558,3.75741 c 0,-0.13884 -1.17983,-1.31867 -2.62185,-2.62185 l -2.62185,-2.36942 2.36942,2.62185 c 2.20863,2.44393 2.87428,2.99266 2.87428,2.36942 z m -277.80531,-5.56925 c 0.83468,-0.83985 0.72823,-1.70586 -0.56347,-4.58405 -2.397696,-5.3426 -8.975656,-15.41118 -9.754066,-14.9301 -1.98865,1.22905 0.17087,16.00461 3.01072,20.59958 0.68394,1.10664 5.897996,0.33209 7.306816,-1.08543 z m 106.98179,0.44707 c -0.55463,-0.2238 -1.46219,-0.2238 -2.01681,0 -0.55462,0.22379 -0.10084,0.4069 1.0084,0.4069 1.10925,0 1.56303,-0.18311 1.00841,-0.4069 z m 125.04201,-14.52101 c -0.55462,-0.2238 -1.46219,-0.2238 -2.01681,0 -0.55462,0.22379 -0.10084,0.4069 1.0084,0.4069 1.10925,0 1.56303,-0.18311 1.00841,-0.4069 z m 0.82207,-8.86883 c -0.54617,-0.22098 -1.63525,-0.23443 -2.42016,-0.0299 -0.78492,0.20454 -0.33805,0.38534 0.99305,0.40178 1.33109,0.0164 1.97329,-0.15091 1.42711,-0.37189 z m -196.84459,-6.4925 c -0.99221,-0.19149 -2.80734,-0.19644 -4.03361,-0.011 -1.22627,0.18543 -0.41445,0.3421 1.80403,0.34815 2.21849,0.006 3.2218,-0.14566 2.22958,-0.33714 z"
       id="path1"
       sodipodi:nodetypes="sssscsssscsssssssssssssssssssssssssssssssscssssssssssssssscsssssscsssssscssssssscsssscsssssssssssssssssssssssssssssssssscsssssssssssssssscsssssssssscssssscsssscscssssssscsscsssssssssssssssscscsssssssscscssssssscssssscssscssssscssssssscssssscsssssssscsssssssssssssscccsssssssssssssssssssssssssssssscsssssssssssscsssssssssssscsssscsssscsscccscssscsssssssssssssssssssssscss" />
  </g>
</svg>
