G04 #@! TF.GenerationSoftware,KiCad,Pcbnew,9.0.2*
G04 #@! TF.CreationDate,2025-08-04T18:18:05+01:00*
G04 #@! TF.ProjectId,mito,6d69746f-2e6b-4696-9361-645f70636258,rev?*
G04 #@! TF.SameCoordinates,Original*
G04 #@! TF.FileFunction,Legend,Bot*
G04 #@! TF.FilePolarity,Positive*
%FSLAX46Y46*%
G04 Gerber Fmt 4.6, Leading zero omitted, Abs format (unit mm)*
G04 Created by KiCad (PCBNEW 9.0.2) date 2025-08-04 18:18:05*
%MOMM*%
%LPD*%
G01*
G04 APERTURE LIST*
G04 Aperture macros list*
%AMRoundRect*
0 Rectangle with rounded corners*
0 $1 Rounding radius*
0 $2 $3 $4 $5 $6 $7 $8 $9 X,Y pos of 4 corners*
0 Add a 4 corners polygon primitive as box body*
4,1,4,$2,$3,$4,$5,$6,$7,$8,$9,$2,$3,0*
0 Add four circle primitives for the rounded corners*
1,1,$1+$1,$2,$3*
1,1,$1+$1,$4,$5*
1,1,$1+$1,$6,$7*
1,1,$1+$1,$8,$9*
0 Add four rect primitives between the rounded corners*
20,1,$1+$1,$2,$3,$4,$5,0*
20,1,$1+$1,$4,$5,$6,$7,0*
20,1,$1+$1,$6,$7,$8,$9,0*
20,1,$1+$1,$8,$9,$2,$3,0*%
G04 Aperture macros list end*
%ADD10C,0.000000*%
%ADD11C,3.600000*%
%ADD12RoundRect,0.250000X-0.550000X0.550000X-0.550000X-0.550000X0.550000X-0.550000X0.550000X0.550000X0*%
%ADD13C,1.600000*%
%ADD14O,2.200000X3.500000*%
%ADD15R,1.500000X2.500000*%
%ADD16O,1.500000X2.500000*%
G04 #@! TA.AperFunction,Profile*
%ADD17C,0.050000*%
G04 #@! TD*
G04 APERTURE END LIST*
D10*
G36*
X176010852Y-100579945D02*
G01*
X176009670Y-100675654D01*
X175982253Y-101116861D01*
X175922859Y-101657559D01*
X175837204Y-102260245D01*
X175731001Y-102887416D01*
X175665810Y-103218202D01*
X175609964Y-103501569D01*
X175479809Y-104065202D01*
X175233499Y-104924654D01*
X174861679Y-105951697D01*
X174423043Y-106932116D01*
X173928159Y-107848337D01*
X173387596Y-108682788D01*
X172811924Y-109417898D01*
X172211711Y-110036094D01*
X171597528Y-110519805D01*
X171588462Y-110525823D01*
X170650794Y-111069215D01*
X169621467Y-111524836D01*
X168542669Y-111876504D01*
X167456587Y-112108040D01*
X166941319Y-112168605D01*
X166216396Y-112209652D01*
X165439819Y-112213859D01*
X164664480Y-112181174D01*
X163943267Y-112111545D01*
X163674968Y-112074699D01*
X162975197Y-111960028D01*
X162257464Y-111814044D01*
X161504730Y-111631848D01*
X160699959Y-111408544D01*
X159826114Y-111139232D01*
X158866157Y-110819017D01*
X157803052Y-110442999D01*
X156619761Y-110006282D01*
X156374788Y-109914469D01*
X155642880Y-109642131D01*
X155027119Y-109417264D01*
X154507912Y-109233706D01*
X154065665Y-109085292D01*
X153680785Y-108965858D01*
X153333677Y-108869241D01*
X153004749Y-108789278D01*
X152674406Y-108719805D01*
X152323054Y-108654658D01*
X152029565Y-108604796D01*
X151613141Y-108541616D01*
X151176713Y-108485392D01*
X150698282Y-108434025D01*
X150155850Y-108385418D01*
X149527420Y-108337473D01*
X148790994Y-108288092D01*
X147924575Y-108235176D01*
X147613375Y-108216238D01*
X146599827Y-108144826D01*
X145722328Y-108066014D01*
X144968431Y-107978411D01*
X144325692Y-107880622D01*
X143781666Y-107771254D01*
X143669433Y-107744791D01*
X142605031Y-107441497D01*
X141672738Y-107070119D01*
X140865598Y-106623316D01*
X140176653Y-106093751D01*
X139598946Y-105474083D01*
X139125521Y-104756973D01*
X138749419Y-103935082D01*
X138463686Y-103001072D01*
X138261363Y-101947601D01*
X138219560Y-101656964D01*
X138117898Y-100882956D01*
X138310566Y-100882956D01*
X138328221Y-101011377D01*
X138331644Y-101032489D01*
X138362814Y-101236724D01*
X138405236Y-101527066D01*
X138450763Y-101847904D01*
X138484300Y-102074297D01*
X138691157Y-103091612D01*
X138977328Y-103985445D01*
X139350370Y-104765286D01*
X139817842Y-105440622D01*
X140387302Y-106020942D01*
X141066308Y-106515733D01*
X141862418Y-106934485D01*
X142783191Y-107286685D01*
X142806723Y-107294350D01*
X143251082Y-107429359D01*
X143706027Y-107547006D01*
X144189243Y-107649693D01*
X144718419Y-107739818D01*
X145311242Y-107819785D01*
X145985400Y-107891992D01*
X146758579Y-107958841D01*
X147648469Y-108022733D01*
X148672755Y-108086068D01*
X148736543Y-108089810D01*
X149936232Y-108173093D01*
X150995854Y-108273232D01*
X151926117Y-108391582D01*
X152737729Y-108529493D01*
X153441398Y-108688318D01*
X153606208Y-108735643D01*
X153937374Y-108841224D01*
X154371890Y-108987314D01*
X154887400Y-109166134D01*
X155461545Y-109369902D01*
X156071969Y-109590837D01*
X156696314Y-109821157D01*
X157363836Y-110067876D01*
X158503612Y-110477845D01*
X159527530Y-110829118D01*
X160449777Y-111125523D01*
X161284544Y-111370893D01*
X162046021Y-111569056D01*
X162748397Y-111723844D01*
X163405862Y-111839086D01*
X164032604Y-111918613D01*
X164642815Y-111966256D01*
X164843425Y-111977485D01*
X165172381Y-111997300D01*
X165436964Y-112014972D01*
X165593414Y-112027671D01*
X165679679Y-112032582D01*
X165947399Y-112029189D01*
X166304333Y-112010585D01*
X166709212Y-111980088D01*
X167120764Y-111941016D01*
X167497718Y-111896685D01*
X167798803Y-111850413D01*
X168214447Y-111760508D01*
X169049730Y-111514802D01*
X169907816Y-111187160D01*
X170737399Y-110798195D01*
X171487173Y-110368520D01*
X172000521Y-109983506D01*
X172587466Y-109402778D01*
X173156201Y-108689166D01*
X173699445Y-107852964D01*
X174209915Y-106904466D01*
X174680332Y-105853966D01*
X174760532Y-105648339D01*
X174893975Y-105276517D01*
X175032894Y-104860989D01*
X175167847Y-104432911D01*
X175289393Y-104023437D01*
X175388088Y-103663724D01*
X175454490Y-103384927D01*
X175479156Y-103218202D01*
X175472004Y-103216315D01*
X175414830Y-103300624D01*
X175312859Y-103483199D01*
X175181016Y-103738020D01*
X174745812Y-104480255D01*
X174136264Y-105277619D01*
X173979192Y-105440843D01*
X173417335Y-106024706D01*
X172611141Y-106703107D01*
X171739797Y-107294412D01*
X170825418Y-107780214D01*
X169890120Y-108142103D01*
X169412578Y-108278998D01*
X168714424Y-108425508D01*
X167994021Y-108506011D01*
X167190420Y-108529247D01*
X166889566Y-108523261D01*
X166270734Y-108477118D01*
X165633533Y-108381250D01*
X164959473Y-108230598D01*
X164230064Y-108020101D01*
X163426817Y-107744701D01*
X162531242Y-107399338D01*
X161524851Y-106978953D01*
X160654155Y-106608072D01*
X159606660Y-106174865D01*
X158653253Y-105797976D01*
X157770873Y-105469182D01*
X156936460Y-105180260D01*
X156126954Y-104922987D01*
X155319294Y-104689138D01*
X154490420Y-104470491D01*
X154411369Y-104450582D01*
X154027340Y-104355595D01*
X153671692Y-104272015D01*
X153329424Y-104197925D01*
X152985531Y-104131410D01*
X152625011Y-104070552D01*
X152232860Y-104013437D01*
X151794077Y-103958146D01*
X151293657Y-103902764D01*
X150716599Y-103845375D01*
X150047898Y-103784063D01*
X149272553Y-103716910D01*
X148375560Y-103642001D01*
X147341917Y-103557420D01*
X146238804Y-103463522D01*
X145001689Y-103345985D01*
X143903870Y-103226467D01*
X142938257Y-103104055D01*
X142097762Y-102977836D01*
X141375297Y-102846898D01*
X140763773Y-102710328D01*
X140177878Y-102532956D01*
X139690424Y-102306794D01*
X139271769Y-102008139D01*
X138886843Y-101611930D01*
X138500578Y-101093107D01*
X138397722Y-100943173D01*
X138327777Y-100857398D01*
X138310566Y-100882956D01*
X138117898Y-100882956D01*
X138113186Y-100847079D01*
X138043199Y-100151654D01*
X138011904Y-99545045D01*
X138015552Y-99340635D01*
X138219438Y-99340635D01*
X138245758Y-99834932D01*
X138322569Y-100238052D01*
X138364424Y-100360610D01*
X138495419Y-100667641D01*
X138645772Y-100953582D01*
X138862575Y-101315568D01*
X138907090Y-100107049D01*
X139128743Y-100107049D01*
X139128743Y-100876490D01*
X139128743Y-101645932D01*
X139448504Y-101919636D01*
X139459963Y-101929353D01*
X139665764Y-102078247D01*
X139920486Y-102216393D01*
X140232714Y-102345253D01*
X140611033Y-102466289D01*
X141064029Y-102580962D01*
X141600286Y-102690734D01*
X142228391Y-102797067D01*
X142956929Y-102901421D01*
X143794484Y-103005259D01*
X144749642Y-103110043D01*
X145830988Y-103217233D01*
X147047108Y-103328291D01*
X148406587Y-103444679D01*
X148845400Y-103481460D01*
X149742306Y-103558436D01*
X150511877Y-103627823D01*
X151171055Y-103691766D01*
X151736779Y-103752406D01*
X152225991Y-103811885D01*
X152655633Y-103872346D01*
X153042644Y-103935931D01*
X153403966Y-104004783D01*
X153756539Y-104081043D01*
X154117305Y-104166855D01*
X154383093Y-104233575D01*
X155276840Y-104473750D01*
X156197213Y-104742837D01*
X157108982Y-105029490D01*
X157976914Y-105322359D01*
X158765780Y-105610098D01*
X159440348Y-105881360D01*
X159564821Y-105934362D01*
X159822280Y-106042031D01*
X160007447Y-106116682D01*
X160086680Y-106144610D01*
X160094634Y-106120949D01*
X160106633Y-105978598D01*
X160114891Y-105736174D01*
X160117965Y-105426815D01*
X160117965Y-104709020D01*
X159756737Y-104658878D01*
X159670479Y-104646276D01*
X159651542Y-104642962D01*
X160346108Y-104642962D01*
X160346108Y-104709020D01*
X160346108Y-105462395D01*
X160346108Y-106281827D01*
X160555240Y-106357536D01*
X160725642Y-106420652D01*
X160897456Y-106487184D01*
X160936041Y-106498532D01*
X160979008Y-106482070D01*
X161006586Y-106404923D01*
X161022130Y-106244242D01*
X161028996Y-105977176D01*
X161030539Y-105580876D01*
X161029130Y-105305820D01*
X161029415Y-105221377D01*
X161192738Y-105221377D01*
X161192862Y-105488055D01*
X161199074Y-105819572D01*
X161220659Y-106635252D01*
X162057186Y-106988049D01*
X162337969Y-107104859D01*
X162751943Y-107272497D01*
X163139907Y-107424934D01*
X163445060Y-107539597D01*
X163996408Y-107738347D01*
X163996408Y-106927606D01*
X164224551Y-106927606D01*
X164224551Y-107802785D01*
X164446622Y-107880200D01*
X164668693Y-107957614D01*
X164693778Y-107027999D01*
X164708836Y-106469958D01*
X164908982Y-106469958D01*
X164908982Y-107246153D01*
X164908982Y-108022348D01*
X165498354Y-108158555D01*
X165538685Y-108167529D01*
X165947375Y-108233846D01*
X166449195Y-108283198D01*
X166995564Y-108313683D01*
X167537902Y-108323396D01*
X168027628Y-108310434D01*
X168416162Y-108272893D01*
X168699042Y-108223285D01*
X169195535Y-108115417D01*
X169696131Y-107984517D01*
X170170012Y-107840248D01*
X170586363Y-107692275D01*
X170914367Y-107550263D01*
X171123210Y-107423878D01*
X171156111Y-107372318D01*
X171193127Y-107201653D01*
X171214248Y-106908174D01*
X171220959Y-106477514D01*
X171218114Y-106160850D01*
X171209432Y-105876208D01*
X171196313Y-105683288D01*
X171180177Y-105612275D01*
X171168594Y-105616496D01*
X171063203Y-105683709D01*
X170878514Y-105815793D01*
X170645649Y-105990711D01*
X170615778Y-106013413D01*
X170136793Y-106335928D01*
X169615210Y-106622012D01*
X169100285Y-106847186D01*
X168641273Y-106986967D01*
X168518586Y-107007473D01*
X168180735Y-107036384D01*
X167752510Y-107048027D01*
X167274526Y-107040799D01*
X167127659Y-107035366D01*
X166742481Y-107015297D01*
X166446355Y-106984307D01*
X166191294Y-106933667D01*
X165929312Y-106854652D01*
X165612426Y-106738535D01*
X164908982Y-106469958D01*
X164708836Y-106469958D01*
X164718863Y-106098385D01*
X165414629Y-105037815D01*
X165468177Y-104956127D01*
X165626934Y-104711635D01*
X170992815Y-104711635D01*
X170993267Y-104717015D01*
X171052437Y-104818921D01*
X171180772Y-104957203D01*
X171202956Y-104978059D01*
X171270751Y-105053405D01*
X171317877Y-105144976D01*
X171348844Y-105279944D01*
X171368164Y-105485480D01*
X171380347Y-105788756D01*
X171389903Y-106216945D01*
X171394986Y-106477514D01*
X171411078Y-107302495D01*
X172019248Y-106895598D01*
X172104676Y-106837079D01*
X172469199Y-106566277D01*
X172850590Y-106256816D01*
X173178978Y-105964772D01*
X173730539Y-105440843D01*
X173728425Y-102503655D01*
X173726310Y-99566467D01*
X173497398Y-100136826D01*
X173370473Y-100438059D01*
X173191103Y-100834729D01*
X173170164Y-100881034D01*
X172937177Y-101371348D01*
X172687180Y-101877911D01*
X172637280Y-101975535D01*
X172435836Y-102369636D01*
X172372906Y-102487996D01*
X172198812Y-102815436D01*
X171991773Y-103184223D01*
X171830386Y-103444910D01*
X171663002Y-103689286D01*
X171444015Y-104004826D01*
X171256609Y-104270729D01*
X171140990Y-104439958D01*
X171034071Y-104615636D01*
X170992815Y-104711635D01*
X165626934Y-104711635D01*
X165820879Y-104412953D01*
X166097228Y-103973840D01*
X166306242Y-103620281D01*
X166456938Y-103333767D01*
X166558333Y-103095789D01*
X166619443Y-102887840D01*
X166649287Y-102691412D01*
X166656880Y-102487996D01*
X166655676Y-102000000D01*
X166126084Y-103007363D01*
X165882166Y-103460220D01*
X165565926Y-104020559D01*
X165246194Y-104561447D01*
X164940726Y-105053674D01*
X164667275Y-105468032D01*
X164443595Y-105775314D01*
X164376321Y-105862836D01*
X164304175Y-105978854D01*
X164267162Y-106086488D01*
X164259490Y-106108799D01*
X164235702Y-106287212D01*
X164226245Y-106548634D01*
X164224551Y-106927606D01*
X163996408Y-106927606D01*
X163996408Y-106912417D01*
X163996408Y-106086488D01*
X163330988Y-105879059D01*
X163205513Y-105838280D01*
X162793554Y-105689547D01*
X162349900Y-105512709D01*
X161951018Y-105337761D01*
X161729448Y-105234907D01*
X161467998Y-105115589D01*
X161283786Y-105034072D01*
X161206978Y-105003892D01*
X161198401Y-105050598D01*
X161192738Y-105221377D01*
X161029415Y-105221377D01*
X161029953Y-105061907D01*
X161042311Y-104860336D01*
X161075537Y-104680150D01*
X161138964Y-104500393D01*
X161241926Y-104300108D01*
X161393754Y-104058338D01*
X161603782Y-103754126D01*
X161881342Y-103366516D01*
X162235768Y-102874551D01*
X162889554Y-101964580D01*
X166895180Y-101964580D01*
X166900194Y-102163478D01*
X166924252Y-102456287D01*
X167030290Y-102204900D01*
X167050730Y-102154372D01*
X167094237Y-101975535D01*
X167050570Y-101867755D01*
X167003181Y-101831654D01*
X166920474Y-101826333D01*
X166912940Y-101838967D01*
X166895180Y-101964580D01*
X162889554Y-101964580D01*
X163082659Y-101695808D01*
X163083246Y-101210253D01*
X163083294Y-101097249D01*
X163079347Y-100887771D01*
X163061700Y-100800580D01*
X163020544Y-100813927D01*
X162946073Y-100906061D01*
X162941422Y-100912255D01*
X162843305Y-101053694D01*
X162686745Y-101290150D01*
X162492331Y-101590176D01*
X162280654Y-101922324D01*
X162253941Y-101964387D01*
X161993467Y-102360888D01*
X161681323Y-102817844D01*
X161354391Y-103281999D01*
X161049551Y-103700093D01*
X160346108Y-104642962D01*
X159651542Y-104642962D01*
X159217688Y-104567037D01*
X158658170Y-104453062D01*
X158023503Y-104311799D01*
X157345270Y-104150699D01*
X156655050Y-103977212D01*
X155984423Y-103798787D01*
X155364971Y-103622873D01*
X154966065Y-103505587D01*
X154323581Y-103320723D01*
X153782248Y-103174117D01*
X153313456Y-103061219D01*
X152888593Y-102977481D01*
X152479050Y-102918355D01*
X152056215Y-102879291D01*
X151591478Y-102855741D01*
X151056229Y-102843156D01*
X150421857Y-102836987D01*
X150032598Y-102833474D01*
X149518829Y-102825699D01*
X149059792Y-102815204D01*
X148679830Y-102802693D01*
X148403283Y-102788867D01*
X148254491Y-102774429D01*
X148024958Y-102732532D01*
X147498620Y-102643758D01*
X147073028Y-102577164D01*
X155784391Y-102577164D01*
X155836560Y-102632018D01*
X155976932Y-102710248D01*
X156143265Y-102775042D01*
X156321187Y-102807705D01*
X156492973Y-102785577D01*
X156668207Y-102698661D01*
X156856469Y-102536962D01*
X157067340Y-102290484D01*
X157310403Y-101949230D01*
X157595239Y-101503203D01*
X157931429Y-100942409D01*
X158016212Y-100796048D01*
X163321169Y-100796048D01*
X163325625Y-100979491D01*
X163337157Y-101097249D01*
X163350000Y-101228394D01*
X163458733Y-101023289D01*
X163473526Y-100994627D01*
X163525455Y-100834729D01*
X163479013Y-100729730D01*
X163428691Y-100691487D01*
X163345904Y-100685932D01*
X163343458Y-100688799D01*
X163321169Y-100796048D01*
X158016212Y-100796048D01*
X158328555Y-100256850D01*
X159053294Y-98992939D01*
X159053294Y-98369758D01*
X159053294Y-97746577D01*
X158437547Y-98732570D01*
X158436553Y-98734160D01*
X157975948Y-99465815D01*
X157577162Y-100085572D01*
X157226573Y-100613545D01*
X156910560Y-101069849D01*
X156615501Y-101474597D01*
X156327774Y-101847904D01*
X156129264Y-102101500D01*
X155950631Y-102336215D01*
X155829354Y-102503250D01*
X155784391Y-102577164D01*
X147073028Y-102577164D01*
X146894864Y-102549286D01*
X146246166Y-102453596D01*
X145585001Y-102361168D01*
X144943847Y-102276483D01*
X144355178Y-102204021D01*
X143851472Y-102148263D01*
X143465205Y-102113689D01*
X143253578Y-102097292D01*
X142287003Y-101980875D01*
X141454317Y-101804317D01*
X141194356Y-101716123D01*
X151296408Y-101716123D01*
X151297131Y-101722512D01*
X151373067Y-101800558D01*
X151535899Y-101878488D01*
X151682847Y-101925668D01*
X151892606Y-101958393D01*
X152058680Y-101907491D01*
X152219160Y-101755929D01*
X152412136Y-101486676D01*
X152420122Y-101474647D01*
X152603378Y-101188764D01*
X152801997Y-100858915D01*
X153026348Y-100466603D01*
X153286799Y-99993333D01*
X153593717Y-99420611D01*
X153957471Y-98729940D01*
X154228568Y-98216172D01*
X154487832Y-97738856D01*
X154700208Y-97370107D01*
X154876246Y-97094838D01*
X155026494Y-96897962D01*
X155161501Y-96764391D01*
X155291816Y-96679039D01*
X155427990Y-96626817D01*
X155591065Y-96589713D01*
X156019433Y-96542901D01*
X156532729Y-96534979D01*
X157091614Y-96562354D01*
X157656748Y-96621430D01*
X158188793Y-96708612D01*
X158648409Y-96820305D01*
X158996258Y-96952914D01*
X159281438Y-97098001D01*
X159283750Y-97799898D01*
X159287419Y-98071502D01*
X159300826Y-98296457D01*
X159319944Y-98369758D01*
X159325605Y-98391465D01*
X159363487Y-98368873D01*
X159382394Y-98312746D01*
X159404504Y-98095627D01*
X159406479Y-97748140D01*
X159388010Y-97283832D01*
X159371752Y-97003350D01*
X159349173Y-96694554D01*
X159323738Y-96495046D01*
X159289937Y-96379259D01*
X159242257Y-96321630D01*
X159175190Y-96296595D01*
X158981352Y-96255996D01*
X159580626Y-96255996D01*
X159602139Y-97109288D01*
X159618246Y-97748140D01*
X159623653Y-97962579D01*
X159929921Y-97429873D01*
X166681015Y-97429873D01*
X166707236Y-97554720D01*
X166855942Y-97635865D01*
X167064753Y-97677734D01*
X167265864Y-97672969D01*
X167392914Y-97615671D01*
X167456388Y-97511007D01*
X167561118Y-97305392D01*
X167678772Y-97051643D01*
X167798362Y-96743838D01*
X167856789Y-96459446D01*
X167860045Y-96139069D01*
X167836827Y-95688024D01*
X167363965Y-96307727D01*
X167362890Y-96309155D01*
X167239353Y-96473331D01*
X166945543Y-96892085D01*
X166759941Y-97209964D01*
X166681015Y-97429873D01*
X159929921Y-97429873D01*
X160098953Y-97135867D01*
X160574252Y-96309155D01*
X160573538Y-95618350D01*
X160572825Y-94927545D01*
X160353828Y-95307784D01*
X160269573Y-95443759D01*
X160062897Y-95731740D01*
X159857728Y-95972010D01*
X159580626Y-96255996D01*
X158981352Y-96255996D01*
X158576932Y-96171291D01*
X157846036Y-96034335D01*
X157152608Y-95921548D01*
X156518573Y-95835828D01*
X155965860Y-95780074D01*
X155516393Y-95757184D01*
X155192100Y-95770058D01*
X155120486Y-95779637D01*
X154884747Y-95833995D01*
X154709341Y-95938971D01*
X154523009Y-96133248D01*
X154498138Y-96164506D01*
X154369114Y-96359648D01*
X154193325Y-96659611D01*
X153985055Y-97038592D01*
X153758584Y-97470790D01*
X153528197Y-97930403D01*
X153364578Y-98263405D01*
X153082391Y-98829373D01*
X152842498Y-99294712D01*
X152630648Y-99684283D01*
X152432586Y-100022946D01*
X152234060Y-100335562D01*
X152020817Y-100646991D01*
X151778602Y-100982095D01*
X151624008Y-101196323D01*
X151454635Y-101442846D01*
X151339121Y-101625723D01*
X151296408Y-101716123D01*
X141194356Y-101716123D01*
X140749698Y-101565269D01*
X140167323Y-101261378D01*
X139804095Y-100972102D01*
X145807767Y-100972102D01*
X146023494Y-101059070D01*
X146045982Y-101067237D01*
X146246402Y-101113325D01*
X146534665Y-101154529D01*
X146856354Y-101182765D01*
X147473486Y-101219492D01*
X147815911Y-100735195D01*
X147944508Y-100550861D01*
X148170616Y-100220521D01*
X148420532Y-99850103D01*
X148659809Y-99490419D01*
X149161283Y-98729940D01*
X149209368Y-98007485D01*
X149257452Y-97285030D01*
X149079637Y-97631307D01*
X148960046Y-97864200D01*
X148695966Y-98338821D01*
X148183538Y-99089899D01*
X147611083Y-99744611D01*
X146995645Y-100284468D01*
X146354269Y-100690979D01*
X145807767Y-100972102D01*
X139804095Y-100972102D01*
X139701371Y-100890292D01*
X139346020Y-100449659D01*
X139128743Y-100107049D01*
X138907090Y-100107049D01*
X138911595Y-99984730D01*
X138919644Y-99781513D01*
X138950915Y-99210210D01*
X138992566Y-98750847D01*
X139047890Y-98372816D01*
X139110764Y-98088139D01*
X142934020Y-98088139D01*
X142970609Y-98334687D01*
X143152733Y-98545461D01*
X143482826Y-98727039D01*
X143568351Y-98757313D01*
X143851882Y-98819331D01*
X144145243Y-98844012D01*
X144198043Y-98843652D01*
X144434842Y-98821034D01*
X144618386Y-98741783D01*
X144824300Y-98576057D01*
X144877780Y-98525890D01*
X145131842Y-98225462D01*
X145302356Y-97912903D01*
X145364671Y-97631307D01*
X145363846Y-97615512D01*
X145300946Y-97447533D01*
X145168583Y-97272147D01*
X145111730Y-97217329D01*
X145006395Y-97141174D01*
X144878004Y-97103821D01*
X144683713Y-97096469D01*
X144380677Y-97110318D01*
X144004070Y-97150183D01*
X143624076Y-97255148D01*
X143333781Y-97433584D01*
X143102504Y-97699639D01*
X143040531Y-97799240D01*
X142934020Y-98088139D01*
X139110764Y-98088139D01*
X139120179Y-98045509D01*
X139299039Y-97482428D01*
X139672527Y-96693139D01*
X140159660Y-95999158D01*
X140753292Y-95406125D01*
X141446273Y-94919678D01*
X142231456Y-94545457D01*
X143101693Y-94289101D01*
X144049837Y-94156251D01*
X144756288Y-94106592D01*
X144756506Y-93946389D01*
X144984432Y-93946389D01*
X144989266Y-94024893D01*
X145031922Y-94094365D01*
X145150760Y-94123436D01*
X145383683Y-94129490D01*
X145486488Y-94131649D01*
X145877927Y-94161173D01*
X146344053Y-94218766D01*
X146830422Y-94296080D01*
X147282589Y-94384763D01*
X147646108Y-94476467D01*
X148137954Y-94655010D01*
X148672021Y-94948161D01*
X149074890Y-95304619D01*
X149341403Y-95720595D01*
X149390504Y-95840506D01*
X149432813Y-95986472D01*
X149456469Y-96158677D01*
X149463562Y-96388497D01*
X149456184Y-96707310D01*
X149436424Y-97146493D01*
X149429923Y-97285030D01*
X149428886Y-97307122D01*
X149415139Y-97673087D01*
X149408935Y-97967719D01*
X149410663Y-98164178D01*
X149420709Y-98235628D01*
X149453286Y-98210212D01*
X149548057Y-98070226D01*
X149684327Y-97828509D01*
X149850394Y-97508518D01*
X150034554Y-97133710D01*
X150225105Y-96727542D01*
X150410342Y-96313470D01*
X150578563Y-95914951D01*
X151006600Y-94863001D01*
X150828568Y-94728711D01*
X150779574Y-94695803D01*
X150518761Y-94573369D01*
X150138333Y-94443541D01*
X149663104Y-94310986D01*
X149117887Y-94180372D01*
X148527497Y-94056365D01*
X147916746Y-93943634D01*
X147310448Y-93846846D01*
X146733418Y-93770670D01*
X146210469Y-93719771D01*
X145766414Y-93698818D01*
X145426067Y-93712479D01*
X145221167Y-93739543D01*
X145065865Y-93779196D01*
X144998845Y-93841846D01*
X144984432Y-93946389D01*
X144756506Y-93946389D01*
X144756712Y-93794613D01*
X144766279Y-93581412D01*
X144868586Y-93131268D01*
X145084153Y-92782224D01*
X145414538Y-92532285D01*
X145861296Y-92379459D01*
X146097009Y-92348942D01*
X146500593Y-92331148D01*
X147027103Y-92331485D01*
X147661557Y-92348575D01*
X148388970Y-92381036D01*
X149194360Y-92427488D01*
X150062743Y-92486551D01*
X150979136Y-92556845D01*
X151928554Y-92636990D01*
X152896014Y-92725605D01*
X153866533Y-92821310D01*
X154825128Y-92922725D01*
X155756814Y-93028470D01*
X156646609Y-93137165D01*
X157479528Y-93247429D01*
X158240588Y-93357882D01*
X158914806Y-93467144D01*
X159487199Y-93573835D01*
X159942781Y-93676574D01*
X160186132Y-93740093D01*
X160445992Y-93823760D01*
X160620094Y-93924023D01*
X160725612Y-94067982D01*
X160779719Y-94282736D01*
X160799589Y-94595386D01*
X160801305Y-94863001D01*
X160802396Y-95033032D01*
X160802396Y-95989498D01*
X161003279Y-95686665D01*
X161282624Y-95283402D01*
X161585138Y-94892397D01*
X161845379Y-94608930D01*
X162051054Y-94447538D01*
X162112272Y-94417947D01*
X162244886Y-94376769D01*
X162428796Y-94348778D01*
X162689185Y-94331864D01*
X163051232Y-94323918D01*
X163540120Y-94322830D01*
X163736634Y-94324592D01*
X164471221Y-94351233D01*
X165189086Y-94406806D01*
X165867696Y-94487717D01*
X166484518Y-94590370D01*
X167017021Y-94711168D01*
X167442672Y-94846518D01*
X167738937Y-94992822D01*
X167801988Y-95036444D01*
X167907325Y-95130332D01*
X167969525Y-95248667D01*
X168005524Y-95433934D01*
X168032258Y-95728618D01*
X168037345Y-95793529D01*
X168059165Y-96035190D01*
X168071926Y-96139069D01*
X168077668Y-96185808D01*
X168089294Y-96215035D01*
X168115651Y-96158988D01*
X168219594Y-96008684D01*
X168372708Y-95818565D01*
X168543352Y-95643110D01*
X168750563Y-95510512D01*
X168995559Y-95453532D01*
X169313119Y-95465019D01*
X169738024Y-95537822D01*
X170217468Y-95652921D01*
X170976352Y-95900788D01*
X171694831Y-96213490D01*
X172350566Y-96578032D01*
X172921220Y-96981422D01*
X173384454Y-97410667D01*
X173717930Y-97852772D01*
X173920659Y-98197604D01*
X173958683Y-101695808D01*
X173996707Y-105194012D01*
X174402658Y-104623652D01*
X174585656Y-104356210D01*
X175108060Y-103435352D01*
X175482690Y-102489011D01*
X175708347Y-101520735D01*
X175783833Y-100534074D01*
X175783825Y-100525208D01*
X175720860Y-99757417D01*
X175530765Y-99058957D01*
X175207746Y-98418301D01*
X174746006Y-97823923D01*
X174139750Y-97264296D01*
X174018952Y-97169378D01*
X173666925Y-96916924D01*
X173280548Y-96678378D01*
X172832213Y-96438620D01*
X172294307Y-96182530D01*
X171639222Y-95894988D01*
X171631850Y-95891845D01*
X170432943Y-95417659D01*
X169146717Y-94980789D01*
X167764165Y-94579175D01*
X166276282Y-94210761D01*
X164674061Y-93873488D01*
X162948497Y-93565299D01*
X161090585Y-93284137D01*
X159091318Y-93027943D01*
X158493150Y-92956638D01*
X157781637Y-92870469D01*
X157034665Y-92778895D01*
X156310939Y-92689114D01*
X155669162Y-92608325D01*
X155030199Y-92527810D01*
X153966744Y-92397998D01*
X153023230Y-92289454D01*
X152180070Y-92200570D01*
X151417680Y-92129740D01*
X150716475Y-92075359D01*
X150056869Y-92035820D01*
X149419277Y-92009518D01*
X148784114Y-91994845D01*
X148131795Y-91990196D01*
X147843516Y-91990961D01*
X146962183Y-92006592D01*
X146191086Y-92044359D01*
X145498859Y-92106884D01*
X144854138Y-92196788D01*
X144225557Y-92316694D01*
X143604970Y-92469324D01*
X142582120Y-92816884D01*
X141667029Y-93259290D01*
X140864662Y-93793516D01*
X140179986Y-94416534D01*
X139617967Y-95125317D01*
X139408897Y-95478109D01*
X139168906Y-95952335D01*
X138926226Y-96490348D01*
X138699119Y-97049397D01*
X138505843Y-97586734D01*
X138364658Y-98059607D01*
X138314257Y-98286263D01*
X138242605Y-98807100D01*
X138219438Y-99340635D01*
X138015552Y-99340635D01*
X138021603Y-99001607D01*
X138074601Y-98495696D01*
X138173202Y-98001667D01*
X138319710Y-97493876D01*
X138516429Y-96946679D01*
X138765662Y-96334431D01*
X138951297Y-95922266D01*
X139421993Y-95076098D01*
X139970187Y-94347329D01*
X140608074Y-93725063D01*
X141347848Y-93198403D01*
X142201706Y-92756451D01*
X143181842Y-92388310D01*
X143695626Y-92233613D01*
X144198243Y-92105738D01*
X144703579Y-92005316D01*
X145236474Y-91929472D01*
X145821767Y-91875332D01*
X146484296Y-91840020D01*
X147248901Y-91820661D01*
X148140420Y-91814380D01*
X148773682Y-91815627D01*
X149344539Y-91821421D01*
X149873818Y-91833368D01*
X150382883Y-91853074D01*
X150893095Y-91882145D01*
X151425820Y-91922186D01*
X152002421Y-91974803D01*
X152644260Y-92041603D01*
X153372703Y-92124191D01*
X154209112Y-92224173D01*
X155174851Y-92343156D01*
X155557119Y-92390669D01*
X156306093Y-92483669D01*
X157123963Y-92585130D01*
X157958789Y-92688613D01*
X158758634Y-92787676D01*
X159471557Y-92875882D01*
X159564158Y-92887370D01*
X161514041Y-93149086D01*
X163322284Y-93431886D01*
X164997772Y-93737986D01*
X166549393Y-94069600D01*
X167986032Y-94428943D01*
X169316576Y-94818230D01*
X170549912Y-95239676D01*
X171694926Y-95695495D01*
X172760505Y-96187903D01*
X173599921Y-96654350D01*
X174347360Y-97186620D01*
X174952665Y-97762438D01*
X175418753Y-98385741D01*
X175748537Y-99060467D01*
X175944932Y-99790556D01*
X176007021Y-100534074D01*
X176010852Y-100579945D01*
G37*
%LPC*%
D11*
X137000000Y-113950000D03*
X177000000Y-113950000D03*
X137000000Y-89950000D03*
D12*
X176930000Y-100760000D03*
D13*
X176930000Y-104360000D03*
D12*
X135730000Y-94910000D03*
D13*
X135730000Y-98510000D03*
X135730000Y-102110000D03*
X135730000Y-105710000D03*
X135730000Y-109310000D03*
D11*
X177000000Y-89950000D03*
D14*
X168000000Y-88500000D03*
X159800000Y-88500000D03*
D15*
X165900000Y-88500000D03*
D16*
X163900000Y-88500000D03*
X161900000Y-88500000D03*
%LPD*%
D17*
X133000000Y-86000000D02*
X181000000Y-86000000D01*
X181000000Y-118000000D01*
X133000000Y-118000000D01*
X133000000Y-86000000D01*
M02*
