G04 #@! TF.GenerationSoftware,KiCad,Pcbnew,9.0.2*
G04 #@! TF.CreationDate,2025-08-04T18:18:05+01:00*
G04 #@! TF.ProjectId,mito,6d69746f-2e6b-4696-9361-645f70636258,rev?*
G04 #@! TF.SameCoordinates,Original*
G04 #@! TF.FileFunction,Legend,Top*
G04 #@! TF.FilePolarity,Positive*
%FSLAX46Y46*%
G04 Gerber Fmt 4.6, Leading zero omitted, Abs format (unit mm)*
G04 Created by KiCad (PCBNEW 9.0.2) date 2025-08-04 18:18:05*
%MOMM*%
%LPD*%
G01*
G04 APERTURE LIST*
G04 Aperture macros list*
%AMRoundRect*
0 Rectangle with rounded corners*
0 $1 Rounding radius*
0 $2 $3 $4 $5 $6 $7 $8 $9 X,Y pos of 4 corners*
0 Add a 4 corners polygon primitive as box body*
4,1,4,$2,$3,$4,$5,$6,$7,$8,$9,$2,$3,0*
0 Add four circle primitives for the rounded corners*
1,1,$1+$1,$2,$3*
1,1,$1+$1,$4,$5*
1,1,$1+$1,$6,$7*
1,1,$1+$1,$8,$9*
0 Add four rect primitives between the rounded corners*
20,1,$1+$1,$2,$3,$4,$5,0*
20,1,$1+$1,$4,$5,$6,$7,0*
20,1,$1+$1,$6,$7,$8,$9,0*
20,1,$1+$1,$8,$9,$2,$3,0*%
G04 Aperture macros list end*
%ADD10C,0.125000*%
%ADD11C,0.150000*%
%ADD12C,0.106680*%
%ADD13C,0.250000*%
%ADD14C,0.120000*%
%ADD15C,0.100000*%
%ADD16C,0.127000*%
%ADD17C,0.504000*%
%ADD18RoundRect,0.219000X-0.294000X0.219000X-0.294000X-0.219000X0.294000X-0.219000X0.294000X0.219000X0*%
%ADD19RoundRect,0.219000X-0.219000X-0.294000X0.219000X-0.294000X0.219000X0.294000X-0.219000X0.294000X0*%
%ADD20RoundRect,0.244000X-0.269000X0.244000X-0.269000X-0.244000X0.269000X-0.244000X0.269000X0.244000X0*%
%ADD21R,1.500000X1.000000*%
%ADD22R,0.500000X0.800000*%
%ADD23RoundRect,0.244000X0.269000X-0.244000X0.269000X0.244000X-0.269000X0.244000X-0.269000X-0.244000X0*%
%ADD24RoundRect,0.244000X0.244000X0.269000X-0.244000X0.269000X-0.244000X-0.269000X0.244000X-0.269000X0*%
%ADD25C,3.600000*%
%ADD26C,5.600000*%
%ADD27RoundRect,0.150000X-0.825000X-0.150000X0.825000X-0.150000X0.825000X0.150000X-0.825000X0.150000X0*%
%ADD28RoundRect,0.250000X-0.550000X0.550000X-0.550000X-0.550000X0.550000X-0.550000X0.550000X0.550000X0*%
%ADD29C,1.600000*%
%ADD30RoundRect,0.220000X-0.220000X-0.380000X0.220000X-0.380000X0.220000X0.380000X-0.220000X0.380000X0*%
%ADD31RoundRect,0.244000X-0.244000X-0.269000X0.244000X-0.269000X0.244000X0.269000X-0.244000X0.269000X0*%
%ADD32RoundRect,0.525400X0.900400X0.525400X-0.900400X0.525400X-0.900400X-0.525400X0.900400X-0.525400X0*%
%ADD33RoundRect,0.300400X-1.000400X-0.300400X1.000400X-0.300400X1.000400X0.300400X-1.000400X0.300400X0*%
%ADD34RoundRect,0.300400X0.300400X-1.000400X0.300400X1.000400X-0.300400X1.000400X-0.300400X-1.000400X0*%
%ADD35C,1.700000*%
%ADD36O,2.200000X3.500000*%
%ADD37R,1.500000X2.500000*%
%ADD38O,1.500000X2.500000*%
%ADD39R,1.550000X1.000000*%
%ADD40RoundRect,0.150000X0.512500X0.150000X-0.512500X0.150000X-0.512500X-0.150000X0.512500X-0.150000X0*%
%ADD41RoundRect,0.200000X-0.200000X-0.275000X0.200000X-0.275000X0.200000X0.275000X-0.200000X0.275000X0*%
G04 #@! TA.AperFunction,Profile*
%ADD42C,0.050000*%
G04 #@! TD*
G04 APERTURE END LIST*
D10*
X137350331Y-98467309D02*
X137683664Y-98467309D01*
X137826521Y-98991119D02*
X137350331Y-98991119D01*
X137350331Y-98991119D02*
X137350331Y-97991119D01*
X137350331Y-97991119D02*
X137826521Y-97991119D01*
X138255093Y-98610166D02*
X139016998Y-98610166D01*
X137302712Y-105885404D02*
X137778902Y-105885404D01*
X137207474Y-106171119D02*
X137540807Y-105171119D01*
X137540807Y-105171119D02*
X137874140Y-106171119D01*
X138207474Y-105790166D02*
X138969379Y-105790166D01*
X138588426Y-106171119D02*
X138588426Y-105409214D01*
X137350331Y-94827309D02*
X137683664Y-94827309D01*
X137826521Y-95351119D02*
X137350331Y-95351119D01*
X137350331Y-95351119D02*
X137350331Y-94351119D01*
X137350331Y-94351119D02*
X137826521Y-94351119D01*
X138255093Y-94970166D02*
X139016998Y-94970166D01*
X138636045Y-95351119D02*
X138636045Y-94589214D01*
X137302712Y-102255404D02*
X137778902Y-102255404D01*
X137207474Y-102541119D02*
X137540807Y-101541119D01*
X137540807Y-101541119D02*
X137874140Y-102541119D01*
X138207474Y-102160166D02*
X138969379Y-102160166D01*
D11*
X176576779Y-98978866D02*
X177338684Y-98978866D01*
X176957731Y-99359819D02*
X176957731Y-98597914D01*
X176546779Y-105808866D02*
X177308684Y-105808866D01*
X144693333Y-90424819D02*
X145264761Y-90424819D01*
X144979047Y-91424819D02*
X144979047Y-90424819D01*
X145550476Y-91139104D02*
X146026666Y-91139104D01*
X145455238Y-91424819D02*
X145788571Y-90424819D01*
X145788571Y-90424819D02*
X146121904Y-91424819D01*
X147026666Y-91424819D02*
X146693333Y-90948628D01*
X146455238Y-91424819D02*
X146455238Y-90424819D01*
X146455238Y-90424819D02*
X146836190Y-90424819D01*
X146836190Y-90424819D02*
X146931428Y-90472438D01*
X146931428Y-90472438D02*
X146979047Y-90520057D01*
X146979047Y-90520057D02*
X147026666Y-90615295D01*
X147026666Y-90615295D02*
X147026666Y-90758152D01*
X147026666Y-90758152D02*
X146979047Y-90853390D01*
X146979047Y-90853390D02*
X146931428Y-90901009D01*
X146931428Y-90901009D02*
X146836190Y-90948628D01*
X146836190Y-90948628D02*
X146455238Y-90948628D01*
X147455238Y-90901009D02*
X147788571Y-90901009D01*
X147931428Y-91424819D02*
X147455238Y-91424819D01*
X147455238Y-91424819D02*
X147455238Y-90424819D01*
X147455238Y-90424819D02*
X147931428Y-90424819D01*
D10*
X137297712Y-109798500D02*
X137440569Y-109846119D01*
X137440569Y-109846119D02*
X137678664Y-109846119D01*
X137678664Y-109846119D02*
X137773902Y-109798500D01*
X137773902Y-109798500D02*
X137821521Y-109750880D01*
X137821521Y-109750880D02*
X137869140Y-109655642D01*
X137869140Y-109655642D02*
X137869140Y-109560404D01*
X137869140Y-109560404D02*
X137821521Y-109465166D01*
X137821521Y-109465166D02*
X137773902Y-109417547D01*
X137773902Y-109417547D02*
X137678664Y-109369928D01*
X137678664Y-109369928D02*
X137488188Y-109322309D01*
X137488188Y-109322309D02*
X137392950Y-109274690D01*
X137392950Y-109274690D02*
X137345331Y-109227071D01*
X137345331Y-109227071D02*
X137297712Y-109131833D01*
X137297712Y-109131833D02*
X137297712Y-109036595D01*
X137297712Y-109036595D02*
X137345331Y-108941357D01*
X137345331Y-108941357D02*
X137392950Y-108893738D01*
X137392950Y-108893738D02*
X137488188Y-108846119D01*
X137488188Y-108846119D02*
X137726283Y-108846119D01*
X137726283Y-108846119D02*
X137869140Y-108893738D01*
X138297712Y-109846119D02*
X138297712Y-108846119D01*
X138297712Y-108846119D02*
X138535807Y-108846119D01*
X138535807Y-108846119D02*
X138678664Y-108893738D01*
X138678664Y-108893738D02*
X138773902Y-108988976D01*
X138773902Y-108988976D02*
X138821521Y-109084214D01*
X138821521Y-109084214D02*
X138869140Y-109274690D01*
X138869140Y-109274690D02*
X138869140Y-109417547D01*
X138869140Y-109417547D02*
X138821521Y-109608023D01*
X138821521Y-109608023D02*
X138773902Y-109703261D01*
X138773902Y-109703261D02*
X138678664Y-109798500D01*
X138678664Y-109798500D02*
X138535807Y-109846119D01*
X138535807Y-109846119D02*
X138297712Y-109846119D01*
D12*
X162841442Y-107653205D02*
X162841442Y-108286512D01*
X162841442Y-108286512D02*
X162878696Y-108361018D01*
X162878696Y-108361018D02*
X162915949Y-108398272D01*
X162915949Y-108398272D02*
X162990456Y-108435525D01*
X162990456Y-108435525D02*
X163139469Y-108435525D01*
X163139469Y-108435525D02*
X163213976Y-108398272D01*
X163213976Y-108398272D02*
X163251229Y-108361018D01*
X163251229Y-108361018D02*
X163288482Y-108286512D01*
X163288482Y-108286512D02*
X163288482Y-107653205D01*
X163623762Y-107727712D02*
X163661015Y-107690458D01*
X163661015Y-107690458D02*
X163735522Y-107653205D01*
X163735522Y-107653205D02*
X163921789Y-107653205D01*
X163921789Y-107653205D02*
X163996295Y-107690458D01*
X163996295Y-107690458D02*
X164033549Y-107727712D01*
X164033549Y-107727712D02*
X164070802Y-107802218D01*
X164070802Y-107802218D02*
X164070802Y-107876725D01*
X164070802Y-107876725D02*
X164033549Y-107988485D01*
X164033549Y-107988485D02*
X163586509Y-108435525D01*
X163586509Y-108435525D02*
X164070802Y-108435525D01*
D11*
X162691667Y-92354819D02*
X162691667Y-91354819D01*
X162691667Y-91354819D02*
X163072619Y-91354819D01*
X163072619Y-91354819D02*
X163167857Y-91402438D01*
X163167857Y-91402438D02*
X163215476Y-91450057D01*
X163215476Y-91450057D02*
X163263095Y-91545295D01*
X163263095Y-91545295D02*
X163263095Y-91688152D01*
X163263095Y-91688152D02*
X163215476Y-91783390D01*
X163215476Y-91783390D02*
X163167857Y-91831009D01*
X163167857Y-91831009D02*
X163072619Y-91878628D01*
X163072619Y-91878628D02*
X162691667Y-91878628D01*
X163596429Y-91354819D02*
X163834524Y-92354819D01*
X163834524Y-92354819D02*
X164025000Y-91640533D01*
X164025000Y-91640533D02*
X164215476Y-92354819D01*
X164215476Y-92354819D02*
X164453572Y-91354819D01*
X165405952Y-92354819D02*
X165072619Y-91878628D01*
X164834524Y-92354819D02*
X164834524Y-91354819D01*
X164834524Y-91354819D02*
X165215476Y-91354819D01*
X165215476Y-91354819D02*
X165310714Y-91402438D01*
X165310714Y-91402438D02*
X165358333Y-91450057D01*
X165358333Y-91450057D02*
X165405952Y-91545295D01*
X165405952Y-91545295D02*
X165405952Y-91688152D01*
X165405952Y-91688152D02*
X165358333Y-91783390D01*
X165358333Y-91783390D02*
X165310714Y-91831009D01*
X165310714Y-91831009D02*
X165215476Y-91878628D01*
X165215476Y-91878628D02*
X164834524Y-91878628D01*
D13*
X153290000Y-86364208D02*
X154830000Y-86364208D01*
X153223776Y-85885891D02*
G75*
G02*
X154960000Y-85894208I866224J-398317D01*
G01*
D14*
X148501100Y-99943600D02*
X146551100Y-99943600D01*
X148501100Y-99943600D02*
X150451100Y-99943600D01*
X148501100Y-110063600D02*
X146551100Y-110063600D01*
X148501100Y-110063600D02*
X150451100Y-110063600D01*
X145801100Y-99998600D02*
X145561100Y-99668600D01*
X146041100Y-99668600D01*
X145801100Y-99998600D01*
G36*
X145801100Y-99998600D02*
G01*
X145561100Y-99668600D01*
X146041100Y-99668600D01*
X145801100Y-99998600D01*
G37*
D11*
X141750000Y-101940000D02*
X142550000Y-101940000D01*
X141750000Y-103060000D02*
X142550000Y-103060000D01*
D15*
X155255000Y-98708500D02*
X155255000Y-115853500D01*
X157160000Y-117758500D02*
X171130000Y-117758500D01*
D16*
X159641000Y-118768500D02*
X159641000Y-117758500D01*
X168136272Y-119268500D02*
X160141000Y-119268500D01*
X168640000Y-117758500D02*
X168636272Y-118768772D01*
D15*
X171130000Y-96803500D02*
X157160000Y-96803500D01*
X173035000Y-98708500D02*
X173035000Y-115853500D01*
X155255000Y-98708500D02*
G75*
G02*
X157160000Y-96803500I1905000J0D01*
G01*
X157160000Y-117758500D02*
G75*
G02*
X155255000Y-115853500I50J1905050D01*
G01*
D16*
X160141000Y-119268500D02*
G75*
G02*
X159641000Y-118768500I100J500100D01*
G01*
X168636272Y-118768772D02*
G75*
G02*
X168136272Y-119268499I-500018J291D01*
G01*
D15*
X171130000Y-96803500D02*
G75*
G02*
X173035000Y-98708500I-1J-1905001D01*
G01*
X173035000Y-115857500D02*
G75*
G02*
X171130000Y-117762500I-1905001J1D01*
G01*
D17*
X172223000Y-116625500D02*
G75*
G02*
X171719000Y-116625500I-252000J0D01*
G01*
X171719000Y-116625500D02*
G75*
G02*
X172223000Y-116625500I252000J0D01*
G01*
X173497000Y-117342500D02*
G75*
G02*
X172993000Y-117342500I-252000J0D01*
G01*
X172993000Y-117342500D02*
G75*
G02*
X173497000Y-117342500I252000J0D01*
G01*
D14*
X161900000Y-86200000D02*
X159600000Y-86200000D01*
X168200000Y-86200000D02*
X166000000Y-86200000D01*
X168200000Y-90800000D02*
X159600000Y-90800000D01*
X143925000Y-88025000D02*
X143925000Y-87475000D01*
X144950000Y-85900000D02*
X144025000Y-85900000D01*
X148725000Y-85900000D02*
X147800000Y-85900000D01*
X148725000Y-89600000D02*
X144025000Y-89600000D01*
X148825000Y-88025000D02*
X148825000Y-87475000D01*
X141900000Y-98040000D02*
X141100000Y-98040000D01*
X141900000Y-98040000D02*
X142700000Y-98040000D01*
X141900000Y-101160000D02*
X141100000Y-101160000D01*
X141900000Y-101160000D02*
X142700000Y-101160000D01*
X143440000Y-101440000D02*
X142960000Y-101440000D01*
X143200000Y-101110000D01*
X143440000Y-101440000D01*
G36*
X143440000Y-101440000D02*
G01*
X142960000Y-101440000D01*
X143200000Y-101110000D01*
X143440000Y-101440000D01*
G37*
X141913842Y-103846100D02*
X142388358Y-103846100D01*
X141913842Y-104891100D02*
X142388358Y-104891100D01*
%LPC*%
D18*
X156000000Y-94255000D03*
X156000000Y-95895000D03*
D19*
X141331100Y-106273600D03*
X142971100Y-106273600D03*
D18*
X169025000Y-94330000D03*
X169025000Y-95970000D03*
D20*
X153025000Y-100545000D03*
X153025000Y-102105000D03*
D21*
X152310000Y-86614208D03*
D22*
X153660000Y-87114208D03*
X154460000Y-87114208D03*
D21*
X155810000Y-86614208D03*
D23*
X150975000Y-96600000D03*
X150975000Y-95040000D03*
D24*
X147531100Y-111988600D03*
X145971100Y-111988600D03*
D25*
X137000000Y-113950000D03*
D26*
X137000000Y-113950000D03*
D18*
X166525000Y-94330000D03*
X166525000Y-95970000D03*
D27*
X146026100Y-100558600D03*
X146026100Y-101828600D03*
X146026100Y-103098600D03*
X146026100Y-104368600D03*
X146026100Y-105638600D03*
X146026100Y-106908600D03*
X146026100Y-108178600D03*
X146026100Y-109448600D03*
X150976100Y-109448600D03*
X150976100Y-108178600D03*
X150976100Y-106908600D03*
X150976100Y-105638600D03*
X150976100Y-104368600D03*
X150976100Y-103098600D03*
X150976100Y-101828600D03*
X150976100Y-100558600D03*
D25*
X177000000Y-113950000D03*
D26*
X177000000Y-113950000D03*
D25*
X137000000Y-89950000D03*
D26*
X137000000Y-89950000D03*
D18*
X164025000Y-94330000D03*
X164025000Y-95970000D03*
D28*
X176930000Y-100760000D03*
D29*
X176930000Y-104360000D03*
D30*
X141090000Y-102500000D03*
X143210000Y-102500000D03*
D31*
X141371100Y-108178600D03*
X142931100Y-108178600D03*
D19*
X141331100Y-110083600D03*
X142971100Y-110083600D03*
X141331100Y-111988600D03*
X142971100Y-111988600D03*
D23*
X141400000Y-96600000D03*
X141400000Y-95040000D03*
D28*
X135730000Y-94910000D03*
D29*
X135730000Y-98510000D03*
X135730000Y-102110000D03*
X135730000Y-105710000D03*
X135730000Y-109310000D03*
D23*
X147975000Y-96600000D03*
X147975000Y-95040000D03*
D25*
X177000000Y-89950000D03*
D26*
X177000000Y-89950000D03*
D32*
X172200000Y-114841500D03*
X172200000Y-112301500D03*
X172200000Y-109761500D03*
X172200000Y-107221500D03*
X172200000Y-104681500D03*
X172200000Y-102141500D03*
X172200000Y-99601500D03*
X156035000Y-99601500D03*
X156035000Y-102141500D03*
X156035000Y-104681500D03*
X156035000Y-107221500D03*
X156035000Y-109761500D03*
X156035000Y-112301500D03*
X156035000Y-114841500D03*
D33*
X168590000Y-107535000D03*
X168590000Y-109440000D03*
D34*
X160335000Y-97984600D03*
X158430000Y-97984600D03*
D35*
X165415000Y-115790000D03*
X162875000Y-115790000D03*
X165415000Y-113250000D03*
X162875000Y-113250000D03*
D36*
X168000000Y-88500000D03*
X159800000Y-88500000D03*
D37*
X165900000Y-88500000D03*
D38*
X163900000Y-88500000D03*
X161900000Y-88500000D03*
D23*
X144400000Y-96600000D03*
X144400000Y-95040000D03*
D39*
X143750000Y-86900000D03*
X149000000Y-86900000D03*
X143750000Y-88600000D03*
X149000000Y-88600000D03*
D40*
X143037500Y-100550000D03*
X143037500Y-98650000D03*
X140762500Y-99600000D03*
D41*
X141326100Y-104368600D03*
X142976100Y-104368600D03*
%LPD*%
D42*
X133000000Y-86000000D02*
X181000000Y-86000000D01*
X181000000Y-118000000D01*
X133000000Y-118000000D01*
X133000000Y-86000000D01*
M02*
