G04 #@! TF.GenerationSoftware,KiCad,Pcbnew,9.0.2*
G04 #@! TF.CreationDate,2025-09-03T17:26:11+01:00*
G04 #@! TF.ProjectId,mito,6d69746f-2e6b-4696-9361-645f70636258,rev?*
G04 #@! TF.SameCoordinates,Original*
G04 #@! TF.FileFunction,Copper,L2,Bot*
G04 #@! TF.FilePolarity,Positive*
%FSLAX46Y46*%
G04 Gerber Fmt 4.6, Leading zero omitted, Abs format (unit mm)*
G04 Created by KiCad (PCBNEW 9.0.2) date 2025-09-03 17:26:11*
%MOMM*%
%LPD*%
G01*
G04 APERTURE LIST*
G04 Aperture macros list*
%AMRoundRect*
0 Rectangle with rounded corners*
0 $1 Rounding radius*
0 $2 $3 $4 $5 $6 $7 $8 $9 X,Y pos of 4 corners*
0 Add a 4 corners polygon primitive as box body*
4,1,4,$2,$3,$4,$5,$6,$7,$8,$9,$2,$3,0*
0 Add four circle primitives for the rounded corners*
1,1,$1+$1,$2,$3*
1,1,$1+$1,$4,$5*
1,1,$1+$1,$6,$7*
1,1,$1+$1,$8,$9*
0 Add four rect primitives between the rounded corners*
20,1,$1+$1,$2,$3,$4,$5,0*
20,1,$1+$1,$4,$5,$6,$7,0*
20,1,$1+$1,$6,$7,$8,$9,0*
20,1,$1+$1,$8,$9,$2,$3,0*%
G04 Aperture macros list end*
G04 #@! TA.AperFunction,ComponentPad*
%ADD10RoundRect,0.250000X-0.550000X0.550000X-0.550000X-0.550000X0.550000X-0.550000X0.550000X0.550000X0*%
G04 #@! TD*
G04 #@! TA.AperFunction,ComponentPad*
%ADD11C,1.600000*%
G04 #@! TD*
G04 #@! TA.AperFunction,ComponentPad*
%ADD12C,1.700000*%
G04 #@! TD*
G04 #@! TA.AperFunction,ComponentPad*
%ADD13O,2.200000X3.500000*%
G04 #@! TD*
G04 #@! TA.AperFunction,ComponentPad*
%ADD14R,1.500000X2.500000*%
G04 #@! TD*
G04 #@! TA.AperFunction,ComponentPad*
%ADD15O,1.500000X2.500000*%
G04 #@! TD*
G04 #@! TA.AperFunction,ComponentPad*
%ADD16C,3.600000*%
G04 #@! TD*
G04 #@! TA.AperFunction,ViaPad*
%ADD17C,0.600000*%
G04 #@! TD*
G04 #@! TA.AperFunction,Conductor*
%ADD18C,0.508000*%
G04 #@! TD*
G04 #@! TA.AperFunction,Profile*
%ADD19C,0.050000*%
G04 #@! TD*
G04 APERTURE END LIST*
D10*
X151200000Y-114075000D03*
D11*
X151200000Y-116675000D03*
D12*
X178325000Y-95790000D03*
X178325000Y-98330000D03*
X178325000Y-100870000D03*
X178325000Y-103410000D03*
X178325000Y-105950000D03*
X178325000Y-108490000D03*
D13*
X168050000Y-88450000D03*
X159850000Y-88450000D03*
D14*
X165950000Y-88450000D03*
D15*
X163950000Y-88450000D03*
X161950000Y-88450000D03*
D12*
X135900000Y-96600000D03*
X135900000Y-99140000D03*
X135900000Y-101680000D03*
X135900000Y-104220000D03*
X135900000Y-106760000D03*
D16*
X137000000Y-113950000D03*
X177000000Y-113950000D03*
X137000000Y-89950000D03*
X177000000Y-89950000D03*
D17*
X154100000Y-112300000D03*
X150975000Y-94025000D03*
X147975000Y-94050000D03*
X144400000Y-93850000D03*
X141400000Y-93850000D03*
X153025000Y-103100000D03*
X147700000Y-105650000D03*
X140160000Y-106280000D03*
X155810000Y-87880000D03*
X154100000Y-98650000D03*
X154100000Y-109725000D03*
X166550000Y-107550000D03*
X168600000Y-110850000D03*
D18*
X151200000Y-112200000D02*
X151200000Y-114075000D01*
X151200000Y-112200000D02*
X152550000Y-110850000D01*
X152550000Y-110850000D02*
X157800000Y-110850000D01*
X161950000Y-106700000D02*
X157800000Y-110850000D01*
X166550000Y-107550000D02*
X163950000Y-104950000D01*
X163950000Y-104950000D02*
X163950000Y-88450000D01*
X161950000Y-106700000D02*
X161950000Y-88450000D01*
X154100000Y-89590000D02*
X155810000Y-87880000D01*
X154100000Y-98650000D02*
X154100000Y-109725000D01*
X154100000Y-98650000D02*
X154100000Y-89590000D01*
G04 #@! TA.AperFunction,Conductor*
G36*
X159207454Y-86121785D02*
G01*
X159253209Y-86174589D01*
X159263153Y-86243747D01*
X159234128Y-86307303D01*
X159196710Y-86336585D01*
X159011151Y-86431132D01*
X158807350Y-86579201D01*
X158807345Y-86579205D01*
X158629205Y-86757345D01*
X158629201Y-86757350D01*
X158481132Y-86961151D01*
X158366760Y-87185616D01*
X158288910Y-87425214D01*
X158249500Y-87674038D01*
X158249500Y-89225961D01*
X158288910Y-89474785D01*
X158366760Y-89714383D01*
X158412662Y-89804469D01*
X158466629Y-89910386D01*
X158481132Y-89938848D01*
X158629201Y-90142649D01*
X158629205Y-90142654D01*
X158807345Y-90320794D01*
X158807350Y-90320798D01*
X158985117Y-90449952D01*
X159011155Y-90468870D01*
X159154184Y-90541747D01*
X159235616Y-90583239D01*
X159235618Y-90583239D01*
X159235621Y-90583241D01*
X159475215Y-90661090D01*
X159724038Y-90700500D01*
X159724039Y-90700500D01*
X159975961Y-90700500D01*
X159975962Y-90700500D01*
X160224785Y-90661090D01*
X160464379Y-90583241D01*
X160688845Y-90468870D01*
X160892656Y-90320793D01*
X160983819Y-90229630D01*
X161045142Y-90196145D01*
X161114834Y-90201129D01*
X161170767Y-90243001D01*
X161195184Y-90308465D01*
X161195500Y-90317311D01*
X161195500Y-106336113D01*
X161175815Y-106403152D01*
X161159181Y-106423794D01*
X157523794Y-110059181D01*
X157462471Y-110092666D01*
X157436113Y-110095500D01*
X154993580Y-110095500D01*
X154926541Y-110075815D01*
X154880786Y-110023011D01*
X154870842Y-109953853D01*
X154871963Y-109947309D01*
X154900499Y-109803846D01*
X154900500Y-109803844D01*
X154900500Y-109646155D01*
X154900499Y-109646153D01*
X154869739Y-109491511D01*
X154869738Y-109491508D01*
X154869737Y-109491503D01*
X154863937Y-109477501D01*
X154854500Y-109430053D01*
X154854500Y-98944947D01*
X154863939Y-98897494D01*
X154869737Y-98883497D01*
X154900500Y-98728842D01*
X154900500Y-98571158D01*
X154900500Y-98571155D01*
X154900499Y-98571153D01*
X154869739Y-98416511D01*
X154869738Y-98416508D01*
X154869737Y-98416503D01*
X154863937Y-98402501D01*
X154854500Y-98355053D01*
X154854500Y-89953885D01*
X154874185Y-89886846D01*
X154890814Y-89866209D01*
X156134953Y-88622069D01*
X156175176Y-88595193D01*
X156189179Y-88589394D01*
X156320289Y-88501789D01*
X156431789Y-88390289D01*
X156519394Y-88259179D01*
X156579737Y-88113497D01*
X156610500Y-87958842D01*
X156610500Y-87801158D01*
X156610500Y-87801155D01*
X156610499Y-87801153D01*
X156579738Y-87646510D01*
X156579737Y-87646503D01*
X156541855Y-87555047D01*
X156519397Y-87500827D01*
X156519390Y-87500814D01*
X156431789Y-87369711D01*
X156431786Y-87369707D01*
X156320292Y-87258213D01*
X156320288Y-87258210D01*
X156189185Y-87170609D01*
X156189172Y-87170602D01*
X156043501Y-87110264D01*
X156043489Y-87110261D01*
X155888845Y-87079500D01*
X155888842Y-87079500D01*
X155731158Y-87079500D01*
X155731155Y-87079500D01*
X155576510Y-87110261D01*
X155576498Y-87110264D01*
X155430827Y-87170602D01*
X155430814Y-87170609D01*
X155299711Y-87258210D01*
X155299707Y-87258213D01*
X155188213Y-87369707D01*
X155188207Y-87369715D01*
X155100607Y-87500817D01*
X155094805Y-87514825D01*
X155067927Y-87555047D01*
X153513943Y-89109030D01*
X153513942Y-89109031D01*
X153431369Y-89232612D01*
X153431367Y-89232615D01*
X153427139Y-89242825D01*
X153427138Y-89242827D01*
X153376961Y-89363968D01*
X153376959Y-89363974D01*
X153374493Y-89369925D01*
X153374493Y-89369926D01*
X153345499Y-89515685D01*
X153345499Y-89670425D01*
X153345500Y-89670446D01*
X153345500Y-98355053D01*
X153336062Y-98402501D01*
X153330263Y-98416503D01*
X153330262Y-98416506D01*
X153330260Y-98416511D01*
X153299500Y-98571153D01*
X153299500Y-98728846D01*
X153330261Y-98883489D01*
X153330263Y-98883497D01*
X153336061Y-98897494D01*
X153345500Y-98944947D01*
X153345500Y-109430053D01*
X153336062Y-109477501D01*
X153330263Y-109491503D01*
X153330262Y-109491506D01*
X153330260Y-109491511D01*
X153299500Y-109646153D01*
X153299500Y-109803846D01*
X153328037Y-109947309D01*
X153321810Y-110016900D01*
X153278947Y-110072078D01*
X153213057Y-110095322D01*
X153206420Y-110095500D01*
X152475683Y-110095500D01*
X152329927Y-110124493D01*
X152329919Y-110124495D01*
X152192608Y-110181371D01*
X152069035Y-110263939D01*
X152069034Y-110263940D01*
X152016488Y-110316487D01*
X151963941Y-110369034D01*
X151963939Y-110369036D01*
X150613943Y-111719030D01*
X150613942Y-111719031D01*
X150531372Y-111842607D01*
X150531366Y-111842618D01*
X150474496Y-111979916D01*
X150474493Y-111979926D01*
X150445499Y-112125685D01*
X150445499Y-112280425D01*
X150445500Y-112280446D01*
X150445500Y-112712592D01*
X150425815Y-112779631D01*
X150373011Y-112825386D01*
X150360506Y-112830297D01*
X150330668Y-112840184D01*
X150181342Y-112932289D01*
X150057289Y-113056342D01*
X149965187Y-113205663D01*
X149965186Y-113205666D01*
X149910001Y-113372203D01*
X149910001Y-113372204D01*
X149910000Y-113372204D01*
X149899500Y-113474983D01*
X149899500Y-114675001D01*
X149899501Y-114675018D01*
X149910000Y-114777796D01*
X149910001Y-114777799D01*
X149965185Y-114944331D01*
X149965186Y-114944334D01*
X150057288Y-115093656D01*
X150181344Y-115217712D01*
X150330666Y-115309814D01*
X150469870Y-115355942D01*
X150527313Y-115395712D01*
X150554136Y-115460228D01*
X150541821Y-115529004D01*
X150503750Y-115573964D01*
X150474077Y-115595522D01*
X150474077Y-115595524D01*
X151200000Y-116321446D01*
X151925922Y-115595524D01*
X151925921Y-115595522D01*
X151896250Y-115573965D01*
X151853584Y-115518635D01*
X151847605Y-115449022D01*
X151880211Y-115387227D01*
X151930129Y-115355941D01*
X152069334Y-115309814D01*
X152218656Y-115217712D01*
X152342712Y-115093656D01*
X152434814Y-114944334D01*
X152489999Y-114777797D01*
X152500500Y-114675009D01*
X152500499Y-113474992D01*
X152489999Y-113372203D01*
X152434814Y-113205666D01*
X152342712Y-113056344D01*
X152218656Y-112932288D01*
X152069334Y-112840186D01*
X152069332Y-112840185D01*
X152069330Y-112840184D01*
X152069331Y-112840184D01*
X152039494Y-112830297D01*
X152019462Y-112816427D01*
X151997297Y-112806305D01*
X151991248Y-112796892D01*
X151982050Y-112790524D01*
X151972696Y-112768025D01*
X151959523Y-112747527D01*
X151957063Y-112730422D01*
X151955228Y-112726007D01*
X151954500Y-112712592D01*
X151954500Y-112563886D01*
X151974185Y-112496847D01*
X151990819Y-112476205D01*
X152826205Y-111640819D01*
X152887528Y-111607334D01*
X152913886Y-111604500D01*
X157719554Y-111604500D01*
X157719574Y-111604501D01*
X157725688Y-111604501D01*
X157874314Y-111604501D01*
X157911009Y-111597200D01*
X157995894Y-111580315D01*
X158020080Y-111575505D01*
X158076955Y-111551946D01*
X158157389Y-111518630D01*
X158280966Y-111436059D01*
X162430963Y-107286060D01*
X162430966Y-107286059D01*
X162536059Y-107180966D01*
X162618629Y-107057390D01*
X162675505Y-106920080D01*
X162704500Y-106774312D01*
X162704500Y-90010707D01*
X162713470Y-89980157D01*
X162720842Y-89949178D01*
X162723407Y-89946316D01*
X162724185Y-89943668D01*
X162742538Y-89921340D01*
X162748697Y-89915414D01*
X162764646Y-89903828D01*
X162863171Y-89805302D01*
X162864038Y-89804469D01*
X162894002Y-89788854D01*
X162923642Y-89772670D01*
X162924889Y-89772759D01*
X162925999Y-89772181D01*
X162959645Y-89775244D01*
X162993334Y-89777654D01*
X162994527Y-89778421D01*
X162995581Y-89778517D01*
X162999832Y-89781830D01*
X163037681Y-89806155D01*
X163135354Y-89903828D01*
X163144383Y-89910388D01*
X163187050Y-89965715D01*
X163195500Y-90010707D01*
X163195500Y-104870552D01*
X163195499Y-104870578D01*
X163195499Y-104875688D01*
X163195499Y-105024312D01*
X163195499Y-105024314D01*
X163195498Y-105024314D01*
X163224493Y-105170073D01*
X163224496Y-105170083D01*
X163281366Y-105307381D01*
X163281372Y-105307392D01*
X163363942Y-105430968D01*
X163363943Y-105430969D01*
X165807926Y-107874950D01*
X165834805Y-107915176D01*
X165840604Y-107929175D01*
X165840607Y-107929181D01*
X165928207Y-108060284D01*
X165928213Y-108060292D01*
X166039707Y-108171786D01*
X166039711Y-108171789D01*
X166170814Y-108259390D01*
X166170827Y-108259397D01*
X166316498Y-108319735D01*
X166316503Y-108319737D01*
X166471153Y-108350499D01*
X166471156Y-108350500D01*
X166471158Y-108350500D01*
X166628844Y-108350500D01*
X166628845Y-108350499D01*
X166783497Y-108319737D01*
X166929179Y-108259394D01*
X167060289Y-108171789D01*
X167171789Y-108060289D01*
X167259394Y-107929179D01*
X167319737Y-107783497D01*
X167350500Y-107628842D01*
X167350500Y-107471158D01*
X167350500Y-107471155D01*
X167350499Y-107471153D01*
X167348259Y-107459890D01*
X167319737Y-107316503D01*
X167281965Y-107225312D01*
X167259397Y-107170827D01*
X167259390Y-107170814D01*
X167171789Y-107039711D01*
X167171786Y-107039707D01*
X167060292Y-106928213D01*
X167060284Y-106928207D01*
X166929181Y-106840607D01*
X166929175Y-106840604D01*
X166915176Y-106834805D01*
X166874950Y-106807926D01*
X164740819Y-104673794D01*
X164707334Y-104612471D01*
X164704500Y-104586113D01*
X164704500Y-95683713D01*
X176974500Y-95683713D01*
X176974500Y-95896286D01*
X177007753Y-96106239D01*
X177073444Y-96308414D01*
X177169951Y-96497820D01*
X177294890Y-96669786D01*
X177445213Y-96820109D01*
X177617179Y-96945048D01*
X177617181Y-96945049D01*
X177617184Y-96945051D01*
X177626493Y-96949794D01*
X177677290Y-96997766D01*
X177694087Y-97065587D01*
X177671552Y-97131722D01*
X177626505Y-97170760D01*
X177617446Y-97175376D01*
X177617440Y-97175380D01*
X177563282Y-97214727D01*
X177563282Y-97214728D01*
X178195591Y-97847037D01*
X178132007Y-97864075D01*
X178017993Y-97929901D01*
X177924901Y-98022993D01*
X177859075Y-98137007D01*
X177842037Y-98200591D01*
X177209728Y-97568282D01*
X177209727Y-97568282D01*
X177170380Y-97622439D01*
X177073904Y-97811782D01*
X177008242Y-98013869D01*
X177008242Y-98013872D01*
X176975000Y-98223753D01*
X176975000Y-98436246D01*
X177008242Y-98646127D01*
X177008242Y-98646130D01*
X177073904Y-98848217D01*
X177170375Y-99037550D01*
X177209728Y-99091716D01*
X177842037Y-98459408D01*
X177859075Y-98522993D01*
X177924901Y-98637007D01*
X178017993Y-98730099D01*
X178132007Y-98795925D01*
X178195590Y-98812962D01*
X177563282Y-99445269D01*
X177563282Y-99445270D01*
X177617452Y-99484626D01*
X177617451Y-99484626D01*
X177626495Y-99489234D01*
X177677292Y-99537208D01*
X177694087Y-99605029D01*
X177671550Y-99671164D01*
X177626499Y-99710202D01*
X177617182Y-99714949D01*
X177445213Y-99839890D01*
X177294890Y-99990213D01*
X177169951Y-100162179D01*
X177073444Y-100351585D01*
X177007753Y-100553760D01*
X176974500Y-100763713D01*
X176974500Y-100976286D01*
X177007753Y-101186239D01*
X177073444Y-101388414D01*
X177169951Y-101577820D01*
X177294890Y-101749786D01*
X177445213Y-101900109D01*
X177617182Y-102025050D01*
X177625946Y-102029516D01*
X177676742Y-102077491D01*
X177693536Y-102145312D01*
X177670998Y-102211447D01*
X177625946Y-102250484D01*
X177617182Y-102254949D01*
X177445213Y-102379890D01*
X177294890Y-102530213D01*
X177169951Y-102702179D01*
X177073444Y-102891585D01*
X177007753Y-103093760D01*
X176974500Y-103303713D01*
X176974500Y-103516286D01*
X177007753Y-103726239D01*
X177073444Y-103928414D01*
X177169951Y-104117820D01*
X177294890Y-104289786D01*
X177445213Y-104440109D01*
X177617182Y-104565050D01*
X177625946Y-104569516D01*
X177676742Y-104617491D01*
X177693536Y-104685312D01*
X177670998Y-104751447D01*
X177625946Y-104790484D01*
X177617182Y-104794949D01*
X177445213Y-104919890D01*
X177294890Y-105070213D01*
X177169951Y-105242179D01*
X177073444Y-105431585D01*
X177007753Y-105633760D01*
X176974500Y-105843713D01*
X176974500Y-106056286D01*
X177003879Y-106241782D01*
X177007754Y-106266243D01*
X177065469Y-106443872D01*
X177073444Y-106468414D01*
X177169951Y-106657820D01*
X177294890Y-106829786D01*
X177445213Y-106980109D01*
X177617182Y-107105050D01*
X177625946Y-107109516D01*
X177676742Y-107157491D01*
X177693536Y-107225312D01*
X177670998Y-107291447D01*
X177625946Y-107330484D01*
X177617182Y-107334949D01*
X177445213Y-107459890D01*
X177294890Y-107610213D01*
X177169951Y-107782179D01*
X177073444Y-107971585D01*
X177007753Y-108173760D01*
X176974500Y-108383713D01*
X176974500Y-108596286D01*
X177007753Y-108806239D01*
X177073444Y-109008414D01*
X177169951Y-109197820D01*
X177294890Y-109369786D01*
X177445213Y-109520109D01*
X177617179Y-109645048D01*
X177617181Y-109645049D01*
X177617184Y-109645051D01*
X177806588Y-109741557D01*
X178008757Y-109807246D01*
X178218713Y-109840500D01*
X178218714Y-109840500D01*
X178431286Y-109840500D01*
X178431287Y-109840500D01*
X178641243Y-109807246D01*
X178843412Y-109741557D01*
X179032816Y-109645051D01*
X179054789Y-109629086D01*
X179204786Y-109520109D01*
X179204788Y-109520106D01*
X179204792Y-109520104D01*
X179355104Y-109369792D01*
X179355106Y-109369788D01*
X179355109Y-109369786D01*
X179480048Y-109197820D01*
X179480047Y-109197820D01*
X179480051Y-109197816D01*
X179576557Y-109008412D01*
X179642246Y-108806243D01*
X179675500Y-108596287D01*
X179675500Y-108383713D01*
X179642246Y-108173757D01*
X179576557Y-107971588D01*
X179480051Y-107782184D01*
X179480049Y-107782181D01*
X179480048Y-107782179D01*
X179355109Y-107610213D01*
X179204786Y-107459890D01*
X179032820Y-107334951D01*
X179032115Y-107334591D01*
X179024054Y-107330485D01*
X178973259Y-107282512D01*
X178956463Y-107214692D01*
X178978999Y-107148556D01*
X179024054Y-107109515D01*
X179032816Y-107105051D01*
X179072627Y-107076127D01*
X179204786Y-106980109D01*
X179204788Y-106980106D01*
X179204792Y-106980104D01*
X179355104Y-106829792D01*
X179355106Y-106829788D01*
X179355109Y-106829786D01*
X179480048Y-106657820D01*
X179480047Y-106657820D01*
X179480051Y-106657816D01*
X179576557Y-106468412D01*
X179642246Y-106266243D01*
X179675500Y-106056287D01*
X179675500Y-105843713D01*
X179642246Y-105633757D01*
X179576557Y-105431588D01*
X179480051Y-105242184D01*
X179480049Y-105242181D01*
X179480048Y-105242179D01*
X179355109Y-105070213D01*
X179204786Y-104919890D01*
X179032820Y-104794951D01*
X179032115Y-104794591D01*
X179024054Y-104790485D01*
X178973259Y-104742512D01*
X178956463Y-104674692D01*
X178978999Y-104608556D01*
X179024054Y-104569515D01*
X179032816Y-104565051D01*
X179072473Y-104536239D01*
X179204786Y-104440109D01*
X179204788Y-104440106D01*
X179204792Y-104440104D01*
X179355104Y-104289792D01*
X179355106Y-104289788D01*
X179355109Y-104289786D01*
X179480048Y-104117820D01*
X179480047Y-104117820D01*
X179480051Y-104117816D01*
X179576557Y-103928412D01*
X179642246Y-103726243D01*
X179675500Y-103516287D01*
X179675500Y-103303713D01*
X179642246Y-103093757D01*
X179576557Y-102891588D01*
X179480051Y-102702184D01*
X179480049Y-102702181D01*
X179480048Y-102702179D01*
X179355109Y-102530213D01*
X179204786Y-102379890D01*
X179032820Y-102254951D01*
X179032115Y-102254591D01*
X179024054Y-102250485D01*
X178973259Y-102202512D01*
X178956463Y-102134692D01*
X178978999Y-102068556D01*
X179024054Y-102029515D01*
X179032816Y-102025051D01*
X179072473Y-101996239D01*
X179204786Y-101900109D01*
X179204788Y-101900106D01*
X179204792Y-101900104D01*
X179355104Y-101749792D01*
X179355106Y-101749788D01*
X179355109Y-101749786D01*
X179480048Y-101577820D01*
X179480047Y-101577820D01*
X179480051Y-101577816D01*
X179576557Y-101388412D01*
X179642246Y-101186243D01*
X179675500Y-100976287D01*
X179675500Y-100763713D01*
X179642246Y-100553757D01*
X179576557Y-100351588D01*
X179480051Y-100162184D01*
X179480049Y-100162181D01*
X179480048Y-100162179D01*
X179355109Y-99990213D01*
X179204786Y-99839890D01*
X179032817Y-99714949D01*
X179023504Y-99710204D01*
X178972707Y-99662230D01*
X178955912Y-99594409D01*
X178978449Y-99528274D01*
X179023507Y-99489232D01*
X179032555Y-99484622D01*
X179086716Y-99445270D01*
X179086717Y-99445270D01*
X178454408Y-98812962D01*
X178517993Y-98795925D01*
X178632007Y-98730099D01*
X178725099Y-98637007D01*
X178790925Y-98522993D01*
X178807962Y-98459408D01*
X179440270Y-99091717D01*
X179440270Y-99091716D01*
X179479622Y-99037554D01*
X179576095Y-98848217D01*
X179641757Y-98646130D01*
X179641757Y-98646127D01*
X179675000Y-98436246D01*
X179675000Y-98223753D01*
X179641757Y-98013872D01*
X179641757Y-98013869D01*
X179576095Y-97811782D01*
X179479624Y-97622449D01*
X179440270Y-97568282D01*
X179440269Y-97568282D01*
X178807962Y-98200590D01*
X178790925Y-98137007D01*
X178725099Y-98022993D01*
X178632007Y-97929901D01*
X178517993Y-97864075D01*
X178454409Y-97847037D01*
X179086716Y-97214728D01*
X179032547Y-97175373D01*
X179032547Y-97175372D01*
X179023500Y-97170763D01*
X178972706Y-97122788D01*
X178955912Y-97054966D01*
X178978451Y-96988832D01*
X179023508Y-96949793D01*
X179032816Y-96945051D01*
X179112007Y-96887515D01*
X179204786Y-96820109D01*
X179204788Y-96820106D01*
X179204792Y-96820104D01*
X179355104Y-96669792D01*
X179355106Y-96669788D01*
X179355109Y-96669786D01*
X179480048Y-96497820D01*
X179480047Y-96497820D01*
X179480051Y-96497816D01*
X179576557Y-96308412D01*
X179642246Y-96106243D01*
X179675500Y-95896287D01*
X179675500Y-95683713D01*
X179642246Y-95473757D01*
X179576557Y-95271588D01*
X179480051Y-95082184D01*
X179480049Y-95082181D01*
X179480048Y-95082179D01*
X179355109Y-94910213D01*
X179204786Y-94759890D01*
X179032820Y-94634951D01*
X178843414Y-94538444D01*
X178843413Y-94538443D01*
X178843412Y-94538443D01*
X178641243Y-94472754D01*
X178641241Y-94472753D01*
X178641240Y-94472753D01*
X178479957Y-94447208D01*
X178431287Y-94439500D01*
X178218713Y-94439500D01*
X178170042Y-94447208D01*
X178008760Y-94472753D01*
X177806585Y-94538444D01*
X177617179Y-94634951D01*
X177445213Y-94759890D01*
X177294890Y-94910213D01*
X177169951Y-95082179D01*
X177073444Y-95271585D01*
X177007753Y-95473760D01*
X176974500Y-95683713D01*
X164704500Y-95683713D01*
X164704500Y-90201995D01*
X164724185Y-90134956D01*
X164776989Y-90089201D01*
X164846147Y-90079257D01*
X164902808Y-90102727D01*
X164957668Y-90143795D01*
X164957671Y-90143797D01*
X165092517Y-90194091D01*
X165092516Y-90194091D01*
X165099444Y-90194835D01*
X165152127Y-90200500D01*
X166747872Y-90200499D01*
X166807483Y-90194091D01*
X166807486Y-90194089D01*
X166814554Y-90193330D01*
X166883314Y-90205736D01*
X166915490Y-90228939D01*
X167007345Y-90320794D01*
X167007350Y-90320798D01*
X167185117Y-90449952D01*
X167211155Y-90468870D01*
X167354184Y-90541747D01*
X167435616Y-90583239D01*
X167435618Y-90583239D01*
X167435621Y-90583241D01*
X167675215Y-90661090D01*
X167924038Y-90700500D01*
X167924039Y-90700500D01*
X168175961Y-90700500D01*
X168175962Y-90700500D01*
X168424785Y-90661090D01*
X168664379Y-90583241D01*
X168888845Y-90468870D01*
X169092656Y-90320793D01*
X169270793Y-90142656D01*
X169418870Y-89938845D01*
X169533241Y-89714379D01*
X169611090Y-89474785D01*
X169650500Y-89225962D01*
X169650500Y-87674038D01*
X169611090Y-87425215D01*
X169533241Y-87185621D01*
X169533239Y-87185618D01*
X169533239Y-87185616D01*
X169479170Y-87079500D01*
X169418870Y-86961155D01*
X169370986Y-86895248D01*
X169270798Y-86757350D01*
X169270794Y-86757345D01*
X169092654Y-86579205D01*
X169092649Y-86579201D01*
X168888848Y-86431132D01*
X168888847Y-86431131D01*
X168888845Y-86431130D01*
X168703290Y-86336585D01*
X168652494Y-86288610D01*
X168635699Y-86220789D01*
X168658236Y-86154654D01*
X168712951Y-86111203D01*
X168759585Y-86102100D01*
X180773900Y-86102100D01*
X180840939Y-86121785D01*
X180886694Y-86174589D01*
X180897900Y-86226100D01*
X180897900Y-117773900D01*
X180878215Y-117840939D01*
X180825411Y-117886694D01*
X180773900Y-117897900D01*
X152048777Y-117897900D01*
X151981738Y-117878215D01*
X151935983Y-117825411D01*
X151925159Y-117764171D01*
X151925922Y-117754474D01*
X151200000Y-117028553D01*
X150474076Y-117754474D01*
X150474840Y-117764171D01*
X150460476Y-117832549D01*
X150411424Y-117882305D01*
X150351222Y-117897900D01*
X145439453Y-117897900D01*
X145372414Y-117878215D01*
X145326659Y-117825411D01*
X145316715Y-117756253D01*
X145345740Y-117692697D01*
X145404518Y-117654923D01*
X145415262Y-117652283D01*
X145450785Y-117645216D01*
X145491835Y-117637051D01*
X145673914Y-117561632D01*
X145837782Y-117452139D01*
X145977139Y-117312782D01*
X146086632Y-117148914D01*
X146162051Y-116966835D01*
X146200500Y-116773541D01*
X146200500Y-116576459D01*
X146199749Y-116572682D01*
X149900000Y-116572682D01*
X149900000Y-116777317D01*
X149932009Y-116979417D01*
X149995244Y-117174031D01*
X150088141Y-117356350D01*
X150088147Y-117356359D01*
X150120523Y-117400921D01*
X150120524Y-117400922D01*
X150846446Y-116675001D01*
X150846446Y-116674999D01*
X150806951Y-116635504D01*
X150900000Y-116635504D01*
X150900000Y-116714496D01*
X150920444Y-116790796D01*
X150959940Y-116859205D01*
X151015795Y-116915060D01*
X151084204Y-116954556D01*
X151160504Y-116975000D01*
X151239496Y-116975000D01*
X151315796Y-116954556D01*
X151384205Y-116915060D01*
X151440060Y-116859205D01*
X151479556Y-116790796D01*
X151500000Y-116714496D01*
X151500000Y-116674999D01*
X151553553Y-116674999D01*
X151553553Y-116675000D01*
X152279474Y-117400921D01*
X152311859Y-117356349D01*
X152404755Y-117174031D01*
X152467990Y-116979417D01*
X152500000Y-116777317D01*
X152500000Y-116572682D01*
X152467990Y-116370582D01*
X152404755Y-116175968D01*
X152311859Y-115993650D01*
X152279474Y-115949077D01*
X152279474Y-115949076D01*
X151553553Y-116674999D01*
X151500000Y-116674999D01*
X151500000Y-116635504D01*
X151479556Y-116559204D01*
X151440060Y-116490795D01*
X151384205Y-116434940D01*
X151315796Y-116395444D01*
X151239496Y-116375000D01*
X151160504Y-116375000D01*
X151084204Y-116395444D01*
X151015795Y-116434940D01*
X150959940Y-116490795D01*
X150920444Y-116559204D01*
X150900000Y-116635504D01*
X150806951Y-116635504D01*
X150120524Y-115949077D01*
X150120523Y-115949077D01*
X150088143Y-115993644D01*
X149995244Y-116175968D01*
X149932009Y-116370582D01*
X149900000Y-116572682D01*
X146199749Y-116572682D01*
X146162051Y-116383165D01*
X146156839Y-116370582D01*
X146086635Y-116201092D01*
X146086628Y-116201079D01*
X145977139Y-116037218D01*
X145977136Y-116037214D01*
X145837785Y-115897863D01*
X145837781Y-115897860D01*
X145673920Y-115788371D01*
X145673907Y-115788364D01*
X145491839Y-115712950D01*
X145491829Y-115712947D01*
X145298543Y-115674500D01*
X145298541Y-115674500D01*
X145101459Y-115674500D01*
X145101457Y-115674500D01*
X144908170Y-115712947D01*
X144908160Y-115712950D01*
X144726092Y-115788364D01*
X144726079Y-115788371D01*
X144562218Y-115897860D01*
X144562214Y-115897863D01*
X144422863Y-116037214D01*
X144422860Y-116037218D01*
X144313371Y-116201079D01*
X144313364Y-116201092D01*
X144237950Y-116383160D01*
X144237947Y-116383170D01*
X144199500Y-116576456D01*
X144199500Y-116576458D01*
X144199500Y-116576459D01*
X144199500Y-116773541D01*
X144199500Y-116773543D01*
X144199499Y-116773543D01*
X144237947Y-116966829D01*
X144237950Y-116966839D01*
X144313364Y-117148907D01*
X144313371Y-117148920D01*
X144422860Y-117312781D01*
X144422863Y-117312785D01*
X144562214Y-117452136D01*
X144562218Y-117452139D01*
X144726079Y-117561628D01*
X144726092Y-117561635D01*
X144908160Y-117637049D01*
X144908165Y-117637051D01*
X144941399Y-117643661D01*
X144984738Y-117652283D01*
X145046649Y-117684668D01*
X145081224Y-117745384D01*
X145077484Y-117815153D01*
X145036617Y-117871825D01*
X144971599Y-117897406D01*
X144960547Y-117897900D01*
X133226100Y-117897900D01*
X133159061Y-117878215D01*
X133113306Y-117825411D01*
X133102100Y-117773900D01*
X133102100Y-114173543D01*
X144199499Y-114173543D01*
X144237947Y-114366829D01*
X144237950Y-114366839D01*
X144313364Y-114548907D01*
X144313371Y-114548920D01*
X144422860Y-114712781D01*
X144422863Y-114712785D01*
X144562214Y-114852136D01*
X144562218Y-114852139D01*
X144726079Y-114961628D01*
X144726092Y-114961635D01*
X144908160Y-115037049D01*
X144908165Y-115037051D01*
X144908169Y-115037051D01*
X144908170Y-115037052D01*
X145101456Y-115075500D01*
X145101459Y-115075500D01*
X145298543Y-115075500D01*
X145428582Y-115049632D01*
X145491835Y-115037051D01*
X145673914Y-114961632D01*
X145837782Y-114852139D01*
X145977139Y-114712782D01*
X146086632Y-114548914D01*
X146162051Y-114366835D01*
X146200500Y-114173541D01*
X146200500Y-113976459D01*
X146200500Y-113976456D01*
X146162052Y-113783170D01*
X146162051Y-113783169D01*
X146162051Y-113783165D01*
X146162049Y-113783160D01*
X146086635Y-113601092D01*
X146086628Y-113601079D01*
X145977139Y-113437218D01*
X145977136Y-113437214D01*
X145837785Y-113297863D01*
X145837781Y-113297860D01*
X145673920Y-113188371D01*
X145673907Y-113188364D01*
X145491839Y-113112950D01*
X145491829Y-113112947D01*
X145298543Y-113074500D01*
X145298541Y-113074500D01*
X145101459Y-113074500D01*
X145101457Y-113074500D01*
X144908170Y-113112947D01*
X144908160Y-113112950D01*
X144726092Y-113188364D01*
X144726079Y-113188371D01*
X144562218Y-113297860D01*
X144562214Y-113297863D01*
X144422863Y-113437214D01*
X144422860Y-113437218D01*
X144313371Y-113601079D01*
X144313364Y-113601092D01*
X144237950Y-113783160D01*
X144237947Y-113783170D01*
X144199500Y-113976456D01*
X144199500Y-113976459D01*
X144199500Y-114173541D01*
X144199500Y-114173543D01*
X144199499Y-114173543D01*
X133102100Y-114173543D01*
X133102100Y-96493713D01*
X134549500Y-96493713D01*
X134549500Y-96706287D01*
X134582754Y-96916243D01*
X134623471Y-97041557D01*
X134648444Y-97118414D01*
X134744951Y-97307820D01*
X134869890Y-97479786D01*
X135020213Y-97630109D01*
X135192179Y-97755048D01*
X135192181Y-97755049D01*
X135192184Y-97755051D01*
X135201493Y-97759794D01*
X135252290Y-97807766D01*
X135269087Y-97875587D01*
X135246552Y-97941722D01*
X135201505Y-97980760D01*
X135192446Y-97985376D01*
X135192440Y-97985380D01*
X135138282Y-98024727D01*
X135138282Y-98024728D01*
X135770591Y-98657037D01*
X135707007Y-98674075D01*
X135592993Y-98739901D01*
X135499901Y-98832993D01*
X135434075Y-98947007D01*
X135417037Y-99010591D01*
X134784728Y-98378282D01*
X134784727Y-98378282D01*
X134745380Y-98432439D01*
X134648904Y-98621782D01*
X134583242Y-98823869D01*
X134583242Y-98823872D01*
X134550000Y-99033753D01*
X134550000Y-99246246D01*
X134583242Y-99456127D01*
X134583242Y-99456130D01*
X134648904Y-99658217D01*
X134745375Y-99847550D01*
X134784728Y-99901716D01*
X135417037Y-99269408D01*
X135434075Y-99332993D01*
X135499901Y-99447007D01*
X135592993Y-99540099D01*
X135707007Y-99605925D01*
X135770590Y-99622962D01*
X135138282Y-100255269D01*
X135138282Y-100255270D01*
X135192452Y-100294626D01*
X135192451Y-100294626D01*
X135201495Y-100299234D01*
X135252292Y-100347208D01*
X135269087Y-100415029D01*
X135246550Y-100481164D01*
X135201499Y-100520202D01*
X135192182Y-100524949D01*
X135020213Y-100649890D01*
X134869890Y-100800213D01*
X134744951Y-100972179D01*
X134648444Y-101161585D01*
X134582753Y-101363760D01*
X134549500Y-101573713D01*
X134549500Y-101786287D01*
X134582754Y-101996243D01*
X134635456Y-102158443D01*
X134648444Y-102198414D01*
X134744951Y-102387820D01*
X134869890Y-102559786D01*
X135020213Y-102710109D01*
X135192182Y-102835050D01*
X135200946Y-102839516D01*
X135251742Y-102887491D01*
X135268536Y-102955312D01*
X135245998Y-103021447D01*
X135200946Y-103060484D01*
X135192182Y-103064949D01*
X135020213Y-103189890D01*
X134869890Y-103340213D01*
X134744951Y-103512179D01*
X134648444Y-103701585D01*
X134582753Y-103903760D01*
X134549500Y-104113713D01*
X134549500Y-104326287D01*
X134582754Y-104536243D01*
X134635456Y-104698443D01*
X134648444Y-104738414D01*
X134744951Y-104927820D01*
X134869890Y-105099786D01*
X135020213Y-105250109D01*
X135192179Y-105375048D01*
X135192181Y-105375049D01*
X135192184Y-105375051D01*
X135201493Y-105379794D01*
X135252290Y-105427766D01*
X135269087Y-105495587D01*
X135246552Y-105561722D01*
X135201505Y-105600760D01*
X135192446Y-105605376D01*
X135192440Y-105605380D01*
X135138282Y-105644727D01*
X135138282Y-105644728D01*
X135770591Y-106277037D01*
X135707007Y-106294075D01*
X135592993Y-106359901D01*
X135499901Y-106452993D01*
X135434075Y-106567007D01*
X135417037Y-106630591D01*
X134784728Y-105998282D01*
X134784727Y-105998282D01*
X134745380Y-106052439D01*
X134648904Y-106241782D01*
X134583242Y-106443869D01*
X134583242Y-106443872D01*
X134550000Y-106653753D01*
X134550000Y-106866246D01*
X134583242Y-107076127D01*
X134583242Y-107076130D01*
X134648904Y-107278217D01*
X134745375Y-107467550D01*
X134784728Y-107521716D01*
X135417037Y-106889408D01*
X135434075Y-106952993D01*
X135499901Y-107067007D01*
X135592993Y-107160099D01*
X135707007Y-107225925D01*
X135770590Y-107242962D01*
X135138282Y-107875269D01*
X135138282Y-107875270D01*
X135192449Y-107914624D01*
X135381782Y-108011095D01*
X135583870Y-108076757D01*
X135793754Y-108110000D01*
X136006246Y-108110000D01*
X136216127Y-108076757D01*
X136216130Y-108076757D01*
X136418217Y-108011095D01*
X136607554Y-107914622D01*
X136661716Y-107875270D01*
X136661717Y-107875270D01*
X136029408Y-107242962D01*
X136092993Y-107225925D01*
X136207007Y-107160099D01*
X136300099Y-107067007D01*
X136365925Y-106952993D01*
X136382962Y-106889408D01*
X137015270Y-107521717D01*
X137015270Y-107521716D01*
X137054622Y-107467554D01*
X137151095Y-107278217D01*
X137216757Y-107076130D01*
X137216757Y-107076127D01*
X137250000Y-106866246D01*
X137250000Y-106653753D01*
X137216757Y-106443872D01*
X137216757Y-106443869D01*
X137151095Y-106241782D01*
X137054624Y-106052449D01*
X137015270Y-105998282D01*
X137015269Y-105998282D01*
X136382962Y-106630590D01*
X136365925Y-106567007D01*
X136300099Y-106452993D01*
X136207007Y-106359901D01*
X136092993Y-106294075D01*
X136029409Y-106277037D01*
X136661716Y-105644728D01*
X136607547Y-105605373D01*
X136607547Y-105605372D01*
X136598500Y-105600763D01*
X136547706Y-105552788D01*
X136530912Y-105484966D01*
X136553451Y-105418832D01*
X136598508Y-105379793D01*
X136607816Y-105375051D01*
X136700941Y-105307392D01*
X136779786Y-105250109D01*
X136779788Y-105250106D01*
X136779792Y-105250104D01*
X136930104Y-105099792D01*
X136930106Y-105099788D01*
X136930109Y-105099786D01*
X137055048Y-104927820D01*
X137055047Y-104927820D01*
X137055051Y-104927816D01*
X137151557Y-104738412D01*
X137217246Y-104536243D01*
X137250500Y-104326287D01*
X137250500Y-104113713D01*
X137217246Y-103903757D01*
X137151557Y-103701588D01*
X137055051Y-103512184D01*
X137055049Y-103512181D01*
X137055048Y-103512179D01*
X136930109Y-103340213D01*
X136779786Y-103189890D01*
X136607820Y-103064951D01*
X136607115Y-103064591D01*
X136599054Y-103060485D01*
X136548259Y-103012512D01*
X136531463Y-102944692D01*
X136553999Y-102878556D01*
X136599054Y-102839515D01*
X136607816Y-102835051D01*
X136629789Y-102819086D01*
X136779786Y-102710109D01*
X136779788Y-102710106D01*
X136779792Y-102710104D01*
X136930104Y-102559792D01*
X136930106Y-102559788D01*
X136930109Y-102559786D01*
X137055048Y-102387820D01*
X137055047Y-102387820D01*
X137055051Y-102387816D01*
X137151557Y-102198412D01*
X137217246Y-101996243D01*
X137250500Y-101786287D01*
X137250500Y-101573713D01*
X137217246Y-101363757D01*
X137151557Y-101161588D01*
X137055051Y-100972184D01*
X137055049Y-100972181D01*
X137055048Y-100972179D01*
X136930109Y-100800213D01*
X136779786Y-100649890D01*
X136607817Y-100524949D01*
X136598504Y-100520204D01*
X136547707Y-100472230D01*
X136530912Y-100404409D01*
X136553449Y-100338274D01*
X136598507Y-100299232D01*
X136607555Y-100294622D01*
X136661716Y-100255270D01*
X136661717Y-100255270D01*
X136029408Y-99622962D01*
X136092993Y-99605925D01*
X136207007Y-99540099D01*
X136300099Y-99447007D01*
X136365925Y-99332993D01*
X136382962Y-99269408D01*
X137015270Y-99901717D01*
X137015270Y-99901716D01*
X137054622Y-99847554D01*
X137151095Y-99658217D01*
X137216757Y-99456130D01*
X137216757Y-99456127D01*
X137250000Y-99246246D01*
X137250000Y-99033753D01*
X137216757Y-98823872D01*
X137216757Y-98823869D01*
X137151095Y-98621782D01*
X137054624Y-98432449D01*
X137015270Y-98378282D01*
X137015269Y-98378282D01*
X136382962Y-99010590D01*
X136365925Y-98947007D01*
X136300099Y-98832993D01*
X136207007Y-98739901D01*
X136092993Y-98674075D01*
X136029409Y-98657037D01*
X136661716Y-98024728D01*
X136607547Y-97985373D01*
X136607547Y-97985372D01*
X136598500Y-97980763D01*
X136547706Y-97932788D01*
X136530912Y-97864966D01*
X136553451Y-97798832D01*
X136598508Y-97759793D01*
X136607816Y-97755051D01*
X136687007Y-97697515D01*
X136779786Y-97630109D01*
X136779788Y-97630106D01*
X136779792Y-97630104D01*
X136930104Y-97479792D01*
X136930106Y-97479788D01*
X136930109Y-97479786D01*
X137055048Y-97307820D01*
X137055047Y-97307820D01*
X137055051Y-97307816D01*
X137151557Y-97118412D01*
X137217246Y-96916243D01*
X137250500Y-96706287D01*
X137250500Y-96493713D01*
X137217246Y-96283757D01*
X137151557Y-96081588D01*
X137055051Y-95892184D01*
X137055049Y-95892181D01*
X137055048Y-95892179D01*
X136930109Y-95720213D01*
X136779786Y-95569890D01*
X136607820Y-95444951D01*
X136418414Y-95348444D01*
X136418413Y-95348443D01*
X136418412Y-95348443D01*
X136216243Y-95282754D01*
X136216241Y-95282753D01*
X136216240Y-95282753D01*
X136054957Y-95257208D01*
X136006287Y-95249500D01*
X135793713Y-95249500D01*
X135745042Y-95257208D01*
X135583760Y-95282753D01*
X135381585Y-95348444D01*
X135192179Y-95444951D01*
X135020213Y-95569890D01*
X134869890Y-95720213D01*
X134744951Y-95892179D01*
X134648444Y-96081585D01*
X134582753Y-96283760D01*
X134549500Y-96493713D01*
X133102100Y-96493713D01*
X133102100Y-86226100D01*
X133121785Y-86159061D01*
X133174589Y-86113306D01*
X133226100Y-86102100D01*
X159140415Y-86102100D01*
X159207454Y-86121785D01*
G37*
G04 #@! TD.AperFunction*
D19*
X133000000Y-86000000D02*
X181000000Y-86000000D01*
X181000000Y-118000000D01*
X133000000Y-118000000D01*
X133000000Y-86000000D01*
M02*
