G04 #@! TF.GenerationSoftware,KiCad,Pcbnew,9.0.2*
G04 #@! TF.CreationDate,2025-09-03T17:26:11+01:00*
G04 #@! TF.ProjectId,mito,6d69746f-2e6b-4696-9361-645f70636258,rev?*
G04 #@! TF.SameCoordinates,Original*
G04 #@! TF.FileFunction,Copper,L1,Top*
G04 #@! TF.FilePolarity,Positive*
%FSLAX46Y46*%
G04 Gerber Fmt 4.6, Leading zero omitted, Abs format (unit mm)*
G04 Created by KiCad (PCBNEW 9.0.2) date 2025-09-03 17:26:11*
%MOMM*%
%LPD*%
G01*
G04 APERTURE LIST*
G04 Aperture macros list*
%AMRoundRect*
0 Rectangle with rounded corners*
0 $1 Rounding radius*
0 $2 $3 $4 $5 $6 $7 $8 $9 X,Y pos of 4 corners*
0 Add a 4 corners polygon primitive as box body*
4,1,4,$2,$3,$4,$5,$6,$7,$8,$9,$2,$3,0*
0 Add four circle primitives for the rounded corners*
1,1,$1+$1,$2,$3*
1,1,$1+$1,$4,$5*
1,1,$1+$1,$6,$7*
1,1,$1+$1,$8,$9*
0 Add four rect primitives between the rounded corners*
20,1,$1+$1,$2,$3,$4,$5,0*
20,1,$1+$1,$4,$5,$6,$7,0*
20,1,$1+$1,$6,$7,$8,$9,0*
20,1,$1+$1,$8,$9,$2,$3,0*%
G04 Aperture macros list end*
G04 #@! TA.AperFunction,SMDPad,CuDef*
%ADD10R,1.550000X1.000000*%
G04 #@! TD*
G04 #@! TA.AperFunction,SMDPad,CuDef*
%ADD11RoundRect,0.225000X0.250000X-0.225000X0.250000X0.225000X-0.250000X0.225000X-0.250000X-0.225000X0*%
G04 #@! TD*
G04 #@! TA.AperFunction,ComponentPad*
%ADD12RoundRect,0.250000X-0.550000X0.550000X-0.550000X-0.550000X0.550000X-0.550000X0.550000X0.550000X0*%
G04 #@! TD*
G04 #@! TA.AperFunction,ComponentPad*
%ADD13C,1.600000*%
G04 #@! TD*
G04 #@! TA.AperFunction,ComponentPad*
%ADD14C,1.700000*%
G04 #@! TD*
G04 #@! TA.AperFunction,ComponentPad*
%ADD15O,2.200000X3.500000*%
G04 #@! TD*
G04 #@! TA.AperFunction,ComponentPad*
%ADD16R,1.500000X2.500000*%
G04 #@! TD*
G04 #@! TA.AperFunction,ComponentPad*
%ADD17O,1.500000X2.500000*%
G04 #@! TD*
G04 #@! TA.AperFunction,SMDPad,CuDef*
%ADD18RoundRect,0.225000X0.225000X0.250000X-0.225000X0.250000X-0.225000X-0.250000X0.225000X-0.250000X0*%
G04 #@! TD*
G04 #@! TA.AperFunction,SMDPad,CuDef*
%ADD19RoundRect,0.200000X-0.275000X0.200000X-0.275000X-0.200000X0.275000X-0.200000X0.275000X0.200000X0*%
G04 #@! TD*
G04 #@! TA.AperFunction,SMDPad,CuDef*
%ADD20RoundRect,0.200000X-0.200000X-0.275000X0.200000X-0.275000X0.200000X0.275000X-0.200000X0.275000X0*%
G04 #@! TD*
G04 #@! TA.AperFunction,SMDPad,CuDef*
%ADD21RoundRect,0.225000X-0.250000X0.225000X-0.250000X-0.225000X0.250000X-0.225000X0.250000X0.225000X0*%
G04 #@! TD*
G04 #@! TA.AperFunction,SMDPad,CuDef*
%ADD22R,1.500000X1.000000*%
G04 #@! TD*
G04 #@! TA.AperFunction,SMDPad,CuDef*
%ADD23R,0.500000X0.800000*%
G04 #@! TD*
G04 #@! TA.AperFunction,ComponentPad*
%ADD24C,3.600000*%
G04 #@! TD*
G04 #@! TA.AperFunction,ConnectorPad*
%ADD25C,5.600000*%
G04 #@! TD*
G04 #@! TA.AperFunction,SMDPad,CuDef*
%ADD26RoundRect,0.150000X-0.825000X-0.150000X0.825000X-0.150000X0.825000X0.150000X-0.825000X0.150000X0*%
G04 #@! TD*
G04 #@! TA.AperFunction,SMDPad,CuDef*
%ADD27RoundRect,0.220000X-0.220000X-0.380000X0.220000X-0.380000X0.220000X0.380000X-0.220000X0.380000X0*%
G04 #@! TD*
G04 #@! TA.AperFunction,SMDPad,CuDef*
%ADD28RoundRect,0.225000X-0.225000X-0.250000X0.225000X-0.250000X0.225000X0.250000X-0.225000X0.250000X0*%
G04 #@! TD*
G04 #@! TA.AperFunction,SMDPad,CuDef*
%ADD29RoundRect,0.500000X0.875000X0.500000X-0.875000X0.500000X-0.875000X-0.500000X0.875000X-0.500000X0*%
G04 #@! TD*
G04 #@! TA.AperFunction,SMDPad,CuDef*
%ADD30RoundRect,0.275000X-0.975000X-0.275000X0.975000X-0.275000X0.975000X0.275000X-0.975000X0.275000X0*%
G04 #@! TD*
G04 #@! TA.AperFunction,SMDPad,CuDef*
%ADD31RoundRect,0.275000X0.275000X-0.975000X0.275000X0.975000X-0.275000X0.975000X-0.275000X-0.975000X0*%
G04 #@! TD*
G04 #@! TA.AperFunction,SMDPad,CuDef*
%ADD32C,1.700000*%
G04 #@! TD*
G04 #@! TA.AperFunction,SMDPad,CuDef*
%ADD33RoundRect,0.150000X0.512500X0.150000X-0.512500X0.150000X-0.512500X-0.150000X0.512500X-0.150000X0*%
G04 #@! TD*
G04 #@! TA.AperFunction,ViaPad*
%ADD34C,0.600000*%
G04 #@! TD*
G04 #@! TA.AperFunction,Conductor*
%ADD35C,0.508000*%
G04 #@! TD*
G04 #@! TA.AperFunction,Conductor*
%ADD36C,0.200000*%
G04 #@! TD*
G04 #@! TA.AperFunction,Conductor*
%ADD37C,0.254000*%
G04 #@! TD*
G04 #@! TA.AperFunction,Profile*
%ADD38C,0.050000*%
G04 #@! TD*
G04 APERTURE END LIST*
D10*
X143270000Y-87130000D03*
X148520000Y-87130000D03*
X143270000Y-88830000D03*
X148520000Y-88830000D03*
D11*
X150975000Y-95040000D03*
X150975000Y-96600000D03*
X147975000Y-95040000D03*
X147975000Y-96600000D03*
D12*
X151200000Y-114075000D03*
D13*
X151200000Y-116675000D03*
D14*
X178325000Y-95790000D03*
X178325000Y-98330000D03*
X178325000Y-100870000D03*
X178325000Y-103410000D03*
X178325000Y-105950000D03*
X178325000Y-108490000D03*
D15*
X168050000Y-88450000D03*
X159850000Y-88450000D03*
D16*
X165950000Y-88450000D03*
D17*
X163950000Y-88450000D03*
X161950000Y-88450000D03*
D18*
X144971100Y-111988600D03*
X146531100Y-111988600D03*
D14*
X135900000Y-96600000D03*
X135900000Y-99140000D03*
X135900000Y-101680000D03*
X135900000Y-104220000D03*
X135900000Y-106760000D03*
D19*
X141400000Y-91105000D03*
X141400000Y-92745000D03*
D20*
X141331100Y-106273600D03*
X142971100Y-106273600D03*
D19*
X172220000Y-94370000D03*
X172220000Y-96010000D03*
D21*
X153025000Y-100545000D03*
X153025000Y-102105000D03*
D22*
X152310000Y-86614208D03*
D23*
X153660000Y-87114208D03*
X154460000Y-87114208D03*
D22*
X155810000Y-86614208D03*
D24*
X137000000Y-113950000D03*
D25*
X137000000Y-113950000D03*
D19*
X169720000Y-94370000D03*
X169720000Y-96010000D03*
D26*
X146026100Y-100558600D03*
X146026100Y-101828600D03*
X146026100Y-103098600D03*
X146026100Y-104368600D03*
X146026100Y-105638600D03*
X146026100Y-106908600D03*
X146026100Y-108178600D03*
X146026100Y-109448600D03*
X150976100Y-109448600D03*
X150976100Y-108178600D03*
X150976100Y-106908600D03*
X150976100Y-105638600D03*
X150976100Y-104368600D03*
X150976100Y-103098600D03*
X150976100Y-101828600D03*
X150976100Y-100558600D03*
D24*
X177000000Y-113950000D03*
D25*
X177000000Y-113950000D03*
D24*
X137000000Y-89950000D03*
D25*
X137000000Y-89950000D03*
D19*
X167220000Y-94370000D03*
X167220000Y-96010000D03*
D27*
X141090000Y-102500000D03*
X143210000Y-102500000D03*
D28*
X141371100Y-108178600D03*
X142931100Y-108178600D03*
D20*
X141331100Y-110083600D03*
X142971100Y-110083600D03*
X141331100Y-111988600D03*
X142971100Y-111988600D03*
D11*
X141400000Y-96600000D03*
X141400000Y-95040000D03*
D24*
X177000000Y-89950000D03*
D25*
X177000000Y-89950000D03*
D29*
X172200000Y-114841500D03*
X172200000Y-112301500D03*
X172200000Y-109761500D03*
X172200000Y-107221500D03*
X172200000Y-104681500D03*
X172200000Y-102141500D03*
X172200000Y-99601500D03*
X156035000Y-99601500D03*
X156035000Y-102141500D03*
X156035000Y-104681500D03*
X156035000Y-107221500D03*
X156035000Y-109761500D03*
X156035000Y-112301500D03*
X156035000Y-114841500D03*
D30*
X168590000Y-107535000D03*
X168590000Y-109440000D03*
D31*
X160335000Y-97984600D03*
X158430000Y-97984600D03*
D32*
X165415000Y-115790000D03*
X162875000Y-115790000D03*
X165415000Y-113250000D03*
X162875000Y-113250000D03*
D11*
X144400000Y-96600000D03*
X144400000Y-95040000D03*
D33*
X143037500Y-100550000D03*
X143037500Y-98650000D03*
X140762500Y-99600000D03*
D20*
X141326100Y-104368600D03*
X142976100Y-104368600D03*
D34*
X154100000Y-112300000D03*
X150975000Y-94025000D03*
X147975000Y-94050000D03*
X144400000Y-93850000D03*
X141400000Y-93850000D03*
X153025000Y-103100000D03*
X147700000Y-105650000D03*
X140160000Y-106280000D03*
X155810000Y-87880000D03*
X154100000Y-98650000D03*
X154100000Y-109725000D03*
X166550000Y-107550000D03*
X168600000Y-110850000D03*
D35*
X150976100Y-101828600D02*
X150976100Y-100558600D01*
D36*
X141400000Y-88700000D02*
X142970000Y-87130000D01*
X142970000Y-87130000D02*
X143270000Y-87130000D01*
X156035000Y-99601500D02*
X156000000Y-99566500D01*
X156000000Y-99566500D02*
X156000000Y-92800000D01*
X156000000Y-92800000D02*
X150330000Y-87130000D01*
X150330000Y-87130000D02*
X148520000Y-87130000D01*
D35*
X146026100Y-98653900D02*
X146026100Y-91323900D01*
X146026100Y-91323900D02*
X148520000Y-88830000D01*
D36*
X154101500Y-112301500D02*
X154100000Y-112300000D01*
D35*
X156035000Y-112301500D02*
X154101500Y-112301500D01*
X147975000Y-98653900D02*
X148450000Y-98653900D01*
X147975000Y-98653900D02*
X147975000Y-96600000D01*
X150976100Y-98653900D02*
X150976100Y-98376100D01*
X150976100Y-98376100D02*
X150975000Y-98375000D01*
X150975000Y-98375000D02*
X150975000Y-96600000D01*
X150975000Y-95040000D02*
X150975000Y-94025000D01*
D36*
X147990000Y-96615000D02*
X147975000Y-96600000D01*
D35*
X147975000Y-95040000D02*
X147975000Y-94050000D01*
D36*
X143250000Y-87125000D02*
X142975000Y-87125000D01*
X141400000Y-88700000D02*
X141400000Y-91105000D01*
D35*
X141400000Y-93850000D02*
X141400000Y-92745000D01*
X155810000Y-87880000D02*
X159930000Y-92000000D01*
X159930000Y-92000000D02*
X173332919Y-92000000D01*
X173332919Y-92000000D02*
X177122919Y-95790000D01*
X177122919Y-95790000D02*
X178325000Y-95790000D01*
D36*
X172220000Y-94370000D02*
X170850000Y-93000000D01*
X170850000Y-93000000D02*
X159745792Y-93000000D01*
X159745792Y-93000000D02*
X154460000Y-87714208D01*
X154460000Y-87714208D02*
X154460000Y-87114208D01*
X153660000Y-87114208D02*
X153660000Y-87714208D01*
X159560792Y-93615000D02*
X168965000Y-93615000D01*
X153660000Y-87714208D02*
X159560792Y-93615000D01*
X168965000Y-93615000D02*
X169720000Y-94370000D01*
X167220000Y-94370000D02*
X159365792Y-94370000D01*
X159365792Y-94370000D02*
X152310000Y-87314208D01*
X152310000Y-87314208D02*
X152310000Y-86614208D01*
X172200000Y-107221500D02*
X172251424Y-107221500D01*
X172251424Y-107221500D02*
X178325000Y-101147924D01*
X178325000Y-101147924D02*
X178325000Y-100870000D01*
X172200000Y-109761500D02*
X172251424Y-109761500D01*
X172251424Y-109761500D02*
X178325000Y-103687924D01*
X178325000Y-103687924D02*
X178325000Y-103410000D01*
X172200000Y-112301500D02*
X172251424Y-112301500D01*
X172251424Y-112301500D02*
X178325000Y-106227924D01*
X178325000Y-106227924D02*
X178325000Y-105950000D01*
X172200000Y-114841500D02*
X172471500Y-114841500D01*
X175100000Y-117470000D02*
X178880000Y-117470000D01*
X172471500Y-114841500D02*
X175100000Y-117470000D01*
X178880000Y-117470000D02*
X180500000Y-115850000D01*
X180500000Y-115850000D02*
X180500000Y-112260000D01*
X180500000Y-112260000D02*
X178325000Y-110085000D01*
X178325000Y-110085000D02*
X178325000Y-108490000D01*
X167220000Y-96010000D02*
X167220000Y-101076500D01*
X167220000Y-101076500D02*
X170825000Y-104681500D01*
X170825000Y-104681500D02*
X172200000Y-104681500D01*
X169720000Y-96010000D02*
X169720000Y-101036500D01*
X169720000Y-101036500D02*
X170825000Y-102141500D01*
X170825000Y-102141500D02*
X172200000Y-102141500D01*
X172220000Y-96010000D02*
X172220000Y-99581500D01*
X172220000Y-99581500D02*
X172200000Y-99601500D01*
D37*
X146026100Y-109448600D02*
X146026100Y-110273900D01*
X146026100Y-110273900D02*
X144971100Y-111328900D01*
X144971100Y-111328900D02*
X144971100Y-111988600D01*
D36*
X146853600Y-108178600D02*
X147500000Y-108825000D01*
X146026100Y-108178600D02*
X146853600Y-108178600D01*
X147500000Y-108825000D02*
X147500000Y-111019700D01*
X147500000Y-111019700D02*
X146531100Y-111988600D01*
X142971100Y-111988600D02*
X144971100Y-111988600D01*
D35*
X153025000Y-102105000D02*
X153025000Y-103100000D01*
X146026100Y-105638600D02*
X147688600Y-105638600D01*
D36*
X153023600Y-103098600D02*
X153025000Y-103100000D01*
D35*
X141326100Y-106273600D02*
X140166400Y-106273600D01*
D36*
X147688600Y-105638600D02*
X147700000Y-105650000D01*
X140166400Y-106273600D02*
X140160000Y-106280000D01*
D35*
X144400000Y-95040000D02*
X144400000Y-93850000D01*
X141400000Y-95040000D02*
X141400000Y-93850000D01*
X141371100Y-108178600D02*
X141371100Y-106318600D01*
D36*
X141371100Y-106318600D02*
X141326100Y-106273600D01*
D35*
X150976100Y-103098600D02*
X153023600Y-103098600D01*
D37*
X145971100Y-109503600D02*
X146026100Y-109448600D01*
X144848912Y-108178600D02*
X145701100Y-108178600D01*
X143852196Y-110083600D02*
X144310100Y-109625697D01*
X144310100Y-109625697D02*
X144310100Y-108717413D01*
X144310100Y-108717413D02*
X144848912Y-108178600D01*
X143001100Y-110083600D02*
X143852196Y-110083600D01*
X143001100Y-108178600D02*
X143852196Y-108178600D01*
X144310100Y-107366504D02*
X144768003Y-106908600D01*
X144768003Y-106908600D02*
X145701100Y-106908600D01*
X143852196Y-108178600D02*
X144310100Y-107720697D01*
X144310100Y-107720697D02*
X144310100Y-107366504D01*
D35*
X139000000Y-96600000D02*
X135900000Y-96600000D01*
X141090000Y-102500000D02*
X139000000Y-100410000D01*
X139000000Y-100410000D02*
X139000000Y-96600000D01*
X139000000Y-96600000D02*
X141400000Y-96600000D01*
X141400000Y-96600000D02*
X144400000Y-96600000D01*
D36*
X153831500Y-104681500D02*
X153825000Y-104675000D01*
X152861400Y-105638600D02*
X153825000Y-104675000D01*
X150976100Y-105638600D02*
X152861400Y-105638600D01*
X156035000Y-104681500D02*
X153831500Y-104681500D01*
D37*
X150976100Y-106908600D02*
X155722100Y-106908600D01*
X155722100Y-106908600D02*
X156035000Y-107221500D01*
D36*
X141331100Y-110083600D02*
X139505000Y-108257500D01*
X139505000Y-105285000D02*
X135900000Y-101680000D01*
X139505000Y-108257500D02*
X139505000Y-105285000D01*
X141331100Y-111988600D02*
X139025000Y-109682500D01*
X139025000Y-109682500D02*
X139025000Y-107345000D01*
X139025000Y-107345000D02*
X135900000Y-104220000D01*
X142247500Y-101500000D02*
X143211100Y-102463600D01*
D35*
X143051100Y-102463600D02*
X143051100Y-103479600D01*
D36*
X141300000Y-101500000D02*
X142247500Y-101500000D01*
D35*
X143051100Y-103479600D02*
X143051100Y-104368600D01*
D36*
X140762500Y-100962500D02*
X141300000Y-101500000D01*
D35*
X143051100Y-104368600D02*
X143001100Y-104368600D01*
X144106196Y-103479600D02*
X143051100Y-103479600D01*
X144487196Y-103098600D02*
X144106196Y-103479600D01*
D36*
X140762500Y-99600000D02*
X140762500Y-100962500D01*
D35*
X145701100Y-103098600D02*
X144487196Y-103098600D01*
D37*
X144437100Y-101701600D02*
X144564100Y-101828600D01*
X143151100Y-100556100D02*
X144255718Y-100556100D01*
X144564100Y-101828600D02*
X145701100Y-101828600D01*
X144437100Y-100737482D02*
X144437100Y-101701600D01*
X144255718Y-100556100D02*
X144437100Y-100737482D01*
X144310100Y-105989622D02*
X144310100Y-105257600D01*
X141569909Y-105257600D02*
X144310100Y-105257600D01*
X141301100Y-104988791D02*
X141569909Y-105257600D01*
X144310100Y-105257600D02*
X144310100Y-104652579D01*
X141301100Y-104368600D02*
X141301100Y-104988791D01*
X144310100Y-104652579D02*
X144594078Y-104368600D01*
X144594078Y-104368600D02*
X145701100Y-104368600D01*
X143001100Y-106273600D02*
X144026121Y-106273600D01*
X144026121Y-106273600D02*
X144310100Y-105989622D01*
D35*
X146026100Y-100558600D02*
X146026100Y-98653900D01*
D36*
X153111400Y-100558600D02*
X153125000Y-100545000D01*
D35*
X155810000Y-87880000D02*
X155810000Y-86614208D01*
X143037500Y-98650000D02*
X146030000Y-98650000D01*
X154096100Y-98653900D02*
X154100000Y-98650000D01*
X148450000Y-98653900D02*
X150650000Y-98653900D01*
X150976100Y-100558600D02*
X150976100Y-98653900D01*
X146026100Y-98653900D02*
X147975000Y-98653900D01*
D36*
X153011400Y-100558600D02*
X153025000Y-100545000D01*
D35*
X150976100Y-100558600D02*
X153011400Y-100558600D01*
X150650000Y-98653900D02*
X150976100Y-98653900D01*
X155998500Y-109725000D02*
X156035000Y-109761500D01*
D36*
X150987500Y-100570000D02*
X150976100Y-100558600D01*
D35*
X151014700Y-100520000D02*
X150976100Y-100558600D01*
D36*
X146026100Y-98653900D02*
X146030000Y-98650000D01*
D35*
X150976100Y-98653900D02*
X154096100Y-98653900D01*
X143151100Y-98656100D02*
X143151100Y-98653600D01*
X154100000Y-109725000D02*
X155998500Y-109725000D01*
D36*
X166550000Y-107550000D02*
X166565000Y-107535000D01*
D35*
X166565000Y-107535000D02*
X168590000Y-107535000D01*
D36*
X155483500Y-102141500D02*
X156035000Y-102141500D01*
X168590000Y-110840000D02*
X168600000Y-110850000D01*
D35*
X168590000Y-109440000D02*
X168590000Y-110840000D01*
D38*
X133000000Y-86000000D02*
X181000000Y-86000000D01*
X181000000Y-118000000D01*
X133000000Y-118000000D01*
X133000000Y-86000000D01*
M02*
