M48
; DRILL file {KiCad 9.0.2} date 2025-09-03T17:26:20+0100
; FORMAT={-:-/ absolute / metric / decimal}
; #@! TF.CreationDate,2025-09-03T17:26:20+01:00
; #@! TF.GenerationSoftware,Kicad,Pcbnew,9.0.2
; #@! TF.FileFunction,Plated,1,2,PTH
FMAT,2
METRIC
; #@! TA.AperFunction,Plated,PTH,ViaDrill
T1C0.300
; #@! TA.AperFunction,Plated,PTH,ComponentDrill
T2C0.600
; #@! TA.AperFunction,Plated,PTH,ComponentDrill
T3C0.900
; #@! TA.AperFunction,Plated,PTH,ComponentDrill
T4C1.000
; #@! TA.AperFunction,Plated,PTH,ComponentDrill
T5C1.500
; #@! TA.AperFunction,Plated,PTH,ComponentDrill
T6C3.200
%
G90
G05
T1
X140.16Y-106.28
X141.4Y-93.85
X144.4Y-93.85
X147.7Y-105.65
X147.975Y-94.05
X150.975Y-94.025
X153.025Y-103.1
X154.1Y-98.65
X154.1Y-109.725
X154.1Y-112.3
X155.81Y-87.88
X166.55Y-107.55
X168.6Y-110.85
T2
X151.2Y-114.075
X151.2Y-116.675
T3
X161.95Y-88.45
X163.95Y-88.45
X165.95Y-88.45
T4
X135.9Y-96.6
X135.9Y-99.14
X135.9Y-101.68
X135.9Y-104.22
X135.9Y-106.76
X178.325Y-95.79
X178.325Y-98.33
X178.325Y-100.87
X178.325Y-103.41
X178.325Y-105.95
X178.325Y-108.49
T5
X159.85Y-88.45
X168.05Y-88.45
T6
X137.0Y-89.95
X137.0Y-113.95
X177.0Y-89.95
X177.0Y-113.95
M30
