%TF.GenerationSoftware,KiCad,Pcbnew,9.0.2*%
%TF.CreationDate,2025-09-03T17:26:20+01:00*%
%TF.ProjectId,mito,6d69746f-2e6b-4696-9361-645f70636258,rev?*%
%TF.SameCoordinates,Original*%
%TF.FileFunction,Drillmap*%
%TF.FilePolarity,Positive*%
%FSLAX45Y45*%
G04 Gerber Fmt 4.5, Leading zero omitted, Abs format (unit mm)*
G04 Created by KiCad (PCBNEW 9.0.2) date 2025-09-03 17:26:20*
%MOMM*%
%LPD*%
G01*
G04 APERTURE LIST*
%ADD10C,0.050000*%
%ADD11C,0.200000*%
%ADD12C,0.100000*%
%ADD13C,0.150000*%
%ADD14C,0.320000*%
G04 APERTURE END LIST*
D10*
X13300000Y-8600000D02*
X18100000Y-8600000D01*
X18100000Y-11800000D01*
X13300000Y-11800000D01*
X13300000Y-8600000D01*
D11*
D12*
X14001000Y-10613000D02*
X14031000Y-10643000D01*
X14031000Y-10613000D02*
X14001000Y-10643000D01*
X14125000Y-9370000D02*
X14155000Y-9400000D01*
X14155000Y-9370000D02*
X14125000Y-9400000D01*
X14425000Y-9370000D02*
X14455000Y-9400000D01*
X14455000Y-9370000D02*
X14425000Y-9400000D01*
X14755000Y-10550000D02*
X14785000Y-10580000D01*
X14785000Y-10550000D02*
X14755000Y-10580000D01*
X14782500Y-9390000D02*
X14812500Y-9420000D01*
X14812500Y-9390000D02*
X14782500Y-9420000D01*
X15082500Y-9387500D02*
X15112500Y-9417500D01*
X15112500Y-9387500D02*
X15082500Y-9417500D01*
X15287500Y-10295000D02*
X15317500Y-10325000D01*
X15317500Y-10295000D02*
X15287500Y-10325000D01*
X15395000Y-9850000D02*
X15425000Y-9880000D01*
X15425000Y-9850000D02*
X15395000Y-9880000D01*
X15395000Y-10957500D02*
X15425000Y-10987500D01*
X15425000Y-10957500D02*
X15395000Y-10987500D01*
X15395000Y-11215000D02*
X15425000Y-11245000D01*
X15425000Y-11215000D02*
X15395000Y-11245000D01*
X15566000Y-8773000D02*
X15596000Y-8803000D01*
X15596000Y-8773000D02*
X15566000Y-8803000D01*
X16640000Y-10740000D02*
X16670000Y-10770000D01*
X16670000Y-10740000D02*
X16640000Y-10770000D01*
X16845000Y-11070000D02*
X16875000Y-11100000D01*
X16875000Y-11070000D02*
X16845000Y-11100000D01*
X15150000Y-11407500D02*
G75*
G02*
X15090000Y-11407500I-30000J0D01*
G01*
X15090000Y-11407500D02*
G75*
G02*
X15150000Y-11407500I30000J0D01*
G01*
X15150000Y-11667500D02*
G75*
G02*
X15090000Y-11667500I-30000J0D01*
G01*
X15090000Y-11667500D02*
G75*
G02*
X15150000Y-11667500I30000J0D01*
G01*
X16195000Y-8800000D02*
X16195000Y-8890000D01*
X16150000Y-8845000D02*
X16240000Y-8845000D01*
X16395000Y-8800000D02*
X16395000Y-8890000D01*
X16350000Y-8845000D02*
X16440000Y-8845000D01*
X16595000Y-8800000D02*
X16595000Y-8890000D01*
X16550000Y-8845000D02*
X16640000Y-8845000D01*
X13625356Y-9695356D02*
X13625356Y-9624644D01*
X13554644Y-9624644D01*
X13554644Y-9695356D01*
X13625356Y-9695356D01*
X13625356Y-9949356D02*
X13625356Y-9878644D01*
X13554644Y-9878644D01*
X13554644Y-9949356D01*
X13625356Y-9949356D01*
X13625356Y-10203356D02*
X13625356Y-10132644D01*
X13554644Y-10132644D01*
X13554644Y-10203356D01*
X13625356Y-10203356D01*
X13625356Y-10457356D02*
X13625356Y-10386644D01*
X13554644Y-10386644D01*
X13554644Y-10457356D01*
X13625356Y-10457356D01*
X13625356Y-10711356D02*
X13625356Y-10640644D01*
X13554644Y-10640644D01*
X13554644Y-10711356D01*
X13625356Y-10711356D01*
X17867856Y-9614356D02*
X17867856Y-9543644D01*
X17797144Y-9543644D01*
X17797144Y-9614356D01*
X17867856Y-9614356D01*
X17867856Y-9868356D02*
X17867856Y-9797644D01*
X17797144Y-9797644D01*
X17797144Y-9868356D01*
X17867856Y-9868356D01*
X17867856Y-10122356D02*
X17867856Y-10051644D01*
X17797144Y-10051644D01*
X17797144Y-10122356D01*
X17867856Y-10122356D01*
X17867856Y-10376356D02*
X17867856Y-10305644D01*
X17797144Y-10305644D01*
X17797144Y-10376356D01*
X17867856Y-10376356D01*
X17867856Y-10630356D02*
X17867856Y-10559644D01*
X17797144Y-10559644D01*
X17797144Y-10630356D01*
X17867856Y-10630356D01*
X17867856Y-10884356D02*
X17867856Y-10813644D01*
X17797144Y-10813644D01*
X17797144Y-10884356D01*
X17867856Y-10884356D01*
D13*
X15985000Y-8920000D02*
X16060000Y-8845000D01*
X15985000Y-8770000D01*
X15910000Y-8845000D01*
X15985000Y-8920000D01*
X16805000Y-8920000D02*
X16880000Y-8845000D01*
X16805000Y-8770000D01*
X16730000Y-8845000D01*
X16805000Y-8920000D01*
D14*
X13540000Y-8835000D02*
X13860000Y-9155000D01*
X13860000Y-8835000D02*
X13540000Y-9155000D01*
X13860000Y-8995000D02*
G75*
G02*
X13540000Y-8995000I-160000J0D01*
G01*
X13540000Y-8995000D02*
G75*
G02*
X13860000Y-8995000I160000J0D01*
G01*
X13540000Y-11235000D02*
X13860000Y-11555000D01*
X13860000Y-11235000D02*
X13540000Y-11555000D01*
X13860000Y-11395000D02*
G75*
G02*
X13540000Y-11395000I-160000J0D01*
G01*
X13540000Y-11395000D02*
G75*
G02*
X13860000Y-11395000I160000J0D01*
G01*
X17540000Y-8835000D02*
X17860000Y-9155000D01*
X17860000Y-8835000D02*
X17540000Y-9155000D01*
X17860000Y-8995000D02*
G75*
G02*
X17540000Y-8995000I-160000J0D01*
G01*
X17540000Y-8995000D02*
G75*
G02*
X17860000Y-8995000I160000J0D01*
G01*
X17540000Y-11235000D02*
X17860000Y-11555000D01*
X17860000Y-11235000D02*
X17540000Y-11555000D01*
X17860000Y-11395000D02*
G75*
G02*
X17540000Y-11395000I-160000J0D01*
G01*
X17540000Y-11395000D02*
G75*
G02*
X17860000Y-11395000I160000J0D01*
G01*
D11*
X13558277Y-12113984D02*
X13558277Y-11913984D01*
X13558277Y-11913984D02*
X13605896Y-11913984D01*
X13605896Y-11913984D02*
X13634467Y-11923508D01*
X13634467Y-11923508D02*
X13653515Y-11942555D01*
X13653515Y-11942555D02*
X13663039Y-11961603D01*
X13663039Y-11961603D02*
X13672562Y-11999698D01*
X13672562Y-11999698D02*
X13672562Y-12028269D01*
X13672562Y-12028269D02*
X13663039Y-12066365D01*
X13663039Y-12066365D02*
X13653515Y-12085412D01*
X13653515Y-12085412D02*
X13634467Y-12104460D01*
X13634467Y-12104460D02*
X13605896Y-12113984D01*
X13605896Y-12113984D02*
X13558277Y-12113984D01*
X13758277Y-12113984D02*
X13758277Y-11980650D01*
X13758277Y-12018746D02*
X13767801Y-11999698D01*
X13767801Y-11999698D02*
X13777324Y-11990174D01*
X13777324Y-11990174D02*
X13796372Y-11980650D01*
X13796372Y-11980650D02*
X13815420Y-11980650D01*
X13882086Y-12113984D02*
X13882086Y-11980650D01*
X13882086Y-11913984D02*
X13872562Y-11923508D01*
X13872562Y-11923508D02*
X13882086Y-11933031D01*
X13882086Y-11933031D02*
X13891610Y-11923508D01*
X13891610Y-11923508D02*
X13882086Y-11913984D01*
X13882086Y-11913984D02*
X13882086Y-11933031D01*
X14005896Y-12113984D02*
X13986848Y-12104460D01*
X13986848Y-12104460D02*
X13977324Y-12085412D01*
X13977324Y-12085412D02*
X13977324Y-11913984D01*
X14110658Y-12113984D02*
X14091610Y-12104460D01*
X14091610Y-12104460D02*
X14082086Y-12085412D01*
X14082086Y-12085412D02*
X14082086Y-11913984D01*
X14339229Y-12113984D02*
X14339229Y-11913984D01*
X14339229Y-11913984D02*
X14405896Y-12056841D01*
X14405896Y-12056841D02*
X14472562Y-11913984D01*
X14472562Y-11913984D02*
X14472562Y-12113984D01*
X14653515Y-12113984D02*
X14653515Y-12009222D01*
X14653515Y-12009222D02*
X14643991Y-11990174D01*
X14643991Y-11990174D02*
X14624943Y-11980650D01*
X14624943Y-11980650D02*
X14586848Y-11980650D01*
X14586848Y-11980650D02*
X14567801Y-11990174D01*
X14653515Y-12104460D02*
X14634467Y-12113984D01*
X14634467Y-12113984D02*
X14586848Y-12113984D01*
X14586848Y-12113984D02*
X14567801Y-12104460D01*
X14567801Y-12104460D02*
X14558277Y-12085412D01*
X14558277Y-12085412D02*
X14558277Y-12066365D01*
X14558277Y-12066365D02*
X14567801Y-12047317D01*
X14567801Y-12047317D02*
X14586848Y-12037793D01*
X14586848Y-12037793D02*
X14634467Y-12037793D01*
X14634467Y-12037793D02*
X14653515Y-12028269D01*
X14748753Y-11980650D02*
X14748753Y-12180650D01*
X14748753Y-11990174D02*
X14767801Y-11980650D01*
X14767801Y-11980650D02*
X14805896Y-11980650D01*
X14805896Y-11980650D02*
X14824943Y-11990174D01*
X14824943Y-11990174D02*
X14834467Y-11999698D01*
X14834467Y-11999698D02*
X14843991Y-12018746D01*
X14843991Y-12018746D02*
X14843991Y-12075888D01*
X14843991Y-12075888D02*
X14834467Y-12094936D01*
X14834467Y-12094936D02*
X14824943Y-12104460D01*
X14824943Y-12104460D02*
X14805896Y-12113984D01*
X14805896Y-12113984D02*
X14767801Y-12113984D01*
X14767801Y-12113984D02*
X14748753Y-12104460D01*
X14929705Y-12094936D02*
X14939229Y-12104460D01*
X14939229Y-12104460D02*
X14929705Y-12113984D01*
X14929705Y-12113984D02*
X14920182Y-12104460D01*
X14920182Y-12104460D02*
X14929705Y-12094936D01*
X14929705Y-12094936D02*
X14929705Y-12113984D01*
X14929705Y-11990174D02*
X14939229Y-11999698D01*
X14939229Y-11999698D02*
X14929705Y-12009222D01*
X14929705Y-12009222D02*
X14920182Y-11999698D01*
X14920182Y-11999698D02*
X14929705Y-11990174D01*
X14929705Y-11990174D02*
X14929705Y-12009222D01*
D12*
X13267500Y-12427500D02*
X13297500Y-12457500D01*
X13297500Y-12427500D02*
X13267500Y-12457500D01*
D11*
X13596372Y-12333984D02*
X13615420Y-12333984D01*
X13615420Y-12333984D02*
X13634467Y-12343508D01*
X13634467Y-12343508D02*
X13643991Y-12353031D01*
X13643991Y-12353031D02*
X13653515Y-12372079D01*
X13653515Y-12372079D02*
X13663039Y-12410174D01*
X13663039Y-12410174D02*
X13663039Y-12457793D01*
X13663039Y-12457793D02*
X13653515Y-12495888D01*
X13653515Y-12495888D02*
X13643991Y-12514936D01*
X13643991Y-12514936D02*
X13634467Y-12524460D01*
X13634467Y-12524460D02*
X13615420Y-12533984D01*
X13615420Y-12533984D02*
X13596372Y-12533984D01*
X13596372Y-12533984D02*
X13577324Y-12524460D01*
X13577324Y-12524460D02*
X13567801Y-12514936D01*
X13567801Y-12514936D02*
X13558277Y-12495888D01*
X13558277Y-12495888D02*
X13548753Y-12457793D01*
X13548753Y-12457793D02*
X13548753Y-12410174D01*
X13548753Y-12410174D02*
X13558277Y-12372079D01*
X13558277Y-12372079D02*
X13567801Y-12353031D01*
X13567801Y-12353031D02*
X13577324Y-12343508D01*
X13577324Y-12343508D02*
X13596372Y-12333984D01*
X13748753Y-12514936D02*
X13758277Y-12524460D01*
X13758277Y-12524460D02*
X13748753Y-12533984D01*
X13748753Y-12533984D02*
X13739229Y-12524460D01*
X13739229Y-12524460D02*
X13748753Y-12514936D01*
X13748753Y-12514936D02*
X13748753Y-12533984D01*
X13824943Y-12333984D02*
X13948753Y-12333984D01*
X13948753Y-12333984D02*
X13882086Y-12410174D01*
X13882086Y-12410174D02*
X13910658Y-12410174D01*
X13910658Y-12410174D02*
X13929705Y-12419698D01*
X13929705Y-12419698D02*
X13939229Y-12429222D01*
X13939229Y-12429222D02*
X13948753Y-12448269D01*
X13948753Y-12448269D02*
X13948753Y-12495888D01*
X13948753Y-12495888D02*
X13939229Y-12514936D01*
X13939229Y-12514936D02*
X13929705Y-12524460D01*
X13929705Y-12524460D02*
X13910658Y-12533984D01*
X13910658Y-12533984D02*
X13853515Y-12533984D01*
X13853515Y-12533984D02*
X13834467Y-12524460D01*
X13834467Y-12524460D02*
X13824943Y-12514936D01*
X14072562Y-12333984D02*
X14091610Y-12333984D01*
X14091610Y-12333984D02*
X14110658Y-12343508D01*
X14110658Y-12343508D02*
X14120182Y-12353031D01*
X14120182Y-12353031D02*
X14129705Y-12372079D01*
X14129705Y-12372079D02*
X14139229Y-12410174D01*
X14139229Y-12410174D02*
X14139229Y-12457793D01*
X14139229Y-12457793D02*
X14129705Y-12495888D01*
X14129705Y-12495888D02*
X14120182Y-12514936D01*
X14120182Y-12514936D02*
X14110658Y-12524460D01*
X14110658Y-12524460D02*
X14091610Y-12533984D01*
X14091610Y-12533984D02*
X14072562Y-12533984D01*
X14072562Y-12533984D02*
X14053515Y-12524460D01*
X14053515Y-12524460D02*
X14043991Y-12514936D01*
X14043991Y-12514936D02*
X14034467Y-12495888D01*
X14034467Y-12495888D02*
X14024943Y-12457793D01*
X14024943Y-12457793D02*
X14024943Y-12410174D01*
X14024943Y-12410174D02*
X14034467Y-12372079D01*
X14034467Y-12372079D02*
X14043991Y-12353031D01*
X14043991Y-12353031D02*
X14053515Y-12343508D01*
X14053515Y-12343508D02*
X14072562Y-12333984D01*
X14263039Y-12333984D02*
X14282086Y-12333984D01*
X14282086Y-12333984D02*
X14301134Y-12343508D01*
X14301134Y-12343508D02*
X14310658Y-12353031D01*
X14310658Y-12353031D02*
X14320182Y-12372079D01*
X14320182Y-12372079D02*
X14329705Y-12410174D01*
X14329705Y-12410174D02*
X14329705Y-12457793D01*
X14329705Y-12457793D02*
X14320182Y-12495888D01*
X14320182Y-12495888D02*
X14310658Y-12514936D01*
X14310658Y-12514936D02*
X14301134Y-12524460D01*
X14301134Y-12524460D02*
X14282086Y-12533984D01*
X14282086Y-12533984D02*
X14263039Y-12533984D01*
X14263039Y-12533984D02*
X14243991Y-12524460D01*
X14243991Y-12524460D02*
X14234467Y-12514936D01*
X14234467Y-12514936D02*
X14224943Y-12495888D01*
X14224943Y-12495888D02*
X14215420Y-12457793D01*
X14215420Y-12457793D02*
X14215420Y-12410174D01*
X14215420Y-12410174D02*
X14224943Y-12372079D01*
X14224943Y-12372079D02*
X14234467Y-12353031D01*
X14234467Y-12353031D02*
X14243991Y-12343508D01*
X14243991Y-12343508D02*
X14263039Y-12333984D01*
X14415420Y-12533984D02*
X14415420Y-12400650D01*
X14415420Y-12419698D02*
X14424943Y-12410174D01*
X14424943Y-12410174D02*
X14443991Y-12400650D01*
X14443991Y-12400650D02*
X14472563Y-12400650D01*
X14472563Y-12400650D02*
X14491610Y-12410174D01*
X14491610Y-12410174D02*
X14501134Y-12429222D01*
X14501134Y-12429222D02*
X14501134Y-12533984D01*
X14501134Y-12429222D02*
X14510658Y-12410174D01*
X14510658Y-12410174D02*
X14529705Y-12400650D01*
X14529705Y-12400650D02*
X14558277Y-12400650D01*
X14558277Y-12400650D02*
X14577324Y-12410174D01*
X14577324Y-12410174D02*
X14586848Y-12429222D01*
X14586848Y-12429222D02*
X14586848Y-12533984D01*
X14682086Y-12533984D02*
X14682086Y-12400650D01*
X14682086Y-12419698D02*
X14691610Y-12410174D01*
X14691610Y-12410174D02*
X14710658Y-12400650D01*
X14710658Y-12400650D02*
X14739229Y-12400650D01*
X14739229Y-12400650D02*
X14758277Y-12410174D01*
X14758277Y-12410174D02*
X14767801Y-12429222D01*
X14767801Y-12429222D02*
X14767801Y-12533984D01*
X14767801Y-12429222D02*
X14777324Y-12410174D01*
X14777324Y-12410174D02*
X14796372Y-12400650D01*
X14796372Y-12400650D02*
X14824943Y-12400650D01*
X14824943Y-12400650D02*
X14843991Y-12410174D01*
X14843991Y-12410174D02*
X14853515Y-12429222D01*
X14853515Y-12429222D02*
X14853515Y-12533984D01*
X15243991Y-12324460D02*
X15072563Y-12581603D01*
X15501134Y-12333984D02*
X15520182Y-12333984D01*
X15520182Y-12333984D02*
X15539229Y-12343508D01*
X15539229Y-12343508D02*
X15548753Y-12353031D01*
X15548753Y-12353031D02*
X15558277Y-12372079D01*
X15558277Y-12372079D02*
X15567801Y-12410174D01*
X15567801Y-12410174D02*
X15567801Y-12457793D01*
X15567801Y-12457793D02*
X15558277Y-12495888D01*
X15558277Y-12495888D02*
X15548753Y-12514936D01*
X15548753Y-12514936D02*
X15539229Y-12524460D01*
X15539229Y-12524460D02*
X15520182Y-12533984D01*
X15520182Y-12533984D02*
X15501134Y-12533984D01*
X15501134Y-12533984D02*
X15482086Y-12524460D01*
X15482086Y-12524460D02*
X15472563Y-12514936D01*
X15472563Y-12514936D02*
X15463039Y-12495888D01*
X15463039Y-12495888D02*
X15453515Y-12457793D01*
X15453515Y-12457793D02*
X15453515Y-12410174D01*
X15453515Y-12410174D02*
X15463039Y-12372079D01*
X15463039Y-12372079D02*
X15472563Y-12353031D01*
X15472563Y-12353031D02*
X15482086Y-12343508D01*
X15482086Y-12343508D02*
X15501134Y-12333984D01*
X15653515Y-12514936D02*
X15663039Y-12524460D01*
X15663039Y-12524460D02*
X15653515Y-12533984D01*
X15653515Y-12533984D02*
X15643991Y-12524460D01*
X15643991Y-12524460D02*
X15653515Y-12514936D01*
X15653515Y-12514936D02*
X15653515Y-12533984D01*
X15786848Y-12333984D02*
X15805896Y-12333984D01*
X15805896Y-12333984D02*
X15824944Y-12343508D01*
X15824944Y-12343508D02*
X15834467Y-12353031D01*
X15834467Y-12353031D02*
X15843991Y-12372079D01*
X15843991Y-12372079D02*
X15853515Y-12410174D01*
X15853515Y-12410174D02*
X15853515Y-12457793D01*
X15853515Y-12457793D02*
X15843991Y-12495888D01*
X15843991Y-12495888D02*
X15834467Y-12514936D01*
X15834467Y-12514936D02*
X15824944Y-12524460D01*
X15824944Y-12524460D02*
X15805896Y-12533984D01*
X15805896Y-12533984D02*
X15786848Y-12533984D01*
X15786848Y-12533984D02*
X15767801Y-12524460D01*
X15767801Y-12524460D02*
X15758277Y-12514936D01*
X15758277Y-12514936D02*
X15748753Y-12495888D01*
X15748753Y-12495888D02*
X15739229Y-12457793D01*
X15739229Y-12457793D02*
X15739229Y-12410174D01*
X15739229Y-12410174D02*
X15748753Y-12372079D01*
X15748753Y-12372079D02*
X15758277Y-12353031D01*
X15758277Y-12353031D02*
X15767801Y-12343508D01*
X15767801Y-12343508D02*
X15786848Y-12333984D01*
X16043991Y-12533984D02*
X15929706Y-12533984D01*
X15986848Y-12533984D02*
X15986848Y-12333984D01*
X15986848Y-12333984D02*
X15967801Y-12362555D01*
X15967801Y-12362555D02*
X15948753Y-12381603D01*
X15948753Y-12381603D02*
X15929706Y-12391127D01*
X16234467Y-12533984D02*
X16120182Y-12533984D01*
X16177325Y-12533984D02*
X16177325Y-12333984D01*
X16177325Y-12333984D02*
X16158277Y-12362555D01*
X16158277Y-12362555D02*
X16139229Y-12381603D01*
X16139229Y-12381603D02*
X16120182Y-12391127D01*
X16348753Y-12419698D02*
X16329706Y-12410174D01*
X16329706Y-12410174D02*
X16320182Y-12400650D01*
X16320182Y-12400650D02*
X16310658Y-12381603D01*
X16310658Y-12381603D02*
X16310658Y-12372079D01*
X16310658Y-12372079D02*
X16320182Y-12353031D01*
X16320182Y-12353031D02*
X16329706Y-12343508D01*
X16329706Y-12343508D02*
X16348753Y-12333984D01*
X16348753Y-12333984D02*
X16386848Y-12333984D01*
X16386848Y-12333984D02*
X16405896Y-12343508D01*
X16405896Y-12343508D02*
X16415420Y-12353031D01*
X16415420Y-12353031D02*
X16424944Y-12372079D01*
X16424944Y-12372079D02*
X16424944Y-12381603D01*
X16424944Y-12381603D02*
X16415420Y-12400650D01*
X16415420Y-12400650D02*
X16405896Y-12410174D01*
X16405896Y-12410174D02*
X16386848Y-12419698D01*
X16386848Y-12419698D02*
X16348753Y-12419698D01*
X16348753Y-12419698D02*
X16329706Y-12429222D01*
X16329706Y-12429222D02*
X16320182Y-12438746D01*
X16320182Y-12438746D02*
X16310658Y-12457793D01*
X16310658Y-12457793D02*
X16310658Y-12495888D01*
X16310658Y-12495888D02*
X16320182Y-12514936D01*
X16320182Y-12514936D02*
X16329706Y-12524460D01*
X16329706Y-12524460D02*
X16348753Y-12533984D01*
X16348753Y-12533984D02*
X16386848Y-12533984D01*
X16386848Y-12533984D02*
X16405896Y-12524460D01*
X16405896Y-12524460D02*
X16415420Y-12514936D01*
X16415420Y-12514936D02*
X16424944Y-12495888D01*
X16424944Y-12495888D02*
X16424944Y-12457793D01*
X16424944Y-12457793D02*
X16415420Y-12438746D01*
X16415420Y-12438746D02*
X16405896Y-12429222D01*
X16405896Y-12429222D02*
X16386848Y-12419698D01*
X16501134Y-12333984D02*
X16501134Y-12372079D01*
X16577325Y-12333984D02*
X16577325Y-12372079D01*
X16872563Y-12610174D02*
X16863039Y-12600650D01*
X16863039Y-12600650D02*
X16843991Y-12572079D01*
X16843991Y-12572079D02*
X16834468Y-12553031D01*
X16834468Y-12553031D02*
X16824944Y-12524460D01*
X16824944Y-12524460D02*
X16815420Y-12476841D01*
X16815420Y-12476841D02*
X16815420Y-12438746D01*
X16815420Y-12438746D02*
X16824944Y-12391127D01*
X16824944Y-12391127D02*
X16834468Y-12362555D01*
X16834468Y-12362555D02*
X16843991Y-12343508D01*
X16843991Y-12343508D02*
X16863039Y-12314936D01*
X16863039Y-12314936D02*
X16872563Y-12305412D01*
X17053515Y-12533984D02*
X16939230Y-12533984D01*
X16996372Y-12533984D02*
X16996372Y-12333984D01*
X16996372Y-12333984D02*
X16977325Y-12362555D01*
X16977325Y-12362555D02*
X16958277Y-12381603D01*
X16958277Y-12381603D02*
X16939230Y-12391127D01*
X17120182Y-12333984D02*
X17243991Y-12333984D01*
X17243991Y-12333984D02*
X17177325Y-12410174D01*
X17177325Y-12410174D02*
X17205896Y-12410174D01*
X17205896Y-12410174D02*
X17224944Y-12419698D01*
X17224944Y-12419698D02*
X17234468Y-12429222D01*
X17234468Y-12429222D02*
X17243991Y-12448269D01*
X17243991Y-12448269D02*
X17243991Y-12495888D01*
X17243991Y-12495888D02*
X17234468Y-12514936D01*
X17234468Y-12514936D02*
X17224944Y-12524460D01*
X17224944Y-12524460D02*
X17205896Y-12533984D01*
X17205896Y-12533984D02*
X17148753Y-12533984D01*
X17148753Y-12533984D02*
X17129706Y-12524460D01*
X17129706Y-12524460D02*
X17120182Y-12514936D01*
X17482087Y-12533984D02*
X17482087Y-12333984D01*
X17567801Y-12533984D02*
X17567801Y-12429222D01*
X17567801Y-12429222D02*
X17558277Y-12410174D01*
X17558277Y-12410174D02*
X17539230Y-12400650D01*
X17539230Y-12400650D02*
X17510658Y-12400650D01*
X17510658Y-12400650D02*
X17491611Y-12410174D01*
X17491611Y-12410174D02*
X17482087Y-12419698D01*
X17691611Y-12533984D02*
X17672563Y-12524460D01*
X17672563Y-12524460D02*
X17663039Y-12514936D01*
X17663039Y-12514936D02*
X17653515Y-12495888D01*
X17653515Y-12495888D02*
X17653515Y-12438746D01*
X17653515Y-12438746D02*
X17663039Y-12419698D01*
X17663039Y-12419698D02*
X17672563Y-12410174D01*
X17672563Y-12410174D02*
X17691611Y-12400650D01*
X17691611Y-12400650D02*
X17720182Y-12400650D01*
X17720182Y-12400650D02*
X17739230Y-12410174D01*
X17739230Y-12410174D02*
X17748753Y-12419698D01*
X17748753Y-12419698D02*
X17758277Y-12438746D01*
X17758277Y-12438746D02*
X17758277Y-12495888D01*
X17758277Y-12495888D02*
X17748753Y-12514936D01*
X17748753Y-12514936D02*
X17739230Y-12524460D01*
X17739230Y-12524460D02*
X17720182Y-12533984D01*
X17720182Y-12533984D02*
X17691611Y-12533984D01*
X17872563Y-12533984D02*
X17853515Y-12524460D01*
X17853515Y-12524460D02*
X17843992Y-12505412D01*
X17843992Y-12505412D02*
X17843992Y-12333984D01*
X18024944Y-12524460D02*
X18005896Y-12533984D01*
X18005896Y-12533984D02*
X17967801Y-12533984D01*
X17967801Y-12533984D02*
X17948753Y-12524460D01*
X17948753Y-12524460D02*
X17939230Y-12505412D01*
X17939230Y-12505412D02*
X17939230Y-12429222D01*
X17939230Y-12429222D02*
X17948753Y-12410174D01*
X17948753Y-12410174D02*
X17967801Y-12400650D01*
X17967801Y-12400650D02*
X18005896Y-12400650D01*
X18005896Y-12400650D02*
X18024944Y-12410174D01*
X18024944Y-12410174D02*
X18034468Y-12429222D01*
X18034468Y-12429222D02*
X18034468Y-12448269D01*
X18034468Y-12448269D02*
X17939230Y-12467317D01*
X18110658Y-12524460D02*
X18129706Y-12533984D01*
X18129706Y-12533984D02*
X18167801Y-12533984D01*
X18167801Y-12533984D02*
X18186849Y-12524460D01*
X18186849Y-12524460D02*
X18196373Y-12505412D01*
X18196373Y-12505412D02*
X18196373Y-12495888D01*
X18196373Y-12495888D02*
X18186849Y-12476841D01*
X18186849Y-12476841D02*
X18167801Y-12467317D01*
X18167801Y-12467317D02*
X18139230Y-12467317D01*
X18139230Y-12467317D02*
X18120182Y-12457793D01*
X18120182Y-12457793D02*
X18110658Y-12438746D01*
X18110658Y-12438746D02*
X18110658Y-12429222D01*
X18110658Y-12429222D02*
X18120182Y-12410174D01*
X18120182Y-12410174D02*
X18139230Y-12400650D01*
X18139230Y-12400650D02*
X18167801Y-12400650D01*
X18167801Y-12400650D02*
X18186849Y-12410174D01*
X18263039Y-12610174D02*
X18272563Y-12600650D01*
X18272563Y-12600650D02*
X18291611Y-12572079D01*
X18291611Y-12572079D02*
X18301134Y-12553031D01*
X18301134Y-12553031D02*
X18310658Y-12524460D01*
X18310658Y-12524460D02*
X18320182Y-12476841D01*
X18320182Y-12476841D02*
X18320182Y-12438746D01*
X18320182Y-12438746D02*
X18310658Y-12391127D01*
X18310658Y-12391127D02*
X18301134Y-12362555D01*
X18301134Y-12362555D02*
X18291611Y-12343508D01*
X18291611Y-12343508D02*
X18272563Y-12314936D01*
X18272563Y-12314936D02*
X18263039Y-12305412D01*
D12*
X13297500Y-12706500D02*
G75*
G02*
X13237500Y-12706500I-30000J0D01*
G01*
X13237500Y-12706500D02*
G75*
G02*
X13297500Y-12706500I30000J0D01*
G01*
D11*
X13596372Y-12597984D02*
X13615420Y-12597984D01*
X13615420Y-12597984D02*
X13634467Y-12607508D01*
X13634467Y-12607508D02*
X13643991Y-12617031D01*
X13643991Y-12617031D02*
X13653515Y-12636079D01*
X13653515Y-12636079D02*
X13663039Y-12674174D01*
X13663039Y-12674174D02*
X13663039Y-12721793D01*
X13663039Y-12721793D02*
X13653515Y-12759888D01*
X13653515Y-12759888D02*
X13643991Y-12778936D01*
X13643991Y-12778936D02*
X13634467Y-12788460D01*
X13634467Y-12788460D02*
X13615420Y-12797984D01*
X13615420Y-12797984D02*
X13596372Y-12797984D01*
X13596372Y-12797984D02*
X13577324Y-12788460D01*
X13577324Y-12788460D02*
X13567801Y-12778936D01*
X13567801Y-12778936D02*
X13558277Y-12759888D01*
X13558277Y-12759888D02*
X13548753Y-12721793D01*
X13548753Y-12721793D02*
X13548753Y-12674174D01*
X13548753Y-12674174D02*
X13558277Y-12636079D01*
X13558277Y-12636079D02*
X13567801Y-12617031D01*
X13567801Y-12617031D02*
X13577324Y-12607508D01*
X13577324Y-12607508D02*
X13596372Y-12597984D01*
X13748753Y-12778936D02*
X13758277Y-12788460D01*
X13758277Y-12788460D02*
X13748753Y-12797984D01*
X13748753Y-12797984D02*
X13739229Y-12788460D01*
X13739229Y-12788460D02*
X13748753Y-12778936D01*
X13748753Y-12778936D02*
X13748753Y-12797984D01*
X13929705Y-12597984D02*
X13891610Y-12597984D01*
X13891610Y-12597984D02*
X13872562Y-12607508D01*
X13872562Y-12607508D02*
X13863039Y-12617031D01*
X13863039Y-12617031D02*
X13843991Y-12645603D01*
X13843991Y-12645603D02*
X13834467Y-12683698D01*
X13834467Y-12683698D02*
X13834467Y-12759888D01*
X13834467Y-12759888D02*
X13843991Y-12778936D01*
X13843991Y-12778936D02*
X13853515Y-12788460D01*
X13853515Y-12788460D02*
X13872562Y-12797984D01*
X13872562Y-12797984D02*
X13910658Y-12797984D01*
X13910658Y-12797984D02*
X13929705Y-12788460D01*
X13929705Y-12788460D02*
X13939229Y-12778936D01*
X13939229Y-12778936D02*
X13948753Y-12759888D01*
X13948753Y-12759888D02*
X13948753Y-12712269D01*
X13948753Y-12712269D02*
X13939229Y-12693222D01*
X13939229Y-12693222D02*
X13929705Y-12683698D01*
X13929705Y-12683698D02*
X13910658Y-12674174D01*
X13910658Y-12674174D02*
X13872562Y-12674174D01*
X13872562Y-12674174D02*
X13853515Y-12683698D01*
X13853515Y-12683698D02*
X13843991Y-12693222D01*
X13843991Y-12693222D02*
X13834467Y-12712269D01*
X14072562Y-12597984D02*
X14091610Y-12597984D01*
X14091610Y-12597984D02*
X14110658Y-12607508D01*
X14110658Y-12607508D02*
X14120182Y-12617031D01*
X14120182Y-12617031D02*
X14129705Y-12636079D01*
X14129705Y-12636079D02*
X14139229Y-12674174D01*
X14139229Y-12674174D02*
X14139229Y-12721793D01*
X14139229Y-12721793D02*
X14129705Y-12759888D01*
X14129705Y-12759888D02*
X14120182Y-12778936D01*
X14120182Y-12778936D02*
X14110658Y-12788460D01*
X14110658Y-12788460D02*
X14091610Y-12797984D01*
X14091610Y-12797984D02*
X14072562Y-12797984D01*
X14072562Y-12797984D02*
X14053515Y-12788460D01*
X14053515Y-12788460D02*
X14043991Y-12778936D01*
X14043991Y-12778936D02*
X14034467Y-12759888D01*
X14034467Y-12759888D02*
X14024943Y-12721793D01*
X14024943Y-12721793D02*
X14024943Y-12674174D01*
X14024943Y-12674174D02*
X14034467Y-12636079D01*
X14034467Y-12636079D02*
X14043991Y-12617031D01*
X14043991Y-12617031D02*
X14053515Y-12607508D01*
X14053515Y-12607508D02*
X14072562Y-12597984D01*
X14263039Y-12597984D02*
X14282086Y-12597984D01*
X14282086Y-12597984D02*
X14301134Y-12607508D01*
X14301134Y-12607508D02*
X14310658Y-12617031D01*
X14310658Y-12617031D02*
X14320182Y-12636079D01*
X14320182Y-12636079D02*
X14329705Y-12674174D01*
X14329705Y-12674174D02*
X14329705Y-12721793D01*
X14329705Y-12721793D02*
X14320182Y-12759888D01*
X14320182Y-12759888D02*
X14310658Y-12778936D01*
X14310658Y-12778936D02*
X14301134Y-12788460D01*
X14301134Y-12788460D02*
X14282086Y-12797984D01*
X14282086Y-12797984D02*
X14263039Y-12797984D01*
X14263039Y-12797984D02*
X14243991Y-12788460D01*
X14243991Y-12788460D02*
X14234467Y-12778936D01*
X14234467Y-12778936D02*
X14224943Y-12759888D01*
X14224943Y-12759888D02*
X14215420Y-12721793D01*
X14215420Y-12721793D02*
X14215420Y-12674174D01*
X14215420Y-12674174D02*
X14224943Y-12636079D01*
X14224943Y-12636079D02*
X14234467Y-12617031D01*
X14234467Y-12617031D02*
X14243991Y-12607508D01*
X14243991Y-12607508D02*
X14263039Y-12597984D01*
X14415420Y-12797984D02*
X14415420Y-12664650D01*
X14415420Y-12683698D02*
X14424943Y-12674174D01*
X14424943Y-12674174D02*
X14443991Y-12664650D01*
X14443991Y-12664650D02*
X14472563Y-12664650D01*
X14472563Y-12664650D02*
X14491610Y-12674174D01*
X14491610Y-12674174D02*
X14501134Y-12693222D01*
X14501134Y-12693222D02*
X14501134Y-12797984D01*
X14501134Y-12693222D02*
X14510658Y-12674174D01*
X14510658Y-12674174D02*
X14529705Y-12664650D01*
X14529705Y-12664650D02*
X14558277Y-12664650D01*
X14558277Y-12664650D02*
X14577324Y-12674174D01*
X14577324Y-12674174D02*
X14586848Y-12693222D01*
X14586848Y-12693222D02*
X14586848Y-12797984D01*
X14682086Y-12797984D02*
X14682086Y-12664650D01*
X14682086Y-12683698D02*
X14691610Y-12674174D01*
X14691610Y-12674174D02*
X14710658Y-12664650D01*
X14710658Y-12664650D02*
X14739229Y-12664650D01*
X14739229Y-12664650D02*
X14758277Y-12674174D01*
X14758277Y-12674174D02*
X14767801Y-12693222D01*
X14767801Y-12693222D02*
X14767801Y-12797984D01*
X14767801Y-12693222D02*
X14777324Y-12674174D01*
X14777324Y-12674174D02*
X14796372Y-12664650D01*
X14796372Y-12664650D02*
X14824943Y-12664650D01*
X14824943Y-12664650D02*
X14843991Y-12674174D01*
X14843991Y-12674174D02*
X14853515Y-12693222D01*
X14853515Y-12693222D02*
X14853515Y-12797984D01*
X15243991Y-12588460D02*
X15072563Y-12845603D01*
X15501134Y-12597984D02*
X15520182Y-12597984D01*
X15520182Y-12597984D02*
X15539229Y-12607508D01*
X15539229Y-12607508D02*
X15548753Y-12617031D01*
X15548753Y-12617031D02*
X15558277Y-12636079D01*
X15558277Y-12636079D02*
X15567801Y-12674174D01*
X15567801Y-12674174D02*
X15567801Y-12721793D01*
X15567801Y-12721793D02*
X15558277Y-12759888D01*
X15558277Y-12759888D02*
X15548753Y-12778936D01*
X15548753Y-12778936D02*
X15539229Y-12788460D01*
X15539229Y-12788460D02*
X15520182Y-12797984D01*
X15520182Y-12797984D02*
X15501134Y-12797984D01*
X15501134Y-12797984D02*
X15482086Y-12788460D01*
X15482086Y-12788460D02*
X15472563Y-12778936D01*
X15472563Y-12778936D02*
X15463039Y-12759888D01*
X15463039Y-12759888D02*
X15453515Y-12721793D01*
X15453515Y-12721793D02*
X15453515Y-12674174D01*
X15453515Y-12674174D02*
X15463039Y-12636079D01*
X15463039Y-12636079D02*
X15472563Y-12617031D01*
X15472563Y-12617031D02*
X15482086Y-12607508D01*
X15482086Y-12607508D02*
X15501134Y-12597984D01*
X15653515Y-12778936D02*
X15663039Y-12788460D01*
X15663039Y-12788460D02*
X15653515Y-12797984D01*
X15653515Y-12797984D02*
X15643991Y-12788460D01*
X15643991Y-12788460D02*
X15653515Y-12778936D01*
X15653515Y-12778936D02*
X15653515Y-12797984D01*
X15786848Y-12597984D02*
X15805896Y-12597984D01*
X15805896Y-12597984D02*
X15824944Y-12607508D01*
X15824944Y-12607508D02*
X15834467Y-12617031D01*
X15834467Y-12617031D02*
X15843991Y-12636079D01*
X15843991Y-12636079D02*
X15853515Y-12674174D01*
X15853515Y-12674174D02*
X15853515Y-12721793D01*
X15853515Y-12721793D02*
X15843991Y-12759888D01*
X15843991Y-12759888D02*
X15834467Y-12778936D01*
X15834467Y-12778936D02*
X15824944Y-12788460D01*
X15824944Y-12788460D02*
X15805896Y-12797984D01*
X15805896Y-12797984D02*
X15786848Y-12797984D01*
X15786848Y-12797984D02*
X15767801Y-12788460D01*
X15767801Y-12788460D02*
X15758277Y-12778936D01*
X15758277Y-12778936D02*
X15748753Y-12759888D01*
X15748753Y-12759888D02*
X15739229Y-12721793D01*
X15739229Y-12721793D02*
X15739229Y-12674174D01*
X15739229Y-12674174D02*
X15748753Y-12636079D01*
X15748753Y-12636079D02*
X15758277Y-12617031D01*
X15758277Y-12617031D02*
X15767801Y-12607508D01*
X15767801Y-12607508D02*
X15786848Y-12597984D01*
X15929706Y-12617031D02*
X15939229Y-12607508D01*
X15939229Y-12607508D02*
X15958277Y-12597984D01*
X15958277Y-12597984D02*
X16005896Y-12597984D01*
X16005896Y-12597984D02*
X16024944Y-12607508D01*
X16024944Y-12607508D02*
X16034467Y-12617031D01*
X16034467Y-12617031D02*
X16043991Y-12636079D01*
X16043991Y-12636079D02*
X16043991Y-12655127D01*
X16043991Y-12655127D02*
X16034467Y-12683698D01*
X16034467Y-12683698D02*
X15920182Y-12797984D01*
X15920182Y-12797984D02*
X16043991Y-12797984D01*
X16110658Y-12597984D02*
X16234467Y-12597984D01*
X16234467Y-12597984D02*
X16167801Y-12674174D01*
X16167801Y-12674174D02*
X16196372Y-12674174D01*
X16196372Y-12674174D02*
X16215420Y-12683698D01*
X16215420Y-12683698D02*
X16224944Y-12693222D01*
X16224944Y-12693222D02*
X16234467Y-12712269D01*
X16234467Y-12712269D02*
X16234467Y-12759888D01*
X16234467Y-12759888D02*
X16224944Y-12778936D01*
X16224944Y-12778936D02*
X16215420Y-12788460D01*
X16215420Y-12788460D02*
X16196372Y-12797984D01*
X16196372Y-12797984D02*
X16139229Y-12797984D01*
X16139229Y-12797984D02*
X16120182Y-12788460D01*
X16120182Y-12788460D02*
X16110658Y-12778936D01*
X16405896Y-12597984D02*
X16367801Y-12597984D01*
X16367801Y-12597984D02*
X16348753Y-12607508D01*
X16348753Y-12607508D02*
X16339229Y-12617031D01*
X16339229Y-12617031D02*
X16320182Y-12645603D01*
X16320182Y-12645603D02*
X16310658Y-12683698D01*
X16310658Y-12683698D02*
X16310658Y-12759888D01*
X16310658Y-12759888D02*
X16320182Y-12778936D01*
X16320182Y-12778936D02*
X16329706Y-12788460D01*
X16329706Y-12788460D02*
X16348753Y-12797984D01*
X16348753Y-12797984D02*
X16386848Y-12797984D01*
X16386848Y-12797984D02*
X16405896Y-12788460D01*
X16405896Y-12788460D02*
X16415420Y-12778936D01*
X16415420Y-12778936D02*
X16424944Y-12759888D01*
X16424944Y-12759888D02*
X16424944Y-12712269D01*
X16424944Y-12712269D02*
X16415420Y-12693222D01*
X16415420Y-12693222D02*
X16405896Y-12683698D01*
X16405896Y-12683698D02*
X16386848Y-12674174D01*
X16386848Y-12674174D02*
X16348753Y-12674174D01*
X16348753Y-12674174D02*
X16329706Y-12683698D01*
X16329706Y-12683698D02*
X16320182Y-12693222D01*
X16320182Y-12693222D02*
X16310658Y-12712269D01*
X16501134Y-12597984D02*
X16501134Y-12636079D01*
X16577325Y-12597984D02*
X16577325Y-12636079D01*
X16872563Y-12874174D02*
X16863039Y-12864650D01*
X16863039Y-12864650D02*
X16843991Y-12836079D01*
X16843991Y-12836079D02*
X16834468Y-12817031D01*
X16834468Y-12817031D02*
X16824944Y-12788460D01*
X16824944Y-12788460D02*
X16815420Y-12740841D01*
X16815420Y-12740841D02*
X16815420Y-12702746D01*
X16815420Y-12702746D02*
X16824944Y-12655127D01*
X16824944Y-12655127D02*
X16834468Y-12626555D01*
X16834468Y-12626555D02*
X16843991Y-12607508D01*
X16843991Y-12607508D02*
X16863039Y-12578936D01*
X16863039Y-12578936D02*
X16872563Y-12569412D01*
X16939230Y-12617031D02*
X16948753Y-12607508D01*
X16948753Y-12607508D02*
X16967801Y-12597984D01*
X16967801Y-12597984D02*
X17015420Y-12597984D01*
X17015420Y-12597984D02*
X17034468Y-12607508D01*
X17034468Y-12607508D02*
X17043991Y-12617031D01*
X17043991Y-12617031D02*
X17053515Y-12636079D01*
X17053515Y-12636079D02*
X17053515Y-12655127D01*
X17053515Y-12655127D02*
X17043991Y-12683698D01*
X17043991Y-12683698D02*
X16929706Y-12797984D01*
X16929706Y-12797984D02*
X17053515Y-12797984D01*
X17291611Y-12797984D02*
X17291611Y-12597984D01*
X17377325Y-12797984D02*
X17377325Y-12693222D01*
X17377325Y-12693222D02*
X17367801Y-12674174D01*
X17367801Y-12674174D02*
X17348753Y-12664650D01*
X17348753Y-12664650D02*
X17320182Y-12664650D01*
X17320182Y-12664650D02*
X17301134Y-12674174D01*
X17301134Y-12674174D02*
X17291611Y-12683698D01*
X17501134Y-12797984D02*
X17482087Y-12788460D01*
X17482087Y-12788460D02*
X17472563Y-12778936D01*
X17472563Y-12778936D02*
X17463039Y-12759888D01*
X17463039Y-12759888D02*
X17463039Y-12702746D01*
X17463039Y-12702746D02*
X17472563Y-12683698D01*
X17472563Y-12683698D02*
X17482087Y-12674174D01*
X17482087Y-12674174D02*
X17501134Y-12664650D01*
X17501134Y-12664650D02*
X17529706Y-12664650D01*
X17529706Y-12664650D02*
X17548753Y-12674174D01*
X17548753Y-12674174D02*
X17558277Y-12683698D01*
X17558277Y-12683698D02*
X17567801Y-12702746D01*
X17567801Y-12702746D02*
X17567801Y-12759888D01*
X17567801Y-12759888D02*
X17558277Y-12778936D01*
X17558277Y-12778936D02*
X17548753Y-12788460D01*
X17548753Y-12788460D02*
X17529706Y-12797984D01*
X17529706Y-12797984D02*
X17501134Y-12797984D01*
X17682087Y-12797984D02*
X17663039Y-12788460D01*
X17663039Y-12788460D02*
X17653515Y-12769412D01*
X17653515Y-12769412D02*
X17653515Y-12597984D01*
X17834468Y-12788460D02*
X17815420Y-12797984D01*
X17815420Y-12797984D02*
X17777325Y-12797984D01*
X17777325Y-12797984D02*
X17758277Y-12788460D01*
X17758277Y-12788460D02*
X17748753Y-12769412D01*
X17748753Y-12769412D02*
X17748753Y-12693222D01*
X17748753Y-12693222D02*
X17758277Y-12674174D01*
X17758277Y-12674174D02*
X17777325Y-12664650D01*
X17777325Y-12664650D02*
X17815420Y-12664650D01*
X17815420Y-12664650D02*
X17834468Y-12674174D01*
X17834468Y-12674174D02*
X17843992Y-12693222D01*
X17843992Y-12693222D02*
X17843992Y-12712269D01*
X17843992Y-12712269D02*
X17748753Y-12731317D01*
X17920182Y-12788460D02*
X17939230Y-12797984D01*
X17939230Y-12797984D02*
X17977325Y-12797984D01*
X17977325Y-12797984D02*
X17996373Y-12788460D01*
X17996373Y-12788460D02*
X18005896Y-12769412D01*
X18005896Y-12769412D02*
X18005896Y-12759888D01*
X18005896Y-12759888D02*
X17996373Y-12740841D01*
X17996373Y-12740841D02*
X17977325Y-12731317D01*
X17977325Y-12731317D02*
X17948753Y-12731317D01*
X17948753Y-12731317D02*
X17929706Y-12721793D01*
X17929706Y-12721793D02*
X17920182Y-12702746D01*
X17920182Y-12702746D02*
X17920182Y-12693222D01*
X17920182Y-12693222D02*
X17929706Y-12674174D01*
X17929706Y-12674174D02*
X17948753Y-12664650D01*
X17948753Y-12664650D02*
X17977325Y-12664650D01*
X17977325Y-12664650D02*
X17996373Y-12674174D01*
X18072563Y-12874174D02*
X18082087Y-12864650D01*
X18082087Y-12864650D02*
X18101134Y-12836079D01*
X18101134Y-12836079D02*
X18110658Y-12817031D01*
X18110658Y-12817031D02*
X18120182Y-12788460D01*
X18120182Y-12788460D02*
X18129706Y-12740841D01*
X18129706Y-12740841D02*
X18129706Y-12702746D01*
X18129706Y-12702746D02*
X18120182Y-12655127D01*
X18120182Y-12655127D02*
X18110658Y-12626555D01*
X18110658Y-12626555D02*
X18101134Y-12607508D01*
X18101134Y-12607508D02*
X18082087Y-12578936D01*
X18082087Y-12578936D02*
X18072563Y-12569412D01*
D12*
X13252500Y-12925500D02*
X13252500Y-13015500D01*
X13207500Y-12970500D02*
X13297500Y-12970500D01*
D11*
X13596372Y-12861984D02*
X13615420Y-12861984D01*
X13615420Y-12861984D02*
X13634467Y-12871508D01*
X13634467Y-12871508D02*
X13643991Y-12881031D01*
X13643991Y-12881031D02*
X13653515Y-12900079D01*
X13653515Y-12900079D02*
X13663039Y-12938174D01*
X13663039Y-12938174D02*
X13663039Y-12985793D01*
X13663039Y-12985793D02*
X13653515Y-13023888D01*
X13653515Y-13023888D02*
X13643991Y-13042936D01*
X13643991Y-13042936D02*
X13634467Y-13052460D01*
X13634467Y-13052460D02*
X13615420Y-13061984D01*
X13615420Y-13061984D02*
X13596372Y-13061984D01*
X13596372Y-13061984D02*
X13577324Y-13052460D01*
X13577324Y-13052460D02*
X13567801Y-13042936D01*
X13567801Y-13042936D02*
X13558277Y-13023888D01*
X13558277Y-13023888D02*
X13548753Y-12985793D01*
X13548753Y-12985793D02*
X13548753Y-12938174D01*
X13548753Y-12938174D02*
X13558277Y-12900079D01*
X13558277Y-12900079D02*
X13567801Y-12881031D01*
X13567801Y-12881031D02*
X13577324Y-12871508D01*
X13577324Y-12871508D02*
X13596372Y-12861984D01*
X13748753Y-13042936D02*
X13758277Y-13052460D01*
X13758277Y-13052460D02*
X13748753Y-13061984D01*
X13748753Y-13061984D02*
X13739229Y-13052460D01*
X13739229Y-13052460D02*
X13748753Y-13042936D01*
X13748753Y-13042936D02*
X13748753Y-13061984D01*
X13853515Y-13061984D02*
X13891610Y-13061984D01*
X13891610Y-13061984D02*
X13910658Y-13052460D01*
X13910658Y-13052460D02*
X13920182Y-13042936D01*
X13920182Y-13042936D02*
X13939229Y-13014365D01*
X13939229Y-13014365D02*
X13948753Y-12976269D01*
X13948753Y-12976269D02*
X13948753Y-12900079D01*
X13948753Y-12900079D02*
X13939229Y-12881031D01*
X13939229Y-12881031D02*
X13929705Y-12871508D01*
X13929705Y-12871508D02*
X13910658Y-12861984D01*
X13910658Y-12861984D02*
X13872562Y-12861984D01*
X13872562Y-12861984D02*
X13853515Y-12871508D01*
X13853515Y-12871508D02*
X13843991Y-12881031D01*
X13843991Y-12881031D02*
X13834467Y-12900079D01*
X13834467Y-12900079D02*
X13834467Y-12947698D01*
X13834467Y-12947698D02*
X13843991Y-12966746D01*
X13843991Y-12966746D02*
X13853515Y-12976269D01*
X13853515Y-12976269D02*
X13872562Y-12985793D01*
X13872562Y-12985793D02*
X13910658Y-12985793D01*
X13910658Y-12985793D02*
X13929705Y-12976269D01*
X13929705Y-12976269D02*
X13939229Y-12966746D01*
X13939229Y-12966746D02*
X13948753Y-12947698D01*
X14072562Y-12861984D02*
X14091610Y-12861984D01*
X14091610Y-12861984D02*
X14110658Y-12871508D01*
X14110658Y-12871508D02*
X14120182Y-12881031D01*
X14120182Y-12881031D02*
X14129705Y-12900079D01*
X14129705Y-12900079D02*
X14139229Y-12938174D01*
X14139229Y-12938174D02*
X14139229Y-12985793D01*
X14139229Y-12985793D02*
X14129705Y-13023888D01*
X14129705Y-13023888D02*
X14120182Y-13042936D01*
X14120182Y-13042936D02*
X14110658Y-13052460D01*
X14110658Y-13052460D02*
X14091610Y-13061984D01*
X14091610Y-13061984D02*
X14072562Y-13061984D01*
X14072562Y-13061984D02*
X14053515Y-13052460D01*
X14053515Y-13052460D02*
X14043991Y-13042936D01*
X14043991Y-13042936D02*
X14034467Y-13023888D01*
X14034467Y-13023888D02*
X14024943Y-12985793D01*
X14024943Y-12985793D02*
X14024943Y-12938174D01*
X14024943Y-12938174D02*
X14034467Y-12900079D01*
X14034467Y-12900079D02*
X14043991Y-12881031D01*
X14043991Y-12881031D02*
X14053515Y-12871508D01*
X14053515Y-12871508D02*
X14072562Y-12861984D01*
X14263039Y-12861984D02*
X14282086Y-12861984D01*
X14282086Y-12861984D02*
X14301134Y-12871508D01*
X14301134Y-12871508D02*
X14310658Y-12881031D01*
X14310658Y-12881031D02*
X14320182Y-12900079D01*
X14320182Y-12900079D02*
X14329705Y-12938174D01*
X14329705Y-12938174D02*
X14329705Y-12985793D01*
X14329705Y-12985793D02*
X14320182Y-13023888D01*
X14320182Y-13023888D02*
X14310658Y-13042936D01*
X14310658Y-13042936D02*
X14301134Y-13052460D01*
X14301134Y-13052460D02*
X14282086Y-13061984D01*
X14282086Y-13061984D02*
X14263039Y-13061984D01*
X14263039Y-13061984D02*
X14243991Y-13052460D01*
X14243991Y-13052460D02*
X14234467Y-13042936D01*
X14234467Y-13042936D02*
X14224943Y-13023888D01*
X14224943Y-13023888D02*
X14215420Y-12985793D01*
X14215420Y-12985793D02*
X14215420Y-12938174D01*
X14215420Y-12938174D02*
X14224943Y-12900079D01*
X14224943Y-12900079D02*
X14234467Y-12881031D01*
X14234467Y-12881031D02*
X14243991Y-12871508D01*
X14243991Y-12871508D02*
X14263039Y-12861984D01*
X14415420Y-13061984D02*
X14415420Y-12928650D01*
X14415420Y-12947698D02*
X14424943Y-12938174D01*
X14424943Y-12938174D02*
X14443991Y-12928650D01*
X14443991Y-12928650D02*
X14472563Y-12928650D01*
X14472563Y-12928650D02*
X14491610Y-12938174D01*
X14491610Y-12938174D02*
X14501134Y-12957222D01*
X14501134Y-12957222D02*
X14501134Y-13061984D01*
X14501134Y-12957222D02*
X14510658Y-12938174D01*
X14510658Y-12938174D02*
X14529705Y-12928650D01*
X14529705Y-12928650D02*
X14558277Y-12928650D01*
X14558277Y-12928650D02*
X14577324Y-12938174D01*
X14577324Y-12938174D02*
X14586848Y-12957222D01*
X14586848Y-12957222D02*
X14586848Y-13061984D01*
X14682086Y-13061984D02*
X14682086Y-12928650D01*
X14682086Y-12947698D02*
X14691610Y-12938174D01*
X14691610Y-12938174D02*
X14710658Y-12928650D01*
X14710658Y-12928650D02*
X14739229Y-12928650D01*
X14739229Y-12928650D02*
X14758277Y-12938174D01*
X14758277Y-12938174D02*
X14767801Y-12957222D01*
X14767801Y-12957222D02*
X14767801Y-13061984D01*
X14767801Y-12957222D02*
X14777324Y-12938174D01*
X14777324Y-12938174D02*
X14796372Y-12928650D01*
X14796372Y-12928650D02*
X14824943Y-12928650D01*
X14824943Y-12928650D02*
X14843991Y-12938174D01*
X14843991Y-12938174D02*
X14853515Y-12957222D01*
X14853515Y-12957222D02*
X14853515Y-13061984D01*
X15243991Y-12852460D02*
X15072563Y-13109603D01*
X15501134Y-12861984D02*
X15520182Y-12861984D01*
X15520182Y-12861984D02*
X15539229Y-12871508D01*
X15539229Y-12871508D02*
X15548753Y-12881031D01*
X15548753Y-12881031D02*
X15558277Y-12900079D01*
X15558277Y-12900079D02*
X15567801Y-12938174D01*
X15567801Y-12938174D02*
X15567801Y-12985793D01*
X15567801Y-12985793D02*
X15558277Y-13023888D01*
X15558277Y-13023888D02*
X15548753Y-13042936D01*
X15548753Y-13042936D02*
X15539229Y-13052460D01*
X15539229Y-13052460D02*
X15520182Y-13061984D01*
X15520182Y-13061984D02*
X15501134Y-13061984D01*
X15501134Y-13061984D02*
X15482086Y-13052460D01*
X15482086Y-13052460D02*
X15472563Y-13042936D01*
X15472563Y-13042936D02*
X15463039Y-13023888D01*
X15463039Y-13023888D02*
X15453515Y-12985793D01*
X15453515Y-12985793D02*
X15453515Y-12938174D01*
X15453515Y-12938174D02*
X15463039Y-12900079D01*
X15463039Y-12900079D02*
X15472563Y-12881031D01*
X15472563Y-12881031D02*
X15482086Y-12871508D01*
X15482086Y-12871508D02*
X15501134Y-12861984D01*
X15653515Y-13042936D02*
X15663039Y-13052460D01*
X15663039Y-13052460D02*
X15653515Y-13061984D01*
X15653515Y-13061984D02*
X15643991Y-13052460D01*
X15643991Y-13052460D02*
X15653515Y-13042936D01*
X15653515Y-13042936D02*
X15653515Y-13061984D01*
X15786848Y-12861984D02*
X15805896Y-12861984D01*
X15805896Y-12861984D02*
X15824944Y-12871508D01*
X15824944Y-12871508D02*
X15834467Y-12881031D01*
X15834467Y-12881031D02*
X15843991Y-12900079D01*
X15843991Y-12900079D02*
X15853515Y-12938174D01*
X15853515Y-12938174D02*
X15853515Y-12985793D01*
X15853515Y-12985793D02*
X15843991Y-13023888D01*
X15843991Y-13023888D02*
X15834467Y-13042936D01*
X15834467Y-13042936D02*
X15824944Y-13052460D01*
X15824944Y-13052460D02*
X15805896Y-13061984D01*
X15805896Y-13061984D02*
X15786848Y-13061984D01*
X15786848Y-13061984D02*
X15767801Y-13052460D01*
X15767801Y-13052460D02*
X15758277Y-13042936D01*
X15758277Y-13042936D02*
X15748753Y-13023888D01*
X15748753Y-13023888D02*
X15739229Y-12985793D01*
X15739229Y-12985793D02*
X15739229Y-12938174D01*
X15739229Y-12938174D02*
X15748753Y-12900079D01*
X15748753Y-12900079D02*
X15758277Y-12881031D01*
X15758277Y-12881031D02*
X15767801Y-12871508D01*
X15767801Y-12871508D02*
X15786848Y-12861984D01*
X15920182Y-12861984D02*
X16043991Y-12861984D01*
X16043991Y-12861984D02*
X15977325Y-12938174D01*
X15977325Y-12938174D02*
X16005896Y-12938174D01*
X16005896Y-12938174D02*
X16024944Y-12947698D01*
X16024944Y-12947698D02*
X16034467Y-12957222D01*
X16034467Y-12957222D02*
X16043991Y-12976269D01*
X16043991Y-12976269D02*
X16043991Y-13023888D01*
X16043991Y-13023888D02*
X16034467Y-13042936D01*
X16034467Y-13042936D02*
X16024944Y-13052460D01*
X16024944Y-13052460D02*
X16005896Y-13061984D01*
X16005896Y-13061984D02*
X15948753Y-13061984D01*
X15948753Y-13061984D02*
X15929706Y-13052460D01*
X15929706Y-13052460D02*
X15920182Y-13042936D01*
X16224944Y-12861984D02*
X16129706Y-12861984D01*
X16129706Y-12861984D02*
X16120182Y-12957222D01*
X16120182Y-12957222D02*
X16129706Y-12947698D01*
X16129706Y-12947698D02*
X16148753Y-12938174D01*
X16148753Y-12938174D02*
X16196372Y-12938174D01*
X16196372Y-12938174D02*
X16215420Y-12947698D01*
X16215420Y-12947698D02*
X16224944Y-12957222D01*
X16224944Y-12957222D02*
X16234467Y-12976269D01*
X16234467Y-12976269D02*
X16234467Y-13023888D01*
X16234467Y-13023888D02*
X16224944Y-13042936D01*
X16224944Y-13042936D02*
X16215420Y-13052460D01*
X16215420Y-13052460D02*
X16196372Y-13061984D01*
X16196372Y-13061984D02*
X16148753Y-13061984D01*
X16148753Y-13061984D02*
X16129706Y-13052460D01*
X16129706Y-13052460D02*
X16120182Y-13042936D01*
X16405896Y-12928650D02*
X16405896Y-13061984D01*
X16358277Y-12852460D02*
X16310658Y-12995317D01*
X16310658Y-12995317D02*
X16434467Y-12995317D01*
X16501134Y-12861984D02*
X16501134Y-12900079D01*
X16577325Y-12861984D02*
X16577325Y-12900079D01*
X16872563Y-13138174D02*
X16863039Y-13128650D01*
X16863039Y-13128650D02*
X16843991Y-13100079D01*
X16843991Y-13100079D02*
X16834468Y-13081031D01*
X16834468Y-13081031D02*
X16824944Y-13052460D01*
X16824944Y-13052460D02*
X16815420Y-13004841D01*
X16815420Y-13004841D02*
X16815420Y-12966746D01*
X16815420Y-12966746D02*
X16824944Y-12919127D01*
X16824944Y-12919127D02*
X16834468Y-12890555D01*
X16834468Y-12890555D02*
X16843991Y-12871508D01*
X16843991Y-12871508D02*
X16863039Y-12842936D01*
X16863039Y-12842936D02*
X16872563Y-12833412D01*
X16929706Y-12861984D02*
X17053515Y-12861984D01*
X17053515Y-12861984D02*
X16986849Y-12938174D01*
X16986849Y-12938174D02*
X17015420Y-12938174D01*
X17015420Y-12938174D02*
X17034468Y-12947698D01*
X17034468Y-12947698D02*
X17043991Y-12957222D01*
X17043991Y-12957222D02*
X17053515Y-12976269D01*
X17053515Y-12976269D02*
X17053515Y-13023888D01*
X17053515Y-13023888D02*
X17043991Y-13042936D01*
X17043991Y-13042936D02*
X17034468Y-13052460D01*
X17034468Y-13052460D02*
X17015420Y-13061984D01*
X17015420Y-13061984D02*
X16958277Y-13061984D01*
X16958277Y-13061984D02*
X16939230Y-13052460D01*
X16939230Y-13052460D02*
X16929706Y-13042936D01*
X17291611Y-13061984D02*
X17291611Y-12861984D01*
X17377325Y-13061984D02*
X17377325Y-12957222D01*
X17377325Y-12957222D02*
X17367801Y-12938174D01*
X17367801Y-12938174D02*
X17348753Y-12928650D01*
X17348753Y-12928650D02*
X17320182Y-12928650D01*
X17320182Y-12928650D02*
X17301134Y-12938174D01*
X17301134Y-12938174D02*
X17291611Y-12947698D01*
X17501134Y-13061984D02*
X17482087Y-13052460D01*
X17482087Y-13052460D02*
X17472563Y-13042936D01*
X17472563Y-13042936D02*
X17463039Y-13023888D01*
X17463039Y-13023888D02*
X17463039Y-12966746D01*
X17463039Y-12966746D02*
X17472563Y-12947698D01*
X17472563Y-12947698D02*
X17482087Y-12938174D01*
X17482087Y-12938174D02*
X17501134Y-12928650D01*
X17501134Y-12928650D02*
X17529706Y-12928650D01*
X17529706Y-12928650D02*
X17548753Y-12938174D01*
X17548753Y-12938174D02*
X17558277Y-12947698D01*
X17558277Y-12947698D02*
X17567801Y-12966746D01*
X17567801Y-12966746D02*
X17567801Y-13023888D01*
X17567801Y-13023888D02*
X17558277Y-13042936D01*
X17558277Y-13042936D02*
X17548753Y-13052460D01*
X17548753Y-13052460D02*
X17529706Y-13061984D01*
X17529706Y-13061984D02*
X17501134Y-13061984D01*
X17682087Y-13061984D02*
X17663039Y-13052460D01*
X17663039Y-13052460D02*
X17653515Y-13033412D01*
X17653515Y-13033412D02*
X17653515Y-12861984D01*
X17834468Y-13052460D02*
X17815420Y-13061984D01*
X17815420Y-13061984D02*
X17777325Y-13061984D01*
X17777325Y-13061984D02*
X17758277Y-13052460D01*
X17758277Y-13052460D02*
X17748753Y-13033412D01*
X17748753Y-13033412D02*
X17748753Y-12957222D01*
X17748753Y-12957222D02*
X17758277Y-12938174D01*
X17758277Y-12938174D02*
X17777325Y-12928650D01*
X17777325Y-12928650D02*
X17815420Y-12928650D01*
X17815420Y-12928650D02*
X17834468Y-12938174D01*
X17834468Y-12938174D02*
X17843992Y-12957222D01*
X17843992Y-12957222D02*
X17843992Y-12976269D01*
X17843992Y-12976269D02*
X17748753Y-12995317D01*
X17920182Y-13052460D02*
X17939230Y-13061984D01*
X17939230Y-13061984D02*
X17977325Y-13061984D01*
X17977325Y-13061984D02*
X17996373Y-13052460D01*
X17996373Y-13052460D02*
X18005896Y-13033412D01*
X18005896Y-13033412D02*
X18005896Y-13023888D01*
X18005896Y-13023888D02*
X17996373Y-13004841D01*
X17996373Y-13004841D02*
X17977325Y-12995317D01*
X17977325Y-12995317D02*
X17948753Y-12995317D01*
X17948753Y-12995317D02*
X17929706Y-12985793D01*
X17929706Y-12985793D02*
X17920182Y-12966746D01*
X17920182Y-12966746D02*
X17920182Y-12957222D01*
X17920182Y-12957222D02*
X17929706Y-12938174D01*
X17929706Y-12938174D02*
X17948753Y-12928650D01*
X17948753Y-12928650D02*
X17977325Y-12928650D01*
X17977325Y-12928650D02*
X17996373Y-12938174D01*
X18072563Y-13138174D02*
X18082087Y-13128650D01*
X18082087Y-13128650D02*
X18101134Y-13100079D01*
X18101134Y-13100079D02*
X18110658Y-13081031D01*
X18110658Y-13081031D02*
X18120182Y-13052460D01*
X18120182Y-13052460D02*
X18129706Y-13004841D01*
X18129706Y-13004841D02*
X18129706Y-12966746D01*
X18129706Y-12966746D02*
X18120182Y-12919127D01*
X18120182Y-12919127D02*
X18110658Y-12890555D01*
X18110658Y-12890555D02*
X18101134Y-12871508D01*
X18101134Y-12871508D02*
X18082087Y-12842936D01*
X18082087Y-12842936D02*
X18072563Y-12833412D01*
D12*
X13282856Y-13269856D02*
X13282856Y-13199144D01*
X13212144Y-13199144D01*
X13212144Y-13269856D01*
X13282856Y-13269856D01*
D11*
X13663039Y-13325984D02*
X13548753Y-13325984D01*
X13605896Y-13325984D02*
X13605896Y-13125984D01*
X13605896Y-13125984D02*
X13586848Y-13154555D01*
X13586848Y-13154555D02*
X13567801Y-13173603D01*
X13567801Y-13173603D02*
X13548753Y-13183127D01*
X13748753Y-13306936D02*
X13758277Y-13316460D01*
X13758277Y-13316460D02*
X13748753Y-13325984D01*
X13748753Y-13325984D02*
X13739229Y-13316460D01*
X13739229Y-13316460D02*
X13748753Y-13306936D01*
X13748753Y-13306936D02*
X13748753Y-13325984D01*
X13882086Y-13125984D02*
X13901134Y-13125984D01*
X13901134Y-13125984D02*
X13920182Y-13135508D01*
X13920182Y-13135508D02*
X13929705Y-13145031D01*
X13929705Y-13145031D02*
X13939229Y-13164079D01*
X13939229Y-13164079D02*
X13948753Y-13202174D01*
X13948753Y-13202174D02*
X13948753Y-13249793D01*
X13948753Y-13249793D02*
X13939229Y-13287888D01*
X13939229Y-13287888D02*
X13929705Y-13306936D01*
X13929705Y-13306936D02*
X13920182Y-13316460D01*
X13920182Y-13316460D02*
X13901134Y-13325984D01*
X13901134Y-13325984D02*
X13882086Y-13325984D01*
X13882086Y-13325984D02*
X13863039Y-13316460D01*
X13863039Y-13316460D02*
X13853515Y-13306936D01*
X13853515Y-13306936D02*
X13843991Y-13287888D01*
X13843991Y-13287888D02*
X13834467Y-13249793D01*
X13834467Y-13249793D02*
X13834467Y-13202174D01*
X13834467Y-13202174D02*
X13843991Y-13164079D01*
X13843991Y-13164079D02*
X13853515Y-13145031D01*
X13853515Y-13145031D02*
X13863039Y-13135508D01*
X13863039Y-13135508D02*
X13882086Y-13125984D01*
X14072562Y-13125984D02*
X14091610Y-13125984D01*
X14091610Y-13125984D02*
X14110658Y-13135508D01*
X14110658Y-13135508D02*
X14120182Y-13145031D01*
X14120182Y-13145031D02*
X14129705Y-13164079D01*
X14129705Y-13164079D02*
X14139229Y-13202174D01*
X14139229Y-13202174D02*
X14139229Y-13249793D01*
X14139229Y-13249793D02*
X14129705Y-13287888D01*
X14129705Y-13287888D02*
X14120182Y-13306936D01*
X14120182Y-13306936D02*
X14110658Y-13316460D01*
X14110658Y-13316460D02*
X14091610Y-13325984D01*
X14091610Y-13325984D02*
X14072562Y-13325984D01*
X14072562Y-13325984D02*
X14053515Y-13316460D01*
X14053515Y-13316460D02*
X14043991Y-13306936D01*
X14043991Y-13306936D02*
X14034467Y-13287888D01*
X14034467Y-13287888D02*
X14024943Y-13249793D01*
X14024943Y-13249793D02*
X14024943Y-13202174D01*
X14024943Y-13202174D02*
X14034467Y-13164079D01*
X14034467Y-13164079D02*
X14043991Y-13145031D01*
X14043991Y-13145031D02*
X14053515Y-13135508D01*
X14053515Y-13135508D02*
X14072562Y-13125984D01*
X14263039Y-13125984D02*
X14282086Y-13125984D01*
X14282086Y-13125984D02*
X14301134Y-13135508D01*
X14301134Y-13135508D02*
X14310658Y-13145031D01*
X14310658Y-13145031D02*
X14320182Y-13164079D01*
X14320182Y-13164079D02*
X14329705Y-13202174D01*
X14329705Y-13202174D02*
X14329705Y-13249793D01*
X14329705Y-13249793D02*
X14320182Y-13287888D01*
X14320182Y-13287888D02*
X14310658Y-13306936D01*
X14310658Y-13306936D02*
X14301134Y-13316460D01*
X14301134Y-13316460D02*
X14282086Y-13325984D01*
X14282086Y-13325984D02*
X14263039Y-13325984D01*
X14263039Y-13325984D02*
X14243991Y-13316460D01*
X14243991Y-13316460D02*
X14234467Y-13306936D01*
X14234467Y-13306936D02*
X14224943Y-13287888D01*
X14224943Y-13287888D02*
X14215420Y-13249793D01*
X14215420Y-13249793D02*
X14215420Y-13202174D01*
X14215420Y-13202174D02*
X14224943Y-13164079D01*
X14224943Y-13164079D02*
X14234467Y-13145031D01*
X14234467Y-13145031D02*
X14243991Y-13135508D01*
X14243991Y-13135508D02*
X14263039Y-13125984D01*
X14415420Y-13325984D02*
X14415420Y-13192650D01*
X14415420Y-13211698D02*
X14424943Y-13202174D01*
X14424943Y-13202174D02*
X14443991Y-13192650D01*
X14443991Y-13192650D02*
X14472563Y-13192650D01*
X14472563Y-13192650D02*
X14491610Y-13202174D01*
X14491610Y-13202174D02*
X14501134Y-13221222D01*
X14501134Y-13221222D02*
X14501134Y-13325984D01*
X14501134Y-13221222D02*
X14510658Y-13202174D01*
X14510658Y-13202174D02*
X14529705Y-13192650D01*
X14529705Y-13192650D02*
X14558277Y-13192650D01*
X14558277Y-13192650D02*
X14577324Y-13202174D01*
X14577324Y-13202174D02*
X14586848Y-13221222D01*
X14586848Y-13221222D02*
X14586848Y-13325984D01*
X14682086Y-13325984D02*
X14682086Y-13192650D01*
X14682086Y-13211698D02*
X14691610Y-13202174D01*
X14691610Y-13202174D02*
X14710658Y-13192650D01*
X14710658Y-13192650D02*
X14739229Y-13192650D01*
X14739229Y-13192650D02*
X14758277Y-13202174D01*
X14758277Y-13202174D02*
X14767801Y-13221222D01*
X14767801Y-13221222D02*
X14767801Y-13325984D01*
X14767801Y-13221222D02*
X14777324Y-13202174D01*
X14777324Y-13202174D02*
X14796372Y-13192650D01*
X14796372Y-13192650D02*
X14824943Y-13192650D01*
X14824943Y-13192650D02*
X14843991Y-13202174D01*
X14843991Y-13202174D02*
X14853515Y-13221222D01*
X14853515Y-13221222D02*
X14853515Y-13325984D01*
X15243991Y-13116460D02*
X15072563Y-13373603D01*
X15501134Y-13125984D02*
X15520182Y-13125984D01*
X15520182Y-13125984D02*
X15539229Y-13135508D01*
X15539229Y-13135508D02*
X15548753Y-13145031D01*
X15548753Y-13145031D02*
X15558277Y-13164079D01*
X15558277Y-13164079D02*
X15567801Y-13202174D01*
X15567801Y-13202174D02*
X15567801Y-13249793D01*
X15567801Y-13249793D02*
X15558277Y-13287888D01*
X15558277Y-13287888D02*
X15548753Y-13306936D01*
X15548753Y-13306936D02*
X15539229Y-13316460D01*
X15539229Y-13316460D02*
X15520182Y-13325984D01*
X15520182Y-13325984D02*
X15501134Y-13325984D01*
X15501134Y-13325984D02*
X15482086Y-13316460D01*
X15482086Y-13316460D02*
X15472563Y-13306936D01*
X15472563Y-13306936D02*
X15463039Y-13287888D01*
X15463039Y-13287888D02*
X15453515Y-13249793D01*
X15453515Y-13249793D02*
X15453515Y-13202174D01*
X15453515Y-13202174D02*
X15463039Y-13164079D01*
X15463039Y-13164079D02*
X15472563Y-13145031D01*
X15472563Y-13145031D02*
X15482086Y-13135508D01*
X15482086Y-13135508D02*
X15501134Y-13125984D01*
X15653515Y-13306936D02*
X15663039Y-13316460D01*
X15663039Y-13316460D02*
X15653515Y-13325984D01*
X15653515Y-13325984D02*
X15643991Y-13316460D01*
X15643991Y-13316460D02*
X15653515Y-13306936D01*
X15653515Y-13306936D02*
X15653515Y-13325984D01*
X15786848Y-13125984D02*
X15805896Y-13125984D01*
X15805896Y-13125984D02*
X15824944Y-13135508D01*
X15824944Y-13135508D02*
X15834467Y-13145031D01*
X15834467Y-13145031D02*
X15843991Y-13164079D01*
X15843991Y-13164079D02*
X15853515Y-13202174D01*
X15853515Y-13202174D02*
X15853515Y-13249793D01*
X15853515Y-13249793D02*
X15843991Y-13287888D01*
X15843991Y-13287888D02*
X15834467Y-13306936D01*
X15834467Y-13306936D02*
X15824944Y-13316460D01*
X15824944Y-13316460D02*
X15805896Y-13325984D01*
X15805896Y-13325984D02*
X15786848Y-13325984D01*
X15786848Y-13325984D02*
X15767801Y-13316460D01*
X15767801Y-13316460D02*
X15758277Y-13306936D01*
X15758277Y-13306936D02*
X15748753Y-13287888D01*
X15748753Y-13287888D02*
X15739229Y-13249793D01*
X15739229Y-13249793D02*
X15739229Y-13202174D01*
X15739229Y-13202174D02*
X15748753Y-13164079D01*
X15748753Y-13164079D02*
X15758277Y-13145031D01*
X15758277Y-13145031D02*
X15767801Y-13135508D01*
X15767801Y-13135508D02*
X15786848Y-13125984D01*
X15920182Y-13125984D02*
X16043991Y-13125984D01*
X16043991Y-13125984D02*
X15977325Y-13202174D01*
X15977325Y-13202174D02*
X16005896Y-13202174D01*
X16005896Y-13202174D02*
X16024944Y-13211698D01*
X16024944Y-13211698D02*
X16034467Y-13221222D01*
X16034467Y-13221222D02*
X16043991Y-13240269D01*
X16043991Y-13240269D02*
X16043991Y-13287888D01*
X16043991Y-13287888D02*
X16034467Y-13306936D01*
X16034467Y-13306936D02*
X16024944Y-13316460D01*
X16024944Y-13316460D02*
X16005896Y-13325984D01*
X16005896Y-13325984D02*
X15948753Y-13325984D01*
X15948753Y-13325984D02*
X15929706Y-13316460D01*
X15929706Y-13316460D02*
X15920182Y-13306936D01*
X16139229Y-13325984D02*
X16177325Y-13325984D01*
X16177325Y-13325984D02*
X16196372Y-13316460D01*
X16196372Y-13316460D02*
X16205896Y-13306936D01*
X16205896Y-13306936D02*
X16224944Y-13278365D01*
X16224944Y-13278365D02*
X16234467Y-13240269D01*
X16234467Y-13240269D02*
X16234467Y-13164079D01*
X16234467Y-13164079D02*
X16224944Y-13145031D01*
X16224944Y-13145031D02*
X16215420Y-13135508D01*
X16215420Y-13135508D02*
X16196372Y-13125984D01*
X16196372Y-13125984D02*
X16158277Y-13125984D01*
X16158277Y-13125984D02*
X16139229Y-13135508D01*
X16139229Y-13135508D02*
X16129706Y-13145031D01*
X16129706Y-13145031D02*
X16120182Y-13164079D01*
X16120182Y-13164079D02*
X16120182Y-13211698D01*
X16120182Y-13211698D02*
X16129706Y-13230746D01*
X16129706Y-13230746D02*
X16139229Y-13240269D01*
X16139229Y-13240269D02*
X16158277Y-13249793D01*
X16158277Y-13249793D02*
X16196372Y-13249793D01*
X16196372Y-13249793D02*
X16215420Y-13240269D01*
X16215420Y-13240269D02*
X16224944Y-13230746D01*
X16224944Y-13230746D02*
X16234467Y-13211698D01*
X16405896Y-13192650D02*
X16405896Y-13325984D01*
X16358277Y-13116460D02*
X16310658Y-13259317D01*
X16310658Y-13259317D02*
X16434467Y-13259317D01*
X16501134Y-13125984D02*
X16501134Y-13164079D01*
X16577325Y-13125984D02*
X16577325Y-13164079D01*
X16872563Y-13402174D02*
X16863039Y-13392650D01*
X16863039Y-13392650D02*
X16843991Y-13364079D01*
X16843991Y-13364079D02*
X16834468Y-13345031D01*
X16834468Y-13345031D02*
X16824944Y-13316460D01*
X16824944Y-13316460D02*
X16815420Y-13268841D01*
X16815420Y-13268841D02*
X16815420Y-13230746D01*
X16815420Y-13230746D02*
X16824944Y-13183127D01*
X16824944Y-13183127D02*
X16834468Y-13154555D01*
X16834468Y-13154555D02*
X16843991Y-13135508D01*
X16843991Y-13135508D02*
X16863039Y-13106936D01*
X16863039Y-13106936D02*
X16872563Y-13097412D01*
X17053515Y-13325984D02*
X16939230Y-13325984D01*
X16996372Y-13325984D02*
X16996372Y-13125984D01*
X16996372Y-13125984D02*
X16977325Y-13154555D01*
X16977325Y-13154555D02*
X16958277Y-13173603D01*
X16958277Y-13173603D02*
X16939230Y-13183127D01*
X17243991Y-13325984D02*
X17129706Y-13325984D01*
X17186849Y-13325984D02*
X17186849Y-13125984D01*
X17186849Y-13125984D02*
X17167801Y-13154555D01*
X17167801Y-13154555D02*
X17148753Y-13173603D01*
X17148753Y-13173603D02*
X17129706Y-13183127D01*
X17482087Y-13325984D02*
X17482087Y-13125984D01*
X17567801Y-13325984D02*
X17567801Y-13221222D01*
X17567801Y-13221222D02*
X17558277Y-13202174D01*
X17558277Y-13202174D02*
X17539230Y-13192650D01*
X17539230Y-13192650D02*
X17510658Y-13192650D01*
X17510658Y-13192650D02*
X17491611Y-13202174D01*
X17491611Y-13202174D02*
X17482087Y-13211698D01*
X17691611Y-13325984D02*
X17672563Y-13316460D01*
X17672563Y-13316460D02*
X17663039Y-13306936D01*
X17663039Y-13306936D02*
X17653515Y-13287888D01*
X17653515Y-13287888D02*
X17653515Y-13230746D01*
X17653515Y-13230746D02*
X17663039Y-13211698D01*
X17663039Y-13211698D02*
X17672563Y-13202174D01*
X17672563Y-13202174D02*
X17691611Y-13192650D01*
X17691611Y-13192650D02*
X17720182Y-13192650D01*
X17720182Y-13192650D02*
X17739230Y-13202174D01*
X17739230Y-13202174D02*
X17748753Y-13211698D01*
X17748753Y-13211698D02*
X17758277Y-13230746D01*
X17758277Y-13230746D02*
X17758277Y-13287888D01*
X17758277Y-13287888D02*
X17748753Y-13306936D01*
X17748753Y-13306936D02*
X17739230Y-13316460D01*
X17739230Y-13316460D02*
X17720182Y-13325984D01*
X17720182Y-13325984D02*
X17691611Y-13325984D01*
X17872563Y-13325984D02*
X17853515Y-13316460D01*
X17853515Y-13316460D02*
X17843992Y-13297412D01*
X17843992Y-13297412D02*
X17843992Y-13125984D01*
X18024944Y-13316460D02*
X18005896Y-13325984D01*
X18005896Y-13325984D02*
X17967801Y-13325984D01*
X17967801Y-13325984D02*
X17948753Y-13316460D01*
X17948753Y-13316460D02*
X17939230Y-13297412D01*
X17939230Y-13297412D02*
X17939230Y-13221222D01*
X17939230Y-13221222D02*
X17948753Y-13202174D01*
X17948753Y-13202174D02*
X17967801Y-13192650D01*
X17967801Y-13192650D02*
X18005896Y-13192650D01*
X18005896Y-13192650D02*
X18024944Y-13202174D01*
X18024944Y-13202174D02*
X18034468Y-13221222D01*
X18034468Y-13221222D02*
X18034468Y-13240269D01*
X18034468Y-13240269D02*
X17939230Y-13259317D01*
X18110658Y-13316460D02*
X18129706Y-13325984D01*
X18129706Y-13325984D02*
X18167801Y-13325984D01*
X18167801Y-13325984D02*
X18186849Y-13316460D01*
X18186849Y-13316460D02*
X18196373Y-13297412D01*
X18196373Y-13297412D02*
X18196373Y-13287888D01*
X18196373Y-13287888D02*
X18186849Y-13268841D01*
X18186849Y-13268841D02*
X18167801Y-13259317D01*
X18167801Y-13259317D02*
X18139230Y-13259317D01*
X18139230Y-13259317D02*
X18120182Y-13249793D01*
X18120182Y-13249793D02*
X18110658Y-13230746D01*
X18110658Y-13230746D02*
X18110658Y-13221222D01*
X18110658Y-13221222D02*
X18120182Y-13202174D01*
X18120182Y-13202174D02*
X18139230Y-13192650D01*
X18139230Y-13192650D02*
X18167801Y-13192650D01*
X18167801Y-13192650D02*
X18186849Y-13202174D01*
X18263039Y-13402174D02*
X18272563Y-13392650D01*
X18272563Y-13392650D02*
X18291611Y-13364079D01*
X18291611Y-13364079D02*
X18301134Y-13345031D01*
X18301134Y-13345031D02*
X18310658Y-13316460D01*
X18310658Y-13316460D02*
X18320182Y-13268841D01*
X18320182Y-13268841D02*
X18320182Y-13230746D01*
X18320182Y-13230746D02*
X18310658Y-13183127D01*
X18310658Y-13183127D02*
X18301134Y-13154555D01*
X18301134Y-13154555D02*
X18291611Y-13135508D01*
X18291611Y-13135508D02*
X18272563Y-13106936D01*
X18272563Y-13106936D02*
X18263039Y-13097412D01*
D13*
X13222500Y-13573500D02*
X13297500Y-13498500D01*
X13222500Y-13423500D01*
X13147500Y-13498500D01*
X13222500Y-13573500D01*
D11*
X13663039Y-13589984D02*
X13548753Y-13589984D01*
X13605896Y-13589984D02*
X13605896Y-13389984D01*
X13605896Y-13389984D02*
X13586848Y-13418555D01*
X13586848Y-13418555D02*
X13567801Y-13437603D01*
X13567801Y-13437603D02*
X13548753Y-13447127D01*
X13748753Y-13570936D02*
X13758277Y-13580460D01*
X13758277Y-13580460D02*
X13748753Y-13589984D01*
X13748753Y-13589984D02*
X13739229Y-13580460D01*
X13739229Y-13580460D02*
X13748753Y-13570936D01*
X13748753Y-13570936D02*
X13748753Y-13589984D01*
X13939229Y-13389984D02*
X13843991Y-13389984D01*
X13843991Y-13389984D02*
X13834467Y-13485222D01*
X13834467Y-13485222D02*
X13843991Y-13475698D01*
X13843991Y-13475698D02*
X13863039Y-13466174D01*
X13863039Y-13466174D02*
X13910658Y-13466174D01*
X13910658Y-13466174D02*
X13929705Y-13475698D01*
X13929705Y-13475698D02*
X13939229Y-13485222D01*
X13939229Y-13485222D02*
X13948753Y-13504269D01*
X13948753Y-13504269D02*
X13948753Y-13551888D01*
X13948753Y-13551888D02*
X13939229Y-13570936D01*
X13939229Y-13570936D02*
X13929705Y-13580460D01*
X13929705Y-13580460D02*
X13910658Y-13589984D01*
X13910658Y-13589984D02*
X13863039Y-13589984D01*
X13863039Y-13589984D02*
X13843991Y-13580460D01*
X13843991Y-13580460D02*
X13834467Y-13570936D01*
X14072562Y-13389984D02*
X14091610Y-13389984D01*
X14091610Y-13389984D02*
X14110658Y-13399508D01*
X14110658Y-13399508D02*
X14120182Y-13409031D01*
X14120182Y-13409031D02*
X14129705Y-13428079D01*
X14129705Y-13428079D02*
X14139229Y-13466174D01*
X14139229Y-13466174D02*
X14139229Y-13513793D01*
X14139229Y-13513793D02*
X14129705Y-13551888D01*
X14129705Y-13551888D02*
X14120182Y-13570936D01*
X14120182Y-13570936D02*
X14110658Y-13580460D01*
X14110658Y-13580460D02*
X14091610Y-13589984D01*
X14091610Y-13589984D02*
X14072562Y-13589984D01*
X14072562Y-13589984D02*
X14053515Y-13580460D01*
X14053515Y-13580460D02*
X14043991Y-13570936D01*
X14043991Y-13570936D02*
X14034467Y-13551888D01*
X14034467Y-13551888D02*
X14024943Y-13513793D01*
X14024943Y-13513793D02*
X14024943Y-13466174D01*
X14024943Y-13466174D02*
X14034467Y-13428079D01*
X14034467Y-13428079D02*
X14043991Y-13409031D01*
X14043991Y-13409031D02*
X14053515Y-13399508D01*
X14053515Y-13399508D02*
X14072562Y-13389984D01*
X14263039Y-13389984D02*
X14282086Y-13389984D01*
X14282086Y-13389984D02*
X14301134Y-13399508D01*
X14301134Y-13399508D02*
X14310658Y-13409031D01*
X14310658Y-13409031D02*
X14320182Y-13428079D01*
X14320182Y-13428079D02*
X14329705Y-13466174D01*
X14329705Y-13466174D02*
X14329705Y-13513793D01*
X14329705Y-13513793D02*
X14320182Y-13551888D01*
X14320182Y-13551888D02*
X14310658Y-13570936D01*
X14310658Y-13570936D02*
X14301134Y-13580460D01*
X14301134Y-13580460D02*
X14282086Y-13589984D01*
X14282086Y-13589984D02*
X14263039Y-13589984D01*
X14263039Y-13589984D02*
X14243991Y-13580460D01*
X14243991Y-13580460D02*
X14234467Y-13570936D01*
X14234467Y-13570936D02*
X14224943Y-13551888D01*
X14224943Y-13551888D02*
X14215420Y-13513793D01*
X14215420Y-13513793D02*
X14215420Y-13466174D01*
X14215420Y-13466174D02*
X14224943Y-13428079D01*
X14224943Y-13428079D02*
X14234467Y-13409031D01*
X14234467Y-13409031D02*
X14243991Y-13399508D01*
X14243991Y-13399508D02*
X14263039Y-13389984D01*
X14415420Y-13589984D02*
X14415420Y-13456650D01*
X14415420Y-13475698D02*
X14424943Y-13466174D01*
X14424943Y-13466174D02*
X14443991Y-13456650D01*
X14443991Y-13456650D02*
X14472563Y-13456650D01*
X14472563Y-13456650D02*
X14491610Y-13466174D01*
X14491610Y-13466174D02*
X14501134Y-13485222D01*
X14501134Y-13485222D02*
X14501134Y-13589984D01*
X14501134Y-13485222D02*
X14510658Y-13466174D01*
X14510658Y-13466174D02*
X14529705Y-13456650D01*
X14529705Y-13456650D02*
X14558277Y-13456650D01*
X14558277Y-13456650D02*
X14577324Y-13466174D01*
X14577324Y-13466174D02*
X14586848Y-13485222D01*
X14586848Y-13485222D02*
X14586848Y-13589984D01*
X14682086Y-13589984D02*
X14682086Y-13456650D01*
X14682086Y-13475698D02*
X14691610Y-13466174D01*
X14691610Y-13466174D02*
X14710658Y-13456650D01*
X14710658Y-13456650D02*
X14739229Y-13456650D01*
X14739229Y-13456650D02*
X14758277Y-13466174D01*
X14758277Y-13466174D02*
X14767801Y-13485222D01*
X14767801Y-13485222D02*
X14767801Y-13589984D01*
X14767801Y-13485222D02*
X14777324Y-13466174D01*
X14777324Y-13466174D02*
X14796372Y-13456650D01*
X14796372Y-13456650D02*
X14824943Y-13456650D01*
X14824943Y-13456650D02*
X14843991Y-13466174D01*
X14843991Y-13466174D02*
X14853515Y-13485222D01*
X14853515Y-13485222D02*
X14853515Y-13589984D01*
X15243991Y-13380460D02*
X15072563Y-13637603D01*
X15501134Y-13389984D02*
X15520182Y-13389984D01*
X15520182Y-13389984D02*
X15539229Y-13399508D01*
X15539229Y-13399508D02*
X15548753Y-13409031D01*
X15548753Y-13409031D02*
X15558277Y-13428079D01*
X15558277Y-13428079D02*
X15567801Y-13466174D01*
X15567801Y-13466174D02*
X15567801Y-13513793D01*
X15567801Y-13513793D02*
X15558277Y-13551888D01*
X15558277Y-13551888D02*
X15548753Y-13570936D01*
X15548753Y-13570936D02*
X15539229Y-13580460D01*
X15539229Y-13580460D02*
X15520182Y-13589984D01*
X15520182Y-13589984D02*
X15501134Y-13589984D01*
X15501134Y-13589984D02*
X15482086Y-13580460D01*
X15482086Y-13580460D02*
X15472563Y-13570936D01*
X15472563Y-13570936D02*
X15463039Y-13551888D01*
X15463039Y-13551888D02*
X15453515Y-13513793D01*
X15453515Y-13513793D02*
X15453515Y-13466174D01*
X15453515Y-13466174D02*
X15463039Y-13428079D01*
X15463039Y-13428079D02*
X15472563Y-13409031D01*
X15472563Y-13409031D02*
X15482086Y-13399508D01*
X15482086Y-13399508D02*
X15501134Y-13389984D01*
X15653515Y-13570936D02*
X15663039Y-13580460D01*
X15663039Y-13580460D02*
X15653515Y-13589984D01*
X15653515Y-13589984D02*
X15643991Y-13580460D01*
X15643991Y-13580460D02*
X15653515Y-13570936D01*
X15653515Y-13570936D02*
X15653515Y-13589984D01*
X15786848Y-13389984D02*
X15805896Y-13389984D01*
X15805896Y-13389984D02*
X15824944Y-13399508D01*
X15824944Y-13399508D02*
X15834467Y-13409031D01*
X15834467Y-13409031D02*
X15843991Y-13428079D01*
X15843991Y-13428079D02*
X15853515Y-13466174D01*
X15853515Y-13466174D02*
X15853515Y-13513793D01*
X15853515Y-13513793D02*
X15843991Y-13551888D01*
X15843991Y-13551888D02*
X15834467Y-13570936D01*
X15834467Y-13570936D02*
X15824944Y-13580460D01*
X15824944Y-13580460D02*
X15805896Y-13589984D01*
X15805896Y-13589984D02*
X15786848Y-13589984D01*
X15786848Y-13589984D02*
X15767801Y-13580460D01*
X15767801Y-13580460D02*
X15758277Y-13570936D01*
X15758277Y-13570936D02*
X15748753Y-13551888D01*
X15748753Y-13551888D02*
X15739229Y-13513793D01*
X15739229Y-13513793D02*
X15739229Y-13466174D01*
X15739229Y-13466174D02*
X15748753Y-13428079D01*
X15748753Y-13428079D02*
X15758277Y-13409031D01*
X15758277Y-13409031D02*
X15767801Y-13399508D01*
X15767801Y-13399508D02*
X15786848Y-13389984D01*
X16034467Y-13389984D02*
X15939229Y-13389984D01*
X15939229Y-13389984D02*
X15929706Y-13485222D01*
X15929706Y-13485222D02*
X15939229Y-13475698D01*
X15939229Y-13475698D02*
X15958277Y-13466174D01*
X15958277Y-13466174D02*
X16005896Y-13466174D01*
X16005896Y-13466174D02*
X16024944Y-13475698D01*
X16024944Y-13475698D02*
X16034467Y-13485222D01*
X16034467Y-13485222D02*
X16043991Y-13504269D01*
X16043991Y-13504269D02*
X16043991Y-13551888D01*
X16043991Y-13551888D02*
X16034467Y-13570936D01*
X16034467Y-13570936D02*
X16024944Y-13580460D01*
X16024944Y-13580460D02*
X16005896Y-13589984D01*
X16005896Y-13589984D02*
X15958277Y-13589984D01*
X15958277Y-13589984D02*
X15939229Y-13580460D01*
X15939229Y-13580460D02*
X15929706Y-13570936D01*
X16139229Y-13589984D02*
X16177325Y-13589984D01*
X16177325Y-13589984D02*
X16196372Y-13580460D01*
X16196372Y-13580460D02*
X16205896Y-13570936D01*
X16205896Y-13570936D02*
X16224944Y-13542365D01*
X16224944Y-13542365D02*
X16234467Y-13504269D01*
X16234467Y-13504269D02*
X16234467Y-13428079D01*
X16234467Y-13428079D02*
X16224944Y-13409031D01*
X16224944Y-13409031D02*
X16215420Y-13399508D01*
X16215420Y-13399508D02*
X16196372Y-13389984D01*
X16196372Y-13389984D02*
X16158277Y-13389984D01*
X16158277Y-13389984D02*
X16139229Y-13399508D01*
X16139229Y-13399508D02*
X16129706Y-13409031D01*
X16129706Y-13409031D02*
X16120182Y-13428079D01*
X16120182Y-13428079D02*
X16120182Y-13475698D01*
X16120182Y-13475698D02*
X16129706Y-13494746D01*
X16129706Y-13494746D02*
X16139229Y-13504269D01*
X16139229Y-13504269D02*
X16158277Y-13513793D01*
X16158277Y-13513793D02*
X16196372Y-13513793D01*
X16196372Y-13513793D02*
X16215420Y-13504269D01*
X16215420Y-13504269D02*
X16224944Y-13494746D01*
X16224944Y-13494746D02*
X16234467Y-13475698D01*
X16424944Y-13589984D02*
X16310658Y-13589984D01*
X16367801Y-13589984D02*
X16367801Y-13389984D01*
X16367801Y-13389984D02*
X16348753Y-13418555D01*
X16348753Y-13418555D02*
X16329706Y-13437603D01*
X16329706Y-13437603D02*
X16310658Y-13447127D01*
X16501134Y-13389984D02*
X16501134Y-13428079D01*
X16577325Y-13389984D02*
X16577325Y-13428079D01*
X16872563Y-13666174D02*
X16863039Y-13656650D01*
X16863039Y-13656650D02*
X16843991Y-13628079D01*
X16843991Y-13628079D02*
X16834468Y-13609031D01*
X16834468Y-13609031D02*
X16824944Y-13580460D01*
X16824944Y-13580460D02*
X16815420Y-13532841D01*
X16815420Y-13532841D02*
X16815420Y-13494746D01*
X16815420Y-13494746D02*
X16824944Y-13447127D01*
X16824944Y-13447127D02*
X16834468Y-13418555D01*
X16834468Y-13418555D02*
X16843991Y-13399508D01*
X16843991Y-13399508D02*
X16863039Y-13370936D01*
X16863039Y-13370936D02*
X16872563Y-13361412D01*
X16939230Y-13409031D02*
X16948753Y-13399508D01*
X16948753Y-13399508D02*
X16967801Y-13389984D01*
X16967801Y-13389984D02*
X17015420Y-13389984D01*
X17015420Y-13389984D02*
X17034468Y-13399508D01*
X17034468Y-13399508D02*
X17043991Y-13409031D01*
X17043991Y-13409031D02*
X17053515Y-13428079D01*
X17053515Y-13428079D02*
X17053515Y-13447127D01*
X17053515Y-13447127D02*
X17043991Y-13475698D01*
X17043991Y-13475698D02*
X16929706Y-13589984D01*
X16929706Y-13589984D02*
X17053515Y-13589984D01*
X17291611Y-13589984D02*
X17291611Y-13389984D01*
X17377325Y-13589984D02*
X17377325Y-13485222D01*
X17377325Y-13485222D02*
X17367801Y-13466174D01*
X17367801Y-13466174D02*
X17348753Y-13456650D01*
X17348753Y-13456650D02*
X17320182Y-13456650D01*
X17320182Y-13456650D02*
X17301134Y-13466174D01*
X17301134Y-13466174D02*
X17291611Y-13475698D01*
X17501134Y-13589984D02*
X17482087Y-13580460D01*
X17482087Y-13580460D02*
X17472563Y-13570936D01*
X17472563Y-13570936D02*
X17463039Y-13551888D01*
X17463039Y-13551888D02*
X17463039Y-13494746D01*
X17463039Y-13494746D02*
X17472563Y-13475698D01*
X17472563Y-13475698D02*
X17482087Y-13466174D01*
X17482087Y-13466174D02*
X17501134Y-13456650D01*
X17501134Y-13456650D02*
X17529706Y-13456650D01*
X17529706Y-13456650D02*
X17548753Y-13466174D01*
X17548753Y-13466174D02*
X17558277Y-13475698D01*
X17558277Y-13475698D02*
X17567801Y-13494746D01*
X17567801Y-13494746D02*
X17567801Y-13551888D01*
X17567801Y-13551888D02*
X17558277Y-13570936D01*
X17558277Y-13570936D02*
X17548753Y-13580460D01*
X17548753Y-13580460D02*
X17529706Y-13589984D01*
X17529706Y-13589984D02*
X17501134Y-13589984D01*
X17682087Y-13589984D02*
X17663039Y-13580460D01*
X17663039Y-13580460D02*
X17653515Y-13561412D01*
X17653515Y-13561412D02*
X17653515Y-13389984D01*
X17834468Y-13580460D02*
X17815420Y-13589984D01*
X17815420Y-13589984D02*
X17777325Y-13589984D01*
X17777325Y-13589984D02*
X17758277Y-13580460D01*
X17758277Y-13580460D02*
X17748753Y-13561412D01*
X17748753Y-13561412D02*
X17748753Y-13485222D01*
X17748753Y-13485222D02*
X17758277Y-13466174D01*
X17758277Y-13466174D02*
X17777325Y-13456650D01*
X17777325Y-13456650D02*
X17815420Y-13456650D01*
X17815420Y-13456650D02*
X17834468Y-13466174D01*
X17834468Y-13466174D02*
X17843992Y-13485222D01*
X17843992Y-13485222D02*
X17843992Y-13504269D01*
X17843992Y-13504269D02*
X17748753Y-13523317D01*
X17920182Y-13580460D02*
X17939230Y-13589984D01*
X17939230Y-13589984D02*
X17977325Y-13589984D01*
X17977325Y-13589984D02*
X17996373Y-13580460D01*
X17996373Y-13580460D02*
X18005896Y-13561412D01*
X18005896Y-13561412D02*
X18005896Y-13551888D01*
X18005896Y-13551888D02*
X17996373Y-13532841D01*
X17996373Y-13532841D02*
X17977325Y-13523317D01*
X17977325Y-13523317D02*
X17948753Y-13523317D01*
X17948753Y-13523317D02*
X17929706Y-13513793D01*
X17929706Y-13513793D02*
X17920182Y-13494746D01*
X17920182Y-13494746D02*
X17920182Y-13485222D01*
X17920182Y-13485222D02*
X17929706Y-13466174D01*
X17929706Y-13466174D02*
X17948753Y-13456650D01*
X17948753Y-13456650D02*
X17977325Y-13456650D01*
X17977325Y-13456650D02*
X17996373Y-13466174D01*
X18072563Y-13666174D02*
X18082087Y-13656650D01*
X18082087Y-13656650D02*
X18101134Y-13628079D01*
X18101134Y-13628079D02*
X18110658Y-13609031D01*
X18110658Y-13609031D02*
X18120182Y-13580460D01*
X18120182Y-13580460D02*
X18129706Y-13532841D01*
X18129706Y-13532841D02*
X18129706Y-13494746D01*
X18129706Y-13494746D02*
X18120182Y-13447127D01*
X18120182Y-13447127D02*
X18110658Y-13418555D01*
X18110658Y-13418555D02*
X18101134Y-13399508D01*
X18101134Y-13399508D02*
X18082087Y-13370936D01*
X18082087Y-13370936D02*
X18072563Y-13361412D01*
X13097500Y-13668500D02*
X13297500Y-13868500D01*
X13297500Y-13668500D02*
X13097500Y-13868500D01*
X13297500Y-13768500D02*
G75*
G02*
X13097500Y-13768500I-100000J0D01*
G01*
X13097500Y-13768500D02*
G75*
G02*
X13297500Y-13768500I100000J0D01*
G01*
X13539229Y-13659984D02*
X13663039Y-13659984D01*
X13663039Y-13659984D02*
X13596372Y-13736174D01*
X13596372Y-13736174D02*
X13624943Y-13736174D01*
X13624943Y-13736174D02*
X13643991Y-13745698D01*
X13643991Y-13745698D02*
X13653515Y-13755222D01*
X13653515Y-13755222D02*
X13663039Y-13774269D01*
X13663039Y-13774269D02*
X13663039Y-13821888D01*
X13663039Y-13821888D02*
X13653515Y-13840936D01*
X13653515Y-13840936D02*
X13643991Y-13850460D01*
X13643991Y-13850460D02*
X13624943Y-13859984D01*
X13624943Y-13859984D02*
X13567801Y-13859984D01*
X13567801Y-13859984D02*
X13548753Y-13850460D01*
X13548753Y-13850460D02*
X13539229Y-13840936D01*
X13748753Y-13840936D02*
X13758277Y-13850460D01*
X13758277Y-13850460D02*
X13748753Y-13859984D01*
X13748753Y-13859984D02*
X13739229Y-13850460D01*
X13739229Y-13850460D02*
X13748753Y-13840936D01*
X13748753Y-13840936D02*
X13748753Y-13859984D01*
X13834467Y-13679031D02*
X13843991Y-13669508D01*
X13843991Y-13669508D02*
X13863039Y-13659984D01*
X13863039Y-13659984D02*
X13910658Y-13659984D01*
X13910658Y-13659984D02*
X13929705Y-13669508D01*
X13929705Y-13669508D02*
X13939229Y-13679031D01*
X13939229Y-13679031D02*
X13948753Y-13698079D01*
X13948753Y-13698079D02*
X13948753Y-13717127D01*
X13948753Y-13717127D02*
X13939229Y-13745698D01*
X13939229Y-13745698D02*
X13824943Y-13859984D01*
X13824943Y-13859984D02*
X13948753Y-13859984D01*
X14072562Y-13659984D02*
X14091610Y-13659984D01*
X14091610Y-13659984D02*
X14110658Y-13669508D01*
X14110658Y-13669508D02*
X14120182Y-13679031D01*
X14120182Y-13679031D02*
X14129705Y-13698079D01*
X14129705Y-13698079D02*
X14139229Y-13736174D01*
X14139229Y-13736174D02*
X14139229Y-13783793D01*
X14139229Y-13783793D02*
X14129705Y-13821888D01*
X14129705Y-13821888D02*
X14120182Y-13840936D01*
X14120182Y-13840936D02*
X14110658Y-13850460D01*
X14110658Y-13850460D02*
X14091610Y-13859984D01*
X14091610Y-13859984D02*
X14072562Y-13859984D01*
X14072562Y-13859984D02*
X14053515Y-13850460D01*
X14053515Y-13850460D02*
X14043991Y-13840936D01*
X14043991Y-13840936D02*
X14034467Y-13821888D01*
X14034467Y-13821888D02*
X14024943Y-13783793D01*
X14024943Y-13783793D02*
X14024943Y-13736174D01*
X14024943Y-13736174D02*
X14034467Y-13698079D01*
X14034467Y-13698079D02*
X14043991Y-13679031D01*
X14043991Y-13679031D02*
X14053515Y-13669508D01*
X14053515Y-13669508D02*
X14072562Y-13659984D01*
X14263039Y-13659984D02*
X14282086Y-13659984D01*
X14282086Y-13659984D02*
X14301134Y-13669508D01*
X14301134Y-13669508D02*
X14310658Y-13679031D01*
X14310658Y-13679031D02*
X14320182Y-13698079D01*
X14320182Y-13698079D02*
X14329705Y-13736174D01*
X14329705Y-13736174D02*
X14329705Y-13783793D01*
X14329705Y-13783793D02*
X14320182Y-13821888D01*
X14320182Y-13821888D02*
X14310658Y-13840936D01*
X14310658Y-13840936D02*
X14301134Y-13850460D01*
X14301134Y-13850460D02*
X14282086Y-13859984D01*
X14282086Y-13859984D02*
X14263039Y-13859984D01*
X14263039Y-13859984D02*
X14243991Y-13850460D01*
X14243991Y-13850460D02*
X14234467Y-13840936D01*
X14234467Y-13840936D02*
X14224943Y-13821888D01*
X14224943Y-13821888D02*
X14215420Y-13783793D01*
X14215420Y-13783793D02*
X14215420Y-13736174D01*
X14215420Y-13736174D02*
X14224943Y-13698079D01*
X14224943Y-13698079D02*
X14234467Y-13679031D01*
X14234467Y-13679031D02*
X14243991Y-13669508D01*
X14243991Y-13669508D02*
X14263039Y-13659984D01*
X14415420Y-13859984D02*
X14415420Y-13726650D01*
X14415420Y-13745698D02*
X14424943Y-13736174D01*
X14424943Y-13736174D02*
X14443991Y-13726650D01*
X14443991Y-13726650D02*
X14472563Y-13726650D01*
X14472563Y-13726650D02*
X14491610Y-13736174D01*
X14491610Y-13736174D02*
X14501134Y-13755222D01*
X14501134Y-13755222D02*
X14501134Y-13859984D01*
X14501134Y-13755222D02*
X14510658Y-13736174D01*
X14510658Y-13736174D02*
X14529705Y-13726650D01*
X14529705Y-13726650D02*
X14558277Y-13726650D01*
X14558277Y-13726650D02*
X14577324Y-13736174D01*
X14577324Y-13736174D02*
X14586848Y-13755222D01*
X14586848Y-13755222D02*
X14586848Y-13859984D01*
X14682086Y-13859984D02*
X14682086Y-13726650D01*
X14682086Y-13745698D02*
X14691610Y-13736174D01*
X14691610Y-13736174D02*
X14710658Y-13726650D01*
X14710658Y-13726650D02*
X14739229Y-13726650D01*
X14739229Y-13726650D02*
X14758277Y-13736174D01*
X14758277Y-13736174D02*
X14767801Y-13755222D01*
X14767801Y-13755222D02*
X14767801Y-13859984D01*
X14767801Y-13755222D02*
X14777324Y-13736174D01*
X14777324Y-13736174D02*
X14796372Y-13726650D01*
X14796372Y-13726650D02*
X14824943Y-13726650D01*
X14824943Y-13726650D02*
X14843991Y-13736174D01*
X14843991Y-13736174D02*
X14853515Y-13755222D01*
X14853515Y-13755222D02*
X14853515Y-13859984D01*
X15243991Y-13650460D02*
X15072563Y-13907603D01*
X15501134Y-13659984D02*
X15520182Y-13659984D01*
X15520182Y-13659984D02*
X15539229Y-13669508D01*
X15539229Y-13669508D02*
X15548753Y-13679031D01*
X15548753Y-13679031D02*
X15558277Y-13698079D01*
X15558277Y-13698079D02*
X15567801Y-13736174D01*
X15567801Y-13736174D02*
X15567801Y-13783793D01*
X15567801Y-13783793D02*
X15558277Y-13821888D01*
X15558277Y-13821888D02*
X15548753Y-13840936D01*
X15548753Y-13840936D02*
X15539229Y-13850460D01*
X15539229Y-13850460D02*
X15520182Y-13859984D01*
X15520182Y-13859984D02*
X15501134Y-13859984D01*
X15501134Y-13859984D02*
X15482086Y-13850460D01*
X15482086Y-13850460D02*
X15472563Y-13840936D01*
X15472563Y-13840936D02*
X15463039Y-13821888D01*
X15463039Y-13821888D02*
X15453515Y-13783793D01*
X15453515Y-13783793D02*
X15453515Y-13736174D01*
X15453515Y-13736174D02*
X15463039Y-13698079D01*
X15463039Y-13698079D02*
X15472563Y-13679031D01*
X15472563Y-13679031D02*
X15482086Y-13669508D01*
X15482086Y-13669508D02*
X15501134Y-13659984D01*
X15653515Y-13840936D02*
X15663039Y-13850460D01*
X15663039Y-13850460D02*
X15653515Y-13859984D01*
X15653515Y-13859984D02*
X15643991Y-13850460D01*
X15643991Y-13850460D02*
X15653515Y-13840936D01*
X15653515Y-13840936D02*
X15653515Y-13859984D01*
X15853515Y-13859984D02*
X15739229Y-13859984D01*
X15796372Y-13859984D02*
X15796372Y-13659984D01*
X15796372Y-13659984D02*
X15777325Y-13688555D01*
X15777325Y-13688555D02*
X15758277Y-13707603D01*
X15758277Y-13707603D02*
X15739229Y-13717127D01*
X15929706Y-13679031D02*
X15939229Y-13669508D01*
X15939229Y-13669508D02*
X15958277Y-13659984D01*
X15958277Y-13659984D02*
X16005896Y-13659984D01*
X16005896Y-13659984D02*
X16024944Y-13669508D01*
X16024944Y-13669508D02*
X16034467Y-13679031D01*
X16034467Y-13679031D02*
X16043991Y-13698079D01*
X16043991Y-13698079D02*
X16043991Y-13717127D01*
X16043991Y-13717127D02*
X16034467Y-13745698D01*
X16034467Y-13745698D02*
X15920182Y-13859984D01*
X15920182Y-13859984D02*
X16043991Y-13859984D01*
X16215420Y-13659984D02*
X16177325Y-13659984D01*
X16177325Y-13659984D02*
X16158277Y-13669508D01*
X16158277Y-13669508D02*
X16148753Y-13679031D01*
X16148753Y-13679031D02*
X16129706Y-13707603D01*
X16129706Y-13707603D02*
X16120182Y-13745698D01*
X16120182Y-13745698D02*
X16120182Y-13821888D01*
X16120182Y-13821888D02*
X16129706Y-13840936D01*
X16129706Y-13840936D02*
X16139229Y-13850460D01*
X16139229Y-13850460D02*
X16158277Y-13859984D01*
X16158277Y-13859984D02*
X16196372Y-13859984D01*
X16196372Y-13859984D02*
X16215420Y-13850460D01*
X16215420Y-13850460D02*
X16224944Y-13840936D01*
X16224944Y-13840936D02*
X16234467Y-13821888D01*
X16234467Y-13821888D02*
X16234467Y-13774269D01*
X16234467Y-13774269D02*
X16224944Y-13755222D01*
X16224944Y-13755222D02*
X16215420Y-13745698D01*
X16215420Y-13745698D02*
X16196372Y-13736174D01*
X16196372Y-13736174D02*
X16158277Y-13736174D01*
X16158277Y-13736174D02*
X16139229Y-13745698D01*
X16139229Y-13745698D02*
X16129706Y-13755222D01*
X16129706Y-13755222D02*
X16120182Y-13774269D01*
X16358277Y-13659984D02*
X16377325Y-13659984D01*
X16377325Y-13659984D02*
X16396372Y-13669508D01*
X16396372Y-13669508D02*
X16405896Y-13679031D01*
X16405896Y-13679031D02*
X16415420Y-13698079D01*
X16415420Y-13698079D02*
X16424944Y-13736174D01*
X16424944Y-13736174D02*
X16424944Y-13783793D01*
X16424944Y-13783793D02*
X16415420Y-13821888D01*
X16415420Y-13821888D02*
X16405896Y-13840936D01*
X16405896Y-13840936D02*
X16396372Y-13850460D01*
X16396372Y-13850460D02*
X16377325Y-13859984D01*
X16377325Y-13859984D02*
X16358277Y-13859984D01*
X16358277Y-13859984D02*
X16339229Y-13850460D01*
X16339229Y-13850460D02*
X16329706Y-13840936D01*
X16329706Y-13840936D02*
X16320182Y-13821888D01*
X16320182Y-13821888D02*
X16310658Y-13783793D01*
X16310658Y-13783793D02*
X16310658Y-13736174D01*
X16310658Y-13736174D02*
X16320182Y-13698079D01*
X16320182Y-13698079D02*
X16329706Y-13679031D01*
X16329706Y-13679031D02*
X16339229Y-13669508D01*
X16339229Y-13669508D02*
X16358277Y-13659984D01*
X16501134Y-13659984D02*
X16501134Y-13698079D01*
X16577325Y-13659984D02*
X16577325Y-13698079D01*
X16872563Y-13936174D02*
X16863039Y-13926650D01*
X16863039Y-13926650D02*
X16843991Y-13898079D01*
X16843991Y-13898079D02*
X16834468Y-13879031D01*
X16834468Y-13879031D02*
X16824944Y-13850460D01*
X16824944Y-13850460D02*
X16815420Y-13802841D01*
X16815420Y-13802841D02*
X16815420Y-13764746D01*
X16815420Y-13764746D02*
X16824944Y-13717127D01*
X16824944Y-13717127D02*
X16834468Y-13688555D01*
X16834468Y-13688555D02*
X16843991Y-13669508D01*
X16843991Y-13669508D02*
X16863039Y-13640936D01*
X16863039Y-13640936D02*
X16872563Y-13631412D01*
X17034468Y-13726650D02*
X17034468Y-13859984D01*
X16986849Y-13650460D02*
X16939230Y-13793317D01*
X16939230Y-13793317D02*
X17063039Y-13793317D01*
X17291611Y-13859984D02*
X17291611Y-13659984D01*
X17377325Y-13859984D02*
X17377325Y-13755222D01*
X17377325Y-13755222D02*
X17367801Y-13736174D01*
X17367801Y-13736174D02*
X17348753Y-13726650D01*
X17348753Y-13726650D02*
X17320182Y-13726650D01*
X17320182Y-13726650D02*
X17301134Y-13736174D01*
X17301134Y-13736174D02*
X17291611Y-13745698D01*
X17501134Y-13859984D02*
X17482087Y-13850460D01*
X17482087Y-13850460D02*
X17472563Y-13840936D01*
X17472563Y-13840936D02*
X17463039Y-13821888D01*
X17463039Y-13821888D02*
X17463039Y-13764746D01*
X17463039Y-13764746D02*
X17472563Y-13745698D01*
X17472563Y-13745698D02*
X17482087Y-13736174D01*
X17482087Y-13736174D02*
X17501134Y-13726650D01*
X17501134Y-13726650D02*
X17529706Y-13726650D01*
X17529706Y-13726650D02*
X17548753Y-13736174D01*
X17548753Y-13736174D02*
X17558277Y-13745698D01*
X17558277Y-13745698D02*
X17567801Y-13764746D01*
X17567801Y-13764746D02*
X17567801Y-13821888D01*
X17567801Y-13821888D02*
X17558277Y-13840936D01*
X17558277Y-13840936D02*
X17548753Y-13850460D01*
X17548753Y-13850460D02*
X17529706Y-13859984D01*
X17529706Y-13859984D02*
X17501134Y-13859984D01*
X17682087Y-13859984D02*
X17663039Y-13850460D01*
X17663039Y-13850460D02*
X17653515Y-13831412D01*
X17653515Y-13831412D02*
X17653515Y-13659984D01*
X17834468Y-13850460D02*
X17815420Y-13859984D01*
X17815420Y-13859984D02*
X17777325Y-13859984D01*
X17777325Y-13859984D02*
X17758277Y-13850460D01*
X17758277Y-13850460D02*
X17748753Y-13831412D01*
X17748753Y-13831412D02*
X17748753Y-13755222D01*
X17748753Y-13755222D02*
X17758277Y-13736174D01*
X17758277Y-13736174D02*
X17777325Y-13726650D01*
X17777325Y-13726650D02*
X17815420Y-13726650D01*
X17815420Y-13726650D02*
X17834468Y-13736174D01*
X17834468Y-13736174D02*
X17843992Y-13755222D01*
X17843992Y-13755222D02*
X17843992Y-13774269D01*
X17843992Y-13774269D02*
X17748753Y-13793317D01*
X17920182Y-13850460D02*
X17939230Y-13859984D01*
X17939230Y-13859984D02*
X17977325Y-13859984D01*
X17977325Y-13859984D02*
X17996373Y-13850460D01*
X17996373Y-13850460D02*
X18005896Y-13831412D01*
X18005896Y-13831412D02*
X18005896Y-13821888D01*
X18005896Y-13821888D02*
X17996373Y-13802841D01*
X17996373Y-13802841D02*
X17977325Y-13793317D01*
X17977325Y-13793317D02*
X17948753Y-13793317D01*
X17948753Y-13793317D02*
X17929706Y-13783793D01*
X17929706Y-13783793D02*
X17920182Y-13764746D01*
X17920182Y-13764746D02*
X17920182Y-13755222D01*
X17920182Y-13755222D02*
X17929706Y-13736174D01*
X17929706Y-13736174D02*
X17948753Y-13726650D01*
X17948753Y-13726650D02*
X17977325Y-13726650D01*
X17977325Y-13726650D02*
X17996373Y-13736174D01*
X18072563Y-13936174D02*
X18082087Y-13926650D01*
X18082087Y-13926650D02*
X18101134Y-13898079D01*
X18101134Y-13898079D02*
X18110658Y-13879031D01*
X18110658Y-13879031D02*
X18120182Y-13850460D01*
X18120182Y-13850460D02*
X18129706Y-13802841D01*
X18129706Y-13802841D02*
X18129706Y-13764746D01*
X18129706Y-13764746D02*
X18120182Y-13717127D01*
X18120182Y-13717127D02*
X18110658Y-13688555D01*
X18110658Y-13688555D02*
X18101134Y-13669508D01*
X18101134Y-13669508D02*
X18082087Y-13640936D01*
X18082087Y-13640936D02*
X18072563Y-13631412D01*
M02*
