G04 #@! TF.GenerationSoftware,KiCad,Pcbnew,9.0.2*
G04 #@! TF.CreationDate,2025-09-03T17:26:12+01:00*
G04 #@! TF.ProjectId,mito,6d69746f-2e6b-4696-9361-645f70636258,rev?*
G04 #@! TF.SameCoordinates,Original*
G04 #@! TF.FileFunction,AssemblyDrawing,Top*
%FSLAX46Y46*%
G04 Gerber Fmt 4.6, Leading zero omitted, Abs format (unit mm)*
G04 Created by KiCad (PCBNEW 9.0.2) date 2025-09-03 17:26:12*
%MOMM*%
%LPD*%
G01*
G04 APERTURE LIST*
%ADD10C,0.150000*%
%ADD11C,0.266700*%
%ADD12C,0.075000*%
%ADD13C,0.060000*%
%ADD14C,0.120000*%
%ADD15C,0.100000*%
%ADD16C,0.050000*%
%ADD17C,0.062500*%
%ADD18C,0.142240*%
%ADD19C,0.080000*%
%ADD20C,0.043750*%
%ADD21C,0.504000*%
G04 #@! TA.AperFunction,Profile*
%ADD22C,0.050000*%
G04 #@! TD*
G04 APERTURE END LIST*
D10*
X129955350Y-84493152D02*
X129955350Y-85159819D01*
X129717255Y-84112200D02*
X129479160Y-84826485D01*
X129479160Y-84826485D02*
X130098207Y-84826485D01*
X130622017Y-84588390D02*
X130526779Y-84540771D01*
X130526779Y-84540771D02*
X130479160Y-84493152D01*
X130479160Y-84493152D02*
X130431541Y-84397914D01*
X130431541Y-84397914D02*
X130431541Y-84350295D01*
X130431541Y-84350295D02*
X130479160Y-84255057D01*
X130479160Y-84255057D02*
X130526779Y-84207438D01*
X130526779Y-84207438D02*
X130622017Y-84159819D01*
X130622017Y-84159819D02*
X130812493Y-84159819D01*
X130812493Y-84159819D02*
X130907731Y-84207438D01*
X130907731Y-84207438D02*
X130955350Y-84255057D01*
X130955350Y-84255057D02*
X131002969Y-84350295D01*
X131002969Y-84350295D02*
X131002969Y-84397914D01*
X131002969Y-84397914D02*
X130955350Y-84493152D01*
X130955350Y-84493152D02*
X130907731Y-84540771D01*
X130907731Y-84540771D02*
X130812493Y-84588390D01*
X130812493Y-84588390D02*
X130622017Y-84588390D01*
X130622017Y-84588390D02*
X130526779Y-84636009D01*
X130526779Y-84636009D02*
X130479160Y-84683628D01*
X130479160Y-84683628D02*
X130431541Y-84778866D01*
X130431541Y-84778866D02*
X130431541Y-84969342D01*
X130431541Y-84969342D02*
X130479160Y-85064580D01*
X130479160Y-85064580D02*
X130526779Y-85112200D01*
X130526779Y-85112200D02*
X130622017Y-85159819D01*
X130622017Y-85159819D02*
X130812493Y-85159819D01*
X130812493Y-85159819D02*
X130907731Y-85112200D01*
X130907731Y-85112200D02*
X130955350Y-85064580D01*
X130955350Y-85064580D02*
X131002969Y-84969342D01*
X131002969Y-84969342D02*
X131002969Y-84778866D01*
X131002969Y-84778866D02*
X130955350Y-84683628D01*
X130955350Y-84683628D02*
X130907731Y-84636009D01*
X130907731Y-84636009D02*
X130812493Y-84588390D01*
X131431541Y-85159819D02*
X131431541Y-84493152D01*
X131431541Y-84588390D02*
X131479160Y-84540771D01*
X131479160Y-84540771D02*
X131574398Y-84493152D01*
X131574398Y-84493152D02*
X131717255Y-84493152D01*
X131717255Y-84493152D02*
X131812493Y-84540771D01*
X131812493Y-84540771D02*
X131860112Y-84636009D01*
X131860112Y-84636009D02*
X131860112Y-85159819D01*
X131860112Y-84636009D02*
X131907731Y-84540771D01*
X131907731Y-84540771D02*
X132002969Y-84493152D01*
X132002969Y-84493152D02*
X132145826Y-84493152D01*
X132145826Y-84493152D02*
X132241065Y-84540771D01*
X132241065Y-84540771D02*
X132288684Y-84636009D01*
X132288684Y-84636009D02*
X132288684Y-85159819D01*
X132764874Y-85159819D02*
X132764874Y-84493152D01*
X132764874Y-84588390D02*
X132812493Y-84540771D01*
X132812493Y-84540771D02*
X132907731Y-84493152D01*
X132907731Y-84493152D02*
X133050588Y-84493152D01*
X133050588Y-84493152D02*
X133145826Y-84540771D01*
X133145826Y-84540771D02*
X133193445Y-84636009D01*
X133193445Y-84636009D02*
X133193445Y-85159819D01*
X133193445Y-84636009D02*
X133241064Y-84540771D01*
X133241064Y-84540771D02*
X133336302Y-84493152D01*
X133336302Y-84493152D02*
X133479159Y-84493152D01*
X133479159Y-84493152D02*
X133574398Y-84540771D01*
X133574398Y-84540771D02*
X133622017Y-84636009D01*
X133622017Y-84636009D02*
X133622017Y-85159819D01*
X134764874Y-85159819D02*
X135288683Y-84493152D01*
X134764874Y-84493152D02*
X135288683Y-85159819D01*
X136336303Y-84159819D02*
X136955350Y-84159819D01*
X136955350Y-84159819D02*
X136622017Y-84540771D01*
X136622017Y-84540771D02*
X136764874Y-84540771D01*
X136764874Y-84540771D02*
X136860112Y-84588390D01*
X136860112Y-84588390D02*
X136907731Y-84636009D01*
X136907731Y-84636009D02*
X136955350Y-84731247D01*
X136955350Y-84731247D02*
X136955350Y-84969342D01*
X136955350Y-84969342D02*
X136907731Y-85064580D01*
X136907731Y-85064580D02*
X136860112Y-85112200D01*
X136860112Y-85112200D02*
X136764874Y-85159819D01*
X136764874Y-85159819D02*
X136479160Y-85159819D01*
X136479160Y-85159819D02*
X136383922Y-85112200D01*
X136383922Y-85112200D02*
X136336303Y-85064580D01*
X137336303Y-84255057D02*
X137383922Y-84207438D01*
X137383922Y-84207438D02*
X137479160Y-84159819D01*
X137479160Y-84159819D02*
X137717255Y-84159819D01*
X137717255Y-84159819D02*
X137812493Y-84207438D01*
X137812493Y-84207438D02*
X137860112Y-84255057D01*
X137860112Y-84255057D02*
X137907731Y-84350295D01*
X137907731Y-84350295D02*
X137907731Y-84445533D01*
X137907731Y-84445533D02*
X137860112Y-84588390D01*
X137860112Y-84588390D02*
X137288684Y-85159819D01*
X137288684Y-85159819D02*
X137907731Y-85159819D01*
X138336303Y-85159819D02*
X138336303Y-84493152D01*
X138336303Y-84588390D02*
X138383922Y-84540771D01*
X138383922Y-84540771D02*
X138479160Y-84493152D01*
X138479160Y-84493152D02*
X138622017Y-84493152D01*
X138622017Y-84493152D02*
X138717255Y-84540771D01*
X138717255Y-84540771D02*
X138764874Y-84636009D01*
X138764874Y-84636009D02*
X138764874Y-85159819D01*
X138764874Y-84636009D02*
X138812493Y-84540771D01*
X138812493Y-84540771D02*
X138907731Y-84493152D01*
X138907731Y-84493152D02*
X139050588Y-84493152D01*
X139050588Y-84493152D02*
X139145827Y-84540771D01*
X139145827Y-84540771D02*
X139193446Y-84636009D01*
X139193446Y-84636009D02*
X139193446Y-85159819D01*
X139669636Y-85159819D02*
X139669636Y-84493152D01*
X139669636Y-84588390D02*
X139717255Y-84540771D01*
X139717255Y-84540771D02*
X139812493Y-84493152D01*
X139812493Y-84493152D02*
X139955350Y-84493152D01*
X139955350Y-84493152D02*
X140050588Y-84540771D01*
X140050588Y-84540771D02*
X140098207Y-84636009D01*
X140098207Y-84636009D02*
X140098207Y-85159819D01*
X140098207Y-84636009D02*
X140145826Y-84540771D01*
X140145826Y-84540771D02*
X140241064Y-84493152D01*
X140241064Y-84493152D02*
X140383921Y-84493152D01*
X140383921Y-84493152D02*
X140479160Y-84540771D01*
X140479160Y-84540771D02*
X140526779Y-84636009D01*
X140526779Y-84636009D02*
X140526779Y-85159819D01*
D11*
X231567093Y-174564876D02*
X231567093Y-175644376D01*
X231567093Y-175644376D02*
X231495126Y-175860276D01*
X231495126Y-175860276D02*
X231351193Y-176004210D01*
X231351193Y-176004210D02*
X231135293Y-176076176D01*
X231135293Y-176076176D02*
X230991360Y-176076176D01*
X232286760Y-175932243D02*
X232358727Y-176004210D01*
X232358727Y-176004210D02*
X232286760Y-176076176D01*
X232286760Y-176076176D02*
X232214793Y-176004210D01*
X232214793Y-176004210D02*
X232286760Y-175932243D01*
X232286760Y-175932243D02*
X232286760Y-176076176D01*
X233941994Y-174564876D02*
X234445761Y-176076176D01*
X234445761Y-176076176D02*
X234949527Y-174564876D01*
X236100994Y-176076176D02*
X236100994Y-175284543D01*
X236100994Y-175284543D02*
X236029027Y-175140610D01*
X236029027Y-175140610D02*
X235885094Y-175068643D01*
X235885094Y-175068643D02*
X235597227Y-175068643D01*
X235597227Y-175068643D02*
X235453294Y-175140610D01*
X236100994Y-176004210D02*
X235957061Y-176076176D01*
X235957061Y-176076176D02*
X235597227Y-176076176D01*
X235597227Y-176076176D02*
X235453294Y-176004210D01*
X235453294Y-176004210D02*
X235381327Y-175860276D01*
X235381327Y-175860276D02*
X235381327Y-175716343D01*
X235381327Y-175716343D02*
X235453294Y-175572410D01*
X235453294Y-175572410D02*
X235597227Y-175500443D01*
X235597227Y-175500443D02*
X235957061Y-175500443D01*
X235957061Y-175500443D02*
X236100994Y-175428476D01*
X236748694Y-176004210D02*
X236892628Y-176076176D01*
X236892628Y-176076176D02*
X237180494Y-176076176D01*
X237180494Y-176076176D02*
X237324428Y-176004210D01*
X237324428Y-176004210D02*
X237396394Y-175860276D01*
X237396394Y-175860276D02*
X237396394Y-175788310D01*
X237396394Y-175788310D02*
X237324428Y-175644376D01*
X237324428Y-175644376D02*
X237180494Y-175572410D01*
X237180494Y-175572410D02*
X236964594Y-175572410D01*
X236964594Y-175572410D02*
X236820661Y-175500443D01*
X236820661Y-175500443D02*
X236748694Y-175356510D01*
X236748694Y-175356510D02*
X236748694Y-175284543D01*
X236748694Y-175284543D02*
X236820661Y-175140610D01*
X236820661Y-175140610D02*
X236964594Y-175068643D01*
X236964594Y-175068643D02*
X237180494Y-175068643D01*
X237180494Y-175068643D02*
X237324428Y-175140610D01*
X238044094Y-176076176D02*
X238044094Y-175068643D01*
X238044094Y-174564876D02*
X237972127Y-174636843D01*
X237972127Y-174636843D02*
X238044094Y-174708810D01*
X238044094Y-174708810D02*
X238116061Y-174636843D01*
X238116061Y-174636843D02*
X238044094Y-174564876D01*
X238044094Y-174564876D02*
X238044094Y-174708810D01*
X238979661Y-176076176D02*
X238835728Y-176004210D01*
X238835728Y-176004210D02*
X238763761Y-175860276D01*
X238763761Y-175860276D02*
X238763761Y-174564876D01*
X240203094Y-176076176D02*
X240203094Y-175284543D01*
X240203094Y-175284543D02*
X240131127Y-175140610D01*
X240131127Y-175140610D02*
X239987194Y-175068643D01*
X239987194Y-175068643D02*
X239699327Y-175068643D01*
X239699327Y-175068643D02*
X239555394Y-175140610D01*
X240203094Y-176004210D02*
X240059161Y-176076176D01*
X240059161Y-176076176D02*
X239699327Y-176076176D01*
X239699327Y-176076176D02*
X239555394Y-176004210D01*
X239555394Y-176004210D02*
X239483427Y-175860276D01*
X239483427Y-175860276D02*
X239483427Y-175716343D01*
X239483427Y-175716343D02*
X239555394Y-175572410D01*
X239555394Y-175572410D02*
X239699327Y-175500443D01*
X239699327Y-175500443D02*
X240059161Y-175500443D01*
X240059161Y-175500443D02*
X240203094Y-175428476D01*
X240922761Y-176076176D02*
X240922761Y-174564876D01*
X241066694Y-175500443D02*
X241498494Y-176076176D01*
X241498494Y-175068643D02*
X240922761Y-175644376D01*
X242721927Y-176004210D02*
X242577994Y-176076176D01*
X242577994Y-176076176D02*
X242290127Y-176076176D01*
X242290127Y-176076176D02*
X242146194Y-176004210D01*
X242146194Y-176004210D02*
X242074227Y-175860276D01*
X242074227Y-175860276D02*
X242074227Y-175284543D01*
X242074227Y-175284543D02*
X242146194Y-175140610D01*
X242146194Y-175140610D02*
X242290127Y-175068643D01*
X242290127Y-175068643D02*
X242577994Y-175068643D01*
X242577994Y-175068643D02*
X242721927Y-175140610D01*
X242721927Y-175140610D02*
X242793894Y-175284543D01*
X242793894Y-175284543D02*
X242793894Y-175428476D01*
X242793894Y-175428476D02*
X242074227Y-175572410D01*
X243369627Y-176004210D02*
X243513561Y-176076176D01*
X243513561Y-176076176D02*
X243801427Y-176076176D01*
X243801427Y-176076176D02*
X243945361Y-176004210D01*
X243945361Y-176004210D02*
X244017327Y-175860276D01*
X244017327Y-175860276D02*
X244017327Y-175788310D01*
X244017327Y-175788310D02*
X243945361Y-175644376D01*
X243945361Y-175644376D02*
X243801427Y-175572410D01*
X243801427Y-175572410D02*
X243585527Y-175572410D01*
X243585527Y-175572410D02*
X243441594Y-175500443D01*
X243441594Y-175500443D02*
X243369627Y-175356510D01*
X243369627Y-175356510D02*
X243369627Y-175284543D01*
X243369627Y-175284543D02*
X243441594Y-175140610D01*
X243441594Y-175140610D02*
X243585527Y-175068643D01*
X243585527Y-175068643D02*
X243801427Y-175068643D01*
X243801427Y-175068643D02*
X243945361Y-175140610D01*
D10*
X142847381Y-91887200D02*
X142990238Y-91934819D01*
X142990238Y-91934819D02*
X143228333Y-91934819D01*
X143228333Y-91934819D02*
X143323571Y-91887200D01*
X143323571Y-91887200D02*
X143371190Y-91839580D01*
X143371190Y-91839580D02*
X143418809Y-91744342D01*
X143418809Y-91744342D02*
X143418809Y-91649104D01*
X143418809Y-91649104D02*
X143371190Y-91553866D01*
X143371190Y-91553866D02*
X143323571Y-91506247D01*
X143323571Y-91506247D02*
X143228333Y-91458628D01*
X143228333Y-91458628D02*
X143037857Y-91411009D01*
X143037857Y-91411009D02*
X142942619Y-91363390D01*
X142942619Y-91363390D02*
X142895000Y-91315771D01*
X142895000Y-91315771D02*
X142847381Y-91220533D01*
X142847381Y-91220533D02*
X142847381Y-91125295D01*
X142847381Y-91125295D02*
X142895000Y-91030057D01*
X142895000Y-91030057D02*
X142942619Y-90982438D01*
X142942619Y-90982438D02*
X143037857Y-90934819D01*
X143037857Y-90934819D02*
X143275952Y-90934819D01*
X143275952Y-90934819D02*
X143418809Y-90982438D01*
X143752143Y-90934819D02*
X143990238Y-91934819D01*
X143990238Y-91934819D02*
X144180714Y-91220533D01*
X144180714Y-91220533D02*
X144371190Y-91934819D01*
X144371190Y-91934819D02*
X144609286Y-90934819D01*
X144752143Y-92030057D02*
X145514047Y-92030057D01*
X145752143Y-91934819D02*
X145752143Y-90934819D01*
X145752143Y-90934819D02*
X146133095Y-90934819D01*
X146133095Y-90934819D02*
X146228333Y-90982438D01*
X146228333Y-90982438D02*
X146275952Y-91030057D01*
X146275952Y-91030057D02*
X146323571Y-91125295D01*
X146323571Y-91125295D02*
X146323571Y-91268152D01*
X146323571Y-91268152D02*
X146275952Y-91363390D01*
X146275952Y-91363390D02*
X146228333Y-91411009D01*
X146228333Y-91411009D02*
X146133095Y-91458628D01*
X146133095Y-91458628D02*
X145752143Y-91458628D01*
X147180714Y-91268152D02*
X147180714Y-91934819D01*
X146752143Y-91268152D02*
X146752143Y-91791961D01*
X146752143Y-91791961D02*
X146799762Y-91887200D01*
X146799762Y-91887200D02*
X146895000Y-91934819D01*
X146895000Y-91934819D02*
X147037857Y-91934819D01*
X147037857Y-91934819D02*
X147133095Y-91887200D01*
X147133095Y-91887200D02*
X147180714Y-91839580D01*
X147609286Y-91887200D02*
X147704524Y-91934819D01*
X147704524Y-91934819D02*
X147895000Y-91934819D01*
X147895000Y-91934819D02*
X147990238Y-91887200D01*
X147990238Y-91887200D02*
X148037857Y-91791961D01*
X148037857Y-91791961D02*
X148037857Y-91744342D01*
X148037857Y-91744342D02*
X147990238Y-91649104D01*
X147990238Y-91649104D02*
X147895000Y-91601485D01*
X147895000Y-91601485D02*
X147752143Y-91601485D01*
X147752143Y-91601485D02*
X147656905Y-91553866D01*
X147656905Y-91553866D02*
X147609286Y-91458628D01*
X147609286Y-91458628D02*
X147609286Y-91411009D01*
X147609286Y-91411009D02*
X147656905Y-91315771D01*
X147656905Y-91315771D02*
X147752143Y-91268152D01*
X147752143Y-91268152D02*
X147895000Y-91268152D01*
X147895000Y-91268152D02*
X147990238Y-91315771D01*
X148466429Y-91934819D02*
X148466429Y-90934819D01*
X148895000Y-91934819D02*
X148895000Y-91411009D01*
X148895000Y-91411009D02*
X148847381Y-91315771D01*
X148847381Y-91315771D02*
X148752143Y-91268152D01*
X148752143Y-91268152D02*
X148609286Y-91268152D01*
X148609286Y-91268152D02*
X148514048Y-91315771D01*
X148514048Y-91315771D02*
X148466429Y-91363390D01*
X143752143Y-87434819D02*
X144323571Y-87434819D01*
X144037857Y-88434819D02*
X144037857Y-87434819D01*
X144609286Y-88149104D02*
X145085476Y-88149104D01*
X144514048Y-88434819D02*
X144847381Y-87434819D01*
X144847381Y-87434819D02*
X145180714Y-88434819D01*
X146085476Y-88434819D02*
X145752143Y-87958628D01*
X145514048Y-88434819D02*
X145514048Y-87434819D01*
X145514048Y-87434819D02*
X145895000Y-87434819D01*
X145895000Y-87434819D02*
X145990238Y-87482438D01*
X145990238Y-87482438D02*
X146037857Y-87530057D01*
X146037857Y-87530057D02*
X146085476Y-87625295D01*
X146085476Y-87625295D02*
X146085476Y-87768152D01*
X146085476Y-87768152D02*
X146037857Y-87863390D01*
X146037857Y-87863390D02*
X145990238Y-87911009D01*
X145990238Y-87911009D02*
X145895000Y-87958628D01*
X145895000Y-87958628D02*
X145514048Y-87958628D01*
X146514048Y-87911009D02*
X146847381Y-87911009D01*
X146990238Y-88434819D02*
X146514048Y-88434819D01*
X146514048Y-88434819D02*
X146514048Y-87434819D01*
X146514048Y-87434819D02*
X146990238Y-87434819D01*
X147942619Y-88434819D02*
X147371191Y-88434819D01*
X147656905Y-88434819D02*
X147656905Y-87434819D01*
X147656905Y-87434819D02*
X147561667Y-87577676D01*
X147561667Y-87577676D02*
X147466429Y-87672914D01*
X147466429Y-87672914D02*
X147371191Y-87720533D01*
D12*
X152323671Y-96442857D02*
X152323671Y-96785714D01*
X152323671Y-96614285D02*
X151723671Y-96614285D01*
X151723671Y-96614285D02*
X151809385Y-96671428D01*
X151809385Y-96671428D02*
X151866528Y-96728571D01*
X151866528Y-96728571D02*
X151895100Y-96785714D01*
X151723671Y-96071428D02*
X151723671Y-96014285D01*
X151723671Y-96014285D02*
X151752242Y-95957142D01*
X151752242Y-95957142D02*
X151780814Y-95928571D01*
X151780814Y-95928571D02*
X151837957Y-95899999D01*
X151837957Y-95899999D02*
X151952242Y-95871428D01*
X151952242Y-95871428D02*
X152095100Y-95871428D01*
X152095100Y-95871428D02*
X152209385Y-95899999D01*
X152209385Y-95899999D02*
X152266528Y-95928571D01*
X152266528Y-95928571D02*
X152295100Y-95957142D01*
X152295100Y-95957142D02*
X152323671Y-96014285D01*
X152323671Y-96014285D02*
X152323671Y-96071428D01*
X152323671Y-96071428D02*
X152295100Y-96128571D01*
X152295100Y-96128571D02*
X152266528Y-96157142D01*
X152266528Y-96157142D02*
X152209385Y-96185713D01*
X152209385Y-96185713D02*
X152095100Y-96214285D01*
X152095100Y-96214285D02*
X151952242Y-96214285D01*
X151952242Y-96214285D02*
X151837957Y-96185713D01*
X151837957Y-96185713D02*
X151780814Y-96157142D01*
X151780814Y-96157142D02*
X151752242Y-96128571D01*
X151752242Y-96128571D02*
X151723671Y-96071428D01*
X151923671Y-95357142D02*
X152323671Y-95357142D01*
X151923671Y-95614284D02*
X152237957Y-95614284D01*
X152237957Y-95614284D02*
X152295100Y-95585713D01*
X152295100Y-95585713D02*
X152323671Y-95528570D01*
X152323671Y-95528570D02*
X152323671Y-95442856D01*
X152323671Y-95442856D02*
X152295100Y-95385713D01*
X152295100Y-95385713D02*
X152266528Y-95357142D01*
X152009385Y-94871427D02*
X152009385Y-95071427D01*
X152323671Y-95071427D02*
X151723671Y-95071427D01*
X151723671Y-95071427D02*
X151723671Y-94785713D01*
D13*
X151118832Y-95886666D02*
X151137880Y-95905714D01*
X151137880Y-95905714D02*
X151156927Y-95962856D01*
X151156927Y-95962856D02*
X151156927Y-96000952D01*
X151156927Y-96000952D02*
X151137880Y-96058095D01*
X151137880Y-96058095D02*
X151099784Y-96096190D01*
X151099784Y-96096190D02*
X151061689Y-96115237D01*
X151061689Y-96115237D02*
X150985499Y-96134285D01*
X150985499Y-96134285D02*
X150928356Y-96134285D01*
X150928356Y-96134285D02*
X150852165Y-96115237D01*
X150852165Y-96115237D02*
X150814070Y-96096190D01*
X150814070Y-96096190D02*
X150775975Y-96058095D01*
X150775975Y-96058095D02*
X150756927Y-96000952D01*
X150756927Y-96000952D02*
X150756927Y-95962856D01*
X150756927Y-95962856D02*
X150775975Y-95905714D01*
X150775975Y-95905714D02*
X150795022Y-95886666D01*
X150756927Y-95543809D02*
X150756927Y-95619999D01*
X150756927Y-95619999D02*
X150775975Y-95658095D01*
X150775975Y-95658095D02*
X150795022Y-95677142D01*
X150795022Y-95677142D02*
X150852165Y-95715237D01*
X150852165Y-95715237D02*
X150928356Y-95734285D01*
X150928356Y-95734285D02*
X151080737Y-95734285D01*
X151080737Y-95734285D02*
X151118832Y-95715237D01*
X151118832Y-95715237D02*
X151137880Y-95696190D01*
X151137880Y-95696190D02*
X151156927Y-95658095D01*
X151156927Y-95658095D02*
X151156927Y-95581904D01*
X151156927Y-95581904D02*
X151137880Y-95543809D01*
X151137880Y-95543809D02*
X151118832Y-95524761D01*
X151118832Y-95524761D02*
X151080737Y-95505714D01*
X151080737Y-95505714D02*
X150985499Y-95505714D01*
X150985499Y-95505714D02*
X150947403Y-95524761D01*
X150947403Y-95524761D02*
X150928356Y-95543809D01*
X150928356Y-95543809D02*
X150909308Y-95581904D01*
X150909308Y-95581904D02*
X150909308Y-95658095D01*
X150909308Y-95658095D02*
X150928356Y-95696190D01*
X150928356Y-95696190D02*
X150947403Y-95715237D01*
X150947403Y-95715237D02*
X150985499Y-95734285D01*
D12*
X148658671Y-96815714D02*
X148658671Y-96758571D01*
X148658671Y-96758571D02*
X148687242Y-96701428D01*
X148687242Y-96701428D02*
X148715814Y-96672857D01*
X148715814Y-96672857D02*
X148772957Y-96644285D01*
X148772957Y-96644285D02*
X148887242Y-96615714D01*
X148887242Y-96615714D02*
X149030100Y-96615714D01*
X149030100Y-96615714D02*
X149144385Y-96644285D01*
X149144385Y-96644285D02*
X149201528Y-96672857D01*
X149201528Y-96672857D02*
X149230100Y-96701428D01*
X149230100Y-96701428D02*
X149258671Y-96758571D01*
X149258671Y-96758571D02*
X149258671Y-96815714D01*
X149258671Y-96815714D02*
X149230100Y-96872857D01*
X149230100Y-96872857D02*
X149201528Y-96901428D01*
X149201528Y-96901428D02*
X149144385Y-96929999D01*
X149144385Y-96929999D02*
X149030100Y-96958571D01*
X149030100Y-96958571D02*
X148887242Y-96958571D01*
X148887242Y-96958571D02*
X148772957Y-96929999D01*
X148772957Y-96929999D02*
X148715814Y-96901428D01*
X148715814Y-96901428D02*
X148687242Y-96872857D01*
X148687242Y-96872857D02*
X148658671Y-96815714D01*
X149201528Y-96358570D02*
X149230100Y-96329999D01*
X149230100Y-96329999D02*
X149258671Y-96358570D01*
X149258671Y-96358570D02*
X149230100Y-96387142D01*
X149230100Y-96387142D02*
X149201528Y-96358570D01*
X149201528Y-96358570D02*
X149258671Y-96358570D01*
X149258671Y-95758571D02*
X149258671Y-96101428D01*
X149258671Y-95929999D02*
X148658671Y-95929999D01*
X148658671Y-95929999D02*
X148744385Y-95987142D01*
X148744385Y-95987142D02*
X148801528Y-96044285D01*
X148801528Y-96044285D02*
X148830100Y-96101428D01*
X148858671Y-95244285D02*
X149258671Y-95244285D01*
X148858671Y-95501427D02*
X149172957Y-95501427D01*
X149172957Y-95501427D02*
X149230100Y-95472856D01*
X149230100Y-95472856D02*
X149258671Y-95415713D01*
X149258671Y-95415713D02*
X149258671Y-95329999D01*
X149258671Y-95329999D02*
X149230100Y-95272856D01*
X149230100Y-95272856D02*
X149201528Y-95244285D01*
X148944385Y-94758570D02*
X148944385Y-94958570D01*
X149258671Y-94958570D02*
X148658671Y-94958570D01*
X148658671Y-94958570D02*
X148658671Y-94672856D01*
D13*
X148118832Y-95886666D02*
X148137880Y-95905714D01*
X148137880Y-95905714D02*
X148156927Y-95962856D01*
X148156927Y-95962856D02*
X148156927Y-96000952D01*
X148156927Y-96000952D02*
X148137880Y-96058095D01*
X148137880Y-96058095D02*
X148099784Y-96096190D01*
X148099784Y-96096190D02*
X148061689Y-96115237D01*
X148061689Y-96115237D02*
X147985499Y-96134285D01*
X147985499Y-96134285D02*
X147928356Y-96134285D01*
X147928356Y-96134285D02*
X147852165Y-96115237D01*
X147852165Y-96115237D02*
X147814070Y-96096190D01*
X147814070Y-96096190D02*
X147775975Y-96058095D01*
X147775975Y-96058095D02*
X147756927Y-96000952D01*
X147756927Y-96000952D02*
X147756927Y-95962856D01*
X147756927Y-95962856D02*
X147775975Y-95905714D01*
X147775975Y-95905714D02*
X147795022Y-95886666D01*
X147756927Y-95524761D02*
X147756927Y-95715237D01*
X147756927Y-95715237D02*
X147947403Y-95734285D01*
X147947403Y-95734285D02*
X147928356Y-95715237D01*
X147928356Y-95715237D02*
X147909308Y-95677142D01*
X147909308Y-95677142D02*
X147909308Y-95581904D01*
X147909308Y-95581904D02*
X147928356Y-95543809D01*
X147928356Y-95543809D02*
X147947403Y-95524761D01*
X147947403Y-95524761D02*
X147985499Y-95505714D01*
X147985499Y-95505714D02*
X148080737Y-95505714D01*
X148080737Y-95505714D02*
X148118832Y-95524761D01*
X148118832Y-95524761D02*
X148137880Y-95543809D01*
X148137880Y-95543809D02*
X148156927Y-95581904D01*
X148156927Y-95581904D02*
X148156927Y-95677142D01*
X148156927Y-95677142D02*
X148137880Y-95715237D01*
X148137880Y-95715237D02*
X148118832Y-95734285D01*
D14*
X147933333Y-114438855D02*
X147933333Y-115010283D01*
X147933333Y-115010283D02*
X147895238Y-115124569D01*
X147895238Y-115124569D02*
X147819047Y-115200760D01*
X147819047Y-115200760D02*
X147704762Y-115238855D01*
X147704762Y-115238855D02*
X147628571Y-115238855D01*
X148733333Y-115238855D02*
X148276190Y-115238855D01*
X148504762Y-115238855D02*
X148504762Y-114438855D01*
X148504762Y-114438855D02*
X148428571Y-114553140D01*
X148428571Y-114553140D02*
X148352381Y-114629331D01*
X148352381Y-114629331D02*
X148276190Y-114667426D01*
D10*
X174586904Y-93769580D02*
X174539285Y-93817200D01*
X174539285Y-93817200D02*
X174396428Y-93864819D01*
X174396428Y-93864819D02*
X174301190Y-93864819D01*
X174301190Y-93864819D02*
X174158333Y-93817200D01*
X174158333Y-93817200D02*
X174063095Y-93721961D01*
X174063095Y-93721961D02*
X174015476Y-93626723D01*
X174015476Y-93626723D02*
X173967857Y-93436247D01*
X173967857Y-93436247D02*
X173967857Y-93293390D01*
X173967857Y-93293390D02*
X174015476Y-93102914D01*
X174015476Y-93102914D02*
X174063095Y-93007676D01*
X174063095Y-93007676D02*
X174158333Y-92912438D01*
X174158333Y-92912438D02*
X174301190Y-92864819D01*
X174301190Y-92864819D02*
X174396428Y-92864819D01*
X174396428Y-92864819D02*
X174539285Y-92912438D01*
X174539285Y-92912438D02*
X174586904Y-92960057D01*
X175158333Y-93864819D02*
X175063095Y-93817200D01*
X175063095Y-93817200D02*
X175015476Y-93769580D01*
X175015476Y-93769580D02*
X174967857Y-93674342D01*
X174967857Y-93674342D02*
X174967857Y-93388628D01*
X174967857Y-93388628D02*
X175015476Y-93293390D01*
X175015476Y-93293390D02*
X175063095Y-93245771D01*
X175063095Y-93245771D02*
X175158333Y-93198152D01*
X175158333Y-93198152D02*
X175301190Y-93198152D01*
X175301190Y-93198152D02*
X175396428Y-93245771D01*
X175396428Y-93245771D02*
X175444047Y-93293390D01*
X175444047Y-93293390D02*
X175491666Y-93388628D01*
X175491666Y-93388628D02*
X175491666Y-93674342D01*
X175491666Y-93674342D02*
X175444047Y-93769580D01*
X175444047Y-93769580D02*
X175396428Y-93817200D01*
X175396428Y-93817200D02*
X175301190Y-93864819D01*
X175301190Y-93864819D02*
X175158333Y-93864819D01*
X175920238Y-93198152D02*
X175920238Y-93864819D01*
X175920238Y-93293390D02*
X175967857Y-93245771D01*
X175967857Y-93245771D02*
X176063095Y-93198152D01*
X176063095Y-93198152D02*
X176205952Y-93198152D01*
X176205952Y-93198152D02*
X176301190Y-93245771D01*
X176301190Y-93245771D02*
X176348809Y-93341009D01*
X176348809Y-93341009D02*
X176348809Y-93864819D01*
X176825000Y-93198152D02*
X176825000Y-93864819D01*
X176825000Y-93293390D02*
X176872619Y-93245771D01*
X176872619Y-93245771D02*
X176967857Y-93198152D01*
X176967857Y-93198152D02*
X177110714Y-93198152D01*
X177110714Y-93198152D02*
X177205952Y-93245771D01*
X177205952Y-93245771D02*
X177253571Y-93341009D01*
X177253571Y-93341009D02*
X177253571Y-93864819D01*
X177491667Y-93960057D02*
X178253571Y-93960057D01*
X178682143Y-92864819D02*
X178777381Y-92864819D01*
X178777381Y-92864819D02*
X178872619Y-92912438D01*
X178872619Y-92912438D02*
X178920238Y-92960057D01*
X178920238Y-92960057D02*
X178967857Y-93055295D01*
X178967857Y-93055295D02*
X179015476Y-93245771D01*
X179015476Y-93245771D02*
X179015476Y-93483866D01*
X179015476Y-93483866D02*
X178967857Y-93674342D01*
X178967857Y-93674342D02*
X178920238Y-93769580D01*
X178920238Y-93769580D02*
X178872619Y-93817200D01*
X178872619Y-93817200D02*
X178777381Y-93864819D01*
X178777381Y-93864819D02*
X178682143Y-93864819D01*
X178682143Y-93864819D02*
X178586905Y-93817200D01*
X178586905Y-93817200D02*
X178539286Y-93769580D01*
X178539286Y-93769580D02*
X178491667Y-93674342D01*
X178491667Y-93674342D02*
X178444048Y-93483866D01*
X178444048Y-93483866D02*
X178444048Y-93245771D01*
X178444048Y-93245771D02*
X178491667Y-93055295D01*
X178491667Y-93055295D02*
X178539286Y-92960057D01*
X178539286Y-92960057D02*
X178586905Y-92912438D01*
X178586905Y-92912438D02*
X178682143Y-92864819D01*
X179967857Y-93864819D02*
X179396429Y-93864819D01*
X179682143Y-93864819D02*
X179682143Y-92864819D01*
X179682143Y-92864819D02*
X179586905Y-93007676D01*
X179586905Y-93007676D02*
X179491667Y-93102914D01*
X179491667Y-93102914D02*
X179396429Y-93150533D01*
X180301191Y-93864819D02*
X180825000Y-93198152D01*
X180301191Y-93198152D02*
X180825000Y-93864819D01*
X181396429Y-92864819D02*
X181491667Y-92864819D01*
X181491667Y-92864819D02*
X181586905Y-92912438D01*
X181586905Y-92912438D02*
X181634524Y-92960057D01*
X181634524Y-92960057D02*
X181682143Y-93055295D01*
X181682143Y-93055295D02*
X181729762Y-93245771D01*
X181729762Y-93245771D02*
X181729762Y-93483866D01*
X181729762Y-93483866D02*
X181682143Y-93674342D01*
X181682143Y-93674342D02*
X181634524Y-93769580D01*
X181634524Y-93769580D02*
X181586905Y-93817200D01*
X181586905Y-93817200D02*
X181491667Y-93864819D01*
X181491667Y-93864819D02*
X181396429Y-93864819D01*
X181396429Y-93864819D02*
X181301191Y-93817200D01*
X181301191Y-93817200D02*
X181253572Y-93769580D01*
X181253572Y-93769580D02*
X181205953Y-93674342D01*
X181205953Y-93674342D02*
X181158334Y-93483866D01*
X181158334Y-93483866D02*
X181158334Y-93245771D01*
X181158334Y-93245771D02*
X181205953Y-93055295D01*
X181205953Y-93055295D02*
X181253572Y-92960057D01*
X181253572Y-92960057D02*
X181301191Y-92912438D01*
X181301191Y-92912438D02*
X181396429Y-92864819D01*
X182586905Y-92864819D02*
X182396429Y-92864819D01*
X182396429Y-92864819D02*
X182301191Y-92912438D01*
X182301191Y-92912438D02*
X182253572Y-92960057D01*
X182253572Y-92960057D02*
X182158334Y-93102914D01*
X182158334Y-93102914D02*
X182110715Y-93293390D01*
X182110715Y-93293390D02*
X182110715Y-93674342D01*
X182110715Y-93674342D02*
X182158334Y-93769580D01*
X182158334Y-93769580D02*
X182205953Y-93817200D01*
X182205953Y-93817200D02*
X182301191Y-93864819D01*
X182301191Y-93864819D02*
X182491667Y-93864819D01*
X182491667Y-93864819D02*
X182586905Y-93817200D01*
X182586905Y-93817200D02*
X182634524Y-93769580D01*
X182634524Y-93769580D02*
X182682143Y-93674342D01*
X182682143Y-93674342D02*
X182682143Y-93436247D01*
X182682143Y-93436247D02*
X182634524Y-93341009D01*
X182634524Y-93341009D02*
X182586905Y-93293390D01*
X182586905Y-93293390D02*
X182491667Y-93245771D01*
X182491667Y-93245771D02*
X182301191Y-93245771D01*
X182301191Y-93245771D02*
X182205953Y-93293390D01*
X182205953Y-93293390D02*
X182158334Y-93341009D01*
X182158334Y-93341009D02*
X182110715Y-93436247D01*
X177779819Y-102473333D02*
X178494104Y-102473333D01*
X178494104Y-102473333D02*
X178636961Y-102520952D01*
X178636961Y-102520952D02*
X178732200Y-102616190D01*
X178732200Y-102616190D02*
X178779819Y-102759047D01*
X178779819Y-102759047D02*
X178779819Y-102854285D01*
X177875057Y-102044761D02*
X177827438Y-101997142D01*
X177827438Y-101997142D02*
X177779819Y-101901904D01*
X177779819Y-101901904D02*
X177779819Y-101663809D01*
X177779819Y-101663809D02*
X177827438Y-101568571D01*
X177827438Y-101568571D02*
X177875057Y-101520952D01*
X177875057Y-101520952D02*
X177970295Y-101473333D01*
X177970295Y-101473333D02*
X178065533Y-101473333D01*
X178065533Y-101473333D02*
X178208390Y-101520952D01*
X178208390Y-101520952D02*
X178779819Y-102092380D01*
X178779819Y-102092380D02*
X178779819Y-101473333D01*
X159345238Y-81157200D02*
X159488095Y-81204819D01*
X159488095Y-81204819D02*
X159726190Y-81204819D01*
X159726190Y-81204819D02*
X159821428Y-81157200D01*
X159821428Y-81157200D02*
X159869047Y-81109580D01*
X159869047Y-81109580D02*
X159916666Y-81014342D01*
X159916666Y-81014342D02*
X159916666Y-80919104D01*
X159916666Y-80919104D02*
X159869047Y-80823866D01*
X159869047Y-80823866D02*
X159821428Y-80776247D01*
X159821428Y-80776247D02*
X159726190Y-80728628D01*
X159726190Y-80728628D02*
X159535714Y-80681009D01*
X159535714Y-80681009D02*
X159440476Y-80633390D01*
X159440476Y-80633390D02*
X159392857Y-80585771D01*
X159392857Y-80585771D02*
X159345238Y-80490533D01*
X159345238Y-80490533D02*
X159345238Y-80395295D01*
X159345238Y-80395295D02*
X159392857Y-80300057D01*
X159392857Y-80300057D02*
X159440476Y-80252438D01*
X159440476Y-80252438D02*
X159535714Y-80204819D01*
X159535714Y-80204819D02*
X159773809Y-80204819D01*
X159773809Y-80204819D02*
X159916666Y-80252438D01*
X160250000Y-80204819D02*
X160488095Y-81204819D01*
X160488095Y-81204819D02*
X160678571Y-80490533D01*
X160678571Y-80490533D02*
X160869047Y-81204819D01*
X160869047Y-81204819D02*
X161107143Y-80204819D01*
X161250000Y-81300057D02*
X162011904Y-81300057D01*
X162202381Y-81157200D02*
X162345238Y-81204819D01*
X162345238Y-81204819D02*
X162583333Y-81204819D01*
X162583333Y-81204819D02*
X162678571Y-81157200D01*
X162678571Y-81157200D02*
X162726190Y-81109580D01*
X162726190Y-81109580D02*
X162773809Y-81014342D01*
X162773809Y-81014342D02*
X162773809Y-80919104D01*
X162773809Y-80919104D02*
X162726190Y-80823866D01*
X162726190Y-80823866D02*
X162678571Y-80776247D01*
X162678571Y-80776247D02*
X162583333Y-80728628D01*
X162583333Y-80728628D02*
X162392857Y-80681009D01*
X162392857Y-80681009D02*
X162297619Y-80633390D01*
X162297619Y-80633390D02*
X162250000Y-80585771D01*
X162250000Y-80585771D02*
X162202381Y-80490533D01*
X162202381Y-80490533D02*
X162202381Y-80395295D01*
X162202381Y-80395295D02*
X162250000Y-80300057D01*
X162250000Y-80300057D02*
X162297619Y-80252438D01*
X162297619Y-80252438D02*
X162392857Y-80204819D01*
X162392857Y-80204819D02*
X162630952Y-80204819D01*
X162630952Y-80204819D02*
X162773809Y-80252438D01*
X163202381Y-81204819D02*
X163202381Y-80204819D01*
X163202381Y-80204819D02*
X163583333Y-80204819D01*
X163583333Y-80204819D02*
X163678571Y-80252438D01*
X163678571Y-80252438D02*
X163726190Y-80300057D01*
X163726190Y-80300057D02*
X163773809Y-80395295D01*
X163773809Y-80395295D02*
X163773809Y-80538152D01*
X163773809Y-80538152D02*
X163726190Y-80633390D01*
X163726190Y-80633390D02*
X163678571Y-80681009D01*
X163678571Y-80681009D02*
X163583333Y-80728628D01*
X163583333Y-80728628D02*
X163202381Y-80728628D01*
X164202381Y-81204819D02*
X164202381Y-80204819D01*
X164202381Y-80204819D02*
X164440476Y-80204819D01*
X164440476Y-80204819D02*
X164583333Y-80252438D01*
X164583333Y-80252438D02*
X164678571Y-80347676D01*
X164678571Y-80347676D02*
X164726190Y-80442914D01*
X164726190Y-80442914D02*
X164773809Y-80633390D01*
X164773809Y-80633390D02*
X164773809Y-80776247D01*
X164773809Y-80776247D02*
X164726190Y-80966723D01*
X164726190Y-80966723D02*
X164678571Y-81061961D01*
X164678571Y-81061961D02*
X164583333Y-81157200D01*
X164583333Y-81157200D02*
X164440476Y-81204819D01*
X164440476Y-81204819D02*
X164202381Y-81204819D01*
X165059524Y-80204819D02*
X165630952Y-80204819D01*
X165345238Y-81204819D02*
X165345238Y-80204819D01*
X165726191Y-81300057D02*
X166488095Y-81300057D01*
X166630953Y-80204819D02*
X167250000Y-80204819D01*
X167250000Y-80204819D02*
X166916667Y-80585771D01*
X166916667Y-80585771D02*
X167059524Y-80585771D01*
X167059524Y-80585771D02*
X167154762Y-80633390D01*
X167154762Y-80633390D02*
X167202381Y-80681009D01*
X167202381Y-80681009D02*
X167250000Y-80776247D01*
X167250000Y-80776247D02*
X167250000Y-81014342D01*
X167250000Y-81014342D02*
X167202381Y-81109580D01*
X167202381Y-81109580D02*
X167154762Y-81157200D01*
X167154762Y-81157200D02*
X167059524Y-81204819D01*
X167059524Y-81204819D02*
X166773810Y-81204819D01*
X166773810Y-81204819D02*
X166678572Y-81157200D01*
X166678572Y-81157200D02*
X166630953Y-81109580D01*
X167630953Y-80300057D02*
X167678572Y-80252438D01*
X167678572Y-80252438D02*
X167773810Y-80204819D01*
X167773810Y-80204819D02*
X168011905Y-80204819D01*
X168011905Y-80204819D02*
X168107143Y-80252438D01*
X168107143Y-80252438D02*
X168154762Y-80300057D01*
X168154762Y-80300057D02*
X168202381Y-80395295D01*
X168202381Y-80395295D02*
X168202381Y-80490533D01*
X168202381Y-80490533D02*
X168154762Y-80633390D01*
X168154762Y-80633390D02*
X167583334Y-81204819D01*
X167583334Y-81204819D02*
X168202381Y-81204819D01*
X169154762Y-81204819D02*
X168583334Y-81204819D01*
X168869048Y-81204819D02*
X168869048Y-80204819D01*
X168869048Y-80204819D02*
X168773810Y-80347676D01*
X168773810Y-80347676D02*
X168678572Y-80442914D01*
X168678572Y-80442914D02*
X168583334Y-80490533D01*
D15*
X162745238Y-86976109D02*
X162745238Y-86476109D01*
X162745238Y-86476109D02*
X162935714Y-86476109D01*
X162935714Y-86476109D02*
X162983333Y-86499919D01*
X162983333Y-86499919D02*
X163007143Y-86523728D01*
X163007143Y-86523728D02*
X163030952Y-86571347D01*
X163030952Y-86571347D02*
X163030952Y-86642776D01*
X163030952Y-86642776D02*
X163007143Y-86690395D01*
X163007143Y-86690395D02*
X162983333Y-86714204D01*
X162983333Y-86714204D02*
X162935714Y-86738014D01*
X162935714Y-86738014D02*
X162745238Y-86738014D01*
X163197619Y-86476109D02*
X163316667Y-86976109D01*
X163316667Y-86976109D02*
X163411905Y-86618966D01*
X163411905Y-86618966D02*
X163507143Y-86976109D01*
X163507143Y-86976109D02*
X163626191Y-86476109D01*
X164102381Y-86976109D02*
X163935715Y-86738014D01*
X163816667Y-86976109D02*
X163816667Y-86476109D01*
X163816667Y-86476109D02*
X164007143Y-86476109D01*
X164007143Y-86476109D02*
X164054762Y-86499919D01*
X164054762Y-86499919D02*
X164078572Y-86523728D01*
X164078572Y-86523728D02*
X164102381Y-86571347D01*
X164102381Y-86571347D02*
X164102381Y-86642776D01*
X164102381Y-86642776D02*
X164078572Y-86690395D01*
X164078572Y-86690395D02*
X164054762Y-86714204D01*
X164054762Y-86714204D02*
X164007143Y-86738014D01*
X164007143Y-86738014D02*
X163816667Y-86738014D01*
X164578572Y-86976109D02*
X164292858Y-86976109D01*
X164435715Y-86976109D02*
X164435715Y-86476109D01*
X164435715Y-86476109D02*
X164388096Y-86547538D01*
X164388096Y-86547538D02*
X164340477Y-86595157D01*
X164340477Y-86595157D02*
X164292858Y-86618966D01*
D12*
X144764285Y-110673671D02*
X144821428Y-110673671D01*
X144821428Y-110673671D02*
X144878571Y-110702242D01*
X144878571Y-110702242D02*
X144907143Y-110730814D01*
X144907143Y-110730814D02*
X144935714Y-110787957D01*
X144935714Y-110787957D02*
X144964285Y-110902242D01*
X144964285Y-110902242D02*
X144964285Y-111045100D01*
X144964285Y-111045100D02*
X144935714Y-111159385D01*
X144935714Y-111159385D02*
X144907143Y-111216528D01*
X144907143Y-111216528D02*
X144878571Y-111245100D01*
X144878571Y-111245100D02*
X144821428Y-111273671D01*
X144821428Y-111273671D02*
X144764285Y-111273671D01*
X144764285Y-111273671D02*
X144707143Y-111245100D01*
X144707143Y-111245100D02*
X144678571Y-111216528D01*
X144678571Y-111216528D02*
X144650000Y-111159385D01*
X144650000Y-111159385D02*
X144621428Y-111045100D01*
X144621428Y-111045100D02*
X144621428Y-110902242D01*
X144621428Y-110902242D02*
X144650000Y-110787957D01*
X144650000Y-110787957D02*
X144678571Y-110730814D01*
X144678571Y-110730814D02*
X144707143Y-110702242D01*
X144707143Y-110702242D02*
X144764285Y-110673671D01*
X145221429Y-111216528D02*
X145250000Y-111245100D01*
X145250000Y-111245100D02*
X145221429Y-111273671D01*
X145221429Y-111273671D02*
X145192857Y-111245100D01*
X145192857Y-111245100D02*
X145221429Y-111216528D01*
X145221429Y-111216528D02*
X145221429Y-111273671D01*
X145821428Y-111273671D02*
X145478571Y-111273671D01*
X145650000Y-111273671D02*
X145650000Y-110673671D01*
X145650000Y-110673671D02*
X145592857Y-110759385D01*
X145592857Y-110759385D02*
X145535714Y-110816528D01*
X145535714Y-110816528D02*
X145478571Y-110845100D01*
X146335715Y-110873671D02*
X146335715Y-111273671D01*
X146078572Y-110873671D02*
X146078572Y-111187957D01*
X146078572Y-111187957D02*
X146107143Y-111245100D01*
X146107143Y-111245100D02*
X146164286Y-111273671D01*
X146164286Y-111273671D02*
X146250000Y-111273671D01*
X146250000Y-111273671D02*
X146307143Y-111245100D01*
X146307143Y-111245100D02*
X146335715Y-111216528D01*
X146821429Y-110959385D02*
X146621429Y-110959385D01*
X146621429Y-111273671D02*
X146621429Y-110673671D01*
X146621429Y-110673671D02*
X146907143Y-110673671D01*
D13*
X145684433Y-112132432D02*
X145665385Y-112151480D01*
X145665385Y-112151480D02*
X145608243Y-112170527D01*
X145608243Y-112170527D02*
X145570147Y-112170527D01*
X145570147Y-112170527D02*
X145513004Y-112151480D01*
X145513004Y-112151480D02*
X145474909Y-112113384D01*
X145474909Y-112113384D02*
X145455862Y-112075289D01*
X145455862Y-112075289D02*
X145436814Y-111999099D01*
X145436814Y-111999099D02*
X145436814Y-111941956D01*
X145436814Y-111941956D02*
X145455862Y-111865765D01*
X145455862Y-111865765D02*
X145474909Y-111827670D01*
X145474909Y-111827670D02*
X145513004Y-111789575D01*
X145513004Y-111789575D02*
X145570147Y-111770527D01*
X145570147Y-111770527D02*
X145608243Y-111770527D01*
X145608243Y-111770527D02*
X145665385Y-111789575D01*
X145665385Y-111789575D02*
X145684433Y-111808622D01*
X146065385Y-112170527D02*
X145836814Y-112170527D01*
X145951100Y-112170527D02*
X145951100Y-111770527D01*
X145951100Y-111770527D02*
X145913004Y-111827670D01*
X145913004Y-111827670D02*
X145874909Y-111865765D01*
X145874909Y-111865765D02*
X145836814Y-111884813D01*
D10*
X135354819Y-102013333D02*
X136069104Y-102013333D01*
X136069104Y-102013333D02*
X136211961Y-102060952D01*
X136211961Y-102060952D02*
X136307200Y-102156190D01*
X136307200Y-102156190D02*
X136354819Y-102299047D01*
X136354819Y-102299047D02*
X136354819Y-102394285D01*
X135354819Y-101060952D02*
X135354819Y-101537142D01*
X135354819Y-101537142D02*
X135831009Y-101584761D01*
X135831009Y-101584761D02*
X135783390Y-101537142D01*
X135783390Y-101537142D02*
X135735771Y-101441904D01*
X135735771Y-101441904D02*
X135735771Y-101203809D01*
X135735771Y-101203809D02*
X135783390Y-101108571D01*
X135783390Y-101108571D02*
X135831009Y-101060952D01*
X135831009Y-101060952D02*
X135926247Y-101013333D01*
X135926247Y-101013333D02*
X136164342Y-101013333D01*
X136164342Y-101013333D02*
X136259580Y-101060952D01*
X136259580Y-101060952D02*
X136307200Y-101108571D01*
X136307200Y-101108571D02*
X136354819Y-101203809D01*
X136354819Y-101203809D02*
X136354819Y-101441904D01*
X136354819Y-101441904D02*
X136307200Y-101537142D01*
X136307200Y-101537142D02*
X136259580Y-101584761D01*
D12*
X140598671Y-92257143D02*
X140598671Y-92600000D01*
X140598671Y-92428571D02*
X139998671Y-92428571D01*
X139998671Y-92428571D02*
X140084385Y-92485714D01*
X140084385Y-92485714D02*
X140141528Y-92542857D01*
X140141528Y-92542857D02*
X140170100Y-92600000D01*
X139998671Y-91885714D02*
X139998671Y-91828571D01*
X139998671Y-91828571D02*
X140027242Y-91771428D01*
X140027242Y-91771428D02*
X140055814Y-91742857D01*
X140055814Y-91742857D02*
X140112957Y-91714285D01*
X140112957Y-91714285D02*
X140227242Y-91685714D01*
X140227242Y-91685714D02*
X140370100Y-91685714D01*
X140370100Y-91685714D02*
X140484385Y-91714285D01*
X140484385Y-91714285D02*
X140541528Y-91742857D01*
X140541528Y-91742857D02*
X140570100Y-91771428D01*
X140570100Y-91771428D02*
X140598671Y-91828571D01*
X140598671Y-91828571D02*
X140598671Y-91885714D01*
X140598671Y-91885714D02*
X140570100Y-91942857D01*
X140570100Y-91942857D02*
X140541528Y-91971428D01*
X140541528Y-91971428D02*
X140484385Y-91999999D01*
X140484385Y-91999999D02*
X140370100Y-92028571D01*
X140370100Y-92028571D02*
X140227242Y-92028571D01*
X140227242Y-92028571D02*
X140112957Y-91999999D01*
X140112957Y-91999999D02*
X140055814Y-91971428D01*
X140055814Y-91971428D02*
X140027242Y-91942857D01*
X140027242Y-91942857D02*
X139998671Y-91885714D01*
X140598671Y-91428570D02*
X139998671Y-91428570D01*
X140370100Y-91371428D02*
X140598671Y-91199999D01*
X140198671Y-91199999D02*
X140427242Y-91428570D01*
D13*
X141581927Y-91991666D02*
X141391451Y-92124999D01*
X141581927Y-92220237D02*
X141181927Y-92220237D01*
X141181927Y-92220237D02*
X141181927Y-92067856D01*
X141181927Y-92067856D02*
X141200975Y-92029761D01*
X141200975Y-92029761D02*
X141220022Y-92010714D01*
X141220022Y-92010714D02*
X141258118Y-91991666D01*
X141258118Y-91991666D02*
X141315260Y-91991666D01*
X141315260Y-91991666D02*
X141353356Y-92010714D01*
X141353356Y-92010714D02*
X141372403Y-92029761D01*
X141372403Y-92029761D02*
X141391451Y-92067856D01*
X141391451Y-92067856D02*
X141391451Y-92220237D01*
X141181927Y-91648809D02*
X141181927Y-91724999D01*
X141181927Y-91724999D02*
X141200975Y-91763095D01*
X141200975Y-91763095D02*
X141220022Y-91782142D01*
X141220022Y-91782142D02*
X141277165Y-91820237D01*
X141277165Y-91820237D02*
X141353356Y-91839285D01*
X141353356Y-91839285D02*
X141505737Y-91839285D01*
X141505737Y-91839285D02*
X141543832Y-91820237D01*
X141543832Y-91820237D02*
X141562880Y-91801190D01*
X141562880Y-91801190D02*
X141581927Y-91763095D01*
X141581927Y-91763095D02*
X141581927Y-91686904D01*
X141581927Y-91686904D02*
X141562880Y-91648809D01*
X141562880Y-91648809D02*
X141543832Y-91629761D01*
X141543832Y-91629761D02*
X141505737Y-91610714D01*
X141505737Y-91610714D02*
X141410499Y-91610714D01*
X141410499Y-91610714D02*
X141372403Y-91629761D01*
X141372403Y-91629761D02*
X141353356Y-91648809D01*
X141353356Y-91648809D02*
X141334308Y-91686904D01*
X141334308Y-91686904D02*
X141334308Y-91763095D01*
X141334308Y-91763095D02*
X141353356Y-91801190D01*
X141353356Y-91801190D02*
X141372403Y-91820237D01*
X141372403Y-91820237D02*
X141410499Y-91839285D01*
D16*
X141627290Y-107103876D02*
X141589195Y-107084828D01*
X141589195Y-107084828D02*
X141570148Y-107065780D01*
X141570148Y-107065780D02*
X141551100Y-107027685D01*
X141551100Y-107027685D02*
X141551100Y-107008638D01*
X141551100Y-107008638D02*
X141570148Y-106970542D01*
X141570148Y-106970542D02*
X141589195Y-106951495D01*
X141589195Y-106951495D02*
X141627290Y-106932447D01*
X141627290Y-106932447D02*
X141703481Y-106932447D01*
X141703481Y-106932447D02*
X141741576Y-106951495D01*
X141741576Y-106951495D02*
X141760624Y-106970542D01*
X141760624Y-106970542D02*
X141779671Y-107008638D01*
X141779671Y-107008638D02*
X141779671Y-107027685D01*
X141779671Y-107027685D02*
X141760624Y-107065780D01*
X141760624Y-107065780D02*
X141741576Y-107084828D01*
X141741576Y-107084828D02*
X141703481Y-107103876D01*
X141703481Y-107103876D02*
X141627290Y-107103876D01*
X141627290Y-107103876D02*
X141589195Y-107122923D01*
X141589195Y-107122923D02*
X141570148Y-107141971D01*
X141570148Y-107141971D02*
X141551100Y-107180066D01*
X141551100Y-107180066D02*
X141551100Y-107256257D01*
X141551100Y-107256257D02*
X141570148Y-107294352D01*
X141570148Y-107294352D02*
X141589195Y-107313400D01*
X141589195Y-107313400D02*
X141627290Y-107332447D01*
X141627290Y-107332447D02*
X141703481Y-107332447D01*
X141703481Y-107332447D02*
X141741576Y-107313400D01*
X141741576Y-107313400D02*
X141760624Y-107294352D01*
X141760624Y-107294352D02*
X141779671Y-107256257D01*
X141779671Y-107256257D02*
X141779671Y-107180066D01*
X141779671Y-107180066D02*
X141760624Y-107141971D01*
X141760624Y-107141971D02*
X141741576Y-107122923D01*
X141741576Y-107122923D02*
X141703481Y-107103876D01*
X141951100Y-107294352D02*
X141970147Y-107313400D01*
X141970147Y-107313400D02*
X141951100Y-107332447D01*
X141951100Y-107332447D02*
X141932052Y-107313400D01*
X141932052Y-107313400D02*
X141951100Y-107294352D01*
X141951100Y-107294352D02*
X141951100Y-107332447D01*
X142122528Y-106970542D02*
X142141576Y-106951495D01*
X142141576Y-106951495D02*
X142179671Y-106932447D01*
X142179671Y-106932447D02*
X142274909Y-106932447D01*
X142274909Y-106932447D02*
X142313004Y-106951495D01*
X142313004Y-106951495D02*
X142332052Y-106970542D01*
X142332052Y-106970542D02*
X142351099Y-107008638D01*
X142351099Y-107008638D02*
X142351099Y-107046733D01*
X142351099Y-107046733D02*
X142332052Y-107103876D01*
X142332052Y-107103876D02*
X142103480Y-107332447D01*
X142103480Y-107332447D02*
X142351099Y-107332447D01*
X142522528Y-107332447D02*
X142522528Y-106932447D01*
X142751099Y-107332447D02*
X142579670Y-107103876D01*
X142751099Y-106932447D02*
X142522528Y-107161019D01*
D13*
X142084433Y-106455527D02*
X141951100Y-106265051D01*
X141855862Y-106455527D02*
X141855862Y-106055527D01*
X141855862Y-106055527D02*
X142008243Y-106055527D01*
X142008243Y-106055527D02*
X142046338Y-106074575D01*
X142046338Y-106074575D02*
X142065385Y-106093622D01*
X142065385Y-106093622D02*
X142084433Y-106131718D01*
X142084433Y-106131718D02*
X142084433Y-106188860D01*
X142084433Y-106188860D02*
X142065385Y-106226956D01*
X142065385Y-106226956D02*
X142046338Y-106246003D01*
X142046338Y-106246003D02*
X142008243Y-106265051D01*
X142008243Y-106265051D02*
X141855862Y-106265051D01*
X142236814Y-106093622D02*
X142255862Y-106074575D01*
X142255862Y-106074575D02*
X142293957Y-106055527D01*
X142293957Y-106055527D02*
X142389195Y-106055527D01*
X142389195Y-106055527D02*
X142427290Y-106074575D01*
X142427290Y-106074575D02*
X142446338Y-106093622D01*
X142446338Y-106093622D02*
X142465385Y-106131718D01*
X142465385Y-106131718D02*
X142465385Y-106169813D01*
X142465385Y-106169813D02*
X142446338Y-106226956D01*
X142446338Y-106226956D02*
X142217766Y-106455527D01*
X142217766Y-106455527D02*
X142465385Y-106455527D01*
D12*
X171483671Y-95890000D02*
X171483671Y-96232857D01*
X171483671Y-96061428D02*
X170883671Y-96061428D01*
X170883671Y-96061428D02*
X170969385Y-96118571D01*
X170969385Y-96118571D02*
X171026528Y-96175714D01*
X171026528Y-96175714D02*
X171055100Y-96232857D01*
X170883671Y-95518571D02*
X170883671Y-95461428D01*
X170883671Y-95461428D02*
X170912242Y-95404285D01*
X170912242Y-95404285D02*
X170940814Y-95375714D01*
X170940814Y-95375714D02*
X170997957Y-95347142D01*
X170997957Y-95347142D02*
X171112242Y-95318571D01*
X171112242Y-95318571D02*
X171255100Y-95318571D01*
X171255100Y-95318571D02*
X171369385Y-95347142D01*
X171369385Y-95347142D02*
X171426528Y-95375714D01*
X171426528Y-95375714D02*
X171455100Y-95404285D01*
X171455100Y-95404285D02*
X171483671Y-95461428D01*
X171483671Y-95461428D02*
X171483671Y-95518571D01*
X171483671Y-95518571D02*
X171455100Y-95575714D01*
X171455100Y-95575714D02*
X171426528Y-95604285D01*
X171426528Y-95604285D02*
X171369385Y-95632856D01*
X171369385Y-95632856D02*
X171255100Y-95661428D01*
X171255100Y-95661428D02*
X171112242Y-95661428D01*
X171112242Y-95661428D02*
X170997957Y-95632856D01*
X170997957Y-95632856D02*
X170940814Y-95604285D01*
X170940814Y-95604285D02*
X170912242Y-95575714D01*
X170912242Y-95575714D02*
X170883671Y-95518571D01*
X170883671Y-94947142D02*
X170883671Y-94889999D01*
X170883671Y-94889999D02*
X170912242Y-94832856D01*
X170912242Y-94832856D02*
X170940814Y-94804285D01*
X170940814Y-94804285D02*
X170997957Y-94775713D01*
X170997957Y-94775713D02*
X171112242Y-94747142D01*
X171112242Y-94747142D02*
X171255100Y-94747142D01*
X171255100Y-94747142D02*
X171369385Y-94775713D01*
X171369385Y-94775713D02*
X171426528Y-94804285D01*
X171426528Y-94804285D02*
X171455100Y-94832856D01*
X171455100Y-94832856D02*
X171483671Y-94889999D01*
X171483671Y-94889999D02*
X171483671Y-94947142D01*
X171483671Y-94947142D02*
X171455100Y-95004285D01*
X171455100Y-95004285D02*
X171426528Y-95032856D01*
X171426528Y-95032856D02*
X171369385Y-95061427D01*
X171369385Y-95061427D02*
X171255100Y-95089999D01*
X171255100Y-95089999D02*
X171112242Y-95089999D01*
X171112242Y-95089999D02*
X170997957Y-95061427D01*
X170997957Y-95061427D02*
X170940814Y-95032856D01*
X170940814Y-95032856D02*
X170912242Y-95004285D01*
X170912242Y-95004285D02*
X170883671Y-94947142D01*
X171483671Y-94147141D02*
X171197957Y-94347141D01*
X171483671Y-94489998D02*
X170883671Y-94489998D01*
X170883671Y-94489998D02*
X170883671Y-94261427D01*
X170883671Y-94261427D02*
X170912242Y-94204284D01*
X170912242Y-94204284D02*
X170940814Y-94175713D01*
X170940814Y-94175713D02*
X170997957Y-94147141D01*
X170997957Y-94147141D02*
X171083671Y-94147141D01*
X171083671Y-94147141D02*
X171140814Y-94175713D01*
X171140814Y-94175713D02*
X171169385Y-94204284D01*
X171169385Y-94204284D02*
X171197957Y-94261427D01*
X171197957Y-94261427D02*
X171197957Y-94489998D01*
D13*
X172401927Y-95256666D02*
X172211451Y-95389999D01*
X172401927Y-95485237D02*
X172001927Y-95485237D01*
X172001927Y-95485237D02*
X172001927Y-95332856D01*
X172001927Y-95332856D02*
X172020975Y-95294761D01*
X172020975Y-95294761D02*
X172040022Y-95275714D01*
X172040022Y-95275714D02*
X172078118Y-95256666D01*
X172078118Y-95256666D02*
X172135260Y-95256666D01*
X172135260Y-95256666D02*
X172173356Y-95275714D01*
X172173356Y-95275714D02*
X172192403Y-95294761D01*
X172192403Y-95294761D02*
X172211451Y-95332856D01*
X172211451Y-95332856D02*
X172211451Y-95485237D01*
X172173356Y-95028095D02*
X172154308Y-95066190D01*
X172154308Y-95066190D02*
X172135260Y-95085237D01*
X172135260Y-95085237D02*
X172097165Y-95104285D01*
X172097165Y-95104285D02*
X172078118Y-95104285D01*
X172078118Y-95104285D02*
X172040022Y-95085237D01*
X172040022Y-95085237D02*
X172020975Y-95066190D01*
X172020975Y-95066190D02*
X172001927Y-95028095D01*
X172001927Y-95028095D02*
X172001927Y-94951904D01*
X172001927Y-94951904D02*
X172020975Y-94913809D01*
X172020975Y-94913809D02*
X172040022Y-94894761D01*
X172040022Y-94894761D02*
X172078118Y-94875714D01*
X172078118Y-94875714D02*
X172097165Y-94875714D01*
X172097165Y-94875714D02*
X172135260Y-94894761D01*
X172135260Y-94894761D02*
X172154308Y-94913809D01*
X172154308Y-94913809D02*
X172173356Y-94951904D01*
X172173356Y-94951904D02*
X172173356Y-95028095D01*
X172173356Y-95028095D02*
X172192403Y-95066190D01*
X172192403Y-95066190D02*
X172211451Y-95085237D01*
X172211451Y-95085237D02*
X172249546Y-95104285D01*
X172249546Y-95104285D02*
X172325737Y-95104285D01*
X172325737Y-95104285D02*
X172363832Y-95085237D01*
X172363832Y-95085237D02*
X172382880Y-95066190D01*
X172382880Y-95066190D02*
X172401927Y-95028095D01*
X172401927Y-95028095D02*
X172401927Y-94951904D01*
X172401927Y-94951904D02*
X172382880Y-94913809D01*
X172382880Y-94913809D02*
X172363832Y-94894761D01*
X172363832Y-94894761D02*
X172325737Y-94875714D01*
X172325737Y-94875714D02*
X172249546Y-94875714D01*
X172249546Y-94875714D02*
X172211451Y-94894761D01*
X172211451Y-94894761D02*
X172192403Y-94913809D01*
X172192403Y-94913809D02*
X172173356Y-94951904D01*
D12*
X152039285Y-99098671D02*
X152096428Y-99098671D01*
X152096428Y-99098671D02*
X152153571Y-99127242D01*
X152153571Y-99127242D02*
X152182143Y-99155814D01*
X152182143Y-99155814D02*
X152210714Y-99212957D01*
X152210714Y-99212957D02*
X152239285Y-99327242D01*
X152239285Y-99327242D02*
X152239285Y-99470100D01*
X152239285Y-99470100D02*
X152210714Y-99584385D01*
X152210714Y-99584385D02*
X152182143Y-99641528D01*
X152182143Y-99641528D02*
X152153571Y-99670100D01*
X152153571Y-99670100D02*
X152096428Y-99698671D01*
X152096428Y-99698671D02*
X152039285Y-99698671D01*
X152039285Y-99698671D02*
X151982143Y-99670100D01*
X151982143Y-99670100D02*
X151953571Y-99641528D01*
X151953571Y-99641528D02*
X151925000Y-99584385D01*
X151925000Y-99584385D02*
X151896428Y-99470100D01*
X151896428Y-99470100D02*
X151896428Y-99327242D01*
X151896428Y-99327242D02*
X151925000Y-99212957D01*
X151925000Y-99212957D02*
X151953571Y-99155814D01*
X151953571Y-99155814D02*
X151982143Y-99127242D01*
X151982143Y-99127242D02*
X152039285Y-99098671D01*
X152496429Y-99641528D02*
X152525000Y-99670100D01*
X152525000Y-99670100D02*
X152496429Y-99698671D01*
X152496429Y-99698671D02*
X152467857Y-99670100D01*
X152467857Y-99670100D02*
X152496429Y-99641528D01*
X152496429Y-99641528D02*
X152496429Y-99698671D01*
X153096428Y-99698671D02*
X152753571Y-99698671D01*
X152925000Y-99698671D02*
X152925000Y-99098671D01*
X152925000Y-99098671D02*
X152867857Y-99184385D01*
X152867857Y-99184385D02*
X152810714Y-99241528D01*
X152810714Y-99241528D02*
X152753571Y-99270100D01*
X153610715Y-99298671D02*
X153610715Y-99698671D01*
X153353572Y-99298671D02*
X153353572Y-99612957D01*
X153353572Y-99612957D02*
X153382143Y-99670100D01*
X153382143Y-99670100D02*
X153439286Y-99698671D01*
X153439286Y-99698671D02*
X153525000Y-99698671D01*
X153525000Y-99698671D02*
X153582143Y-99670100D01*
X153582143Y-99670100D02*
X153610715Y-99641528D01*
X154096429Y-99384385D02*
X153896429Y-99384385D01*
X153896429Y-99698671D02*
X153896429Y-99098671D01*
X153896429Y-99098671D02*
X154182143Y-99098671D01*
D13*
X153168832Y-101391666D02*
X153187880Y-101410714D01*
X153187880Y-101410714D02*
X153206927Y-101467856D01*
X153206927Y-101467856D02*
X153206927Y-101505952D01*
X153206927Y-101505952D02*
X153187880Y-101563095D01*
X153187880Y-101563095D02*
X153149784Y-101601190D01*
X153149784Y-101601190D02*
X153111689Y-101620237D01*
X153111689Y-101620237D02*
X153035499Y-101639285D01*
X153035499Y-101639285D02*
X152978356Y-101639285D01*
X152978356Y-101639285D02*
X152902165Y-101620237D01*
X152902165Y-101620237D02*
X152864070Y-101601190D01*
X152864070Y-101601190D02*
X152825975Y-101563095D01*
X152825975Y-101563095D02*
X152806927Y-101505952D01*
X152806927Y-101505952D02*
X152806927Y-101467856D01*
X152806927Y-101467856D02*
X152825975Y-101410714D01*
X152825975Y-101410714D02*
X152845022Y-101391666D01*
X152940260Y-101048809D02*
X153206927Y-101048809D01*
X152787880Y-101144047D02*
X153073594Y-101239285D01*
X153073594Y-101239285D02*
X153073594Y-100991666D01*
D17*
X152643809Y-88478059D02*
X152405714Y-88478059D01*
X152405714Y-88478059D02*
X152405714Y-87978059D01*
X152810476Y-88216154D02*
X152977143Y-88216154D01*
X153048571Y-88478059D02*
X152810476Y-88478059D01*
X152810476Y-88478059D02*
X152810476Y-87978059D01*
X152810476Y-87978059D02*
X153048571Y-87978059D01*
X153262857Y-88478059D02*
X153262857Y-87978059D01*
X153262857Y-87978059D02*
X153381905Y-87978059D01*
X153381905Y-87978059D02*
X153453333Y-88001869D01*
X153453333Y-88001869D02*
X153500952Y-88049488D01*
X153500952Y-88049488D02*
X153524762Y-88097107D01*
X153524762Y-88097107D02*
X153548571Y-88192345D01*
X153548571Y-88192345D02*
X153548571Y-88263773D01*
X153548571Y-88263773D02*
X153524762Y-88359011D01*
X153524762Y-88359011D02*
X153500952Y-88406630D01*
X153500952Y-88406630D02*
X153453333Y-88454250D01*
X153453333Y-88454250D02*
X153381905Y-88478059D01*
X153381905Y-88478059D02*
X153262857Y-88478059D01*
X153643810Y-88525678D02*
X154024762Y-88525678D01*
X154429523Y-88478059D02*
X154262857Y-88239964D01*
X154143809Y-88478059D02*
X154143809Y-87978059D01*
X154143809Y-87978059D02*
X154334285Y-87978059D01*
X154334285Y-87978059D02*
X154381904Y-88001869D01*
X154381904Y-88001869D02*
X154405714Y-88025678D01*
X154405714Y-88025678D02*
X154429523Y-88073297D01*
X154429523Y-88073297D02*
X154429523Y-88144726D01*
X154429523Y-88144726D02*
X154405714Y-88192345D01*
X154405714Y-88192345D02*
X154381904Y-88216154D01*
X154381904Y-88216154D02*
X154334285Y-88239964D01*
X154334285Y-88239964D02*
X154143809Y-88239964D01*
X154905714Y-88001869D02*
X154858095Y-87978059D01*
X154858095Y-87978059D02*
X154786666Y-87978059D01*
X154786666Y-87978059D02*
X154715238Y-88001869D01*
X154715238Y-88001869D02*
X154667619Y-88049488D01*
X154667619Y-88049488D02*
X154643809Y-88097107D01*
X154643809Y-88097107D02*
X154620000Y-88192345D01*
X154620000Y-88192345D02*
X154620000Y-88263773D01*
X154620000Y-88263773D02*
X154643809Y-88359011D01*
X154643809Y-88359011D02*
X154667619Y-88406630D01*
X154667619Y-88406630D02*
X154715238Y-88454250D01*
X154715238Y-88454250D02*
X154786666Y-88478059D01*
X154786666Y-88478059D02*
X154834285Y-88478059D01*
X154834285Y-88478059D02*
X154905714Y-88454250D01*
X154905714Y-88454250D02*
X154929523Y-88430440D01*
X154929523Y-88430440D02*
X154929523Y-88263773D01*
X154929523Y-88263773D02*
X154834285Y-88263773D01*
X155310476Y-88216154D02*
X155381904Y-88239964D01*
X155381904Y-88239964D02*
X155405714Y-88263773D01*
X155405714Y-88263773D02*
X155429523Y-88311392D01*
X155429523Y-88311392D02*
X155429523Y-88382821D01*
X155429523Y-88382821D02*
X155405714Y-88430440D01*
X155405714Y-88430440D02*
X155381904Y-88454250D01*
X155381904Y-88454250D02*
X155334285Y-88478059D01*
X155334285Y-88478059D02*
X155143809Y-88478059D01*
X155143809Y-88478059D02*
X155143809Y-87978059D01*
X155143809Y-87978059D02*
X155310476Y-87978059D01*
X155310476Y-87978059D02*
X155358095Y-88001869D01*
X155358095Y-88001869D02*
X155381904Y-88025678D01*
X155381904Y-88025678D02*
X155405714Y-88073297D01*
X155405714Y-88073297D02*
X155405714Y-88120916D01*
X155405714Y-88120916D02*
X155381904Y-88168535D01*
X155381904Y-88168535D02*
X155358095Y-88192345D01*
X155358095Y-88192345D02*
X155310476Y-88216154D01*
X155310476Y-88216154D02*
X155143809Y-88216154D01*
X155620000Y-88335202D02*
X155858095Y-88335202D01*
X155572381Y-88478059D02*
X155739047Y-87978059D01*
X155739047Y-87978059D02*
X155905714Y-88478059D01*
D10*
X136238095Y-114404819D02*
X136238095Y-113404819D01*
X136238095Y-113881009D02*
X136809523Y-113881009D01*
X136809523Y-114404819D02*
X136809523Y-113404819D01*
X137714285Y-113738152D02*
X137714285Y-114404819D01*
X137476190Y-113357200D02*
X137238095Y-114071485D01*
X137238095Y-114071485D02*
X137857142Y-114071485D01*
D12*
X168913671Y-95890000D02*
X168913671Y-96232857D01*
X168913671Y-96061428D02*
X168313671Y-96061428D01*
X168313671Y-96061428D02*
X168399385Y-96118571D01*
X168399385Y-96118571D02*
X168456528Y-96175714D01*
X168456528Y-96175714D02*
X168485100Y-96232857D01*
X168313671Y-95518571D02*
X168313671Y-95461428D01*
X168313671Y-95461428D02*
X168342242Y-95404285D01*
X168342242Y-95404285D02*
X168370814Y-95375714D01*
X168370814Y-95375714D02*
X168427957Y-95347142D01*
X168427957Y-95347142D02*
X168542242Y-95318571D01*
X168542242Y-95318571D02*
X168685100Y-95318571D01*
X168685100Y-95318571D02*
X168799385Y-95347142D01*
X168799385Y-95347142D02*
X168856528Y-95375714D01*
X168856528Y-95375714D02*
X168885100Y-95404285D01*
X168885100Y-95404285D02*
X168913671Y-95461428D01*
X168913671Y-95461428D02*
X168913671Y-95518571D01*
X168913671Y-95518571D02*
X168885100Y-95575714D01*
X168885100Y-95575714D02*
X168856528Y-95604285D01*
X168856528Y-95604285D02*
X168799385Y-95632856D01*
X168799385Y-95632856D02*
X168685100Y-95661428D01*
X168685100Y-95661428D02*
X168542242Y-95661428D01*
X168542242Y-95661428D02*
X168427957Y-95632856D01*
X168427957Y-95632856D02*
X168370814Y-95604285D01*
X168370814Y-95604285D02*
X168342242Y-95575714D01*
X168342242Y-95575714D02*
X168313671Y-95518571D01*
X168313671Y-94947142D02*
X168313671Y-94889999D01*
X168313671Y-94889999D02*
X168342242Y-94832856D01*
X168342242Y-94832856D02*
X168370814Y-94804285D01*
X168370814Y-94804285D02*
X168427957Y-94775713D01*
X168427957Y-94775713D02*
X168542242Y-94747142D01*
X168542242Y-94747142D02*
X168685100Y-94747142D01*
X168685100Y-94747142D02*
X168799385Y-94775713D01*
X168799385Y-94775713D02*
X168856528Y-94804285D01*
X168856528Y-94804285D02*
X168885100Y-94832856D01*
X168885100Y-94832856D02*
X168913671Y-94889999D01*
X168913671Y-94889999D02*
X168913671Y-94947142D01*
X168913671Y-94947142D02*
X168885100Y-95004285D01*
X168885100Y-95004285D02*
X168856528Y-95032856D01*
X168856528Y-95032856D02*
X168799385Y-95061427D01*
X168799385Y-95061427D02*
X168685100Y-95089999D01*
X168685100Y-95089999D02*
X168542242Y-95089999D01*
X168542242Y-95089999D02*
X168427957Y-95061427D01*
X168427957Y-95061427D02*
X168370814Y-95032856D01*
X168370814Y-95032856D02*
X168342242Y-95004285D01*
X168342242Y-95004285D02*
X168313671Y-94947142D01*
X168913671Y-94147141D02*
X168627957Y-94347141D01*
X168913671Y-94489998D02*
X168313671Y-94489998D01*
X168313671Y-94489998D02*
X168313671Y-94261427D01*
X168313671Y-94261427D02*
X168342242Y-94204284D01*
X168342242Y-94204284D02*
X168370814Y-94175713D01*
X168370814Y-94175713D02*
X168427957Y-94147141D01*
X168427957Y-94147141D02*
X168513671Y-94147141D01*
X168513671Y-94147141D02*
X168570814Y-94175713D01*
X168570814Y-94175713D02*
X168599385Y-94204284D01*
X168599385Y-94204284D02*
X168627957Y-94261427D01*
X168627957Y-94261427D02*
X168627957Y-94489998D01*
D13*
X169901927Y-95256666D02*
X169711451Y-95389999D01*
X169901927Y-95485237D02*
X169501927Y-95485237D01*
X169501927Y-95485237D02*
X169501927Y-95332856D01*
X169501927Y-95332856D02*
X169520975Y-95294761D01*
X169520975Y-95294761D02*
X169540022Y-95275714D01*
X169540022Y-95275714D02*
X169578118Y-95256666D01*
X169578118Y-95256666D02*
X169635260Y-95256666D01*
X169635260Y-95256666D02*
X169673356Y-95275714D01*
X169673356Y-95275714D02*
X169692403Y-95294761D01*
X169692403Y-95294761D02*
X169711451Y-95332856D01*
X169711451Y-95332856D02*
X169711451Y-95485237D01*
X169501927Y-95123333D02*
X169501927Y-94856666D01*
X169501927Y-94856666D02*
X169901927Y-95028095D01*
D10*
X176238095Y-114404819D02*
X176238095Y-113404819D01*
X176238095Y-113881009D02*
X176809523Y-113881009D01*
X176809523Y-114404819D02*
X176809523Y-113404819D01*
X177238095Y-113500057D02*
X177285714Y-113452438D01*
X177285714Y-113452438D02*
X177380952Y-113404819D01*
X177380952Y-113404819D02*
X177619047Y-113404819D01*
X177619047Y-113404819D02*
X177714285Y-113452438D01*
X177714285Y-113452438D02*
X177761904Y-113500057D01*
X177761904Y-113500057D02*
X177809523Y-113595295D01*
X177809523Y-113595295D02*
X177809523Y-113690533D01*
X177809523Y-113690533D02*
X177761904Y-113833390D01*
X177761904Y-113833390D02*
X177190476Y-114404819D01*
X177190476Y-114404819D02*
X177809523Y-114404819D01*
X136238095Y-90404819D02*
X136238095Y-89404819D01*
X136238095Y-89881009D02*
X136809523Y-89881009D01*
X136809523Y-90404819D02*
X136809523Y-89404819D01*
X137190476Y-89404819D02*
X137809523Y-89404819D01*
X137809523Y-89404819D02*
X137476190Y-89785771D01*
X137476190Y-89785771D02*
X137619047Y-89785771D01*
X137619047Y-89785771D02*
X137714285Y-89833390D01*
X137714285Y-89833390D02*
X137761904Y-89881009D01*
X137761904Y-89881009D02*
X137809523Y-89976247D01*
X137809523Y-89976247D02*
X137809523Y-90214342D01*
X137809523Y-90214342D02*
X137761904Y-90309580D01*
X137761904Y-90309580D02*
X137714285Y-90357200D01*
X137714285Y-90357200D02*
X137619047Y-90404819D01*
X137619047Y-90404819D02*
X137333333Y-90404819D01*
X137333333Y-90404819D02*
X137238095Y-90357200D01*
X137238095Y-90357200D02*
X137190476Y-90309580D01*
D18*
X212033044Y-176067417D02*
X212033044Y-174431657D01*
X212033044Y-174431657D02*
X212422511Y-174431657D01*
X212422511Y-174431657D02*
X212656191Y-174509550D01*
X212656191Y-174509550D02*
X212811978Y-174665337D01*
X212811978Y-174665337D02*
X212889871Y-174821124D01*
X212889871Y-174821124D02*
X212967764Y-175132697D01*
X212967764Y-175132697D02*
X212967764Y-175366377D01*
X212967764Y-175366377D02*
X212889871Y-175677950D01*
X212889871Y-175677950D02*
X212811978Y-175833737D01*
X212811978Y-175833737D02*
X212656191Y-175989524D01*
X212656191Y-175989524D02*
X212422511Y-176067417D01*
X212422511Y-176067417D02*
X212033044Y-176067417D01*
X214291951Y-175989524D02*
X214136164Y-176067417D01*
X214136164Y-176067417D02*
X213824591Y-176067417D01*
X213824591Y-176067417D02*
X213668804Y-175989524D01*
X213668804Y-175989524D02*
X213590911Y-175833737D01*
X213590911Y-175833737D02*
X213590911Y-175210590D01*
X213590911Y-175210590D02*
X213668804Y-175054804D01*
X213668804Y-175054804D02*
X213824591Y-174976910D01*
X213824591Y-174976910D02*
X214136164Y-174976910D01*
X214136164Y-174976910D02*
X214291951Y-175054804D01*
X214291951Y-175054804D02*
X214369844Y-175210590D01*
X214369844Y-175210590D02*
X214369844Y-175366377D01*
X214369844Y-175366377D02*
X213590911Y-175522164D01*
X214992991Y-175989524D02*
X215148778Y-176067417D01*
X215148778Y-176067417D02*
X215460351Y-176067417D01*
X215460351Y-176067417D02*
X215616138Y-175989524D01*
X215616138Y-175989524D02*
X215694031Y-175833737D01*
X215694031Y-175833737D02*
X215694031Y-175755844D01*
X215694031Y-175755844D02*
X215616138Y-175600057D01*
X215616138Y-175600057D02*
X215460351Y-175522164D01*
X215460351Y-175522164D02*
X215226671Y-175522164D01*
X215226671Y-175522164D02*
X215070884Y-175444270D01*
X215070884Y-175444270D02*
X214992991Y-175288484D01*
X214992991Y-175288484D02*
X214992991Y-175210590D01*
X214992991Y-175210590D02*
X215070884Y-175054804D01*
X215070884Y-175054804D02*
X215226671Y-174976910D01*
X215226671Y-174976910D02*
X215460351Y-174976910D01*
X215460351Y-174976910D02*
X215616138Y-175054804D01*
X216395071Y-176067417D02*
X216395071Y-174976910D01*
X216395071Y-174431657D02*
X216317178Y-174509550D01*
X216317178Y-174509550D02*
X216395071Y-174587444D01*
X216395071Y-174587444D02*
X216472965Y-174509550D01*
X216472965Y-174509550D02*
X216395071Y-174431657D01*
X216395071Y-174431657D02*
X216395071Y-174587444D01*
X217875044Y-174976910D02*
X217875044Y-176301097D01*
X217875044Y-176301097D02*
X217797151Y-176456884D01*
X217797151Y-176456884D02*
X217719258Y-176534777D01*
X217719258Y-176534777D02*
X217563471Y-176612670D01*
X217563471Y-176612670D02*
X217329791Y-176612670D01*
X217329791Y-176612670D02*
X217174004Y-176534777D01*
X217875044Y-175989524D02*
X217719258Y-176067417D01*
X217719258Y-176067417D02*
X217407684Y-176067417D01*
X217407684Y-176067417D02*
X217251898Y-175989524D01*
X217251898Y-175989524D02*
X217174004Y-175911630D01*
X217174004Y-175911630D02*
X217096111Y-175755844D01*
X217096111Y-175755844D02*
X217096111Y-175288484D01*
X217096111Y-175288484D02*
X217174004Y-175132697D01*
X217174004Y-175132697D02*
X217251898Y-175054804D01*
X217251898Y-175054804D02*
X217407684Y-174976910D01*
X217407684Y-174976910D02*
X217719258Y-174976910D01*
X217719258Y-174976910D02*
X217875044Y-175054804D01*
X218653977Y-174976910D02*
X218653977Y-176067417D01*
X218653977Y-175132697D02*
X218731871Y-175054804D01*
X218731871Y-175054804D02*
X218887657Y-174976910D01*
X218887657Y-174976910D02*
X219121337Y-174976910D01*
X219121337Y-174976910D02*
X219277124Y-175054804D01*
X219277124Y-175054804D02*
X219355017Y-175210590D01*
X219355017Y-175210590D02*
X219355017Y-176067417D01*
X220757097Y-175989524D02*
X220601310Y-176067417D01*
X220601310Y-176067417D02*
X220289737Y-176067417D01*
X220289737Y-176067417D02*
X220133950Y-175989524D01*
X220133950Y-175989524D02*
X220056057Y-175833737D01*
X220056057Y-175833737D02*
X220056057Y-175210590D01*
X220056057Y-175210590D02*
X220133950Y-175054804D01*
X220133950Y-175054804D02*
X220289737Y-174976910D01*
X220289737Y-174976910D02*
X220601310Y-174976910D01*
X220601310Y-174976910D02*
X220757097Y-175054804D01*
X220757097Y-175054804D02*
X220834990Y-175210590D01*
X220834990Y-175210590D02*
X220834990Y-175366377D01*
X220834990Y-175366377D02*
X220056057Y-175522164D01*
X222237070Y-176067417D02*
X222237070Y-174431657D01*
X222237070Y-175989524D02*
X222081284Y-176067417D01*
X222081284Y-176067417D02*
X221769710Y-176067417D01*
X221769710Y-176067417D02*
X221613924Y-175989524D01*
X221613924Y-175989524D02*
X221536030Y-175911630D01*
X221536030Y-175911630D02*
X221458137Y-175755844D01*
X221458137Y-175755844D02*
X221458137Y-175288484D01*
X221458137Y-175288484D02*
X221536030Y-175132697D01*
X221536030Y-175132697D02*
X221613924Y-175054804D01*
X221613924Y-175054804D02*
X221769710Y-174976910D01*
X221769710Y-174976910D02*
X222081284Y-174976910D01*
X222081284Y-174976910D02*
X222237070Y-175054804D01*
X224262296Y-176067417D02*
X224262296Y-174431657D01*
X224262296Y-175054804D02*
X224418083Y-174976910D01*
X224418083Y-174976910D02*
X224729656Y-174976910D01*
X224729656Y-174976910D02*
X224885443Y-175054804D01*
X224885443Y-175054804D02*
X224963336Y-175132697D01*
X224963336Y-175132697D02*
X225041230Y-175288484D01*
X225041230Y-175288484D02*
X225041230Y-175755844D01*
X225041230Y-175755844D02*
X224963336Y-175911630D01*
X224963336Y-175911630D02*
X224885443Y-175989524D01*
X224885443Y-175989524D02*
X224729656Y-176067417D01*
X224729656Y-176067417D02*
X224418083Y-176067417D01*
X224418083Y-176067417D02*
X224262296Y-175989524D01*
X225586483Y-174976910D02*
X225975949Y-176067417D01*
X226365416Y-174976910D02*
X225975949Y-176067417D01*
X225975949Y-176067417D02*
X225820163Y-176456884D01*
X225820163Y-176456884D02*
X225742269Y-176534777D01*
X225742269Y-176534777D02*
X225586483Y-176612670D01*
X226988562Y-175911630D02*
X227066456Y-175989524D01*
X227066456Y-175989524D02*
X226988562Y-176067417D01*
X226988562Y-176067417D02*
X226910669Y-175989524D01*
X226910669Y-175989524D02*
X226988562Y-175911630D01*
X226988562Y-175911630D02*
X226988562Y-176067417D01*
X226988562Y-175054804D02*
X227066456Y-175132697D01*
X227066456Y-175132697D02*
X226988562Y-175210590D01*
X226988562Y-175210590D02*
X226910669Y-175132697D01*
X226910669Y-175132697D02*
X226988562Y-175054804D01*
X226988562Y-175054804D02*
X226988562Y-175210590D01*
X181217764Y-170987417D02*
X180672511Y-170208484D01*
X180283044Y-170987417D02*
X180283044Y-169351657D01*
X180283044Y-169351657D02*
X180906191Y-169351657D01*
X180906191Y-169351657D02*
X181061978Y-169429550D01*
X181061978Y-169429550D02*
X181139871Y-169507444D01*
X181139871Y-169507444D02*
X181217764Y-169663230D01*
X181217764Y-169663230D02*
X181217764Y-169896910D01*
X181217764Y-169896910D02*
X181139871Y-170052697D01*
X181139871Y-170052697D02*
X181061978Y-170130590D01*
X181061978Y-170130590D02*
X180906191Y-170208484D01*
X180906191Y-170208484D02*
X180283044Y-170208484D01*
X182541951Y-170909524D02*
X182386164Y-170987417D01*
X182386164Y-170987417D02*
X182074591Y-170987417D01*
X182074591Y-170987417D02*
X181918804Y-170909524D01*
X181918804Y-170909524D02*
X181840911Y-170753737D01*
X181840911Y-170753737D02*
X181840911Y-170130590D01*
X181840911Y-170130590D02*
X181918804Y-169974804D01*
X181918804Y-169974804D02*
X182074591Y-169896910D01*
X182074591Y-169896910D02*
X182386164Y-169896910D01*
X182386164Y-169896910D02*
X182541951Y-169974804D01*
X182541951Y-169974804D02*
X182619844Y-170130590D01*
X182619844Y-170130590D02*
X182619844Y-170286377D01*
X182619844Y-170286377D02*
X181840911Y-170442164D01*
X183554564Y-170987417D02*
X183398778Y-170909524D01*
X183398778Y-170909524D02*
X183320884Y-170753737D01*
X183320884Y-170753737D02*
X183320884Y-169351657D01*
X184800858Y-170909524D02*
X184645071Y-170987417D01*
X184645071Y-170987417D02*
X184333498Y-170987417D01*
X184333498Y-170987417D02*
X184177711Y-170909524D01*
X184177711Y-170909524D02*
X184099818Y-170753737D01*
X184099818Y-170753737D02*
X184099818Y-170130590D01*
X184099818Y-170130590D02*
X184177711Y-169974804D01*
X184177711Y-169974804D02*
X184333498Y-169896910D01*
X184333498Y-169896910D02*
X184645071Y-169896910D01*
X184645071Y-169896910D02*
X184800858Y-169974804D01*
X184800858Y-169974804D02*
X184878751Y-170130590D01*
X184878751Y-170130590D02*
X184878751Y-170286377D01*
X184878751Y-170286377D02*
X184099818Y-170442164D01*
X186280831Y-170987417D02*
X186280831Y-170130590D01*
X186280831Y-170130590D02*
X186202938Y-169974804D01*
X186202938Y-169974804D02*
X186047151Y-169896910D01*
X186047151Y-169896910D02*
X185735578Y-169896910D01*
X185735578Y-169896910D02*
X185579791Y-169974804D01*
X186280831Y-170909524D02*
X186125045Y-170987417D01*
X186125045Y-170987417D02*
X185735578Y-170987417D01*
X185735578Y-170987417D02*
X185579791Y-170909524D01*
X185579791Y-170909524D02*
X185501898Y-170753737D01*
X185501898Y-170753737D02*
X185501898Y-170597950D01*
X185501898Y-170597950D02*
X185579791Y-170442164D01*
X185579791Y-170442164D02*
X185735578Y-170364270D01*
X185735578Y-170364270D02*
X186125045Y-170364270D01*
X186125045Y-170364270D02*
X186280831Y-170286377D01*
X186981871Y-170909524D02*
X187137658Y-170987417D01*
X187137658Y-170987417D02*
X187449231Y-170987417D01*
X187449231Y-170987417D02*
X187605018Y-170909524D01*
X187605018Y-170909524D02*
X187682911Y-170753737D01*
X187682911Y-170753737D02*
X187682911Y-170675844D01*
X187682911Y-170675844D02*
X187605018Y-170520057D01*
X187605018Y-170520057D02*
X187449231Y-170442164D01*
X187449231Y-170442164D02*
X187215551Y-170442164D01*
X187215551Y-170442164D02*
X187059764Y-170364270D01*
X187059764Y-170364270D02*
X186981871Y-170208484D01*
X186981871Y-170208484D02*
X186981871Y-170130590D01*
X186981871Y-170130590D02*
X187059764Y-169974804D01*
X187059764Y-169974804D02*
X187215551Y-169896910D01*
X187215551Y-169896910D02*
X187449231Y-169896910D01*
X187449231Y-169896910D02*
X187605018Y-169974804D01*
X189007098Y-170909524D02*
X188851311Y-170987417D01*
X188851311Y-170987417D02*
X188539738Y-170987417D01*
X188539738Y-170987417D02*
X188383951Y-170909524D01*
X188383951Y-170909524D02*
X188306058Y-170753737D01*
X188306058Y-170753737D02*
X188306058Y-170130590D01*
X188306058Y-170130590D02*
X188383951Y-169974804D01*
X188383951Y-169974804D02*
X188539738Y-169896910D01*
X188539738Y-169896910D02*
X188851311Y-169896910D01*
X188851311Y-169896910D02*
X189007098Y-169974804D01*
X189007098Y-169974804D02*
X189084991Y-170130590D01*
X189084991Y-170130590D02*
X189084991Y-170286377D01*
X189084991Y-170286377D02*
X188306058Y-170442164D01*
X190487071Y-170987417D02*
X190487071Y-169351657D01*
X190487071Y-170909524D02*
X190331285Y-170987417D01*
X190331285Y-170987417D02*
X190019711Y-170987417D01*
X190019711Y-170987417D02*
X189863925Y-170909524D01*
X189863925Y-170909524D02*
X189786031Y-170831630D01*
X189786031Y-170831630D02*
X189708138Y-170675844D01*
X189708138Y-170675844D02*
X189708138Y-170208484D01*
X189708138Y-170208484D02*
X189786031Y-170052697D01*
X189786031Y-170052697D02*
X189863925Y-169974804D01*
X189863925Y-169974804D02*
X190019711Y-169896910D01*
X190019711Y-169896910D02*
X190331285Y-169896910D01*
X190331285Y-169896910D02*
X190487071Y-169974804D01*
X193213337Y-169896910D02*
X193213337Y-170987417D01*
X192512297Y-169896910D02*
X192512297Y-170753737D01*
X192512297Y-170753737D02*
X192590191Y-170909524D01*
X192590191Y-170909524D02*
X192745977Y-170987417D01*
X192745977Y-170987417D02*
X192979657Y-170987417D01*
X192979657Y-170987417D02*
X193135444Y-170909524D01*
X193135444Y-170909524D02*
X193213337Y-170831630D01*
X193992270Y-169896910D02*
X193992270Y-170987417D01*
X193992270Y-170052697D02*
X194070164Y-169974804D01*
X194070164Y-169974804D02*
X194225950Y-169896910D01*
X194225950Y-169896910D02*
X194459630Y-169896910D01*
X194459630Y-169896910D02*
X194615417Y-169974804D01*
X194615417Y-169974804D02*
X194693310Y-170130590D01*
X194693310Y-170130590D02*
X194693310Y-170987417D01*
X196173283Y-170987417D02*
X196173283Y-169351657D01*
X196173283Y-170909524D02*
X196017497Y-170987417D01*
X196017497Y-170987417D02*
X195705923Y-170987417D01*
X195705923Y-170987417D02*
X195550137Y-170909524D01*
X195550137Y-170909524D02*
X195472243Y-170831630D01*
X195472243Y-170831630D02*
X195394350Y-170675844D01*
X195394350Y-170675844D02*
X195394350Y-170208484D01*
X195394350Y-170208484D02*
X195472243Y-170052697D01*
X195472243Y-170052697D02*
X195550137Y-169974804D01*
X195550137Y-169974804D02*
X195705923Y-169896910D01*
X195705923Y-169896910D02*
X196017497Y-169896910D01*
X196017497Y-169896910D02*
X196173283Y-169974804D01*
X197575363Y-170909524D02*
X197419576Y-170987417D01*
X197419576Y-170987417D02*
X197108003Y-170987417D01*
X197108003Y-170987417D02*
X196952216Y-170909524D01*
X196952216Y-170909524D02*
X196874323Y-170753737D01*
X196874323Y-170753737D02*
X196874323Y-170130590D01*
X196874323Y-170130590D02*
X196952216Y-169974804D01*
X196952216Y-169974804D02*
X197108003Y-169896910D01*
X197108003Y-169896910D02*
X197419576Y-169896910D01*
X197419576Y-169896910D02*
X197575363Y-169974804D01*
X197575363Y-169974804D02*
X197653256Y-170130590D01*
X197653256Y-170130590D02*
X197653256Y-170286377D01*
X197653256Y-170286377D02*
X196874323Y-170442164D01*
X198354296Y-170987417D02*
X198354296Y-169896910D01*
X198354296Y-170208484D02*
X198432190Y-170052697D01*
X198432190Y-170052697D02*
X198510083Y-169974804D01*
X198510083Y-169974804D02*
X198665870Y-169896910D01*
X198665870Y-169896910D02*
X198821656Y-169896910D01*
X200379522Y-169896910D02*
X201002669Y-169896910D01*
X200613202Y-169351657D02*
X200613202Y-170753737D01*
X200613202Y-170753737D02*
X200691096Y-170909524D01*
X200691096Y-170909524D02*
X200846882Y-170987417D01*
X200846882Y-170987417D02*
X201002669Y-170987417D01*
X201547922Y-170987417D02*
X201547922Y-169351657D01*
X202248962Y-170987417D02*
X202248962Y-170130590D01*
X202248962Y-170130590D02*
X202171069Y-169974804D01*
X202171069Y-169974804D02*
X202015282Y-169896910D01*
X202015282Y-169896910D02*
X201781602Y-169896910D01*
X201781602Y-169896910D02*
X201625816Y-169974804D01*
X201625816Y-169974804D02*
X201547922Y-170052697D01*
X203651042Y-170909524D02*
X203495255Y-170987417D01*
X203495255Y-170987417D02*
X203183682Y-170987417D01*
X203183682Y-170987417D02*
X203027895Y-170909524D01*
X203027895Y-170909524D02*
X202950002Y-170753737D01*
X202950002Y-170753737D02*
X202950002Y-170130590D01*
X202950002Y-170130590D02*
X203027895Y-169974804D01*
X203027895Y-169974804D02*
X203183682Y-169896910D01*
X203183682Y-169896910D02*
X203495255Y-169896910D01*
X203495255Y-169896910D02*
X203651042Y-169974804D01*
X203651042Y-169974804D02*
X203728935Y-170130590D01*
X203728935Y-170130590D02*
X203728935Y-170286377D01*
X203728935Y-170286377D02*
X202950002Y-170442164D01*
X206610988Y-170831630D02*
X206533095Y-170909524D01*
X206533095Y-170909524D02*
X206299415Y-170987417D01*
X206299415Y-170987417D02*
X206143628Y-170987417D01*
X206143628Y-170987417D02*
X205909948Y-170909524D01*
X205909948Y-170909524D02*
X205754162Y-170753737D01*
X205754162Y-170753737D02*
X205676268Y-170597950D01*
X205676268Y-170597950D02*
X205598375Y-170286377D01*
X205598375Y-170286377D02*
X205598375Y-170052697D01*
X205598375Y-170052697D02*
X205676268Y-169741124D01*
X205676268Y-169741124D02*
X205754162Y-169585337D01*
X205754162Y-169585337D02*
X205909948Y-169429550D01*
X205909948Y-169429550D02*
X206143628Y-169351657D01*
X206143628Y-169351657D02*
X206299415Y-169351657D01*
X206299415Y-169351657D02*
X206533095Y-169429550D01*
X206533095Y-169429550D02*
X206610988Y-169507444D01*
X207312028Y-170987417D02*
X207312028Y-169896910D01*
X207312028Y-170208484D02*
X207389922Y-170052697D01*
X207389922Y-170052697D02*
X207467815Y-169974804D01*
X207467815Y-169974804D02*
X207623602Y-169896910D01*
X207623602Y-169896910D02*
X207779388Y-169896910D01*
X208947788Y-170909524D02*
X208792001Y-170987417D01*
X208792001Y-170987417D02*
X208480428Y-170987417D01*
X208480428Y-170987417D02*
X208324641Y-170909524D01*
X208324641Y-170909524D02*
X208246748Y-170753737D01*
X208246748Y-170753737D02*
X208246748Y-170130590D01*
X208246748Y-170130590D02*
X208324641Y-169974804D01*
X208324641Y-169974804D02*
X208480428Y-169896910D01*
X208480428Y-169896910D02*
X208792001Y-169896910D01*
X208792001Y-169896910D02*
X208947788Y-169974804D01*
X208947788Y-169974804D02*
X209025681Y-170130590D01*
X209025681Y-170130590D02*
X209025681Y-170286377D01*
X209025681Y-170286377D02*
X208246748Y-170442164D01*
X210427761Y-170987417D02*
X210427761Y-170130590D01*
X210427761Y-170130590D02*
X210349868Y-169974804D01*
X210349868Y-169974804D02*
X210194081Y-169896910D01*
X210194081Y-169896910D02*
X209882508Y-169896910D01*
X209882508Y-169896910D02*
X209726721Y-169974804D01*
X210427761Y-170909524D02*
X210271975Y-170987417D01*
X210271975Y-170987417D02*
X209882508Y-170987417D01*
X209882508Y-170987417D02*
X209726721Y-170909524D01*
X209726721Y-170909524D02*
X209648828Y-170753737D01*
X209648828Y-170753737D02*
X209648828Y-170597950D01*
X209648828Y-170597950D02*
X209726721Y-170442164D01*
X209726721Y-170442164D02*
X209882508Y-170364270D01*
X209882508Y-170364270D02*
X210271975Y-170364270D01*
X210271975Y-170364270D02*
X210427761Y-170286377D01*
X210973014Y-169896910D02*
X211596161Y-169896910D01*
X211206694Y-169351657D02*
X211206694Y-170753737D01*
X211206694Y-170753737D02*
X211284588Y-170909524D01*
X211284588Y-170909524D02*
X211440374Y-170987417D01*
X211440374Y-170987417D02*
X211596161Y-170987417D01*
X212141414Y-170987417D02*
X212141414Y-169896910D01*
X212141414Y-169351657D02*
X212063521Y-169429550D01*
X212063521Y-169429550D02*
X212141414Y-169507444D01*
X212141414Y-169507444D02*
X212219308Y-169429550D01*
X212219308Y-169429550D02*
X212141414Y-169351657D01*
X212141414Y-169351657D02*
X212141414Y-169507444D01*
X212764561Y-169896910D02*
X213154027Y-170987417D01*
X213154027Y-170987417D02*
X213543494Y-169896910D01*
X214789787Y-170909524D02*
X214634000Y-170987417D01*
X214634000Y-170987417D02*
X214322427Y-170987417D01*
X214322427Y-170987417D02*
X214166640Y-170909524D01*
X214166640Y-170909524D02*
X214088747Y-170753737D01*
X214088747Y-170753737D02*
X214088747Y-170130590D01*
X214088747Y-170130590D02*
X214166640Y-169974804D01*
X214166640Y-169974804D02*
X214322427Y-169896910D01*
X214322427Y-169896910D02*
X214634000Y-169896910D01*
X214634000Y-169896910D02*
X214789787Y-169974804D01*
X214789787Y-169974804D02*
X214867680Y-170130590D01*
X214867680Y-170130590D02*
X214867680Y-170286377D01*
X214867680Y-170286377D02*
X214088747Y-170442164D01*
X217749733Y-170831630D02*
X217671840Y-170909524D01*
X217671840Y-170909524D02*
X217438160Y-170987417D01*
X217438160Y-170987417D02*
X217282373Y-170987417D01*
X217282373Y-170987417D02*
X217048693Y-170909524D01*
X217048693Y-170909524D02*
X216892907Y-170753737D01*
X216892907Y-170753737D02*
X216815013Y-170597950D01*
X216815013Y-170597950D02*
X216737120Y-170286377D01*
X216737120Y-170286377D02*
X216737120Y-170052697D01*
X216737120Y-170052697D02*
X216815013Y-169741124D01*
X216815013Y-169741124D02*
X216892907Y-169585337D01*
X216892907Y-169585337D02*
X217048693Y-169429550D01*
X217048693Y-169429550D02*
X217282373Y-169351657D01*
X217282373Y-169351657D02*
X217438160Y-169351657D01*
X217438160Y-169351657D02*
X217671840Y-169429550D01*
X217671840Y-169429550D02*
X217749733Y-169507444D01*
X218684453Y-170987417D02*
X218528667Y-170909524D01*
X218528667Y-170909524D02*
X218450773Y-170831630D01*
X218450773Y-170831630D02*
X218372880Y-170675844D01*
X218372880Y-170675844D02*
X218372880Y-170208484D01*
X218372880Y-170208484D02*
X218450773Y-170052697D01*
X218450773Y-170052697D02*
X218528667Y-169974804D01*
X218528667Y-169974804D02*
X218684453Y-169896910D01*
X218684453Y-169896910D02*
X218918133Y-169896910D01*
X218918133Y-169896910D02*
X219073920Y-169974804D01*
X219073920Y-169974804D02*
X219151813Y-170052697D01*
X219151813Y-170052697D02*
X219229707Y-170208484D01*
X219229707Y-170208484D02*
X219229707Y-170675844D01*
X219229707Y-170675844D02*
X219151813Y-170831630D01*
X219151813Y-170831630D02*
X219073920Y-170909524D01*
X219073920Y-170909524D02*
X218918133Y-170987417D01*
X218918133Y-170987417D02*
X218684453Y-170987417D01*
X219930746Y-170987417D02*
X219930746Y-169896910D01*
X219930746Y-170052697D02*
X220008640Y-169974804D01*
X220008640Y-169974804D02*
X220164426Y-169896910D01*
X220164426Y-169896910D02*
X220398106Y-169896910D01*
X220398106Y-169896910D02*
X220553893Y-169974804D01*
X220553893Y-169974804D02*
X220631786Y-170130590D01*
X220631786Y-170130590D02*
X220631786Y-170987417D01*
X220631786Y-170130590D02*
X220709680Y-169974804D01*
X220709680Y-169974804D02*
X220865466Y-169896910D01*
X220865466Y-169896910D02*
X221099146Y-169896910D01*
X221099146Y-169896910D02*
X221254933Y-169974804D01*
X221254933Y-169974804D02*
X221332826Y-170130590D01*
X221332826Y-170130590D02*
X221332826Y-170987417D01*
X222111759Y-170987417D02*
X222111759Y-169896910D01*
X222111759Y-170052697D02*
X222189653Y-169974804D01*
X222189653Y-169974804D02*
X222345439Y-169896910D01*
X222345439Y-169896910D02*
X222579119Y-169896910D01*
X222579119Y-169896910D02*
X222734906Y-169974804D01*
X222734906Y-169974804D02*
X222812799Y-170130590D01*
X222812799Y-170130590D02*
X222812799Y-170987417D01*
X222812799Y-170130590D02*
X222890693Y-169974804D01*
X222890693Y-169974804D02*
X223046479Y-169896910D01*
X223046479Y-169896910D02*
X223280159Y-169896910D01*
X223280159Y-169896910D02*
X223435946Y-169974804D01*
X223435946Y-169974804D02*
X223513839Y-170130590D01*
X223513839Y-170130590D02*
X223513839Y-170987417D01*
X224526452Y-170987417D02*
X224370666Y-170909524D01*
X224370666Y-170909524D02*
X224292772Y-170831630D01*
X224292772Y-170831630D02*
X224214879Y-170675844D01*
X224214879Y-170675844D02*
X224214879Y-170208484D01*
X224214879Y-170208484D02*
X224292772Y-170052697D01*
X224292772Y-170052697D02*
X224370666Y-169974804D01*
X224370666Y-169974804D02*
X224526452Y-169896910D01*
X224526452Y-169896910D02*
X224760132Y-169896910D01*
X224760132Y-169896910D02*
X224915919Y-169974804D01*
X224915919Y-169974804D02*
X224993812Y-170052697D01*
X224993812Y-170052697D02*
X225071706Y-170208484D01*
X225071706Y-170208484D02*
X225071706Y-170675844D01*
X225071706Y-170675844D02*
X224993812Y-170831630D01*
X224993812Y-170831630D02*
X224915919Y-170909524D01*
X224915919Y-170909524D02*
X224760132Y-170987417D01*
X224760132Y-170987417D02*
X224526452Y-170987417D01*
X225772745Y-169896910D02*
X225772745Y-170987417D01*
X225772745Y-170052697D02*
X225850639Y-169974804D01*
X225850639Y-169974804D02*
X226006425Y-169896910D01*
X226006425Y-169896910D02*
X226240105Y-169896910D01*
X226240105Y-169896910D02*
X226395892Y-169974804D01*
X226395892Y-169974804D02*
X226473785Y-170130590D01*
X226473785Y-170130590D02*
X226473785Y-170987417D01*
X227174825Y-170909524D02*
X227330612Y-170987417D01*
X227330612Y-170987417D02*
X227642185Y-170987417D01*
X227642185Y-170987417D02*
X227797972Y-170909524D01*
X227797972Y-170909524D02*
X227875865Y-170753737D01*
X227875865Y-170753737D02*
X227875865Y-170675844D01*
X227875865Y-170675844D02*
X227797972Y-170520057D01*
X227797972Y-170520057D02*
X227642185Y-170442164D01*
X227642185Y-170442164D02*
X227408505Y-170442164D01*
X227408505Y-170442164D02*
X227252718Y-170364270D01*
X227252718Y-170364270D02*
X227174825Y-170208484D01*
X227174825Y-170208484D02*
X227174825Y-170130590D01*
X227174825Y-170130590D02*
X227252718Y-169974804D01*
X227252718Y-169974804D02*
X227408505Y-169896910D01*
X227408505Y-169896910D02*
X227642185Y-169896910D01*
X227642185Y-169896910D02*
X227797972Y-169974804D01*
X229745305Y-170520057D02*
X230524238Y-170520057D01*
X229589518Y-170987417D02*
X230134772Y-169351657D01*
X230134772Y-169351657D02*
X230680025Y-170987417D01*
X230991598Y-169896910D02*
X231614745Y-169896910D01*
X231225278Y-169351657D02*
X231225278Y-170753737D01*
X231225278Y-170753737D02*
X231303172Y-170909524D01*
X231303172Y-170909524D02*
X231458958Y-170987417D01*
X231458958Y-170987417D02*
X231614745Y-170987417D01*
X231926318Y-169896910D02*
X232549465Y-169896910D01*
X232159998Y-169351657D02*
X232159998Y-170753737D01*
X232159998Y-170753737D02*
X232237892Y-170909524D01*
X232237892Y-170909524D02*
X232393678Y-170987417D01*
X232393678Y-170987417D02*
X232549465Y-170987417D01*
X233094718Y-170987417D02*
X233094718Y-169896910D01*
X233094718Y-170208484D02*
X233172612Y-170052697D01*
X233172612Y-170052697D02*
X233250505Y-169974804D01*
X233250505Y-169974804D02*
X233406292Y-169896910D01*
X233406292Y-169896910D02*
X233562078Y-169896910D01*
X234107331Y-170987417D02*
X234107331Y-169896910D01*
X234107331Y-169351657D02*
X234029438Y-169429550D01*
X234029438Y-169429550D02*
X234107331Y-169507444D01*
X234107331Y-169507444D02*
X234185225Y-169429550D01*
X234185225Y-169429550D02*
X234107331Y-169351657D01*
X234107331Y-169351657D02*
X234107331Y-169507444D01*
X234886264Y-170987417D02*
X234886264Y-169351657D01*
X234886264Y-169974804D02*
X235042051Y-169896910D01*
X235042051Y-169896910D02*
X235353624Y-169896910D01*
X235353624Y-169896910D02*
X235509411Y-169974804D01*
X235509411Y-169974804D02*
X235587304Y-170052697D01*
X235587304Y-170052697D02*
X235665198Y-170208484D01*
X235665198Y-170208484D02*
X235665198Y-170675844D01*
X235665198Y-170675844D02*
X235587304Y-170831630D01*
X235587304Y-170831630D02*
X235509411Y-170909524D01*
X235509411Y-170909524D02*
X235353624Y-170987417D01*
X235353624Y-170987417D02*
X235042051Y-170987417D01*
X235042051Y-170987417D02*
X234886264Y-170909524D01*
X237067277Y-169896910D02*
X237067277Y-170987417D01*
X236366237Y-169896910D02*
X236366237Y-170753737D01*
X236366237Y-170753737D02*
X236444131Y-170909524D01*
X236444131Y-170909524D02*
X236599917Y-170987417D01*
X236599917Y-170987417D02*
X236833597Y-170987417D01*
X236833597Y-170987417D02*
X236989384Y-170909524D01*
X236989384Y-170909524D02*
X237067277Y-170831630D01*
X237612530Y-169896910D02*
X238235677Y-169896910D01*
X237846210Y-169351657D02*
X237846210Y-170753737D01*
X237846210Y-170753737D02*
X237924104Y-170909524D01*
X237924104Y-170909524D02*
X238079890Y-170987417D01*
X238079890Y-170987417D02*
X238235677Y-170987417D01*
X238780930Y-170987417D02*
X238780930Y-169896910D01*
X238780930Y-169351657D02*
X238703037Y-169429550D01*
X238703037Y-169429550D02*
X238780930Y-169507444D01*
X238780930Y-169507444D02*
X238858824Y-169429550D01*
X238858824Y-169429550D02*
X238780930Y-169351657D01*
X238780930Y-169351657D02*
X238780930Y-169507444D01*
X239793543Y-170987417D02*
X239637757Y-170909524D01*
X239637757Y-170909524D02*
X239559863Y-170831630D01*
X239559863Y-170831630D02*
X239481970Y-170675844D01*
X239481970Y-170675844D02*
X239481970Y-170208484D01*
X239481970Y-170208484D02*
X239559863Y-170052697D01*
X239559863Y-170052697D02*
X239637757Y-169974804D01*
X239637757Y-169974804D02*
X239793543Y-169896910D01*
X239793543Y-169896910D02*
X240027223Y-169896910D01*
X240027223Y-169896910D02*
X240183010Y-169974804D01*
X240183010Y-169974804D02*
X240260903Y-170052697D01*
X240260903Y-170052697D02*
X240338797Y-170208484D01*
X240338797Y-170208484D02*
X240338797Y-170675844D01*
X240338797Y-170675844D02*
X240260903Y-170831630D01*
X240260903Y-170831630D02*
X240183010Y-170909524D01*
X240183010Y-170909524D02*
X240027223Y-170987417D01*
X240027223Y-170987417D02*
X239793543Y-170987417D01*
X241039836Y-169896910D02*
X241039836Y-170987417D01*
X241039836Y-170052697D02*
X241117730Y-169974804D01*
X241117730Y-169974804D02*
X241273516Y-169896910D01*
X241273516Y-169896910D02*
X241507196Y-169896910D01*
X241507196Y-169896910D02*
X241662983Y-169974804D01*
X241662983Y-169974804D02*
X241740876Y-170130590D01*
X241740876Y-170130590D02*
X241740876Y-170987417D01*
X243688209Y-170909524D02*
X243921889Y-170987417D01*
X243921889Y-170987417D02*
X244311356Y-170987417D01*
X244311356Y-170987417D02*
X244467142Y-170909524D01*
X244467142Y-170909524D02*
X244545036Y-170831630D01*
X244545036Y-170831630D02*
X244622929Y-170675844D01*
X244622929Y-170675844D02*
X244622929Y-170520057D01*
X244622929Y-170520057D02*
X244545036Y-170364270D01*
X244545036Y-170364270D02*
X244467142Y-170286377D01*
X244467142Y-170286377D02*
X244311356Y-170208484D01*
X244311356Y-170208484D02*
X243999782Y-170130590D01*
X243999782Y-170130590D02*
X243843996Y-170052697D01*
X243843996Y-170052697D02*
X243766102Y-169974804D01*
X243766102Y-169974804D02*
X243688209Y-169819017D01*
X243688209Y-169819017D02*
X243688209Y-169663230D01*
X243688209Y-169663230D02*
X243766102Y-169507444D01*
X243766102Y-169507444D02*
X243843996Y-169429550D01*
X243843996Y-169429550D02*
X243999782Y-169351657D01*
X243999782Y-169351657D02*
X244389249Y-169351657D01*
X244389249Y-169351657D02*
X244622929Y-169429550D01*
X245323969Y-170987417D02*
X245323969Y-169351657D01*
X246025009Y-170987417D02*
X246025009Y-170130590D01*
X246025009Y-170130590D02*
X245947116Y-169974804D01*
X245947116Y-169974804D02*
X245791329Y-169896910D01*
X245791329Y-169896910D02*
X245557649Y-169896910D01*
X245557649Y-169896910D02*
X245401863Y-169974804D01*
X245401863Y-169974804D02*
X245323969Y-170052697D01*
X247504982Y-170987417D02*
X247504982Y-170130590D01*
X247504982Y-170130590D02*
X247427089Y-169974804D01*
X247427089Y-169974804D02*
X247271302Y-169896910D01*
X247271302Y-169896910D02*
X246959729Y-169896910D01*
X246959729Y-169896910D02*
X246803942Y-169974804D01*
X247504982Y-170909524D02*
X247349196Y-170987417D01*
X247349196Y-170987417D02*
X246959729Y-170987417D01*
X246959729Y-170987417D02*
X246803942Y-170909524D01*
X246803942Y-170909524D02*
X246726049Y-170753737D01*
X246726049Y-170753737D02*
X246726049Y-170597950D01*
X246726049Y-170597950D02*
X246803942Y-170442164D01*
X246803942Y-170442164D02*
X246959729Y-170364270D01*
X246959729Y-170364270D02*
X247349196Y-170364270D01*
X247349196Y-170364270D02*
X247504982Y-170286377D01*
X248283915Y-170987417D02*
X248283915Y-169896910D01*
X248283915Y-170208484D02*
X248361809Y-170052697D01*
X248361809Y-170052697D02*
X248439702Y-169974804D01*
X248439702Y-169974804D02*
X248595489Y-169896910D01*
X248595489Y-169896910D02*
X248751275Y-169896910D01*
X249919675Y-170909524D02*
X249763888Y-170987417D01*
X249763888Y-170987417D02*
X249452315Y-170987417D01*
X249452315Y-170987417D02*
X249296528Y-170909524D01*
X249296528Y-170909524D02*
X249218635Y-170753737D01*
X249218635Y-170753737D02*
X249218635Y-170130590D01*
X249218635Y-170130590D02*
X249296528Y-169974804D01*
X249296528Y-169974804D02*
X249452315Y-169896910D01*
X249452315Y-169896910D02*
X249763888Y-169896910D01*
X249763888Y-169896910D02*
X249919675Y-169974804D01*
X249919675Y-169974804D02*
X249997568Y-170130590D01*
X249997568Y-170130590D02*
X249997568Y-170286377D01*
X249997568Y-170286377D02*
X249218635Y-170442164D01*
X250698608Y-170364270D02*
X251944902Y-170364270D01*
X252645942Y-170520057D02*
X253424875Y-170520057D01*
X252490155Y-170987417D02*
X253035409Y-169351657D01*
X253035409Y-169351657D02*
X253580662Y-170987417D01*
X254359595Y-170987417D02*
X254203809Y-170909524D01*
X254203809Y-170909524D02*
X254125915Y-170753737D01*
X254125915Y-170753737D02*
X254125915Y-169351657D01*
X254982742Y-170987417D02*
X254982742Y-169896910D01*
X254982742Y-169351657D02*
X254904849Y-169429550D01*
X254904849Y-169429550D02*
X254982742Y-169507444D01*
X254982742Y-169507444D02*
X255060636Y-169429550D01*
X255060636Y-169429550D02*
X254982742Y-169351657D01*
X254982742Y-169351657D02*
X254982742Y-169507444D01*
X255761675Y-170987417D02*
X255761675Y-169351657D01*
X255917462Y-170364270D02*
X256384822Y-170987417D01*
X256384822Y-169896910D02*
X255761675Y-170520057D01*
X257709009Y-170909524D02*
X257553222Y-170987417D01*
X257553222Y-170987417D02*
X257241649Y-170987417D01*
X257241649Y-170987417D02*
X257085862Y-170909524D01*
X257085862Y-170909524D02*
X257007969Y-170753737D01*
X257007969Y-170753737D02*
X257007969Y-170130590D01*
X257007969Y-170130590D02*
X257085862Y-169974804D01*
X257085862Y-169974804D02*
X257241649Y-169896910D01*
X257241649Y-169896910D02*
X257553222Y-169896910D01*
X257553222Y-169896910D02*
X257709009Y-169974804D01*
X257709009Y-169974804D02*
X257786902Y-170130590D01*
X257786902Y-170130590D02*
X257786902Y-170286377D01*
X257786902Y-170286377D02*
X257007969Y-170442164D01*
X260435275Y-169896910D02*
X260435275Y-170987417D01*
X260045809Y-169273764D02*
X259656342Y-170442164D01*
X259656342Y-170442164D02*
X260668955Y-170442164D01*
X261292102Y-170831630D02*
X261369996Y-170909524D01*
X261369996Y-170909524D02*
X261292102Y-170987417D01*
X261292102Y-170987417D02*
X261214209Y-170909524D01*
X261214209Y-170909524D02*
X261292102Y-170831630D01*
X261292102Y-170831630D02*
X261292102Y-170987417D01*
X262382609Y-169351657D02*
X262538395Y-169351657D01*
X262538395Y-169351657D02*
X262694182Y-169429550D01*
X262694182Y-169429550D02*
X262772075Y-169507444D01*
X262772075Y-169507444D02*
X262849969Y-169663230D01*
X262849969Y-169663230D02*
X262927862Y-169974804D01*
X262927862Y-169974804D02*
X262927862Y-170364270D01*
X262927862Y-170364270D02*
X262849969Y-170675844D01*
X262849969Y-170675844D02*
X262772075Y-170831630D01*
X262772075Y-170831630D02*
X262694182Y-170909524D01*
X262694182Y-170909524D02*
X262538395Y-170987417D01*
X262538395Y-170987417D02*
X262382609Y-170987417D01*
X262382609Y-170987417D02*
X262226822Y-170909524D01*
X262226822Y-170909524D02*
X262148929Y-170831630D01*
X262148929Y-170831630D02*
X262071035Y-170675844D01*
X262071035Y-170675844D02*
X261993142Y-170364270D01*
X261993142Y-170364270D02*
X261993142Y-169974804D01*
X261993142Y-169974804D02*
X262071035Y-169663230D01*
X262071035Y-169663230D02*
X262148929Y-169507444D01*
X262148929Y-169507444D02*
X262226822Y-169429550D01*
X262226822Y-169429550D02*
X262382609Y-169351657D01*
X265654129Y-170987417D02*
X264875195Y-170987417D01*
X264875195Y-170987417D02*
X264875195Y-169351657D01*
X266199382Y-170987417D02*
X266199382Y-169896910D01*
X266199382Y-169351657D02*
X266121489Y-169429550D01*
X266121489Y-169429550D02*
X266199382Y-169507444D01*
X266199382Y-169507444D02*
X266277276Y-169429550D01*
X266277276Y-169429550D02*
X266199382Y-169351657D01*
X266199382Y-169351657D02*
X266199382Y-169507444D01*
X267679355Y-170909524D02*
X267523569Y-170987417D01*
X267523569Y-170987417D02*
X267211995Y-170987417D01*
X267211995Y-170987417D02*
X267056209Y-170909524D01*
X267056209Y-170909524D02*
X266978315Y-170831630D01*
X266978315Y-170831630D02*
X266900422Y-170675844D01*
X266900422Y-170675844D02*
X266900422Y-170208484D01*
X266900422Y-170208484D02*
X266978315Y-170052697D01*
X266978315Y-170052697D02*
X267056209Y-169974804D01*
X267056209Y-169974804D02*
X267211995Y-169896910D01*
X267211995Y-169896910D02*
X267523569Y-169896910D01*
X267523569Y-169896910D02*
X267679355Y-169974804D01*
X269003542Y-170909524D02*
X268847755Y-170987417D01*
X268847755Y-170987417D02*
X268536182Y-170987417D01*
X268536182Y-170987417D02*
X268380395Y-170909524D01*
X268380395Y-170909524D02*
X268302502Y-170753737D01*
X268302502Y-170753737D02*
X268302502Y-170130590D01*
X268302502Y-170130590D02*
X268380395Y-169974804D01*
X268380395Y-169974804D02*
X268536182Y-169896910D01*
X268536182Y-169896910D02*
X268847755Y-169896910D01*
X268847755Y-169896910D02*
X269003542Y-169974804D01*
X269003542Y-169974804D02*
X269081435Y-170130590D01*
X269081435Y-170130590D02*
X269081435Y-170286377D01*
X269081435Y-170286377D02*
X268302502Y-170442164D01*
X269782475Y-169896910D02*
X269782475Y-170987417D01*
X269782475Y-170052697D02*
X269860369Y-169974804D01*
X269860369Y-169974804D02*
X270016155Y-169896910D01*
X270016155Y-169896910D02*
X270249835Y-169896910D01*
X270249835Y-169896910D02*
X270405622Y-169974804D01*
X270405622Y-169974804D02*
X270483515Y-170130590D01*
X270483515Y-170130590D02*
X270483515Y-170987417D01*
X271184555Y-170909524D02*
X271340342Y-170987417D01*
X271340342Y-170987417D02*
X271651915Y-170987417D01*
X271651915Y-170987417D02*
X271807702Y-170909524D01*
X271807702Y-170909524D02*
X271885595Y-170753737D01*
X271885595Y-170753737D02*
X271885595Y-170675844D01*
X271885595Y-170675844D02*
X271807702Y-170520057D01*
X271807702Y-170520057D02*
X271651915Y-170442164D01*
X271651915Y-170442164D02*
X271418235Y-170442164D01*
X271418235Y-170442164D02*
X271262448Y-170364270D01*
X271262448Y-170364270D02*
X271184555Y-170208484D01*
X271184555Y-170208484D02*
X271184555Y-170130590D01*
X271184555Y-170130590D02*
X271262448Y-169974804D01*
X271262448Y-169974804D02*
X271418235Y-169896910D01*
X271418235Y-169896910D02*
X271651915Y-169896910D01*
X271651915Y-169896910D02*
X271807702Y-169974804D01*
X273209782Y-170909524D02*
X273053995Y-170987417D01*
X273053995Y-170987417D02*
X272742422Y-170987417D01*
X272742422Y-170987417D02*
X272586635Y-170909524D01*
X272586635Y-170909524D02*
X272508742Y-170753737D01*
X272508742Y-170753737D02*
X272508742Y-170130590D01*
X272508742Y-170130590D02*
X272586635Y-169974804D01*
X272586635Y-169974804D02*
X272742422Y-169896910D01*
X272742422Y-169896910D02*
X273053995Y-169896910D01*
X273053995Y-169896910D02*
X273209782Y-169974804D01*
X273209782Y-169974804D02*
X273287675Y-170130590D01*
X273287675Y-170130590D02*
X273287675Y-170286377D01*
X273287675Y-170286377D02*
X272508742Y-170442164D01*
X201849337Y-173527417D02*
X201849337Y-171891657D01*
X202550377Y-173527417D02*
X202550377Y-172670590D01*
X202550377Y-172670590D02*
X202472484Y-172514804D01*
X202472484Y-172514804D02*
X202316697Y-172436910D01*
X202316697Y-172436910D02*
X202083017Y-172436910D01*
X202083017Y-172436910D02*
X201927231Y-172514804D01*
X201927231Y-172514804D02*
X201849337Y-172592697D01*
X203095630Y-172436910D02*
X203718777Y-172436910D01*
X203329310Y-171891657D02*
X203329310Y-173293737D01*
X203329310Y-173293737D02*
X203407204Y-173449524D01*
X203407204Y-173449524D02*
X203562990Y-173527417D01*
X203562990Y-173527417D02*
X203718777Y-173527417D01*
X204030350Y-172436910D02*
X204653497Y-172436910D01*
X204264030Y-171891657D02*
X204264030Y-173293737D01*
X204264030Y-173293737D02*
X204341924Y-173449524D01*
X204341924Y-173449524D02*
X204497710Y-173527417D01*
X204497710Y-173527417D02*
X204653497Y-173527417D01*
X205198750Y-172436910D02*
X205198750Y-174072670D01*
X205198750Y-172514804D02*
X205354537Y-172436910D01*
X205354537Y-172436910D02*
X205666110Y-172436910D01*
X205666110Y-172436910D02*
X205821897Y-172514804D01*
X205821897Y-172514804D02*
X205899790Y-172592697D01*
X205899790Y-172592697D02*
X205977684Y-172748484D01*
X205977684Y-172748484D02*
X205977684Y-173215844D01*
X205977684Y-173215844D02*
X205899790Y-173371630D01*
X205899790Y-173371630D02*
X205821897Y-173449524D01*
X205821897Y-173449524D02*
X205666110Y-173527417D01*
X205666110Y-173527417D02*
X205354537Y-173527417D01*
X205354537Y-173527417D02*
X205198750Y-173449524D01*
X206600830Y-173449524D02*
X206756617Y-173527417D01*
X206756617Y-173527417D02*
X207068190Y-173527417D01*
X207068190Y-173527417D02*
X207223977Y-173449524D01*
X207223977Y-173449524D02*
X207301870Y-173293737D01*
X207301870Y-173293737D02*
X207301870Y-173215844D01*
X207301870Y-173215844D02*
X207223977Y-173060057D01*
X207223977Y-173060057D02*
X207068190Y-172982164D01*
X207068190Y-172982164D02*
X206834510Y-172982164D01*
X206834510Y-172982164D02*
X206678723Y-172904270D01*
X206678723Y-172904270D02*
X206600830Y-172748484D01*
X206600830Y-172748484D02*
X206600830Y-172670590D01*
X206600830Y-172670590D02*
X206678723Y-172514804D01*
X206678723Y-172514804D02*
X206834510Y-172436910D01*
X206834510Y-172436910D02*
X207068190Y-172436910D01*
X207068190Y-172436910D02*
X207223977Y-172514804D01*
X208002910Y-173371630D02*
X208080804Y-173449524D01*
X208080804Y-173449524D02*
X208002910Y-173527417D01*
X208002910Y-173527417D02*
X207925017Y-173449524D01*
X207925017Y-173449524D02*
X208002910Y-173371630D01*
X208002910Y-173371630D02*
X208002910Y-173527417D01*
X208002910Y-172514804D02*
X208080804Y-172592697D01*
X208080804Y-172592697D02*
X208002910Y-172670590D01*
X208002910Y-172670590D02*
X207925017Y-172592697D01*
X207925017Y-172592697D02*
X208002910Y-172514804D01*
X208002910Y-172514804D02*
X208002910Y-172670590D01*
X209950243Y-171813764D02*
X208548163Y-173916884D01*
X211663896Y-171813764D02*
X210261816Y-173916884D01*
X212910189Y-173449524D02*
X212754403Y-173527417D01*
X212754403Y-173527417D02*
X212442829Y-173527417D01*
X212442829Y-173527417D02*
X212287043Y-173449524D01*
X212287043Y-173449524D02*
X212209149Y-173371630D01*
X212209149Y-173371630D02*
X212131256Y-173215844D01*
X212131256Y-173215844D02*
X212131256Y-172748484D01*
X212131256Y-172748484D02*
X212209149Y-172592697D01*
X212209149Y-172592697D02*
X212287043Y-172514804D01*
X212287043Y-172514804D02*
X212442829Y-172436910D01*
X212442829Y-172436910D02*
X212754403Y-172436910D01*
X212754403Y-172436910D02*
X212910189Y-172514804D01*
X213611229Y-173527417D02*
X213611229Y-172436910D01*
X213611229Y-172748484D02*
X213689123Y-172592697D01*
X213689123Y-172592697D02*
X213767016Y-172514804D01*
X213767016Y-172514804D02*
X213922803Y-172436910D01*
X213922803Y-172436910D02*
X214078589Y-172436910D01*
X215246989Y-173449524D02*
X215091202Y-173527417D01*
X215091202Y-173527417D02*
X214779629Y-173527417D01*
X214779629Y-173527417D02*
X214623842Y-173449524D01*
X214623842Y-173449524D02*
X214545949Y-173293737D01*
X214545949Y-173293737D02*
X214545949Y-172670590D01*
X214545949Y-172670590D02*
X214623842Y-172514804D01*
X214623842Y-172514804D02*
X214779629Y-172436910D01*
X214779629Y-172436910D02*
X215091202Y-172436910D01*
X215091202Y-172436910D02*
X215246989Y-172514804D01*
X215246989Y-172514804D02*
X215324882Y-172670590D01*
X215324882Y-172670590D02*
X215324882Y-172826377D01*
X215324882Y-172826377D02*
X214545949Y-172982164D01*
X216726962Y-173527417D02*
X216726962Y-172670590D01*
X216726962Y-172670590D02*
X216649069Y-172514804D01*
X216649069Y-172514804D02*
X216493282Y-172436910D01*
X216493282Y-172436910D02*
X216181709Y-172436910D01*
X216181709Y-172436910D02*
X216025922Y-172514804D01*
X216726962Y-173449524D02*
X216571176Y-173527417D01*
X216571176Y-173527417D02*
X216181709Y-173527417D01*
X216181709Y-173527417D02*
X216025922Y-173449524D01*
X216025922Y-173449524D02*
X215948029Y-173293737D01*
X215948029Y-173293737D02*
X215948029Y-173137950D01*
X215948029Y-173137950D02*
X216025922Y-172982164D01*
X216025922Y-172982164D02*
X216181709Y-172904270D01*
X216181709Y-172904270D02*
X216571176Y-172904270D01*
X216571176Y-172904270D02*
X216726962Y-172826377D01*
X217272215Y-172436910D02*
X217895362Y-172436910D01*
X217505895Y-171891657D02*
X217505895Y-173293737D01*
X217505895Y-173293737D02*
X217583789Y-173449524D01*
X217583789Y-173449524D02*
X217739575Y-173527417D01*
X217739575Y-173527417D02*
X217895362Y-173527417D01*
X218440615Y-173527417D02*
X218440615Y-172436910D01*
X218440615Y-171891657D02*
X218362722Y-171969550D01*
X218362722Y-171969550D02*
X218440615Y-172047444D01*
X218440615Y-172047444D02*
X218518509Y-171969550D01*
X218518509Y-171969550D02*
X218440615Y-171891657D01*
X218440615Y-171891657D02*
X218440615Y-172047444D01*
X219063762Y-172436910D02*
X219453228Y-173527417D01*
X219453228Y-173527417D02*
X219842695Y-172436910D01*
X221088988Y-173449524D02*
X220933201Y-173527417D01*
X220933201Y-173527417D02*
X220621628Y-173527417D01*
X220621628Y-173527417D02*
X220465841Y-173449524D01*
X220465841Y-173449524D02*
X220387948Y-173293737D01*
X220387948Y-173293737D02*
X220387948Y-172670590D01*
X220387948Y-172670590D02*
X220465841Y-172514804D01*
X220465841Y-172514804D02*
X220621628Y-172436910D01*
X220621628Y-172436910D02*
X220933201Y-172436910D01*
X220933201Y-172436910D02*
X221088988Y-172514804D01*
X221088988Y-172514804D02*
X221166881Y-172670590D01*
X221166881Y-172670590D02*
X221166881Y-172826377D01*
X221166881Y-172826377D02*
X220387948Y-172982164D01*
X222568961Y-173449524D02*
X222413175Y-173527417D01*
X222413175Y-173527417D02*
X222101601Y-173527417D01*
X222101601Y-173527417D02*
X221945815Y-173449524D01*
X221945815Y-173449524D02*
X221867921Y-173371630D01*
X221867921Y-173371630D02*
X221790028Y-173215844D01*
X221790028Y-173215844D02*
X221790028Y-172748484D01*
X221790028Y-172748484D02*
X221867921Y-172592697D01*
X221867921Y-172592697D02*
X221945815Y-172514804D01*
X221945815Y-172514804D02*
X222101601Y-172436910D01*
X222101601Y-172436910D02*
X222413175Y-172436910D01*
X222413175Y-172436910D02*
X222568961Y-172514804D01*
X223503681Y-173527417D02*
X223347895Y-173449524D01*
X223347895Y-173449524D02*
X223270001Y-173371630D01*
X223270001Y-173371630D02*
X223192108Y-173215844D01*
X223192108Y-173215844D02*
X223192108Y-172748484D01*
X223192108Y-172748484D02*
X223270001Y-172592697D01*
X223270001Y-172592697D02*
X223347895Y-172514804D01*
X223347895Y-172514804D02*
X223503681Y-172436910D01*
X223503681Y-172436910D02*
X223737361Y-172436910D01*
X223737361Y-172436910D02*
X223893148Y-172514804D01*
X223893148Y-172514804D02*
X223971041Y-172592697D01*
X223971041Y-172592697D02*
X224048935Y-172748484D01*
X224048935Y-172748484D02*
X224048935Y-173215844D01*
X224048935Y-173215844D02*
X223971041Y-173371630D01*
X223971041Y-173371630D02*
X223893148Y-173449524D01*
X223893148Y-173449524D02*
X223737361Y-173527417D01*
X223737361Y-173527417D02*
X223503681Y-173527417D01*
X224749974Y-173527417D02*
X224749974Y-172436910D01*
X224749974Y-172592697D02*
X224827868Y-172514804D01*
X224827868Y-172514804D02*
X224983654Y-172436910D01*
X224983654Y-172436910D02*
X225217334Y-172436910D01*
X225217334Y-172436910D02*
X225373121Y-172514804D01*
X225373121Y-172514804D02*
X225451014Y-172670590D01*
X225451014Y-172670590D02*
X225451014Y-173527417D01*
X225451014Y-172670590D02*
X225528908Y-172514804D01*
X225528908Y-172514804D02*
X225684694Y-172436910D01*
X225684694Y-172436910D02*
X225918374Y-172436910D01*
X225918374Y-172436910D02*
X226074161Y-172514804D01*
X226074161Y-172514804D02*
X226152054Y-172670590D01*
X226152054Y-172670590D02*
X226152054Y-173527417D01*
X226930987Y-173527417D02*
X226930987Y-172436910D01*
X226930987Y-172592697D02*
X227008881Y-172514804D01*
X227008881Y-172514804D02*
X227164667Y-172436910D01*
X227164667Y-172436910D02*
X227398347Y-172436910D01*
X227398347Y-172436910D02*
X227554134Y-172514804D01*
X227554134Y-172514804D02*
X227632027Y-172670590D01*
X227632027Y-172670590D02*
X227632027Y-173527417D01*
X227632027Y-172670590D02*
X227709921Y-172514804D01*
X227709921Y-172514804D02*
X227865707Y-172436910D01*
X227865707Y-172436910D02*
X228099387Y-172436910D01*
X228099387Y-172436910D02*
X228255174Y-172514804D01*
X228255174Y-172514804D02*
X228333067Y-172670590D01*
X228333067Y-172670590D02*
X228333067Y-173527417D01*
X229345680Y-173527417D02*
X229189894Y-173449524D01*
X229189894Y-173449524D02*
X229112000Y-173371630D01*
X229112000Y-173371630D02*
X229034107Y-173215844D01*
X229034107Y-173215844D02*
X229034107Y-172748484D01*
X229034107Y-172748484D02*
X229112000Y-172592697D01*
X229112000Y-172592697D02*
X229189894Y-172514804D01*
X229189894Y-172514804D02*
X229345680Y-172436910D01*
X229345680Y-172436910D02*
X229579360Y-172436910D01*
X229579360Y-172436910D02*
X229735147Y-172514804D01*
X229735147Y-172514804D02*
X229813040Y-172592697D01*
X229813040Y-172592697D02*
X229890934Y-172748484D01*
X229890934Y-172748484D02*
X229890934Y-173215844D01*
X229890934Y-173215844D02*
X229813040Y-173371630D01*
X229813040Y-173371630D02*
X229735147Y-173449524D01*
X229735147Y-173449524D02*
X229579360Y-173527417D01*
X229579360Y-173527417D02*
X229345680Y-173527417D01*
X230591973Y-172436910D02*
X230591973Y-173527417D01*
X230591973Y-172592697D02*
X230669867Y-172514804D01*
X230669867Y-172514804D02*
X230825653Y-172436910D01*
X230825653Y-172436910D02*
X231059333Y-172436910D01*
X231059333Y-172436910D02*
X231215120Y-172514804D01*
X231215120Y-172514804D02*
X231293013Y-172670590D01*
X231293013Y-172670590D02*
X231293013Y-173527417D01*
X231994053Y-173449524D02*
X232149840Y-173527417D01*
X232149840Y-173527417D02*
X232461413Y-173527417D01*
X232461413Y-173527417D02*
X232617200Y-173449524D01*
X232617200Y-173449524D02*
X232695093Y-173293737D01*
X232695093Y-173293737D02*
X232695093Y-173215844D01*
X232695093Y-173215844D02*
X232617200Y-173060057D01*
X232617200Y-173060057D02*
X232461413Y-172982164D01*
X232461413Y-172982164D02*
X232227733Y-172982164D01*
X232227733Y-172982164D02*
X232071946Y-172904270D01*
X232071946Y-172904270D02*
X231994053Y-172748484D01*
X231994053Y-172748484D02*
X231994053Y-172670590D01*
X231994053Y-172670590D02*
X232071946Y-172514804D01*
X232071946Y-172514804D02*
X232227733Y-172436910D01*
X232227733Y-172436910D02*
X232461413Y-172436910D01*
X232461413Y-172436910D02*
X232617200Y-172514804D01*
X233396133Y-173371630D02*
X233474027Y-173449524D01*
X233474027Y-173449524D02*
X233396133Y-173527417D01*
X233396133Y-173527417D02*
X233318240Y-173449524D01*
X233318240Y-173449524D02*
X233396133Y-173371630D01*
X233396133Y-173371630D02*
X233396133Y-173527417D01*
X234408746Y-173527417D02*
X234252960Y-173449524D01*
X234252960Y-173449524D02*
X234175066Y-173371630D01*
X234175066Y-173371630D02*
X234097173Y-173215844D01*
X234097173Y-173215844D02*
X234097173Y-172748484D01*
X234097173Y-172748484D02*
X234175066Y-172592697D01*
X234175066Y-172592697D02*
X234252960Y-172514804D01*
X234252960Y-172514804D02*
X234408746Y-172436910D01*
X234408746Y-172436910D02*
X234642426Y-172436910D01*
X234642426Y-172436910D02*
X234798213Y-172514804D01*
X234798213Y-172514804D02*
X234876106Y-172592697D01*
X234876106Y-172592697D02*
X234954000Y-172748484D01*
X234954000Y-172748484D02*
X234954000Y-173215844D01*
X234954000Y-173215844D02*
X234876106Y-173371630D01*
X234876106Y-173371630D02*
X234798213Y-173449524D01*
X234798213Y-173449524D02*
X234642426Y-173527417D01*
X234642426Y-173527417D02*
X234408746Y-173527417D01*
X235655039Y-173527417D02*
X235655039Y-172436910D01*
X235655039Y-172748484D02*
X235732933Y-172592697D01*
X235732933Y-172592697D02*
X235810826Y-172514804D01*
X235810826Y-172514804D02*
X235966613Y-172436910D01*
X235966613Y-172436910D02*
X236122399Y-172436910D01*
X237368692Y-172436910D02*
X237368692Y-173761097D01*
X237368692Y-173761097D02*
X237290799Y-173916884D01*
X237290799Y-173916884D02*
X237212906Y-173994777D01*
X237212906Y-173994777D02*
X237057119Y-174072670D01*
X237057119Y-174072670D02*
X236823439Y-174072670D01*
X236823439Y-174072670D02*
X236667652Y-173994777D01*
X237368692Y-173449524D02*
X237212906Y-173527417D01*
X237212906Y-173527417D02*
X236901332Y-173527417D01*
X236901332Y-173527417D02*
X236745546Y-173449524D01*
X236745546Y-173449524D02*
X236667652Y-173371630D01*
X236667652Y-173371630D02*
X236589759Y-173215844D01*
X236589759Y-173215844D02*
X236589759Y-172748484D01*
X236589759Y-172748484D02*
X236667652Y-172592697D01*
X236667652Y-172592697D02*
X236745546Y-172514804D01*
X236745546Y-172514804D02*
X236901332Y-172436910D01*
X236901332Y-172436910D02*
X237212906Y-172436910D01*
X237212906Y-172436910D02*
X237368692Y-172514804D01*
X239316025Y-171813764D02*
X237913945Y-173916884D01*
X240094958Y-173527417D02*
X239939172Y-173449524D01*
X239939172Y-173449524D02*
X239861278Y-173293737D01*
X239861278Y-173293737D02*
X239861278Y-171891657D01*
X240718105Y-173527417D02*
X240718105Y-172436910D01*
X240718105Y-171891657D02*
X240640212Y-171969550D01*
X240640212Y-171969550D02*
X240718105Y-172047444D01*
X240718105Y-172047444D02*
X240795999Y-171969550D01*
X240795999Y-171969550D02*
X240718105Y-171891657D01*
X240718105Y-171891657D02*
X240718105Y-172047444D01*
X242198078Y-173449524D02*
X242042292Y-173527417D01*
X242042292Y-173527417D02*
X241730718Y-173527417D01*
X241730718Y-173527417D02*
X241574932Y-173449524D01*
X241574932Y-173449524D02*
X241497038Y-173371630D01*
X241497038Y-173371630D02*
X241419145Y-173215844D01*
X241419145Y-173215844D02*
X241419145Y-172748484D01*
X241419145Y-172748484D02*
X241497038Y-172592697D01*
X241497038Y-172592697D02*
X241574932Y-172514804D01*
X241574932Y-172514804D02*
X241730718Y-172436910D01*
X241730718Y-172436910D02*
X242042292Y-172436910D01*
X242042292Y-172436910D02*
X242198078Y-172514804D01*
X243522265Y-173449524D02*
X243366478Y-173527417D01*
X243366478Y-173527417D02*
X243054905Y-173527417D01*
X243054905Y-173527417D02*
X242899118Y-173449524D01*
X242899118Y-173449524D02*
X242821225Y-173293737D01*
X242821225Y-173293737D02*
X242821225Y-172670590D01*
X242821225Y-172670590D02*
X242899118Y-172514804D01*
X242899118Y-172514804D02*
X243054905Y-172436910D01*
X243054905Y-172436910D02*
X243366478Y-172436910D01*
X243366478Y-172436910D02*
X243522265Y-172514804D01*
X243522265Y-172514804D02*
X243600158Y-172670590D01*
X243600158Y-172670590D02*
X243600158Y-172826377D01*
X243600158Y-172826377D02*
X242821225Y-172982164D01*
X244301198Y-172436910D02*
X244301198Y-173527417D01*
X244301198Y-172592697D02*
X244379092Y-172514804D01*
X244379092Y-172514804D02*
X244534878Y-172436910D01*
X244534878Y-172436910D02*
X244768558Y-172436910D01*
X244768558Y-172436910D02*
X244924345Y-172514804D01*
X244924345Y-172514804D02*
X245002238Y-172670590D01*
X245002238Y-172670590D02*
X245002238Y-173527417D01*
X245703278Y-173449524D02*
X245859065Y-173527417D01*
X245859065Y-173527417D02*
X246170638Y-173527417D01*
X246170638Y-173527417D02*
X246326425Y-173449524D01*
X246326425Y-173449524D02*
X246404318Y-173293737D01*
X246404318Y-173293737D02*
X246404318Y-173215844D01*
X246404318Y-173215844D02*
X246326425Y-173060057D01*
X246326425Y-173060057D02*
X246170638Y-172982164D01*
X246170638Y-172982164D02*
X245936958Y-172982164D01*
X245936958Y-172982164D02*
X245781171Y-172904270D01*
X245781171Y-172904270D02*
X245703278Y-172748484D01*
X245703278Y-172748484D02*
X245703278Y-172670590D01*
X245703278Y-172670590D02*
X245781171Y-172514804D01*
X245781171Y-172514804D02*
X245936958Y-172436910D01*
X245936958Y-172436910D02*
X246170638Y-172436910D01*
X246170638Y-172436910D02*
X246326425Y-172514804D01*
X247728505Y-173449524D02*
X247572718Y-173527417D01*
X247572718Y-173527417D02*
X247261145Y-173527417D01*
X247261145Y-173527417D02*
X247105358Y-173449524D01*
X247105358Y-173449524D02*
X247027465Y-173293737D01*
X247027465Y-173293737D02*
X247027465Y-172670590D01*
X247027465Y-172670590D02*
X247105358Y-172514804D01*
X247105358Y-172514804D02*
X247261145Y-172436910D01*
X247261145Y-172436910D02*
X247572718Y-172436910D01*
X247572718Y-172436910D02*
X247728505Y-172514804D01*
X247728505Y-172514804D02*
X247806398Y-172670590D01*
X247806398Y-172670590D02*
X247806398Y-172826377D01*
X247806398Y-172826377D02*
X247027465Y-172982164D01*
X248429545Y-173449524D02*
X248585332Y-173527417D01*
X248585332Y-173527417D02*
X248896905Y-173527417D01*
X248896905Y-173527417D02*
X249052692Y-173449524D01*
X249052692Y-173449524D02*
X249130585Y-173293737D01*
X249130585Y-173293737D02*
X249130585Y-173215844D01*
X249130585Y-173215844D02*
X249052692Y-173060057D01*
X249052692Y-173060057D02*
X248896905Y-172982164D01*
X248896905Y-172982164D02*
X248663225Y-172982164D01*
X248663225Y-172982164D02*
X248507438Y-172904270D01*
X248507438Y-172904270D02*
X248429545Y-172748484D01*
X248429545Y-172748484D02*
X248429545Y-172670590D01*
X248429545Y-172670590D02*
X248507438Y-172514804D01*
X248507438Y-172514804D02*
X248663225Y-172436910D01*
X248663225Y-172436910D02*
X248896905Y-172436910D01*
X248896905Y-172436910D02*
X249052692Y-172514804D01*
X251000025Y-171813764D02*
X249597945Y-173916884D01*
X251545278Y-173527417D02*
X251545278Y-171891657D01*
X251545278Y-172514804D02*
X251701065Y-172436910D01*
X251701065Y-172436910D02*
X252012638Y-172436910D01*
X252012638Y-172436910D02*
X252168425Y-172514804D01*
X252168425Y-172514804D02*
X252246318Y-172592697D01*
X252246318Y-172592697D02*
X252324212Y-172748484D01*
X252324212Y-172748484D02*
X252324212Y-173215844D01*
X252324212Y-173215844D02*
X252246318Y-173371630D01*
X252246318Y-173371630D02*
X252168425Y-173449524D01*
X252168425Y-173449524D02*
X252012638Y-173527417D01*
X252012638Y-173527417D02*
X251701065Y-173527417D01*
X251701065Y-173527417D02*
X251545278Y-173449524D01*
X252869465Y-172436910D02*
X253258931Y-173527417D01*
X253648398Y-172436910D02*
X253258931Y-173527417D01*
X253258931Y-173527417D02*
X253103145Y-173916884D01*
X253103145Y-173916884D02*
X253025251Y-173994777D01*
X253025251Y-173994777D02*
X252869465Y-174072670D01*
X254271544Y-172904270D02*
X255517838Y-172904270D01*
X256218878Y-173449524D02*
X256374665Y-173527417D01*
X256374665Y-173527417D02*
X256686238Y-173527417D01*
X256686238Y-173527417D02*
X256842025Y-173449524D01*
X256842025Y-173449524D02*
X256919918Y-173293737D01*
X256919918Y-173293737D02*
X256919918Y-173215844D01*
X256919918Y-173215844D02*
X256842025Y-173060057D01*
X256842025Y-173060057D02*
X256686238Y-172982164D01*
X256686238Y-172982164D02*
X256452558Y-172982164D01*
X256452558Y-172982164D02*
X256296771Y-172904270D01*
X256296771Y-172904270D02*
X256218878Y-172748484D01*
X256218878Y-172748484D02*
X256218878Y-172670590D01*
X256218878Y-172670590D02*
X256296771Y-172514804D01*
X256296771Y-172514804D02*
X256452558Y-172436910D01*
X256452558Y-172436910D02*
X256686238Y-172436910D01*
X256686238Y-172436910D02*
X256842025Y-172514804D01*
X258321998Y-173527417D02*
X258321998Y-172670590D01*
X258321998Y-172670590D02*
X258244105Y-172514804D01*
X258244105Y-172514804D02*
X258088318Y-172436910D01*
X258088318Y-172436910D02*
X257776745Y-172436910D01*
X257776745Y-172436910D02*
X257620958Y-172514804D01*
X258321998Y-173449524D02*
X258166212Y-173527417D01*
X258166212Y-173527417D02*
X257776745Y-173527417D01*
X257776745Y-173527417D02*
X257620958Y-173449524D01*
X257620958Y-173449524D02*
X257543065Y-173293737D01*
X257543065Y-173293737D02*
X257543065Y-173137950D01*
X257543065Y-173137950D02*
X257620958Y-172982164D01*
X257620958Y-172982164D02*
X257776745Y-172904270D01*
X257776745Y-172904270D02*
X258166212Y-172904270D01*
X258166212Y-172904270D02*
X258321998Y-172826377D01*
X260269331Y-171813764D02*
X258867251Y-173916884D01*
X261515624Y-172436910D02*
X261515624Y-173527417D01*
X261126158Y-171813764D02*
X260736691Y-172982164D01*
X260736691Y-172982164D02*
X261749304Y-172982164D01*
X262372451Y-173371630D02*
X262450345Y-173449524D01*
X262450345Y-173449524D02*
X262372451Y-173527417D01*
X262372451Y-173527417D02*
X262294558Y-173449524D01*
X262294558Y-173449524D02*
X262372451Y-173371630D01*
X262372451Y-173371630D02*
X262372451Y-173527417D01*
X263462958Y-171891657D02*
X263618744Y-171891657D01*
X263618744Y-171891657D02*
X263774531Y-171969550D01*
X263774531Y-171969550D02*
X263852424Y-172047444D01*
X263852424Y-172047444D02*
X263930318Y-172203230D01*
X263930318Y-172203230D02*
X264008211Y-172514804D01*
X264008211Y-172514804D02*
X264008211Y-172904270D01*
X264008211Y-172904270D02*
X263930318Y-173215844D01*
X263930318Y-173215844D02*
X263852424Y-173371630D01*
X263852424Y-173371630D02*
X263774531Y-173449524D01*
X263774531Y-173449524D02*
X263618744Y-173527417D01*
X263618744Y-173527417D02*
X263462958Y-173527417D01*
X263462958Y-173527417D02*
X263307171Y-173449524D01*
X263307171Y-173449524D02*
X263229278Y-173371630D01*
X263229278Y-173371630D02*
X263151384Y-173215844D01*
X263151384Y-173215844D02*
X263073491Y-172904270D01*
X263073491Y-172904270D02*
X263073491Y-172514804D01*
X263073491Y-172514804D02*
X263151384Y-172203230D01*
X263151384Y-172203230D02*
X263229278Y-172047444D01*
X263229278Y-172047444D02*
X263307171Y-171969550D01*
X263307171Y-171969550D02*
X263462958Y-171891657D01*
X265877651Y-171813764D02*
X264475571Y-173916884D01*
D12*
X166453671Y-95900000D02*
X166453671Y-96242857D01*
X166453671Y-96071428D02*
X165853671Y-96071428D01*
X165853671Y-96071428D02*
X165939385Y-96128571D01*
X165939385Y-96128571D02*
X165996528Y-96185714D01*
X165996528Y-96185714D02*
X166025100Y-96242857D01*
X165853671Y-95357142D02*
X165853671Y-95642856D01*
X165853671Y-95642856D02*
X166139385Y-95671428D01*
X166139385Y-95671428D02*
X166110814Y-95642856D01*
X166110814Y-95642856D02*
X166082242Y-95585714D01*
X166082242Y-95585714D02*
X166082242Y-95442856D01*
X166082242Y-95442856D02*
X166110814Y-95385714D01*
X166110814Y-95385714D02*
X166139385Y-95357142D01*
X166139385Y-95357142D02*
X166196528Y-95328571D01*
X166196528Y-95328571D02*
X166339385Y-95328571D01*
X166339385Y-95328571D02*
X166396528Y-95357142D01*
X166396528Y-95357142D02*
X166425100Y-95385714D01*
X166425100Y-95385714D02*
X166453671Y-95442856D01*
X166453671Y-95442856D02*
X166453671Y-95585714D01*
X166453671Y-95585714D02*
X166425100Y-95642856D01*
X166425100Y-95642856D02*
X166396528Y-95671428D01*
X165853671Y-94957142D02*
X165853671Y-94899999D01*
X165853671Y-94899999D02*
X165882242Y-94842856D01*
X165882242Y-94842856D02*
X165910814Y-94814285D01*
X165910814Y-94814285D02*
X165967957Y-94785713D01*
X165967957Y-94785713D02*
X166082242Y-94757142D01*
X166082242Y-94757142D02*
X166225100Y-94757142D01*
X166225100Y-94757142D02*
X166339385Y-94785713D01*
X166339385Y-94785713D02*
X166396528Y-94814285D01*
X166396528Y-94814285D02*
X166425100Y-94842856D01*
X166425100Y-94842856D02*
X166453671Y-94899999D01*
X166453671Y-94899999D02*
X166453671Y-94957142D01*
X166453671Y-94957142D02*
X166425100Y-95014285D01*
X166425100Y-95014285D02*
X166396528Y-95042856D01*
X166396528Y-95042856D02*
X166339385Y-95071427D01*
X166339385Y-95071427D02*
X166225100Y-95099999D01*
X166225100Y-95099999D02*
X166082242Y-95099999D01*
X166082242Y-95099999D02*
X165967957Y-95071427D01*
X165967957Y-95071427D02*
X165910814Y-95042856D01*
X165910814Y-95042856D02*
X165882242Y-95014285D01*
X165882242Y-95014285D02*
X165853671Y-94957142D01*
X166453671Y-94157141D02*
X166167957Y-94357141D01*
X166453671Y-94499998D02*
X165853671Y-94499998D01*
X165853671Y-94499998D02*
X165853671Y-94271427D01*
X165853671Y-94271427D02*
X165882242Y-94214284D01*
X165882242Y-94214284D02*
X165910814Y-94185713D01*
X165910814Y-94185713D02*
X165967957Y-94157141D01*
X165967957Y-94157141D02*
X166053671Y-94157141D01*
X166053671Y-94157141D02*
X166110814Y-94185713D01*
X166110814Y-94185713D02*
X166139385Y-94214284D01*
X166139385Y-94214284D02*
X166167957Y-94271427D01*
X166167957Y-94271427D02*
X166167957Y-94499998D01*
D13*
X167401927Y-95256666D02*
X167211451Y-95389999D01*
X167401927Y-95485237D02*
X167001927Y-95485237D01*
X167001927Y-95485237D02*
X167001927Y-95332856D01*
X167001927Y-95332856D02*
X167020975Y-95294761D01*
X167020975Y-95294761D02*
X167040022Y-95275714D01*
X167040022Y-95275714D02*
X167078118Y-95256666D01*
X167078118Y-95256666D02*
X167135260Y-95256666D01*
X167135260Y-95256666D02*
X167173356Y-95275714D01*
X167173356Y-95275714D02*
X167192403Y-95294761D01*
X167192403Y-95294761D02*
X167211451Y-95332856D01*
X167211451Y-95332856D02*
X167211451Y-95485237D01*
X167001927Y-94894761D02*
X167001927Y-95085237D01*
X167001927Y-95085237D02*
X167192403Y-95104285D01*
X167192403Y-95104285D02*
X167173356Y-95085237D01*
X167173356Y-95085237D02*
X167154308Y-95047142D01*
X167154308Y-95047142D02*
X167154308Y-94951904D01*
X167154308Y-94951904D02*
X167173356Y-94913809D01*
X167173356Y-94913809D02*
X167192403Y-94894761D01*
X167192403Y-94894761D02*
X167230499Y-94875714D01*
X167230499Y-94875714D02*
X167325737Y-94875714D01*
X167325737Y-94875714D02*
X167363832Y-94894761D01*
X167363832Y-94894761D02*
X167382880Y-94913809D01*
X167382880Y-94913809D02*
X167401927Y-94951904D01*
X167401927Y-94951904D02*
X167401927Y-95047142D01*
X167401927Y-95047142D02*
X167382880Y-95085237D01*
X167382880Y-95085237D02*
X167363832Y-95104285D01*
D16*
X141341576Y-103202447D02*
X141589195Y-103202447D01*
X141589195Y-103202447D02*
X141455862Y-103354828D01*
X141455862Y-103354828D02*
X141513005Y-103354828D01*
X141513005Y-103354828D02*
X141551100Y-103373876D01*
X141551100Y-103373876D02*
X141570148Y-103392923D01*
X141570148Y-103392923D02*
X141589195Y-103431019D01*
X141589195Y-103431019D02*
X141589195Y-103526257D01*
X141589195Y-103526257D02*
X141570148Y-103564352D01*
X141570148Y-103564352D02*
X141551100Y-103583400D01*
X141551100Y-103583400D02*
X141513005Y-103602447D01*
X141513005Y-103602447D02*
X141398719Y-103602447D01*
X141398719Y-103602447D02*
X141360624Y-103583400D01*
X141360624Y-103583400D02*
X141341576Y-103564352D01*
X141760624Y-103564352D02*
X141779671Y-103583400D01*
X141779671Y-103583400D02*
X141760624Y-103602447D01*
X141760624Y-103602447D02*
X141741576Y-103583400D01*
X141741576Y-103583400D02*
X141760624Y-103564352D01*
X141760624Y-103564352D02*
X141760624Y-103602447D01*
X141913004Y-103202447D02*
X142160623Y-103202447D01*
X142160623Y-103202447D02*
X142027290Y-103354828D01*
X142027290Y-103354828D02*
X142084433Y-103354828D01*
X142084433Y-103354828D02*
X142122528Y-103373876D01*
X142122528Y-103373876D02*
X142141576Y-103392923D01*
X142141576Y-103392923D02*
X142160623Y-103431019D01*
X142160623Y-103431019D02*
X142160623Y-103526257D01*
X142160623Y-103526257D02*
X142141576Y-103564352D01*
X142141576Y-103564352D02*
X142122528Y-103583400D01*
X142122528Y-103583400D02*
X142084433Y-103602447D01*
X142084433Y-103602447D02*
X141970147Y-103602447D01*
X141970147Y-103602447D02*
X141932052Y-103583400D01*
X141932052Y-103583400D02*
X141913004Y-103564352D01*
X142503480Y-103335780D02*
X142503480Y-103602447D01*
X142332052Y-103335780D02*
X142332052Y-103545304D01*
X142332052Y-103545304D02*
X142351099Y-103583400D01*
X142351099Y-103583400D02*
X142389194Y-103602447D01*
X142389194Y-103602447D02*
X142446337Y-103602447D01*
X142446337Y-103602447D02*
X142484433Y-103583400D01*
X142484433Y-103583400D02*
X142503480Y-103564352D01*
X142693957Y-103602447D02*
X142693957Y-103202447D01*
X142693957Y-103392923D02*
X142922528Y-103392923D01*
X142922528Y-103602447D02*
X142922528Y-103202447D01*
D19*
X142066666Y-102727149D02*
X141828571Y-102727149D01*
X141828571Y-102727149D02*
X141828571Y-102227149D01*
X142495238Y-102727149D02*
X142209524Y-102727149D01*
X142352381Y-102727149D02*
X142352381Y-102227149D01*
X142352381Y-102227149D02*
X142304762Y-102298578D01*
X142304762Y-102298578D02*
X142257143Y-102346197D01*
X142257143Y-102346197D02*
X142209524Y-102370006D01*
D16*
X141493957Y-108832447D02*
X141532052Y-108832447D01*
X141532052Y-108832447D02*
X141570148Y-108851495D01*
X141570148Y-108851495D02*
X141589195Y-108870542D01*
X141589195Y-108870542D02*
X141608243Y-108908638D01*
X141608243Y-108908638D02*
X141627290Y-108984828D01*
X141627290Y-108984828D02*
X141627290Y-109080066D01*
X141627290Y-109080066D02*
X141608243Y-109156257D01*
X141608243Y-109156257D02*
X141589195Y-109194352D01*
X141589195Y-109194352D02*
X141570148Y-109213400D01*
X141570148Y-109213400D02*
X141532052Y-109232447D01*
X141532052Y-109232447D02*
X141493957Y-109232447D01*
X141493957Y-109232447D02*
X141455862Y-109213400D01*
X141455862Y-109213400D02*
X141436814Y-109194352D01*
X141436814Y-109194352D02*
X141417767Y-109156257D01*
X141417767Y-109156257D02*
X141398719Y-109080066D01*
X141398719Y-109080066D02*
X141398719Y-108984828D01*
X141398719Y-108984828D02*
X141417767Y-108908638D01*
X141417767Y-108908638D02*
X141436814Y-108870542D01*
X141436814Y-108870542D02*
X141455862Y-108851495D01*
X141455862Y-108851495D02*
X141493957Y-108832447D01*
X141798719Y-109194352D02*
X141817766Y-109213400D01*
X141817766Y-109213400D02*
X141798719Y-109232447D01*
X141798719Y-109232447D02*
X141779671Y-109213400D01*
X141779671Y-109213400D02*
X141798719Y-109194352D01*
X141798719Y-109194352D02*
X141798719Y-109232447D01*
X142198718Y-109232447D02*
X141970147Y-109232447D01*
X142084433Y-109232447D02*
X142084433Y-108832447D01*
X142084433Y-108832447D02*
X142046337Y-108889590D01*
X142046337Y-108889590D02*
X142008242Y-108927685D01*
X142008242Y-108927685D02*
X141970147Y-108946733D01*
X142541575Y-108965780D02*
X142541575Y-109232447D01*
X142370147Y-108965780D02*
X142370147Y-109175304D01*
X142370147Y-109175304D02*
X142389194Y-109213400D01*
X142389194Y-109213400D02*
X142427289Y-109232447D01*
X142427289Y-109232447D02*
X142484432Y-109232447D01*
X142484432Y-109232447D02*
X142522528Y-109213400D01*
X142522528Y-109213400D02*
X142541575Y-109194352D01*
X142865385Y-109022923D02*
X142732052Y-109022923D01*
X142732052Y-109232447D02*
X142732052Y-108832447D01*
X142732052Y-108832447D02*
X142922528Y-108832447D01*
D13*
X142084433Y-108322432D02*
X142065385Y-108341480D01*
X142065385Y-108341480D02*
X142008243Y-108360527D01*
X142008243Y-108360527D02*
X141970147Y-108360527D01*
X141970147Y-108360527D02*
X141913004Y-108341480D01*
X141913004Y-108341480D02*
X141874909Y-108303384D01*
X141874909Y-108303384D02*
X141855862Y-108265289D01*
X141855862Y-108265289D02*
X141836814Y-108189099D01*
X141836814Y-108189099D02*
X141836814Y-108131956D01*
X141836814Y-108131956D02*
X141855862Y-108055765D01*
X141855862Y-108055765D02*
X141874909Y-108017670D01*
X141874909Y-108017670D02*
X141913004Y-107979575D01*
X141913004Y-107979575D02*
X141970147Y-107960527D01*
X141970147Y-107960527D02*
X142008243Y-107960527D01*
X142008243Y-107960527D02*
X142065385Y-107979575D01*
X142065385Y-107979575D02*
X142084433Y-107998622D01*
X142236814Y-107998622D02*
X142255862Y-107979575D01*
X142255862Y-107979575D02*
X142293957Y-107960527D01*
X142293957Y-107960527D02*
X142389195Y-107960527D01*
X142389195Y-107960527D02*
X142427290Y-107979575D01*
X142427290Y-107979575D02*
X142446338Y-107998622D01*
X142446338Y-107998622D02*
X142465385Y-108036718D01*
X142465385Y-108036718D02*
X142465385Y-108074813D01*
X142465385Y-108074813D02*
X142446338Y-108131956D01*
X142446338Y-108131956D02*
X142217766Y-108360527D01*
X142217766Y-108360527D02*
X142465385Y-108360527D01*
D16*
X141884433Y-111157447D02*
X141655862Y-111157447D01*
X141770148Y-111157447D02*
X141770148Y-110757447D01*
X141770148Y-110757447D02*
X141732052Y-110814590D01*
X141732052Y-110814590D02*
X141693957Y-110852685D01*
X141693957Y-110852685D02*
X141655862Y-110871733D01*
X142132052Y-110757447D02*
X142170147Y-110757447D01*
X142170147Y-110757447D02*
X142208243Y-110776495D01*
X142208243Y-110776495D02*
X142227290Y-110795542D01*
X142227290Y-110795542D02*
X142246338Y-110833638D01*
X142246338Y-110833638D02*
X142265385Y-110909828D01*
X142265385Y-110909828D02*
X142265385Y-111005066D01*
X142265385Y-111005066D02*
X142246338Y-111081257D01*
X142246338Y-111081257D02*
X142227290Y-111119352D01*
X142227290Y-111119352D02*
X142208243Y-111138400D01*
X142208243Y-111138400D02*
X142170147Y-111157447D01*
X142170147Y-111157447D02*
X142132052Y-111157447D01*
X142132052Y-111157447D02*
X142093957Y-111138400D01*
X142093957Y-111138400D02*
X142074909Y-111119352D01*
X142074909Y-111119352D02*
X142055862Y-111081257D01*
X142055862Y-111081257D02*
X142036814Y-111005066D01*
X142036814Y-111005066D02*
X142036814Y-110909828D01*
X142036814Y-110909828D02*
X142055862Y-110833638D01*
X142055862Y-110833638D02*
X142074909Y-110795542D01*
X142074909Y-110795542D02*
X142093957Y-110776495D01*
X142093957Y-110776495D02*
X142132052Y-110757447D01*
X142513004Y-110757447D02*
X142551099Y-110757447D01*
X142551099Y-110757447D02*
X142589195Y-110776495D01*
X142589195Y-110776495D02*
X142608242Y-110795542D01*
X142608242Y-110795542D02*
X142627290Y-110833638D01*
X142627290Y-110833638D02*
X142646337Y-110909828D01*
X142646337Y-110909828D02*
X142646337Y-111005066D01*
X142646337Y-111005066D02*
X142627290Y-111081257D01*
X142627290Y-111081257D02*
X142608242Y-111119352D01*
X142608242Y-111119352D02*
X142589195Y-111138400D01*
X142589195Y-111138400D02*
X142551099Y-111157447D01*
X142551099Y-111157447D02*
X142513004Y-111157447D01*
X142513004Y-111157447D02*
X142474909Y-111138400D01*
X142474909Y-111138400D02*
X142455861Y-111119352D01*
X142455861Y-111119352D02*
X142436814Y-111081257D01*
X142436814Y-111081257D02*
X142417766Y-111005066D01*
X142417766Y-111005066D02*
X142417766Y-110909828D01*
X142417766Y-110909828D02*
X142436814Y-110833638D01*
X142436814Y-110833638D02*
X142455861Y-110795542D01*
X142455861Y-110795542D02*
X142474909Y-110776495D01*
X142474909Y-110776495D02*
X142513004Y-110757447D01*
D13*
X142084433Y-110265527D02*
X141951100Y-110075051D01*
X141855862Y-110265527D02*
X141855862Y-109865527D01*
X141855862Y-109865527D02*
X142008243Y-109865527D01*
X142008243Y-109865527D02*
X142046338Y-109884575D01*
X142046338Y-109884575D02*
X142065385Y-109903622D01*
X142065385Y-109903622D02*
X142084433Y-109941718D01*
X142084433Y-109941718D02*
X142084433Y-109998860D01*
X142084433Y-109998860D02*
X142065385Y-110036956D01*
X142065385Y-110036956D02*
X142046338Y-110056003D01*
X142046338Y-110056003D02*
X142008243Y-110075051D01*
X142008243Y-110075051D02*
X141855862Y-110075051D01*
X142217766Y-109865527D02*
X142465385Y-109865527D01*
X142465385Y-109865527D02*
X142332052Y-110017908D01*
X142332052Y-110017908D02*
X142389195Y-110017908D01*
X142389195Y-110017908D02*
X142427290Y-110036956D01*
X142427290Y-110036956D02*
X142446338Y-110056003D01*
X142446338Y-110056003D02*
X142465385Y-110094099D01*
X142465385Y-110094099D02*
X142465385Y-110189337D01*
X142465385Y-110189337D02*
X142446338Y-110227432D01*
X142446338Y-110227432D02*
X142427290Y-110246480D01*
X142427290Y-110246480D02*
X142389195Y-110265527D01*
X142389195Y-110265527D02*
X142274909Y-110265527D01*
X142274909Y-110265527D02*
X142236814Y-110246480D01*
X142236814Y-110246480D02*
X142217766Y-110227432D01*
D16*
X141883333Y-113057447D02*
X141654762Y-113057447D01*
X141769048Y-113057447D02*
X141769048Y-112657447D01*
X141769048Y-112657447D02*
X141730952Y-112714590D01*
X141730952Y-112714590D02*
X141692857Y-112752685D01*
X141692857Y-112752685D02*
X141654762Y-112771733D01*
X142130952Y-112657447D02*
X142169047Y-112657447D01*
X142169047Y-112657447D02*
X142207143Y-112676495D01*
X142207143Y-112676495D02*
X142226190Y-112695542D01*
X142226190Y-112695542D02*
X142245238Y-112733638D01*
X142245238Y-112733638D02*
X142264285Y-112809828D01*
X142264285Y-112809828D02*
X142264285Y-112905066D01*
X142264285Y-112905066D02*
X142245238Y-112981257D01*
X142245238Y-112981257D02*
X142226190Y-113019352D01*
X142226190Y-113019352D02*
X142207143Y-113038400D01*
X142207143Y-113038400D02*
X142169047Y-113057447D01*
X142169047Y-113057447D02*
X142130952Y-113057447D01*
X142130952Y-113057447D02*
X142092857Y-113038400D01*
X142092857Y-113038400D02*
X142073809Y-113019352D01*
X142073809Y-113019352D02*
X142054762Y-112981257D01*
X142054762Y-112981257D02*
X142035714Y-112905066D01*
X142035714Y-112905066D02*
X142035714Y-112809828D01*
X142035714Y-112809828D02*
X142054762Y-112733638D01*
X142054762Y-112733638D02*
X142073809Y-112695542D01*
X142073809Y-112695542D02*
X142092857Y-112676495D01*
X142092857Y-112676495D02*
X142130952Y-112657447D01*
X142511904Y-112657447D02*
X142549999Y-112657447D01*
X142549999Y-112657447D02*
X142588095Y-112676495D01*
X142588095Y-112676495D02*
X142607142Y-112695542D01*
X142607142Y-112695542D02*
X142626190Y-112733638D01*
X142626190Y-112733638D02*
X142645237Y-112809828D01*
X142645237Y-112809828D02*
X142645237Y-112905066D01*
X142645237Y-112905066D02*
X142626190Y-112981257D01*
X142626190Y-112981257D02*
X142607142Y-113019352D01*
X142607142Y-113019352D02*
X142588095Y-113038400D01*
X142588095Y-113038400D02*
X142549999Y-113057447D01*
X142549999Y-113057447D02*
X142511904Y-113057447D01*
X142511904Y-113057447D02*
X142473809Y-113038400D01*
X142473809Y-113038400D02*
X142454761Y-113019352D01*
X142454761Y-113019352D02*
X142435714Y-112981257D01*
X142435714Y-112981257D02*
X142416666Y-112905066D01*
X142416666Y-112905066D02*
X142416666Y-112809828D01*
X142416666Y-112809828D02*
X142435714Y-112733638D01*
X142435714Y-112733638D02*
X142454761Y-112695542D01*
X142454761Y-112695542D02*
X142473809Y-112676495D01*
X142473809Y-112676495D02*
X142511904Y-112657447D01*
D13*
X142084433Y-112170527D02*
X141951100Y-111980051D01*
X141855862Y-112170527D02*
X141855862Y-111770527D01*
X141855862Y-111770527D02*
X142008243Y-111770527D01*
X142008243Y-111770527D02*
X142046338Y-111789575D01*
X142046338Y-111789575D02*
X142065385Y-111808622D01*
X142065385Y-111808622D02*
X142084433Y-111846718D01*
X142084433Y-111846718D02*
X142084433Y-111903860D01*
X142084433Y-111903860D02*
X142065385Y-111941956D01*
X142065385Y-111941956D02*
X142046338Y-111961003D01*
X142046338Y-111961003D02*
X142008243Y-111980051D01*
X142008243Y-111980051D02*
X141855862Y-111980051D01*
X142427290Y-111903860D02*
X142427290Y-112170527D01*
X142332052Y-111751480D02*
X142236814Y-112037194D01*
X142236814Y-112037194D02*
X142484433Y-112037194D01*
D12*
X140053671Y-96805714D02*
X140053671Y-96748571D01*
X140053671Y-96748571D02*
X140082242Y-96691428D01*
X140082242Y-96691428D02*
X140110814Y-96662857D01*
X140110814Y-96662857D02*
X140167957Y-96634285D01*
X140167957Y-96634285D02*
X140282242Y-96605714D01*
X140282242Y-96605714D02*
X140425100Y-96605714D01*
X140425100Y-96605714D02*
X140539385Y-96634285D01*
X140539385Y-96634285D02*
X140596528Y-96662857D01*
X140596528Y-96662857D02*
X140625100Y-96691428D01*
X140625100Y-96691428D02*
X140653671Y-96748571D01*
X140653671Y-96748571D02*
X140653671Y-96805714D01*
X140653671Y-96805714D02*
X140625100Y-96862857D01*
X140625100Y-96862857D02*
X140596528Y-96891428D01*
X140596528Y-96891428D02*
X140539385Y-96919999D01*
X140539385Y-96919999D02*
X140425100Y-96948571D01*
X140425100Y-96948571D02*
X140282242Y-96948571D01*
X140282242Y-96948571D02*
X140167957Y-96919999D01*
X140167957Y-96919999D02*
X140110814Y-96891428D01*
X140110814Y-96891428D02*
X140082242Y-96862857D01*
X140082242Y-96862857D02*
X140053671Y-96805714D01*
X140596528Y-96348570D02*
X140625100Y-96319999D01*
X140625100Y-96319999D02*
X140653671Y-96348570D01*
X140653671Y-96348570D02*
X140625100Y-96377142D01*
X140625100Y-96377142D02*
X140596528Y-96348570D01*
X140596528Y-96348570D02*
X140653671Y-96348570D01*
X140653671Y-95748571D02*
X140653671Y-96091428D01*
X140653671Y-95919999D02*
X140053671Y-95919999D01*
X140053671Y-95919999D02*
X140139385Y-95977142D01*
X140139385Y-95977142D02*
X140196528Y-96034285D01*
X140196528Y-96034285D02*
X140225100Y-96091428D01*
X140253671Y-95234285D02*
X140653671Y-95234285D01*
X140253671Y-95491427D02*
X140567957Y-95491427D01*
X140567957Y-95491427D02*
X140625100Y-95462856D01*
X140625100Y-95462856D02*
X140653671Y-95405713D01*
X140653671Y-95405713D02*
X140653671Y-95319999D01*
X140653671Y-95319999D02*
X140625100Y-95262856D01*
X140625100Y-95262856D02*
X140596528Y-95234285D01*
X140339385Y-94748570D02*
X140339385Y-94948570D01*
X140653671Y-94948570D02*
X140053671Y-94948570D01*
X140053671Y-94948570D02*
X140053671Y-94662856D01*
D13*
X141543832Y-95886666D02*
X141562880Y-95905714D01*
X141562880Y-95905714D02*
X141581927Y-95962856D01*
X141581927Y-95962856D02*
X141581927Y-96000952D01*
X141581927Y-96000952D02*
X141562880Y-96058095D01*
X141562880Y-96058095D02*
X141524784Y-96096190D01*
X141524784Y-96096190D02*
X141486689Y-96115237D01*
X141486689Y-96115237D02*
X141410499Y-96134285D01*
X141410499Y-96134285D02*
X141353356Y-96134285D01*
X141353356Y-96134285D02*
X141277165Y-96115237D01*
X141277165Y-96115237D02*
X141239070Y-96096190D01*
X141239070Y-96096190D02*
X141200975Y-96058095D01*
X141200975Y-96058095D02*
X141181927Y-96000952D01*
X141181927Y-96000952D02*
X141181927Y-95962856D01*
X141181927Y-95962856D02*
X141200975Y-95905714D01*
X141200975Y-95905714D02*
X141220022Y-95886666D01*
X141181927Y-95753333D02*
X141181927Y-95505714D01*
X141181927Y-95505714D02*
X141334308Y-95639047D01*
X141334308Y-95639047D02*
X141334308Y-95581904D01*
X141334308Y-95581904D02*
X141353356Y-95543809D01*
X141353356Y-95543809D02*
X141372403Y-95524761D01*
X141372403Y-95524761D02*
X141410499Y-95505714D01*
X141410499Y-95505714D02*
X141505737Y-95505714D01*
X141505737Y-95505714D02*
X141543832Y-95524761D01*
X141543832Y-95524761D02*
X141562880Y-95543809D01*
X141562880Y-95543809D02*
X141581927Y-95581904D01*
X141581927Y-95581904D02*
X141581927Y-95696190D01*
X141581927Y-95696190D02*
X141562880Y-95734285D01*
X141562880Y-95734285D02*
X141543832Y-95753333D01*
D10*
X176238095Y-90404819D02*
X176238095Y-89404819D01*
X176238095Y-89881009D02*
X176809523Y-89881009D01*
X176809523Y-90404819D02*
X176809523Y-89404819D01*
X177809523Y-90404819D02*
X177238095Y-90404819D01*
X177523809Y-90404819D02*
X177523809Y-89404819D01*
X177523809Y-89404819D02*
X177428571Y-89547676D01*
X177428571Y-89547676D02*
X177333333Y-89642914D01*
X177333333Y-89642914D02*
X177238095Y-89690533D01*
D12*
X143673671Y-96462857D02*
X143673671Y-96805714D01*
X143673671Y-96634285D02*
X143073671Y-96634285D01*
X143073671Y-96634285D02*
X143159385Y-96691428D01*
X143159385Y-96691428D02*
X143216528Y-96748571D01*
X143216528Y-96748571D02*
X143245100Y-96805714D01*
X143073671Y-96091428D02*
X143073671Y-96034285D01*
X143073671Y-96034285D02*
X143102242Y-95977142D01*
X143102242Y-95977142D02*
X143130814Y-95948571D01*
X143130814Y-95948571D02*
X143187957Y-95919999D01*
X143187957Y-95919999D02*
X143302242Y-95891428D01*
X143302242Y-95891428D02*
X143445100Y-95891428D01*
X143445100Y-95891428D02*
X143559385Y-95919999D01*
X143559385Y-95919999D02*
X143616528Y-95948571D01*
X143616528Y-95948571D02*
X143645100Y-95977142D01*
X143645100Y-95977142D02*
X143673671Y-96034285D01*
X143673671Y-96034285D02*
X143673671Y-96091428D01*
X143673671Y-96091428D02*
X143645100Y-96148571D01*
X143645100Y-96148571D02*
X143616528Y-96177142D01*
X143616528Y-96177142D02*
X143559385Y-96205713D01*
X143559385Y-96205713D02*
X143445100Y-96234285D01*
X143445100Y-96234285D02*
X143302242Y-96234285D01*
X143302242Y-96234285D02*
X143187957Y-96205713D01*
X143187957Y-96205713D02*
X143130814Y-96177142D01*
X143130814Y-96177142D02*
X143102242Y-96148571D01*
X143102242Y-96148571D02*
X143073671Y-96091428D01*
X143273671Y-95377142D02*
X143673671Y-95377142D01*
X143273671Y-95634284D02*
X143587957Y-95634284D01*
X143587957Y-95634284D02*
X143645100Y-95605713D01*
X143645100Y-95605713D02*
X143673671Y-95548570D01*
X143673671Y-95548570D02*
X143673671Y-95462856D01*
X143673671Y-95462856D02*
X143645100Y-95405713D01*
X143645100Y-95405713D02*
X143616528Y-95377142D01*
X143359385Y-94891427D02*
X143359385Y-95091427D01*
X143673671Y-95091427D02*
X143073671Y-95091427D01*
X143073671Y-95091427D02*
X143073671Y-94805713D01*
D13*
X144543832Y-95886666D02*
X144562880Y-95905714D01*
X144562880Y-95905714D02*
X144581927Y-95962856D01*
X144581927Y-95962856D02*
X144581927Y-96000952D01*
X144581927Y-96000952D02*
X144562880Y-96058095D01*
X144562880Y-96058095D02*
X144524784Y-96096190D01*
X144524784Y-96096190D02*
X144486689Y-96115237D01*
X144486689Y-96115237D02*
X144410499Y-96134285D01*
X144410499Y-96134285D02*
X144353356Y-96134285D01*
X144353356Y-96134285D02*
X144277165Y-96115237D01*
X144277165Y-96115237D02*
X144239070Y-96096190D01*
X144239070Y-96096190D02*
X144200975Y-96058095D01*
X144200975Y-96058095D02*
X144181927Y-96000952D01*
X144181927Y-96000952D02*
X144181927Y-95962856D01*
X144181927Y-95962856D02*
X144200975Y-95905714D01*
X144200975Y-95905714D02*
X144220022Y-95886666D01*
X144181927Y-95753333D02*
X144181927Y-95486666D01*
X144181927Y-95486666D02*
X144581927Y-95658095D01*
D20*
X142059641Y-100891665D02*
X141709641Y-100891665D01*
X141709641Y-100891665D02*
X141959641Y-100774999D01*
X141959641Y-100774999D02*
X141709641Y-100658332D01*
X141709641Y-100658332D02*
X142059641Y-100658332D01*
X142059641Y-100491665D02*
X141709641Y-100491665D01*
X141709641Y-100491665D02*
X141959641Y-100374999D01*
X141959641Y-100374999D02*
X141709641Y-100258332D01*
X141709641Y-100258332D02*
X142059641Y-100258332D01*
X141876308Y-99974999D02*
X141892975Y-99924999D01*
X141892975Y-99924999D02*
X141909641Y-99908332D01*
X141909641Y-99908332D02*
X141942975Y-99891665D01*
X141942975Y-99891665D02*
X141992975Y-99891665D01*
X141992975Y-99891665D02*
X142026308Y-99908332D01*
X142026308Y-99908332D02*
X142042975Y-99924999D01*
X142042975Y-99924999D02*
X142059641Y-99958332D01*
X142059641Y-99958332D02*
X142059641Y-100091665D01*
X142059641Y-100091665D02*
X141709641Y-100091665D01*
X141709641Y-100091665D02*
X141709641Y-99974999D01*
X141709641Y-99974999D02*
X141726308Y-99941665D01*
X141726308Y-99941665D02*
X141742975Y-99924999D01*
X141742975Y-99924999D02*
X141776308Y-99908332D01*
X141776308Y-99908332D02*
X141809641Y-99908332D01*
X141809641Y-99908332D02*
X141842975Y-99924999D01*
X141842975Y-99924999D02*
X141859641Y-99941665D01*
X141859641Y-99941665D02*
X141876308Y-99974999D01*
X141876308Y-99974999D02*
X141876308Y-100091665D01*
X141709641Y-99791665D02*
X141709641Y-99591665D01*
X142059641Y-99691665D02*
X141709641Y-99691665D01*
X141826308Y-99324998D02*
X142059641Y-99324998D01*
X141692975Y-99408332D02*
X141942975Y-99491665D01*
X141942975Y-99491665D02*
X141942975Y-99274998D01*
X141826308Y-98991665D02*
X142059641Y-98991665D01*
X141692975Y-99074999D02*
X141942975Y-99158332D01*
X141942975Y-99158332D02*
X141942975Y-98941665D01*
X141709641Y-98741666D02*
X141709641Y-98708332D01*
X141709641Y-98708332D02*
X141726308Y-98674999D01*
X141726308Y-98674999D02*
X141742975Y-98658332D01*
X141742975Y-98658332D02*
X141776308Y-98641666D01*
X141776308Y-98641666D02*
X141842975Y-98624999D01*
X141842975Y-98624999D02*
X141926308Y-98624999D01*
X141926308Y-98624999D02*
X141992975Y-98641666D01*
X141992975Y-98641666D02*
X142026308Y-98658332D01*
X142026308Y-98658332D02*
X142042975Y-98674999D01*
X142042975Y-98674999D02*
X142059641Y-98708332D01*
X142059641Y-98708332D02*
X142059641Y-98741666D01*
X142059641Y-98741666D02*
X142042975Y-98774999D01*
X142042975Y-98774999D02*
X142026308Y-98791666D01*
X142026308Y-98791666D02*
X141992975Y-98808332D01*
X141992975Y-98808332D02*
X141926308Y-98824999D01*
X141926308Y-98824999D02*
X141842975Y-98824999D01*
X141842975Y-98824999D02*
X141776308Y-98808332D01*
X141776308Y-98808332D02*
X141742975Y-98791666D01*
X141742975Y-98791666D02*
X141726308Y-98774999D01*
X141726308Y-98774999D02*
X141709641Y-98741666D01*
X141709641Y-98508333D02*
X141709641Y-98291666D01*
X141709641Y-98291666D02*
X141842975Y-98408333D01*
X141842975Y-98408333D02*
X141842975Y-98358333D01*
X141842975Y-98358333D02*
X141859641Y-98324999D01*
X141859641Y-98324999D02*
X141876308Y-98308333D01*
X141876308Y-98308333D02*
X141909641Y-98291666D01*
X141909641Y-98291666D02*
X141992975Y-98291666D01*
X141992975Y-98291666D02*
X142026308Y-98308333D01*
X142026308Y-98308333D02*
X142042975Y-98324999D01*
X142042975Y-98324999D02*
X142059641Y-98358333D01*
X142059641Y-98358333D02*
X142059641Y-98458333D01*
X142059641Y-98458333D02*
X142042975Y-98491666D01*
X142042975Y-98491666D02*
X142026308Y-98508333D01*
D16*
X141911904Y-105512447D02*
X141683333Y-105512447D01*
X141797619Y-105512447D02*
X141797619Y-105112447D01*
X141797619Y-105112447D02*
X141759523Y-105169590D01*
X141759523Y-105169590D02*
X141721428Y-105207685D01*
X141721428Y-105207685D02*
X141683333Y-105226733D01*
X142064285Y-105150542D02*
X142083333Y-105131495D01*
X142083333Y-105131495D02*
X142121428Y-105112447D01*
X142121428Y-105112447D02*
X142216666Y-105112447D01*
X142216666Y-105112447D02*
X142254761Y-105131495D01*
X142254761Y-105131495D02*
X142273809Y-105150542D01*
X142273809Y-105150542D02*
X142292856Y-105188638D01*
X142292856Y-105188638D02*
X142292856Y-105226733D01*
X142292856Y-105226733D02*
X142273809Y-105283876D01*
X142273809Y-105283876D02*
X142045237Y-105512447D01*
X142045237Y-105512447D02*
X142292856Y-105512447D01*
X142464285Y-105512447D02*
X142464285Y-105112447D01*
X142502380Y-105360066D02*
X142616666Y-105512447D01*
X142616666Y-105245780D02*
X142464285Y-105398161D01*
D13*
X142084433Y-104550527D02*
X141951100Y-104360051D01*
X141855862Y-104550527D02*
X141855862Y-104150527D01*
X141855862Y-104150527D02*
X142008243Y-104150527D01*
X142008243Y-104150527D02*
X142046338Y-104169575D01*
X142046338Y-104169575D02*
X142065385Y-104188622D01*
X142065385Y-104188622D02*
X142084433Y-104226718D01*
X142084433Y-104226718D02*
X142084433Y-104283860D01*
X142084433Y-104283860D02*
X142065385Y-104321956D01*
X142065385Y-104321956D02*
X142046338Y-104341003D01*
X142046338Y-104341003D02*
X142008243Y-104360051D01*
X142008243Y-104360051D02*
X141855862Y-104360051D01*
X142465385Y-104550527D02*
X142236814Y-104550527D01*
X142351100Y-104550527D02*
X142351100Y-104150527D01*
X142351100Y-104150527D02*
X142313004Y-104207670D01*
X142313004Y-104207670D02*
X142274909Y-104245765D01*
X142274909Y-104245765D02*
X142236814Y-104264813D01*
D15*
X143545000Y-89730000D02*
X143545000Y-86230000D01*
X144595000Y-85230000D02*
X144595000Y-86230000D01*
X147195000Y-85230000D02*
X144595000Y-85230000D01*
X147195000Y-85230000D02*
X147195000Y-86230000D01*
X148245000Y-86230000D02*
X143545000Y-86230000D01*
X148245000Y-89730000D02*
X143545000Y-89730000D01*
X148245000Y-89730000D02*
X148245000Y-86230000D01*
X151375000Y-96620000D02*
X150575000Y-96620000D01*
X151375000Y-95020000D02*
X151375000Y-96620000D01*
X150575000Y-96620000D02*
X150575000Y-95020000D01*
X150575000Y-95020000D02*
X151375000Y-95020000D01*
X148375000Y-96620000D02*
X147575000Y-96620000D01*
X148375000Y-95020000D02*
X148375000Y-96620000D01*
X147575000Y-96620000D02*
X147575000Y-95020000D01*
X147575000Y-95020000D02*
X148375000Y-95020000D01*
X151200000Y-113575000D02*
X145200000Y-113575000D01*
X151200000Y-114575000D02*
X145200000Y-114575000D01*
X151200000Y-116175000D02*
X145200000Y-116175000D01*
X151200000Y-117175000D02*
X145200000Y-117175000D01*
X151700000Y-114075000D02*
G75*
G02*
X150700000Y-114075000I-500000J0D01*
G01*
X150700000Y-114075000D02*
G75*
G02*
X151700000Y-114075000I500000J0D01*
G01*
X145700000Y-114075000D02*
G75*
G02*
X144700000Y-114075000I-500000J0D01*
G01*
X144700000Y-114075000D02*
G75*
G02*
X145700000Y-114075000I500000J0D01*
G01*
X151700000Y-116675000D02*
G75*
G02*
X150700000Y-116675000I-500000J0D01*
G01*
X150700000Y-116675000D02*
G75*
G02*
X151700000Y-116675000I500000J0D01*
G01*
X145700000Y-116675000D02*
G75*
G02*
X144700000Y-116675000I-500000J0D01*
G01*
X144700000Y-116675000D02*
G75*
G02*
X145700000Y-116675000I500000J0D01*
G01*
X177055000Y-94520000D02*
X179595000Y-94520000D01*
X177055000Y-109760000D02*
X177055000Y-94520000D01*
X178960000Y-109760000D02*
X177055000Y-109760000D01*
X179595000Y-94520000D02*
X179595000Y-109125000D01*
X179595000Y-109125000D02*
X178960000Y-109760000D01*
X168250000Y-90650000D02*
X168250000Y-86250000D01*
X168250000Y-90650000D02*
X159650000Y-90650000D01*
X168250000Y-86250000D02*
X159650000Y-86250000D01*
X165950000Y-82250000D02*
X165950000Y-86250000D01*
X163950000Y-86250000D02*
X163950000Y-82250000D01*
X163950000Y-82250000D02*
X165950000Y-82250000D01*
X159650000Y-86250000D02*
X159650000Y-90650000D01*
X146551100Y-112388600D02*
X144951100Y-112388600D01*
X146551100Y-111588600D02*
X146551100Y-112388600D01*
X144951100Y-112388600D02*
X144951100Y-111588600D01*
X144951100Y-111588600D02*
X146551100Y-111588600D01*
X134630000Y-95965000D02*
X135265000Y-95330000D01*
X134630000Y-108030000D02*
X134630000Y-95965000D01*
X135265000Y-95330000D02*
X137170000Y-95330000D01*
X137170000Y-95330000D02*
X137170000Y-108030000D01*
X137170000Y-108030000D02*
X134630000Y-108030000D01*
X140990000Y-91125000D02*
X141810000Y-91125000D01*
X140990000Y-92725000D02*
X140990000Y-91125000D01*
X141810000Y-91125000D02*
X141810000Y-92725000D01*
X141810000Y-92725000D02*
X140990000Y-92725000D01*
X141351100Y-105863600D02*
X142951100Y-105863600D01*
X141351100Y-106683600D02*
X141351100Y-105863600D01*
X142951100Y-105863600D02*
X142951100Y-106683600D01*
X142951100Y-106683600D02*
X141351100Y-106683600D01*
X171810000Y-94390000D02*
X172630000Y-94390000D01*
X171810000Y-95990000D02*
X171810000Y-94390000D01*
X172630000Y-94390000D02*
X172630000Y-95990000D01*
X172630000Y-95990000D02*
X171810000Y-95990000D01*
X152625000Y-100525000D02*
X153425000Y-100525000D01*
X152625000Y-102125000D02*
X152625000Y-100525000D01*
X153425000Y-100525000D02*
X153425000Y-102125000D01*
X153425000Y-102125000D02*
X152625000Y-102125000D01*
D13*
X152480000Y-85354208D02*
G75*
G02*
X152420000Y-85354208I-30000J0D01*
G01*
X152420000Y-85354208D02*
G75*
G02*
X152480000Y-85354208I30000J0D01*
G01*
D15*
X169310000Y-94390000D02*
X170130000Y-94390000D01*
X169310000Y-95990000D02*
X169310000Y-94390000D01*
X170130000Y-94390000D02*
X170130000Y-95990000D01*
X170130000Y-95990000D02*
X169310000Y-95990000D01*
X146551100Y-101028600D02*
X147526100Y-100053600D01*
X146551100Y-109953600D02*
X146551100Y-101028600D01*
X147526100Y-100053600D02*
X150451100Y-100053600D01*
X150451100Y-100053600D02*
X150451100Y-109953600D01*
X150451100Y-109953600D02*
X146551100Y-109953600D01*
X166810000Y-94390000D02*
X167630000Y-94390000D01*
X166810000Y-95990000D02*
X166810000Y-94390000D01*
X167630000Y-94390000D02*
X167630000Y-95990000D01*
X167630000Y-95990000D02*
X166810000Y-95990000D01*
X141150000Y-102050000D02*
X143150000Y-102050000D01*
X141150000Y-102950000D02*
X141150000Y-102050000D01*
X143150000Y-102050000D02*
X143150000Y-102950000D01*
X143150000Y-102950000D02*
X141150000Y-102950000D01*
X141351100Y-107778600D02*
X142951100Y-107778600D01*
X141351100Y-108578600D02*
X141351100Y-107778600D01*
X142951100Y-107778600D02*
X142951100Y-108578600D01*
X142951100Y-108578600D02*
X141351100Y-108578600D01*
X141351100Y-109673600D02*
X142951100Y-109673600D01*
X141351100Y-110493600D02*
X141351100Y-109673600D01*
X142951100Y-109673600D02*
X142951100Y-110493600D01*
X142951100Y-110493600D02*
X141351100Y-110493600D01*
X141351100Y-111578600D02*
X142951100Y-111578600D01*
X141351100Y-112398600D02*
X141351100Y-111578600D01*
X142951100Y-111578600D02*
X142951100Y-112398600D01*
X142951100Y-112398600D02*
X141351100Y-112398600D01*
X141000000Y-95020000D02*
X141800000Y-95020000D01*
X141000000Y-96620000D02*
X141000000Y-95020000D01*
X141800000Y-95020000D02*
X141800000Y-96620000D01*
X141800000Y-96620000D02*
X141000000Y-96620000D01*
X173035000Y-117771500D02*
X155235000Y-117771500D01*
X155235000Y-96821500D01*
X173035000Y-96821500D01*
X173035000Y-117771500D01*
D21*
X172203000Y-116621500D02*
G75*
G02*
X171699000Y-116621500I-252000J0D01*
G01*
X171699000Y-116621500D02*
G75*
G02*
X172203000Y-116621500I252000J0D01*
G01*
D15*
X144000000Y-95020000D02*
X144800000Y-95020000D01*
X144000000Y-96620000D02*
X144000000Y-95020000D01*
X144800000Y-95020000D02*
X144800000Y-96620000D01*
X144800000Y-96620000D02*
X144000000Y-96620000D01*
X141100000Y-98150000D02*
X142700000Y-98150000D01*
X141100000Y-101050000D02*
X141100000Y-98150000D01*
X142300000Y-101050000D02*
X141100000Y-101050000D01*
X142700000Y-98150000D02*
X142700000Y-100650000D01*
X142700000Y-100650000D02*
X142300000Y-101050000D01*
X141351100Y-103956100D02*
X142951100Y-103956100D01*
X141351100Y-104781100D02*
X141351100Y-103956100D01*
X142951100Y-103956100D02*
X142951100Y-104781100D01*
X142951100Y-104781100D02*
X141351100Y-104781100D01*
D22*
X133000000Y-86000000D02*
X181000000Y-86000000D01*
X181000000Y-118000000D01*
X133000000Y-118000000D01*
X133000000Y-86000000D01*
M02*
