G04 #@! TF.GenerationSoftware,KiCad,Pcbnew,9.0.2*
G04 #@! TF.CreationDate,2025-09-03T17:26:11+01:00*
G04 #@! TF.ProjectId,mito,6d69746f-2e6b-4696-9361-645f70636258,rev?*
G04 #@! TF.SameCoordinates,Original*
G04 #@! TF.FileFunction,Legend,Top*
G04 #@! TF.FilePolarity,Positive*
%FSLAX46Y46*%
G04 Gerber Fmt 4.6, Leading zero omitted, Abs format (unit mm)*
G04 Created by KiCad (PCBNEW 9.0.2) date 2025-09-03 17:26:11*
%MOMM*%
%LPD*%
G01*
G04 APERTURE LIST*
G04 Aperture macros list*
%AMRoundRect*
0 Rectangle with rounded corners*
0 $1 Rounding radius*
0 $2 $3 $4 $5 $6 $7 $8 $9 X,Y pos of 4 corners*
0 Add a 4 corners polygon primitive as box body*
4,1,4,$2,$3,$4,$5,$6,$7,$8,$9,$2,$3,0*
0 Add four circle primitives for the rounded corners*
1,1,$1+$1,$2,$3*
1,1,$1+$1,$4,$5*
1,1,$1+$1,$6,$7*
1,1,$1+$1,$8,$9*
0 Add four rect primitives between the rounded corners*
20,1,$1+$1,$2,$3,$4,$5,0*
20,1,$1+$1,$4,$5,$6,$7,0*
20,1,$1+$1,$6,$7,$8,$9,0*
20,1,$1+$1,$8,$9,$2,$3,0*%
G04 Aperture macros list end*
%ADD10C,0.100000*%
%ADD11C,0.150000*%
%ADD12C,0.125000*%
%ADD13C,0.106680*%
%ADD14C,0.120000*%
%ADD15C,0.250000*%
%ADD16C,0.127000*%
%ADD17C,0.504000*%
%ADD18R,1.550000X1.000000*%
%ADD19RoundRect,0.244000X0.269000X-0.244000X0.269000X0.244000X-0.269000X0.244000X-0.269000X-0.244000X0*%
%ADD20C,1.500000*%
%ADD21RoundRect,0.250000X-0.550000X0.550000X-0.550000X-0.550000X0.550000X-0.550000X0.550000X0.550000X0*%
%ADD22C,1.600000*%
%ADD23C,1.700000*%
%ADD24O,2.200000X3.500000*%
%ADD25R,1.500000X2.500000*%
%ADD26O,1.500000X2.500000*%
%ADD27RoundRect,0.244000X0.244000X0.269000X-0.244000X0.269000X-0.244000X-0.269000X0.244000X-0.269000X0*%
%ADD28RoundRect,0.219000X-0.294000X0.219000X-0.294000X-0.219000X0.294000X-0.219000X0.294000X0.219000X0*%
%ADD29RoundRect,0.219000X-0.219000X-0.294000X0.219000X-0.294000X0.219000X0.294000X-0.219000X0.294000X0*%
%ADD30RoundRect,0.244000X-0.269000X0.244000X-0.269000X-0.244000X0.269000X-0.244000X0.269000X0.244000X0*%
%ADD31R,1.500000X1.000000*%
%ADD32R,0.500000X0.800000*%
%ADD33C,3.600000*%
%ADD34C,5.600000*%
%ADD35RoundRect,0.150000X-0.825000X-0.150000X0.825000X-0.150000X0.825000X0.150000X-0.825000X0.150000X0*%
%ADD36RoundRect,0.220000X-0.220000X-0.380000X0.220000X-0.380000X0.220000X0.380000X-0.220000X0.380000X0*%
%ADD37RoundRect,0.244000X-0.244000X-0.269000X0.244000X-0.269000X0.244000X0.269000X-0.244000X0.269000X0*%
%ADD38RoundRect,0.525400X0.900400X0.525400X-0.900400X0.525400X-0.900400X-0.525400X0.900400X-0.525400X0*%
%ADD39RoundRect,0.300400X-1.000400X-0.300400X1.000400X-0.300400X1.000400X0.300400X-1.000400X0.300400X0*%
%ADD40RoundRect,0.300400X0.300400X-1.000400X0.300400X1.000400X-0.300400X1.000400X-0.300400X-1.000400X0*%
%ADD41RoundRect,0.150000X0.512500X0.150000X-0.512500X0.150000X-0.512500X-0.150000X0.512500X-0.150000X0*%
%ADD42RoundRect,0.200000X-0.200000X-0.275000X0.200000X-0.275000X0.200000X0.275000X-0.200000X0.275000X0*%
G04 #@! TA.AperFunction,Profile*
%ADD43C,0.050000*%
G04 #@! TD*
G04 APERTURE END LIST*
D10*
X143377847Y-116977068D02*
X143415942Y-116862782D01*
X143415942Y-116862782D02*
X143454038Y-116824687D01*
X143454038Y-116824687D02*
X143530228Y-116786591D01*
X143530228Y-116786591D02*
X143644514Y-116786591D01*
X143644514Y-116786591D02*
X143720704Y-116824687D01*
X143720704Y-116824687D02*
X143758800Y-116862782D01*
X143758800Y-116862782D02*
X143796895Y-116938972D01*
X143796895Y-116938972D02*
X143796895Y-117243734D01*
X143796895Y-117243734D02*
X142996895Y-117243734D01*
X142996895Y-117243734D02*
X142996895Y-116977068D01*
X142996895Y-116977068D02*
X143034990Y-116900877D01*
X143034990Y-116900877D02*
X143073085Y-116862782D01*
X143073085Y-116862782D02*
X143149276Y-116824687D01*
X143149276Y-116824687D02*
X143225466Y-116824687D01*
X143225466Y-116824687D02*
X143301657Y-116862782D01*
X143301657Y-116862782D02*
X143339752Y-116900877D01*
X143339752Y-116900877D02*
X143377847Y-116977068D01*
X143377847Y-116977068D02*
X143377847Y-117243734D01*
X143796895Y-116100877D02*
X143377847Y-116100877D01*
X143377847Y-116100877D02*
X143301657Y-116138972D01*
X143301657Y-116138972D02*
X143263561Y-116215163D01*
X143263561Y-116215163D02*
X143263561Y-116367544D01*
X143263561Y-116367544D02*
X143301657Y-116443734D01*
X143758800Y-116100877D02*
X143796895Y-116177068D01*
X143796895Y-116177068D02*
X143796895Y-116367544D01*
X143796895Y-116367544D02*
X143758800Y-116443734D01*
X143758800Y-116443734D02*
X143682609Y-116481830D01*
X143682609Y-116481830D02*
X143606419Y-116481830D01*
X143606419Y-116481830D02*
X143530228Y-116443734D01*
X143530228Y-116443734D02*
X143492133Y-116367544D01*
X143492133Y-116367544D02*
X143492133Y-116177068D01*
X143492133Y-116177068D02*
X143454038Y-116100877D01*
X143263561Y-115834210D02*
X143263561Y-115529448D01*
X142996895Y-115719924D02*
X143682609Y-115719924D01*
X143682609Y-115719924D02*
X143758800Y-115681829D01*
X143758800Y-115681829D02*
X143796895Y-115605639D01*
X143796895Y-115605639D02*
X143796895Y-115529448D01*
X143263561Y-115377067D02*
X143263561Y-115072305D01*
X142996895Y-115262781D02*
X143682609Y-115262781D01*
X143682609Y-115262781D02*
X143758800Y-115224686D01*
X143758800Y-115224686D02*
X143796895Y-115148496D01*
X143796895Y-115148496D02*
X143796895Y-115072305D01*
X143758800Y-114500876D02*
X143796895Y-114577067D01*
X143796895Y-114577067D02*
X143796895Y-114729448D01*
X143796895Y-114729448D02*
X143758800Y-114805638D01*
X143758800Y-114805638D02*
X143682609Y-114843734D01*
X143682609Y-114843734D02*
X143377847Y-114843734D01*
X143377847Y-114843734D02*
X143301657Y-114805638D01*
X143301657Y-114805638D02*
X143263561Y-114729448D01*
X143263561Y-114729448D02*
X143263561Y-114577067D01*
X143263561Y-114577067D02*
X143301657Y-114500876D01*
X143301657Y-114500876D02*
X143377847Y-114462781D01*
X143377847Y-114462781D02*
X143454038Y-114462781D01*
X143454038Y-114462781D02*
X143530228Y-114843734D01*
X143796895Y-114119924D02*
X143263561Y-114119924D01*
X143415942Y-114119924D02*
X143339752Y-114081829D01*
X143339752Y-114081829D02*
X143301657Y-114043734D01*
X143301657Y-114043734D02*
X143263561Y-113967543D01*
X143263561Y-113967543D02*
X143263561Y-113891353D01*
X143263561Y-113700877D02*
X143796895Y-113510401D01*
X143263561Y-113319924D02*
X143796895Y-113510401D01*
X143796895Y-113510401D02*
X143987371Y-113586591D01*
X143987371Y-113586591D02*
X144025466Y-113624686D01*
X144025466Y-113624686D02*
X144063561Y-113700877D01*
D11*
X152686779Y-114038866D02*
X153448684Y-114038866D01*
X153067731Y-114419819D02*
X153067731Y-113657914D01*
X153413220Y-116695150D02*
X152651316Y-116695150D01*
D10*
X153650477Y-114050000D02*
G75*
G02*
X152449523Y-114050000I-600477J0D01*
G01*
X152449523Y-114050000D02*
G75*
G02*
X153650477Y-114050000I600477J0D01*
G01*
D12*
X174196521Y-95395595D02*
X174691759Y-95395595D01*
X174691759Y-95395595D02*
X174425093Y-95700357D01*
X174425093Y-95700357D02*
X174539378Y-95700357D01*
X174539378Y-95700357D02*
X174615569Y-95738452D01*
X174615569Y-95738452D02*
X174653664Y-95776547D01*
X174653664Y-95776547D02*
X174691759Y-95852738D01*
X174691759Y-95852738D02*
X174691759Y-96043214D01*
X174691759Y-96043214D02*
X174653664Y-96119404D01*
X174653664Y-96119404D02*
X174615569Y-96157500D01*
X174615569Y-96157500D02*
X174539378Y-96195595D01*
X174539378Y-96195595D02*
X174310807Y-96195595D01*
X174310807Y-96195595D02*
X174234616Y-96157500D01*
X174234616Y-96157500D02*
X174196521Y-96119404D01*
X175034617Y-96119404D02*
X175072712Y-96157500D01*
X175072712Y-96157500D02*
X175034617Y-96195595D01*
X175034617Y-96195595D02*
X174996521Y-96157500D01*
X174996521Y-96157500D02*
X175034617Y-96119404D01*
X175034617Y-96119404D02*
X175034617Y-96195595D01*
X175339378Y-95395595D02*
X175834616Y-95395595D01*
X175834616Y-95395595D02*
X175567950Y-95700357D01*
X175567950Y-95700357D02*
X175682235Y-95700357D01*
X175682235Y-95700357D02*
X175758426Y-95738452D01*
X175758426Y-95738452D02*
X175796521Y-95776547D01*
X175796521Y-95776547D02*
X175834616Y-95852738D01*
X175834616Y-95852738D02*
X175834616Y-96043214D01*
X175834616Y-96043214D02*
X175796521Y-96119404D01*
X175796521Y-96119404D02*
X175758426Y-96157500D01*
X175758426Y-96157500D02*
X175682235Y-96195595D01*
X175682235Y-96195595D02*
X175453664Y-96195595D01*
X175453664Y-96195595D02*
X175377473Y-96157500D01*
X175377473Y-96157500D02*
X175339378Y-96119404D01*
X176063188Y-95395595D02*
X176329855Y-96195595D01*
X176329855Y-96195595D02*
X176596521Y-95395595D01*
X174891759Y-98008690D02*
X174815569Y-97970595D01*
X174815569Y-97970595D02*
X174701283Y-97970595D01*
X174701283Y-97970595D02*
X174586997Y-98008690D01*
X174586997Y-98008690D02*
X174510807Y-98084880D01*
X174510807Y-98084880D02*
X174472712Y-98161071D01*
X174472712Y-98161071D02*
X174434616Y-98313452D01*
X174434616Y-98313452D02*
X174434616Y-98427738D01*
X174434616Y-98427738D02*
X174472712Y-98580119D01*
X174472712Y-98580119D02*
X174510807Y-98656309D01*
X174510807Y-98656309D02*
X174586997Y-98732500D01*
X174586997Y-98732500D02*
X174701283Y-98770595D01*
X174701283Y-98770595D02*
X174777474Y-98770595D01*
X174777474Y-98770595D02*
X174891759Y-98732500D01*
X174891759Y-98732500D02*
X174929855Y-98694404D01*
X174929855Y-98694404D02*
X174929855Y-98427738D01*
X174929855Y-98427738D02*
X174777474Y-98427738D01*
X175272712Y-98770595D02*
X175272712Y-97970595D01*
X175272712Y-97970595D02*
X175729855Y-98770595D01*
X175729855Y-98770595D02*
X175729855Y-97970595D01*
X176110807Y-98770595D02*
X176110807Y-97970595D01*
X176110807Y-97970595D02*
X176301283Y-97970595D01*
X176301283Y-97970595D02*
X176415569Y-98008690D01*
X176415569Y-98008690D02*
X176491759Y-98084880D01*
X176491759Y-98084880D02*
X176529854Y-98161071D01*
X176529854Y-98161071D02*
X176567950Y-98313452D01*
X176567950Y-98313452D02*
X176567950Y-98427738D01*
X176567950Y-98427738D02*
X176529854Y-98580119D01*
X176529854Y-98580119D02*
X176491759Y-98656309D01*
X176491759Y-98656309D02*
X176415569Y-98732500D01*
X176415569Y-98732500D02*
X176301283Y-98770595D01*
X176301283Y-98770595D02*
X176110807Y-98770595D01*
X175297712Y-103795595D02*
X175297712Y-102995595D01*
X175297712Y-102995595D02*
X175488188Y-102995595D01*
X175488188Y-102995595D02*
X175602474Y-103033690D01*
X175602474Y-103033690D02*
X175678664Y-103109880D01*
X175678664Y-103109880D02*
X175716759Y-103186071D01*
X175716759Y-103186071D02*
X175754855Y-103338452D01*
X175754855Y-103338452D02*
X175754855Y-103452738D01*
X175754855Y-103452738D02*
X175716759Y-103605119D01*
X175716759Y-103605119D02*
X175678664Y-103681309D01*
X175678664Y-103681309D02*
X175602474Y-103757500D01*
X175602474Y-103757500D02*
X175488188Y-103795595D01*
X175488188Y-103795595D02*
X175297712Y-103795595D01*
X176059616Y-103071785D02*
X176097712Y-103033690D01*
X176097712Y-103033690D02*
X176173902Y-102995595D01*
X176173902Y-102995595D02*
X176364378Y-102995595D01*
X176364378Y-102995595D02*
X176440569Y-103033690D01*
X176440569Y-103033690D02*
X176478664Y-103071785D01*
X176478664Y-103071785D02*
X176516759Y-103147976D01*
X176516759Y-103147976D02*
X176516759Y-103224166D01*
X176516759Y-103224166D02*
X176478664Y-103338452D01*
X176478664Y-103338452D02*
X176021521Y-103795595D01*
X176021521Y-103795595D02*
X176516759Y-103795595D01*
X175297712Y-101345595D02*
X175297712Y-100545595D01*
X175297712Y-100545595D02*
X175488188Y-100545595D01*
X175488188Y-100545595D02*
X175602474Y-100583690D01*
X175602474Y-100583690D02*
X175678664Y-100659880D01*
X175678664Y-100659880D02*
X175716759Y-100736071D01*
X175716759Y-100736071D02*
X175754855Y-100888452D01*
X175754855Y-100888452D02*
X175754855Y-101002738D01*
X175754855Y-101002738D02*
X175716759Y-101155119D01*
X175716759Y-101155119D02*
X175678664Y-101231309D01*
X175678664Y-101231309D02*
X175602474Y-101307500D01*
X175602474Y-101307500D02*
X175488188Y-101345595D01*
X175488188Y-101345595D02*
X175297712Y-101345595D01*
X176021521Y-100545595D02*
X176516759Y-100545595D01*
X176516759Y-100545595D02*
X176250093Y-100850357D01*
X176250093Y-100850357D02*
X176364378Y-100850357D01*
X176364378Y-100850357D02*
X176440569Y-100888452D01*
X176440569Y-100888452D02*
X176478664Y-100926547D01*
X176478664Y-100926547D02*
X176516759Y-101002738D01*
X176516759Y-101002738D02*
X176516759Y-101193214D01*
X176516759Y-101193214D02*
X176478664Y-101269404D01*
X176478664Y-101269404D02*
X176440569Y-101307500D01*
X176440569Y-101307500D02*
X176364378Y-101345595D01*
X176364378Y-101345595D02*
X176135807Y-101345595D01*
X176135807Y-101345595D02*
X176059616Y-101307500D01*
X176059616Y-101307500D02*
X176021521Y-101269404D01*
X175297712Y-106370595D02*
X175297712Y-105570595D01*
X175297712Y-105570595D02*
X175488188Y-105570595D01*
X175488188Y-105570595D02*
X175602474Y-105608690D01*
X175602474Y-105608690D02*
X175678664Y-105684880D01*
X175678664Y-105684880D02*
X175716759Y-105761071D01*
X175716759Y-105761071D02*
X175754855Y-105913452D01*
X175754855Y-105913452D02*
X175754855Y-106027738D01*
X175754855Y-106027738D02*
X175716759Y-106180119D01*
X175716759Y-106180119D02*
X175678664Y-106256309D01*
X175678664Y-106256309D02*
X175602474Y-106332500D01*
X175602474Y-106332500D02*
X175488188Y-106370595D01*
X175488188Y-106370595D02*
X175297712Y-106370595D01*
X176516759Y-106370595D02*
X176059616Y-106370595D01*
X176288188Y-106370595D02*
X176288188Y-105570595D01*
X176288188Y-105570595D02*
X176211997Y-105684880D01*
X176211997Y-105684880D02*
X176135807Y-105761071D01*
X176135807Y-105761071D02*
X176059616Y-105799166D01*
X175297712Y-108945595D02*
X175297712Y-108145595D01*
X175297712Y-108145595D02*
X175488188Y-108145595D01*
X175488188Y-108145595D02*
X175602474Y-108183690D01*
X175602474Y-108183690D02*
X175678664Y-108259880D01*
X175678664Y-108259880D02*
X175716759Y-108336071D01*
X175716759Y-108336071D02*
X175754855Y-108488452D01*
X175754855Y-108488452D02*
X175754855Y-108602738D01*
X175754855Y-108602738D02*
X175716759Y-108755119D01*
X175716759Y-108755119D02*
X175678664Y-108831309D01*
X175678664Y-108831309D02*
X175602474Y-108907500D01*
X175602474Y-108907500D02*
X175488188Y-108945595D01*
X175488188Y-108945595D02*
X175297712Y-108945595D01*
X176250093Y-108145595D02*
X176326283Y-108145595D01*
X176326283Y-108145595D02*
X176402474Y-108183690D01*
X176402474Y-108183690D02*
X176440569Y-108221785D01*
X176440569Y-108221785D02*
X176478664Y-108297976D01*
X176478664Y-108297976D02*
X176516759Y-108450357D01*
X176516759Y-108450357D02*
X176516759Y-108640833D01*
X176516759Y-108640833D02*
X176478664Y-108793214D01*
X176478664Y-108793214D02*
X176440569Y-108869404D01*
X176440569Y-108869404D02*
X176402474Y-108907500D01*
X176402474Y-108907500D02*
X176326283Y-108945595D01*
X176326283Y-108945595D02*
X176250093Y-108945595D01*
X176250093Y-108945595D02*
X176173902Y-108907500D01*
X176173902Y-108907500D02*
X176135807Y-108869404D01*
X176135807Y-108869404D02*
X176097712Y-108793214D01*
X176097712Y-108793214D02*
X176059616Y-108640833D01*
X176059616Y-108640833D02*
X176059616Y-108450357D01*
X176059616Y-108450357D02*
X176097712Y-108297976D01*
X176097712Y-108297976D02*
X176135807Y-108221785D01*
X176135807Y-108221785D02*
X176173902Y-108183690D01*
X176173902Y-108183690D02*
X176250093Y-108145595D01*
X137875331Y-99072309D02*
X138208664Y-99072309D01*
X138351521Y-99596119D02*
X137875331Y-99596119D01*
X137875331Y-99596119D02*
X137875331Y-98596119D01*
X137875331Y-98596119D02*
X138351521Y-98596119D01*
X138780093Y-99215166D02*
X139541998Y-99215166D01*
X137902712Y-104435404D02*
X138378902Y-104435404D01*
X137807474Y-104721119D02*
X138140807Y-103721119D01*
X138140807Y-103721119D02*
X138474140Y-104721119D01*
X138807474Y-104340166D02*
X139569379Y-104340166D01*
X139188426Y-104721119D02*
X139188426Y-103959214D01*
X137870331Y-96547309D02*
X138203664Y-96547309D01*
X138346521Y-97071119D02*
X137870331Y-97071119D01*
X137870331Y-97071119D02*
X137870331Y-96071119D01*
X137870331Y-96071119D02*
X138346521Y-96071119D01*
X138775093Y-96690166D02*
X139536998Y-96690166D01*
X139156045Y-97071119D02*
X139156045Y-96309214D01*
X137877712Y-101835404D02*
X138353902Y-101835404D01*
X137782474Y-102121119D02*
X138115807Y-101121119D01*
X138115807Y-101121119D02*
X138449140Y-102121119D01*
X138782474Y-101740166D02*
X139544379Y-101740166D01*
X137902712Y-107148500D02*
X138045569Y-107196119D01*
X138045569Y-107196119D02*
X138283664Y-107196119D01*
X138283664Y-107196119D02*
X138378902Y-107148500D01*
X138378902Y-107148500D02*
X138426521Y-107100880D01*
X138426521Y-107100880D02*
X138474140Y-107005642D01*
X138474140Y-107005642D02*
X138474140Y-106910404D01*
X138474140Y-106910404D02*
X138426521Y-106815166D01*
X138426521Y-106815166D02*
X138378902Y-106767547D01*
X138378902Y-106767547D02*
X138283664Y-106719928D01*
X138283664Y-106719928D02*
X138093188Y-106672309D01*
X138093188Y-106672309D02*
X137997950Y-106624690D01*
X137997950Y-106624690D02*
X137950331Y-106577071D01*
X137950331Y-106577071D02*
X137902712Y-106481833D01*
X137902712Y-106481833D02*
X137902712Y-106386595D01*
X137902712Y-106386595D02*
X137950331Y-106291357D01*
X137950331Y-106291357D02*
X137997950Y-106243738D01*
X137997950Y-106243738D02*
X138093188Y-106196119D01*
X138093188Y-106196119D02*
X138331283Y-106196119D01*
X138331283Y-106196119D02*
X138474140Y-106243738D01*
X138902712Y-107196119D02*
X138902712Y-106196119D01*
X138902712Y-106196119D02*
X139140807Y-106196119D01*
X139140807Y-106196119D02*
X139283664Y-106243738D01*
X139283664Y-106243738D02*
X139378902Y-106338976D01*
X139378902Y-106338976D02*
X139426521Y-106434214D01*
X139426521Y-106434214D02*
X139474140Y-106624690D01*
X139474140Y-106624690D02*
X139474140Y-106767547D01*
X139474140Y-106767547D02*
X139426521Y-106958023D01*
X139426521Y-106958023D02*
X139378902Y-107053261D01*
X139378902Y-107053261D02*
X139283664Y-107148500D01*
X139283664Y-107148500D02*
X139140807Y-107196119D01*
X139140807Y-107196119D02*
X138902712Y-107196119D01*
D10*
X153669004Y-116700000D02*
G75*
G02*
X152430996Y-116700000I-619004J0D01*
G01*
X152430996Y-116700000D02*
G75*
G02*
X153669004Y-116700000I619004J0D01*
G01*
D13*
X162841442Y-107653205D02*
X162841442Y-108286512D01*
X162841442Y-108286512D02*
X162878696Y-108361018D01*
X162878696Y-108361018D02*
X162915949Y-108398272D01*
X162915949Y-108398272D02*
X162990456Y-108435525D01*
X162990456Y-108435525D02*
X163139469Y-108435525D01*
X163139469Y-108435525D02*
X163213976Y-108398272D01*
X163213976Y-108398272D02*
X163251229Y-108361018D01*
X163251229Y-108361018D02*
X163288482Y-108286512D01*
X163288482Y-108286512D02*
X163288482Y-107653205D01*
X163623762Y-107727712D02*
X163661015Y-107690458D01*
X163661015Y-107690458D02*
X163735522Y-107653205D01*
X163735522Y-107653205D02*
X163921789Y-107653205D01*
X163921789Y-107653205D02*
X163996295Y-107690458D01*
X163996295Y-107690458D02*
X164033549Y-107727712D01*
X164033549Y-107727712D02*
X164070802Y-107802218D01*
X164070802Y-107802218D02*
X164070802Y-107876725D01*
X164070802Y-107876725D02*
X164033549Y-107988485D01*
X164033549Y-107988485D02*
X163586509Y-108435525D01*
X163586509Y-108435525D02*
X164070802Y-108435525D01*
D14*
X143445000Y-88255000D02*
X143445000Y-87705000D01*
X144470000Y-86130000D02*
X143545000Y-86130000D01*
X148245000Y-86130000D02*
X147320000Y-86130000D01*
X148245000Y-89830000D02*
X143545000Y-89830000D01*
X148345000Y-88255000D02*
X148345000Y-87705000D01*
X150140000Y-113465000D02*
X145810000Y-113465000D01*
X150140000Y-114685000D02*
X145810000Y-114685000D01*
X150140000Y-116065000D02*
X145810000Y-116065000D01*
X150140000Y-117285000D02*
X145810000Y-117285000D01*
X176945000Y-109790000D02*
X176945000Y-94410000D01*
X179705000Y-94410000D02*
X176945000Y-94410000D01*
X179705000Y-109790000D02*
X176945000Y-109790000D01*
X179705000Y-109790000D02*
X179705000Y-94410000D01*
X168250000Y-90750000D02*
X159650000Y-90750000D01*
X168250000Y-86150000D02*
X166050000Y-86150000D01*
X161950000Y-86150000D02*
X159650000Y-86150000D01*
X134520000Y-95300000D02*
X134520000Y-108140000D01*
X134520000Y-95300000D02*
X137280000Y-95300000D01*
X134520000Y-108140000D02*
X137280000Y-108140000D01*
X137280000Y-95300000D02*
X137280000Y-108140000D01*
D15*
X153290000Y-86364208D02*
X154830000Y-86364208D01*
X153223776Y-85885891D02*
G75*
G02*
X154960000Y-85894208I866224J-398317D01*
G01*
D14*
X148501100Y-99943600D02*
X146551100Y-99943600D01*
X148501100Y-99943600D02*
X150451100Y-99943600D01*
X148501100Y-110063600D02*
X146551100Y-110063600D01*
X148501100Y-110063600D02*
X150451100Y-110063600D01*
X145801100Y-99998600D02*
X145561100Y-99668600D01*
X146041100Y-99668600D01*
X145801100Y-99998600D01*
G36*
X145801100Y-99998600D02*
G01*
X145561100Y-99668600D01*
X146041100Y-99668600D01*
X145801100Y-99998600D01*
G37*
D11*
X141750000Y-101940000D02*
X142550000Y-101940000D01*
X141750000Y-103060000D02*
X142550000Y-103060000D01*
D10*
X155255000Y-98708500D02*
X155255000Y-115853500D01*
X157160000Y-117758500D02*
X171130000Y-117758500D01*
D16*
X159641000Y-118768500D02*
X159641000Y-117758500D01*
X168136272Y-119268500D02*
X160141000Y-119268500D01*
X168640000Y-117758500D02*
X168636272Y-118768772D01*
D10*
X171130000Y-96803500D02*
X157160000Y-96803500D01*
X173035000Y-98708500D02*
X173035000Y-115853500D01*
X155255000Y-98708500D02*
G75*
G02*
X157160000Y-96803500I1905000J0D01*
G01*
X157160000Y-117758500D02*
G75*
G02*
X155255000Y-115853500I50J1905050D01*
G01*
D16*
X160141000Y-119268500D02*
G75*
G02*
X159641000Y-118768500I100J500100D01*
G01*
X168636272Y-118768772D02*
G75*
G02*
X168136272Y-119268499I-500018J291D01*
G01*
D10*
X171130000Y-96803500D02*
G75*
G02*
X173035000Y-98708500I-1J-1905001D01*
G01*
X173035000Y-115857500D02*
G75*
G02*
X171130000Y-117762500I-1905001J1D01*
G01*
D17*
X172223000Y-116625500D02*
G75*
G02*
X171719000Y-116625500I-252000J0D01*
G01*
X171719000Y-116625500D02*
G75*
G02*
X172223000Y-116625500I252000J0D01*
G01*
X173497000Y-117342500D02*
G75*
G02*
X172993000Y-117342500I-252000J0D01*
G01*
X172993000Y-117342500D02*
G75*
G02*
X173497000Y-117342500I252000J0D01*
G01*
D14*
X141900000Y-98040000D02*
X141100000Y-98040000D01*
X141900000Y-98040000D02*
X142700000Y-98040000D01*
X141900000Y-101160000D02*
X141100000Y-101160000D01*
X141900000Y-101160000D02*
X142700000Y-101160000D01*
X143440000Y-101440000D02*
X142960000Y-101440000D01*
X143200000Y-101110000D01*
X143440000Y-101440000D01*
G36*
X143440000Y-101440000D02*
G01*
X142960000Y-101440000D01*
X143200000Y-101110000D01*
X143440000Y-101440000D01*
G37*
X141913842Y-103846100D02*
X142388358Y-103846100D01*
X141913842Y-104891100D02*
X142388358Y-104891100D01*
%LPC*%
D18*
X143270000Y-87130000D03*
X148520000Y-87130000D03*
X143270000Y-88830000D03*
X148520000Y-88830000D03*
D19*
X150975000Y-95040000D03*
X150975000Y-96600000D03*
X147975000Y-95040000D03*
X147975000Y-96600000D03*
D20*
X145200000Y-114075000D03*
X145200000Y-116675000D03*
D21*
X151200000Y-114075000D03*
D22*
X151200000Y-116675000D03*
D23*
X178325000Y-95790000D03*
X178325000Y-98330000D03*
X178325000Y-100870000D03*
X178325000Y-103410000D03*
X178325000Y-105950000D03*
X178325000Y-108490000D03*
D24*
X168050000Y-88450000D03*
X159850000Y-88450000D03*
D25*
X165950000Y-88450000D03*
D26*
X163950000Y-88450000D03*
X161950000Y-88450000D03*
D27*
X144971100Y-111988600D03*
X146531100Y-111988600D03*
D23*
X135900000Y-96600000D03*
X135900000Y-99140000D03*
X135900000Y-101680000D03*
X135900000Y-104220000D03*
X135900000Y-106760000D03*
D28*
X141400000Y-91105000D03*
X141400000Y-92745000D03*
D29*
X141331100Y-106273600D03*
X142971100Y-106273600D03*
D28*
X172220000Y-94370000D03*
X172220000Y-96010000D03*
D30*
X153025000Y-100545000D03*
X153025000Y-102105000D03*
D31*
X152310000Y-86614208D03*
D32*
X153660000Y-87114208D03*
X154460000Y-87114208D03*
D31*
X155810000Y-86614208D03*
D33*
X137000000Y-113950000D03*
D34*
X137000000Y-113950000D03*
D28*
X169720000Y-94370000D03*
X169720000Y-96010000D03*
D35*
X146026100Y-100558600D03*
X146026100Y-101828600D03*
X146026100Y-103098600D03*
X146026100Y-104368600D03*
X146026100Y-105638600D03*
X146026100Y-106908600D03*
X146026100Y-108178600D03*
X146026100Y-109448600D03*
X150976100Y-109448600D03*
X150976100Y-108178600D03*
X150976100Y-106908600D03*
X150976100Y-105638600D03*
X150976100Y-104368600D03*
X150976100Y-103098600D03*
X150976100Y-101828600D03*
X150976100Y-100558600D03*
D33*
X177000000Y-113950000D03*
D34*
X177000000Y-113950000D03*
D33*
X137000000Y-89950000D03*
D34*
X137000000Y-89950000D03*
D28*
X167220000Y-94370000D03*
X167220000Y-96010000D03*
D36*
X141090000Y-102500000D03*
X143210000Y-102500000D03*
D37*
X141371100Y-108178600D03*
X142931100Y-108178600D03*
D29*
X141331100Y-110083600D03*
X142971100Y-110083600D03*
X141331100Y-111988600D03*
X142971100Y-111988600D03*
D19*
X141400000Y-96600000D03*
X141400000Y-95040000D03*
D33*
X177000000Y-89950000D03*
D34*
X177000000Y-89950000D03*
D38*
X172200000Y-114841500D03*
X172200000Y-112301500D03*
X172200000Y-109761500D03*
X172200000Y-107221500D03*
X172200000Y-104681500D03*
X172200000Y-102141500D03*
X172200000Y-99601500D03*
X156035000Y-99601500D03*
X156035000Y-102141500D03*
X156035000Y-104681500D03*
X156035000Y-107221500D03*
X156035000Y-109761500D03*
X156035000Y-112301500D03*
X156035000Y-114841500D03*
D39*
X168590000Y-107535000D03*
X168590000Y-109440000D03*
D40*
X160335000Y-97984600D03*
X158430000Y-97984600D03*
D23*
X165415000Y-115790000D03*
X162875000Y-115790000D03*
X165415000Y-113250000D03*
X162875000Y-113250000D03*
D19*
X144400000Y-96600000D03*
X144400000Y-95040000D03*
D41*
X143037500Y-100550000D03*
X143037500Y-98650000D03*
X140762500Y-99600000D03*
D42*
X141326100Y-104368600D03*
X142976100Y-104368600D03*
%LPD*%
D43*
X133000000Y-86000000D02*
X181000000Y-86000000D01*
X181000000Y-118000000D01*
X133000000Y-118000000D01*
X133000000Y-86000000D01*
M02*
